<svg width="47" height="47" viewBox="0 0 47 47" fill="none" xmlns="http://www.w3.org/2000/svg">
<path fill-rule="evenodd" clip-rule="evenodd" d="M23.1026 46.2053C35.8619 46.2053 46.2053 35.8619 46.2053 23.1026C46.2053 10.3434 35.8619 0 23.1026 0C10.3434 0 0 10.3434 0 23.1026C0 35.8619 10.3434 46.2053 23.1026 46.2053ZM27.4062 11.8204C29.5566 12.184 31.613 12.8235 33.5315 13.6887C33.5482 13.6954 33.562 13.7078 33.5704 13.7238C36.9697 18.6416 38.6474 24.1914 38.0205 30.5788C38.019 30.5923 38.0146 30.6053 38.0077 30.617C38.0008 30.6286 37.9915 30.6387 37.9803 30.6465C35.7002 32.3076 33.1558 33.5714 30.4544 34.3844C30.4354 34.3901 30.415 34.3898 30.3962 34.3835C30.3773 34.3772 30.3609 34.3652 30.3491 34.3493C29.7811 33.5706 29.2645 32.7505 28.8131 31.8891C28.8069 31.8772 28.8033 31.8642 28.8026 31.8508C28.8019 31.8375 28.8041 31.8241 28.809 31.8116C28.8138 31.7992 28.8213 31.7879 28.8309 31.7786C28.8404 31.7692 28.8519 31.762 28.8645 31.7574C29.6833 31.454 30.4632 31.0891 31.213 30.6578C31.2264 30.6498 31.2376 30.6387 31.2456 30.6254C31.2536 30.6121 31.2582 30.597 31.2589 30.5814C31.2597 30.5659 31.2566 30.5504 31.2499 30.5364C31.2432 30.5224 31.2331 30.5102 31.2205 30.501C31.0613 30.3844 30.9046 30.2628 30.7541 30.1399C30.7403 30.1289 30.7237 30.1221 30.7062 30.1201C30.6887 30.1181 30.6709 30.121 30.655 30.1286C25.7886 32.3405 20.4558 32.3405 15.5317 30.1286C15.5158 30.1215 15.4983 30.1188 15.481 30.1211C15.4638 30.1233 15.4474 30.1302 15.4339 30.1412C15.2834 30.2628 15.1254 30.3844 14.9675 30.501C14.955 30.5104 14.9451 30.5227 14.9386 30.5369C14.9321 30.551 14.9293 30.5666 14.9303 30.5821C14.9312 30.5976 14.9361 30.6127 14.9443 30.6259C14.9526 30.6391 14.964 30.6501 14.9775 30.6578C15.7299 31.0856 16.5148 31.4537 17.3248 31.7587C17.3373 31.7631 17.3488 31.7702 17.3583 31.7794C17.3679 31.7886 17.3754 31.7998 17.3802 31.8122C17.3851 31.8245 17.3873 31.8378 17.3866 31.8511C17.3859 31.8644 17.3823 31.8773 17.3762 31.8891C16.9334 32.7511 16.4192 33.5744 15.8389 34.3505C15.8267 34.3659 15.8101 34.3773 15.7913 34.3831C15.7725 34.3889 15.7524 34.3889 15.7336 34.3831C13.0369 33.5679 10.4965 32.3047 8.21894 30.6465C8.20813 30.6382 8.1991 30.6279 8.19242 30.616C8.18573 30.6041 8.18153 30.5911 8.18007 30.5775C7.65469 25.0528 8.72427 19.4579 12.6264 13.7213C12.636 13.7062 12.65 13.6944 12.6665 13.6875C14.5863 12.821 16.6427 12.1815 18.7919 11.8179C18.8113 11.8148 18.8311 11.8177 18.8488 11.8262C18.8665 11.8347 18.8812 11.8485 18.8909 11.8655C19.1772 12.3649 19.4355 12.8798 19.6646 13.4078C21.9453 13.0671 24.264 13.0671 26.5447 13.4078C26.7504 12.9313 27.0438 12.3282 27.3071 11.8655C27.3169 11.8487 27.3317 11.8353 27.3494 11.8272C27.3672 11.8191 27.387 11.8167 27.4062 11.8204ZM15.4076 24.229C15.4076 25.8729 16.6301 27.2133 18.1122 27.2133C19.6182 27.2133 20.8169 25.8741 20.8169 24.229C20.8407 22.5952 19.6295 21.2447 18.1122 21.2447C16.6063 21.2447 15.4076 22.5839 15.4076 24.229ZM25.4074 24.229C25.4074 25.8729 26.6288 27.2133 28.1121 27.2133C29.6306 27.2133 30.8168 25.8741 30.8168 24.229C30.8406 22.5952 29.6293 21.2447 28.1121 21.2447C26.6049 21.2447 25.4074 22.5839 25.4074 24.229Z" fill="white"/>
</svg>
