<svg width="29" height="30" viewBox="0 0 29 30" fill="none" xmlns="http://www.w3.org/2000/svg">
<path d="M14.721 12.223V17.7601H22.5831C21.8514 21.2787 18.7883 23.3004 14.721 23.3004C9.98367 23.2366 6.1775 19.4628 6.1775 14.8295C6.1775 10.1962 9.98367 6.42237 14.721 6.3586C16.6902 6.3563 18.5987 7.02458 20.1189 8.24869L24.3846 4.07702C19.4915 -0.129835 12.3454 -0.670921 6.84836 2.74922C1.35137 6.16936 -1.17541 12.7288 0.647751 18.8457C2.47091 24.9627 8.20584 29.1671 14.721 29.1632C22.0499 29.1632 28.7143 23.9502 28.7143 14.8287C28.703 13.9505 28.593 13.0761 28.3862 12.2214L14.721 12.223Z" fill="#2E2E2E"/>
</svg>
