<svg width="270" height="183" viewBox="0 0 270 183" fill="none" xmlns="http://www.w3.org/2000/svg">
<g clip-path="url(#clip0_97_1690)">
<path d="M10.4201 124.239C7.42038 118.198 5.00705 112.022 4.10487 105.283C3.69889 102.285 2.68394 98.2281 3.76655 95.5008C6.40543 88.8967 9.08942 90.6097 11.8862 95.0725C15.1115 100.234 17.7503 105.869 19.1713 111.82C19.893 114.862 20.9531 119.348 20.4118 122.278C20.3892 123.18 20.3667 124.081 20.3216 124.983C14.8859 128.206 11.7283 127.733 10.8036 123.563C10.4427 122.684 8.88643 123.134 9.17964 124.081C10.5329 128.544 16.0588 135.396 20.7952 129.896C23.9303 126.245 22.5319 118.469 21.9906 114.074C21.1561 107.289 19.1713 100.414 15.7204 94.4865C12.8109 89.5278 5.50325 80.2639 1.46599 89.8884C-2.88703 100.279 3.56356 116.44 9.22474 125.05C9.69839 125.749 10.8261 124.983 10.4652 124.261L10.4201 124.239Z" fill="white"/>
<path d="M5.43564 87.9725C6.94679 87.3865 8.43539 86.7779 10.0142 86.3947C11.4126 86.0566 12.7884 86.2144 13.8034 85.0874C14.2544 84.5916 13.9387 83.8478 13.5102 83.4871C12.2697 82.4052 10.1721 83.1716 8.77371 83.5998C7.08212 84.1182 5.54841 84.9973 4.30791 86.237C3.4734 87.0709 4.30791 88.4008 5.43564 87.9725Z" fill="white"/>
<path d="M18.5172 131.407C31.2154 132.443 56.1607 130.866 58.6191 114.412C58.7319 113.668 57.6493 113.285 57.2433 113.916C48.3343 127.755 33.3581 128.026 18.4495 129.378C17.2767 129.491 17.3895 131.316 18.5398 131.407H18.5172Z" fill="white"/>
<path d="M29.6366 130.528C34.779 149.438 60.7844 165.937 80.294 160.167C81.6473 159.762 81.8503 157.53 80.1812 157.462C59.183 156.606 41.2522 150.069 31.4861 129.941C31.0124 128.995 29.3434 129.423 29.6366 130.528Z" fill="white"/>
<path d="M48.5598 73.7725C42.1318 73.4119 40.2823 83.3068 44.3647 87.1386C46.5976 89.2122 49.8229 89.5278 52.5745 88.3782C55.1232 87.3189 57.8072 84.7043 57.2433 81.7065C57.108 80.9627 56.1832 80.9852 55.8675 81.5938C54.8525 83.5773 53.7248 85.1776 51.4693 85.8538C49.6424 86.3947 47.4095 86.2144 46.1014 84.7043C43.2369 81.4135 46.1465 77.2887 49.0335 75.3954C49.6875 74.9671 49.259 73.8627 48.5373 73.8176L48.5598 73.7725Z" fill="white"/>
<path d="M49.6425 75.2376C47.7028 77.4465 46.8683 81.5487 48.4922 84.1408C49.8004 86.237 52.5069 87.409 54.7849 86.1468C55.2811 85.8763 55.7773 85.2227 55.5743 84.6141C54.5819 81.3684 53.5895 78.1001 52.5971 74.8544C51.6949 75.1474 50.7702 75.4404 49.868 75.7335C50.8153 77.9874 52.1235 80.0386 53.7474 81.8868C53.7248 81.3008 53.7023 80.6922 53.6572 80.1062C52.9805 81.1205 52.3941 82.1573 51.9881 83.3068C51.6498 84.2986 52.8227 85.1325 53.6346 84.4563C54.5594 83.69 55.3262 82.7659 56.048 81.7741C56.4314 81.2557 56.3863 80.4668 55.9577 79.9935C54.4917 78.3255 53.3414 76.5224 52.4843 74.4712C51.8528 73.0062 49.259 73.7725 49.7552 75.3503C50.7476 78.596 51.7626 81.8417 52.755 85.11C53.0257 84.5916 53.2963 84.0732 53.5444 83.5773C52.0107 84.4338 50.6349 82.7884 50.477 81.3459C50.274 79.4525 51.4243 77.8071 51.6273 75.9814C51.7626 74.7868 50.2966 74.4938 49.6425 75.2376Z" fill="white"/>
<path d="M52.7776 82.0897C55.439 80.1738 52.6648 75.756 49.7327 77.0633C49.214 77.2887 48.8306 77.9649 48.9659 78.5509C49.3268 80.0836 49.6651 81.6163 50.0259 83.149C50.274 84.1859 51.4243 84.5916 52.2588 83.9605C55.6871 81.3909 54.6947 75.4855 50.7251 74.043C50.5221 74.922 50.3192 75.8011 50.1162 76.7027C52.8001 77.2662 54.5594 79.9484 54.3113 82.6081C54.1309 84.3662 56.86 84.6141 57.0404 82.856C57.4689 78.596 54.5143 74.8319 50.3868 73.9528C48.8306 73.6373 48.3569 76.0941 49.7778 76.6125C51.9205 77.3789 52.2588 80.5344 50.4996 81.8643C51.2439 82.1347 51.9882 82.4052 52.7325 82.6757C52.3716 81.143 52.0333 79.6103 51.6724 78.0776C51.4243 78.5735 51.1537 79.0693 50.9056 79.5652C50.8379 79.6103 51.1762 79.8808 50.9958 80.016C49.5523 81.0528 51.3341 83.1265 52.7776 82.1122V82.0897Z" fill="white"/>
<path d="M10.6908 85.2227C14.6379 85.2227 18.2466 82.6532 20.7276 79.7906C22.9379 77.2211 25.7798 72.6004 24.4491 69.1293C24.2235 68.5658 23.3213 68.4757 23.0056 69.0166C22.2387 70.3239 22.1485 71.7665 21.6749 73.1865C21.1336 74.8319 20.2539 76.3646 19.1939 77.717C16.8256 80.7373 13.7357 82.0446 10.3976 83.69C9.72098 84.0281 9.83375 85.2452 10.6683 85.2452L10.6908 85.2227Z" fill="white"/>
<path d="M26.3887 67.0331C27.9901 41.2702 49.868 27.3181 71.6105 18.4375C95.1574 8.85811 119.223 1.48762 144.913 4.26001C167.693 6.71684 194.33 15.3721 211.336 31.3302C228.364 47.3109 229.763 69.4674 233.642 90.9703C233.89 92.3227 236.055 92.3227 236.123 90.8802C236.98 69.2871 230.191 43.975 214.155 28.7381C196.134 11.5854 167.58 2.56953 143.311 0.405715C115.592 -2.07365 88.5264 7.12255 63.5586 18.415C43.6204 27.4308 23.7499 42.9156 24.3363 66.8528C24.3588 68.1376 26.276 68.3855 26.3662 67.0557L26.3887 67.0331Z" fill="white"/>
<path d="M212.193 169.589C221.801 157.485 225.703 141.369 229.808 126.808C233.845 112.473 240.363 96.2671 234.86 81.5262C234.477 80.5119 232.74 80.8049 232.74 81.9093C232.65 111.504 223.515 142.135 210.772 168.868C210.366 169.724 211.629 170.265 212.17 169.611L212.193 169.589Z" fill="white"/>
<path d="M123.689 165.126C144.326 171.392 171.392 161.407 185.353 145.562C186.007 144.818 184.947 143.623 184.112 144.096C175.587 149.01 167.941 155.141 158.739 158.86C147.168 163.526 136.274 163.683 124.005 163.729C123.238 163.729 122.832 164.878 123.689 165.126Z" fill="white"/>
<path d="M168.437 154.375C169.384 160.55 172.564 166.929 176.489 171.82C177.887 173.556 180.526 171.324 179.128 169.589C177.188 167.2 175.677 164.405 174.256 161.7C172.903 159.13 171.256 156.538 170.174 153.856C169.768 152.887 168.302 153.405 168.46 154.397L168.437 154.375Z" fill="white"/>
<path d="M176.895 172.091C183.729 177.478 194.081 177.252 202.156 175.336C207.907 173.984 216.23 171.64 216.41 164.563C216.433 163.278 214.877 163.03 214.335 164.089C207.772 176.621 188.443 172.947 177.775 170.468C176.782 170.243 176.038 171.415 176.917 172.091H176.895Z" fill="white"/>
<path d="M75.7606 58.3328C81.6022 52.0668 87.94 48.5506 96.2852 46.5445C102.578 45.0344 110.54 45.4852 116.201 42.3972C117.283 41.8112 116.968 40.3461 115.795 40.1207C108.397 38.7458 97.9542 41.7886 90.8947 44.0652C83.7675 46.3642 77.2041 50.0607 73.7533 56.9128C73.1894 58.0172 74.9035 59.2344 75.7606 58.3103V58.3328Z" fill="white"/>
<path d="M118.028 75.5757C122.651 65.2299 123.08 49.7226 116.765 39.9629C115.975 38.7232 114.148 39.8502 114.329 41.1125C115.253 47.1531 117.622 52.5626 117.734 58.7836C117.825 64.3058 116.426 69.6477 115.998 75.1024C115.908 76.3195 117.554 76.635 118.05 75.5757H118.028Z" fill="white"/>
<path d="M111.622 87.1386C116.178 82.9462 119.607 75.463 118.795 69.2195C118.682 68.4306 117.509 68.3404 117.261 69.0842C116.336 71.8341 115.795 74.6966 114.735 77.4239C113.562 80.4443 111.758 82.9912 110.066 85.7186C109.457 86.7103 110.697 88.0176 111.645 87.1386H111.622Z" fill="white"/>
<path d="M84.0606 67.3036C87.7821 57.7242 97.5031 56.6423 106.187 54.1855C106.75 54.0277 106.841 53.0585 106.141 53.0585C96.5784 52.9909 84.5343 56.0563 81.3766 66.3119C80.8353 68.07 83.384 69.0392 84.0606 67.3036Z" fill="white"/>
<path d="M15.0664 29.4369C22.735 30.068 29.9073 31.5105 36.7413 35.207C38.6584 36.2439 40.6432 33.4489 38.7035 32.4121C31.4184 28.5127 23.2537 26.4166 14.9988 27.7239C14.0289 27.8816 14.0966 29.3693 15.0664 29.4369Z" fill="white"/>
<path d="M13.1944 30.0004C13.5101 39.8953 16.8482 51.368 22.5319 59.5499C23.5018 60.9249 25.5542 59.4372 24.9453 57.9947C23.0732 53.6671 20.7727 49.6099 19.1939 45.1471C17.4572 40.1658 16.5099 35.0493 15.3821 29.9102C15.134 28.7607 13.1493 28.6931 13.1944 30.0004Z" fill="white"/>
<path d="M17.0964 33.1334C19.5999 35.4099 21.9681 37.8442 23.9529 40.594C25.5769 42.848 26.7046 46.1163 28.9149 47.7617C29.7269 48.3702 30.6291 47.5588 30.5614 46.7023C30.4035 43.8172 27.3812 40.6842 25.5318 38.6105C23.2763 36.0861 20.7502 33.787 17.9534 31.8712C17.1415 31.3077 16.3972 32.4572 17.0964 33.0883V33.1334Z" fill="white"/>
<path d="M76.9786 152.053C77.6326 156.426 79.6174 160.483 81.2639 164.563C83.0908 169.093 84.5569 174.142 87.1732 178.244C87.8498 179.303 89.7444 178.965 89.4512 177.523C88.5039 172.902 86.2033 168.507 84.4215 164.157C82.6397 159.807 81.1511 155.209 78.422 151.377C77.9258 150.678 76.8658 151.287 76.9786 152.053Z" fill="white"/>
<path d="M87.9175 177.906C95.0221 182.504 109.209 185.164 117.08 180.723C120.283 178.92 121.05 175.382 122.178 172.068C124.14 166.321 125.651 160.37 126.238 154.329C126.418 152.481 123.802 152.346 123.441 154.059C122.516 158.499 121.682 162.985 120.396 167.335C119.494 170.355 118.479 176.058 115.727 177.906C112.727 179.912 106.277 179.551 102.916 179.371C98.0219 179.101 93.4659 177.478 88.7971 176.216C87.8047 175.945 86.9476 177.275 87.9175 177.883V177.906Z" fill="white"/>
<path d="M50.7025 154.42C51.334 162.354 53.815 172.654 60.8295 177.388C68.1371 182.301 77.5424 179.98 85.2786 177.388C87.128 176.757 85.8199 174.029 83.9704 174.638C75.738 177.388 64.9344 179.664 58.8221 171.64C54.9427 166.523 54.7172 159.694 52.2588 153.924C51.8753 153.022 50.6348 153.541 50.7025 154.42Z" fill="white"/>
<path d="M144.507 165.464C147.078 177.14 169.159 173.578 176.872 171.279C178.496 170.783 178.158 168.259 176.399 168.597C168.121 170.197 151.115 174.66 146.108 164.946C145.68 164.134 144.304 164.495 144.507 165.464Z" fill="white"/>
<path d="M45.763 140.806C55.1908 134.292 59.6566 122.481 59.4311 111.324C59.386 109.318 56.2509 109.025 56.3186 111.031C56.6794 122.413 52.0106 131.429 44.5902 139.746C43.9361 140.468 45.0864 141.302 45.763 140.828V140.806Z" fill="white"/>
<path d="M34.9595 129.964C36.1323 132.263 37.869 134.337 39.7636 136.095C41.365 137.582 43.4851 139.634 45.718 139.949C46.6427 140.084 47.2066 138.89 46.6202 138.214C45.2444 136.636 42.9889 135.734 41.3875 134.314C39.5606 132.691 38.1848 130.775 36.7413 128.815C36.0196 127.823 34.4182 128.882 34.9595 129.964Z" fill="white"/>
<path d="M39.9215 133.052C40.959 132.038 41.9514 130.978 42.9438 129.919C43.8009 129.017 44.9737 128.116 45.4473 126.966C45.6954 126.38 45.0188 125.794 44.4549 126.065C43.2821 126.628 42.4025 127.981 41.5229 128.927C40.5756 129.941 39.6508 130.956 38.7487 131.993C38.1622 132.669 39.2674 133.683 39.9215 133.052Z" fill="white"/>
<path d="M41.6131 134.607C44.2745 131.767 47.6802 128.792 49.3944 125.231C49.7552 124.487 48.7628 124.014 48.199 124.397C46.6427 125.501 45.4924 127.169 44.2745 128.634C42.9438 130.257 41.7484 131.902 40.5079 133.593C40.0117 134.269 41.0266 135.238 41.6131 134.607Z" fill="white"/>
<path d="M43.8009 136.298C45.7406 134.021 47.59 131.677 49.4169 129.31C51.0634 127.192 53.0257 125.141 54.0857 122.661C54.4466 121.827 53.364 121.196 52.7099 121.692C50.5898 123.36 49.1012 125.817 47.4773 127.935C45.6503 130.302 43.8685 132.691 42.1544 135.148C41.4101 136.23 42.9664 137.267 43.8009 136.298Z" fill="white"/>
<path d="M46.5751 135.892C48.5148 133.728 50.2515 131.407 51.9882 129.085C53.5444 127.034 55.4841 124.983 56.3637 122.548C56.657 121.76 55.7097 121.174 55.0781 121.647C52.9806 123.18 51.5596 125.659 50.0259 127.733C48.2892 130.054 46.5525 132.376 45.0414 134.855C44.4099 135.892 45.7631 136.794 46.5525 135.915L46.5751 135.892Z" fill="white"/>
<path d="M46.6878 134.021C46.0112 135.058 45.2894 136.005 44.4775 136.951C45.2669 137.244 46.0563 137.537 46.8457 137.83C47.387 134.833 45.4473 131.7 42.9889 130.122C42.6506 131.023 42.3123 131.948 41.9739 132.849C42.0642 132.849 42.1318 132.849 42.222 132.872L41.2071 132.353C41.4326 131.88 41.6807 131.407 41.9063 130.911C41.7935 130.775 41.7033 130.64 41.5905 130.505C41.4326 130.189 41.0492 129.874 40.7785 129.671C40.2147 129.22 39.6734 129.017 38.9516 129.017C37.2149 129.017 36.7187 131.181 38.275 131.948C39.4929 132.534 40.4853 133.232 41.8612 133.029C42.5603 132.939 43.1017 132.038 42.7182 131.384C41.9514 130.099 40.6658 129.739 39.3351 129.108L38.6584 132.038C39.1997 132.038 39.8538 133.21 40.2598 133.525C40.5981 133.773 40.9815 133.954 41.4101 134.044C42.2446 134.224 43.0791 133.976 43.5979 133.277C44.5903 131.97 43.9587 130.032 42.2671 129.851C40.8011 129.694 39.9666 131.767 41.2522 132.579C43.3047 133.886 43.9136 135.621 44.2519 137.921C44.4549 139.228 46.3044 139.318 46.7555 138.146C47.1615 137.087 47.6126 136.072 48.1539 135.058C48.6952 134.066 47.3194 133.029 46.6653 134.021H46.6878Z" fill="white"/>
<path d="M82.9104 21.6156C104.179 12.2616 125.606 8.76795 148.747 11.1346C150.281 11.2924 150.506 8.90319 148.973 8.76795C126.035 6.64922 103.164 10.5035 82.2789 20.2857C81.4218 20.6915 82.0308 21.9988 82.9104 21.6156Z" fill="white"/>
<path d="M82.5269 20.9845C83.4065 22.3819 85.0981 22.968 86.5416 23.6892C88.1881 24.5232 90.0827 25.9432 91.9547 26.0108C92.7215 26.0334 93.2177 25.1769 92.7215 24.5683C91.6164 23.1934 89.5639 22.5848 88.0077 21.8185C86.4514 21.0521 84.8049 19.88 83.0457 20.0378C82.6397 20.0829 82.3465 20.6238 82.572 20.9619L82.5269 20.9845Z" fill="white"/>
<path d="M91.4585 26.5969C111.577 21.2099 130.997 19.2715 151.566 16.8597C152.942 16.7019 152.852 14.493 151.476 14.4254C131.312 13.5464 109.931 18.4375 90.9623 25.0416C90.1052 25.3346 90.5563 26.8223 91.4585 26.5969Z" fill="white"/>
<path d="M148.612 10.3232C151.386 12.1264 154.092 14.448 155.987 17.1978C156.37 16.454 156.754 15.7102 157.16 14.9664C155.13 14.7635 153.416 13.7718 151.431 13.3435C150.799 13.2083 150.236 14.0422 150.574 14.5832C151.905 16.747 154.521 17.4683 156.912 17.6711C158.175 17.7838 158.739 16.3864 158.085 15.4397C157.002 13.907 155.739 12.5546 154.295 11.3826C152.739 10.1203 151.273 9.48922 149.379 8.92573C148.544 8.67779 147.845 9.80478 148.634 10.3232H148.612Z" fill="white"/>
<path d="M147.98 8.99335C147.168 10.0302 146.537 11.1572 146.108 12.3968C145.747 13.4562 145.251 14.7184 145.95 15.7102C146.198 16.0708 146.762 16.0708 147.078 15.8003C147.845 15.1467 147.8 14.0422 148.093 13.1407C148.454 12.0813 148.973 11.067 149.604 10.1429C150.326 9.08351 148.747 7.97906 147.958 8.99335H147.98Z" fill="white"/>
<path d="M11.39 105.959C11.3449 106.545 11.0743 106.951 11.2998 107.582C11.6156 108.529 12.2922 109.408 12.6531 110.332C13.2621 111.842 13.1493 114.299 14.6153 115.201C15.0213 115.448 15.6754 115.516 16.0363 115.133C17.2317 113.826 16.6452 112.361 16.1716 110.828C15.6303 109.092 14.8634 107.447 13.8034 105.959C13.5102 105.531 12.8786 105.373 12.3824 105.441C12.3373 105.441 12.2922 105.441 12.2246 105.418C11.8411 105.328 11.4126 105.508 11.3675 105.959H11.39Z" fill="white"/>
<path d="M5.18748 103.976C4.93938 105.013 4.5334 105.486 4.55596 106.635C4.55596 107.672 4.80405 108.687 5.07471 109.678C5.57091 111.369 6.24754 113.217 8.02935 113.871C8.72854 114.119 9.24729 113.533 9.22474 112.879C9.15707 111.279 8.0519 109.971 7.60081 108.461C7.37527 107.672 7.23994 106.883 7.14972 106.072C7.05951 105.418 6.72119 104.765 6.67608 104.134C6.63097 103.39 5.39047 103.277 5.18748 103.998V103.976Z" fill="white"/>
<path d="M227.462 48.6407C229.176 41.2251 231.905 32.4347 240.769 30.902C245.596 30.068 250.693 32.7277 252.656 37.2582C255.249 43.2312 250.062 56.2141 242.326 49.1141C241.22 48.0998 239.732 49.362 240.566 50.6017C243.701 55.2674 250.175 54.0502 253.4 50.1283C257.821 44.7864 256.851 36.3566 251.911 31.7134C240.611 21.0972 222.636 34.6661 224.733 48.3928C224.936 49.6775 227.124 50.0382 227.44 48.6407H227.462Z" fill="white"/>
<path d="M233.462 63.1338C234.386 58.4004 235.334 53.6671 238.198 49.655C240.544 46.3867 243.679 45.3274 246.656 43.0058C247.446 42.3972 247.04 40.8194 245.979 40.842C241.852 40.8645 237.95 44.7413 235.717 47.9194C232.56 52.3823 231.048 57.7918 231.477 63.2239C231.567 64.4411 233.259 64.1706 233.462 63.1338Z" fill="white"/>
<path d="M237.567 45.7106C236.055 47.7617 238.875 50.7594 241.108 49.8804C241.762 49.6325 241.694 48.776 241.243 48.3928C240.837 48.0547 240.341 47.8067 239.935 47.4236C239.394 46.9277 239.281 46.1839 238.762 45.6429C238.424 45.2823 237.86 45.2823 237.567 45.688V45.7106Z" fill="white"/>
<path d="M250.671 32.5474C254.054 30.1356 258.046 28.6705 262.038 30.654C265.534 32.3896 266.639 35.7029 267.97 39.0839C268.196 39.6248 269.188 39.6474 269.323 39.0163C271.804 28.2648 255.272 23.1708 249.34 31.3302C248.709 32.2093 249.859 33.1334 250.671 32.5474Z" fill="white"/>
<path d="M255.791 38.4753C259.242 36.5143 265.737 32.5924 267.722 38.5655C268.151 39.8502 270.226 39.129 269.977 37.8442C269.459 35.1169 267.09 33.4039 264.406 33.0432C260.775 32.5699 257.46 34.7337 254.843 37.0102C254.122 37.6413 254.888 38.9937 255.791 38.4753Z" fill="white"/>
<path d="M227.823 51.1426C228.973 51.4807 230.056 51.9766 230.981 52.7429C231.928 53.5318 232.424 54.5912 233.236 55.4703C233.642 55.8985 234.386 55.5829 234.296 54.9744C233.89 52.2921 230.507 50.3087 228.094 49.8804C227.349 49.7452 227.079 50.9398 227.8 51.1652L227.823 51.1426Z" fill="white"/>
<path d="M227.507 45.4401C228.026 44.8991 228.477 45.102 229.018 45.4401C229.537 45.7331 230.146 45.2598 229.921 44.6963C229.357 43.2537 227.327 43.5467 226.56 44.6061C226.132 45.1921 227.011 46.0261 227.507 45.4852V45.4401Z" fill="white"/>
<path d="M232.266 47.8518C233.349 48.4379 234.161 49.3845 234.635 50.489C235.018 51.3906 236.416 50.7369 236.033 49.8353C235.401 48.3252 234.341 47.3785 232.83 46.7925C232.199 46.5445 231.657 47.5137 232.266 47.8518Z" fill="white"/>
<path d="M230.62 40.8645C232.221 41.2477 233.642 42.0366 234.792 43.2312C235.943 44.4033 236.416 45.7556 237.025 47.2207C237.341 47.9645 238.311 47.5137 238.266 46.815C238.018 43.1185 234.229 40.301 230.89 39.6248C230.191 39.4896 229.898 40.6842 230.597 40.8645H230.62Z" fill="white"/>
<path d="M236.958 38.588C238.694 39.9629 239.303 41.721 239.732 43.8172C239.867 44.4709 240.882 44.4709 240.927 43.7721C241.085 41.3379 239.574 38.9712 237.702 37.5512C237.048 37.0553 236.326 38.0921 236.958 38.588Z" fill="white"/>
<path d="M241.401 36.7172C241.987 38.2499 242.438 39.9629 243.25 41.3829C243.544 41.8788 244.423 41.6985 244.288 41.0448C243.927 39.3994 243.093 37.7766 242.484 36.1988C242.213 35.5001 241.153 35.9959 241.423 36.6947L241.401 36.7172Z" fill="white"/>
<path d="M241.784 45.1921C241.288 48.0321 242.687 50.8947 245.303 52.1118C245.822 52.3598 246.273 51.5258 245.777 51.2102C243.701 49.9255 242.484 47.7166 242.799 45.2823C242.89 44.6286 241.897 44.5385 241.784 45.1921Z" fill="white"/>
<path d="M243.566 46.1163C244.513 48.9788 247.175 51.5934 250.287 51.8414C250.874 51.8864 251.144 50.9623 250.535 50.782C247.761 49.9706 245.573 48.4829 244.581 45.6429C244.356 44.9667 243.363 45.4626 243.589 46.1163H243.566Z" fill="white"/>
<path d="M247.333 46.0261C248.303 47.6264 249.881 48.6182 251.753 48.7309C252.52 48.776 252.61 47.6039 251.866 47.5588C250.4 47.4912 249.115 46.7925 248.348 45.5302C247.964 44.9217 246.949 45.395 247.333 46.0036V46.0261Z" fill="white"/>
<path d="M250.535 44.6061C251.393 45.1471 252.227 45.688 253.129 46.1388C253.693 46.4318 254.099 45.5302 253.625 45.1696C252.859 44.5836 252.024 44.1328 251.212 43.6369C250.558 43.2537 249.881 44.2004 250.535 44.6061Z" fill="white"/>
<path d="M253.332 31.7359C254.956 33.1109 255.836 34.869 256.445 36.875C256.648 37.5286 257.527 37.3709 257.482 36.6947C257.324 34.328 255.858 32.2318 254.009 30.8118C253.422 30.361 252.791 31.2851 253.355 31.7585L253.332 31.7359Z" fill="white"/>
<path d="M256.287 30.654C256.873 31.7359 257.392 32.8629 258.114 33.8772C258.497 34.4182 259.241 33.8321 259.016 33.2912C258.587 32.1867 257.956 31.1724 257.415 30.1356C257.031 29.4369 255.926 29.9553 256.309 30.6766L256.287 30.654Z" fill="white"/>
<path d="M30.6515 60.0233C33.7641 48.6407 40.8236 41.6985 49.8229 34.7112C50.4318 34.2378 49.7778 33.3362 49.1237 33.6293C38.9742 38.047 32.1401 49.2718 29.4787 59.595C29.2757 60.3614 30.4486 60.8122 30.6515 60.0233Z" fill="white"/>
<path d="M55.2585 30.1807C58.4838 28.1747 61.7316 26.2362 65.0923 24.4781C68.4303 22.72 72.2195 21.5931 75.3997 19.6096C76.0763 19.2038 75.8282 18.0769 74.9486 18.2346C67.7311 19.4292 60.1528 24.6134 54.4916 29.0312C53.8827 29.5045 54.5593 30.6315 55.2585 30.2032V30.1807Z" fill="white"/>
<path d="M150.664 167.989C152.717 166.321 154.814 164.698 156.754 162.917C157.25 162.466 156.618 161.722 156.077 162.128C153.957 163.706 151.972 165.464 149.942 167.155C149.401 167.605 150.1 168.439 150.664 167.989Z" fill="white"/>
<path d="M152.423 171.189C156.889 168.034 161.716 164.022 164.603 159.311C164.919 158.792 164.242 158.071 163.768 158.544C161.806 160.573 160.114 162.827 158.084 164.788C156.055 166.749 153.889 168.552 151.634 170.243C151.002 170.716 151.792 171.617 152.423 171.167V171.189Z" fill="white"/>
<path d="M157.182 171.753C162.235 168.214 167.806 163.706 171.099 158.409C171.459 157.823 170.693 157.012 170.151 157.553C167.896 159.807 165.979 162.376 163.678 164.608C161.4 166.839 158.942 168.89 156.393 170.851C155.784 171.324 156.551 172.203 157.16 171.753H157.182Z" fill="white"/>
<path d="M162.753 171.91C166.768 169.814 169.948 166.366 172.136 162.421C172.565 161.655 171.459 160.866 171.008 161.632C168.753 165.442 165.685 168.349 162.077 170.896C161.513 171.279 162.122 172.226 162.731 171.91H162.753Z" fill="white"/>
<path d="M169.881 171.302C171.527 169.702 173.151 168.056 174.504 166.208C174.888 165.712 174.166 165.058 173.692 165.464C171.933 166.952 170.422 168.687 168.933 170.445C168.46 171.009 169.362 171.82 169.881 171.302Z" fill="white"/>
<path d="M58.0102 161.948C60.1754 161.7 63.2654 160.753 64.5961 158.882C64.9795 158.364 64.3706 157.733 63.8293 157.981C62.8594 158.409 62.0249 159.153 61.0551 159.604C60.0176 160.1 58.9124 160.415 57.7847 160.686C56.9727 160.866 57.1757 162.061 58.0102 161.948Z" fill="white"/>
<path d="M60.5363 166.501C61.3257 166.456 62.1151 166.411 62.9045 166.321C63.5135 166.253 63.4909 165.261 62.8594 165.216C62.07 165.171 61.2806 165.171 60.4912 165.216C59.5439 165.239 59.589 166.546 60.5363 166.501Z" fill="white"/>
<path d="M66.1975 164.653C68.2725 163.616 70.7986 162.692 72.5804 161.182C73.0315 160.798 72.6932 159.874 72.0616 160.055C69.8062 160.753 67.6861 162.331 65.6562 163.503C64.9795 163.909 65.4532 164.991 66.1975 164.63V164.653Z" fill="white"/>
<path d="M63.8293 170.243C69.6935 168.439 75.7155 165.509 79.7528 160.708C80.249 160.122 79.3468 159.401 78.8055 159.829C73.9788 163.593 69.3552 167.109 63.5135 169.206C62.9497 169.409 63.2654 170.4 63.8293 170.22V170.243Z" fill="white"/>
<path d="M65.611 175.043C67.28 174.548 68.9491 174.119 70.5279 173.421C71.1143 173.173 70.8211 172.249 70.1896 172.361C68.498 172.699 66.8741 173.285 65.2276 173.826C64.5509 174.052 64.9118 175.246 65.611 175.043Z" fill="white"/>
<path d="M74.4073 171.55C77.3394 170.085 80.3842 168.124 82.2562 165.374C82.6622 164.788 81.8728 164.044 81.3315 164.54C78.8956 166.659 76.7304 168.845 73.866 170.423C73.1668 170.806 73.6855 171.91 74.4073 171.55Z" fill="white"/>
<path d="M72.1519 177.726C76.505 176.125 80.5873 173.195 83.2939 169.409C83.6998 168.845 82.8653 168.327 82.4368 168.8C79.3243 172.226 75.9185 174.818 71.6557 176.666C70.9565 176.982 71.4527 177.996 72.1519 177.726Z" fill="white"/>
<path d="M81.0609 175.99C82.8427 174.593 84.9628 173.285 86.474 171.617C86.8574 171.189 86.2484 170.536 85.7748 170.783C84.805 171.324 83.9704 172.113 83.1134 172.79C82.1661 173.533 81.2188 174.3 80.2715 175.043C79.6625 175.539 80.4519 176.463 81.0609 175.968V175.99Z" fill="white"/>
<path d="M206.757 167.673C208.765 167.064 210.659 165.982 211.832 164.179C212.17 163.661 211.471 162.94 210.997 163.413C209.622 164.765 208.246 165.915 206.396 166.569C205.787 166.794 206.126 167.876 206.757 167.673Z" fill="white"/>
<path d="M206.035 163.819C209.283 161.993 212.824 159.423 214.922 156.313C215.305 155.727 214.584 155.096 214.042 155.502C212.531 156.629 211.223 158.003 209.779 159.221C208.336 160.438 206.802 161.52 205.291 162.647C204.66 163.12 205.359 164.202 206.035 163.796V163.819Z" fill="white"/>
<path d="M205.133 158.454C209.464 156.629 214.087 153.518 216.794 149.596C217.177 149.033 216.456 148.402 215.937 148.807C214.155 150.227 212.599 151.873 210.772 153.248C208.81 154.735 206.712 156.02 204.592 157.282C203.893 157.71 204.366 158.77 205.156 158.454H205.133Z" fill="white"/>
<path d="M204.66 151.985C206.712 151.737 208.562 150.903 209.802 149.213C210.231 148.627 209.441 147.996 208.9 148.401C207.524 149.393 206.081 150.25 204.412 150.565C203.487 150.723 203.735 152.098 204.66 151.985Z" fill="white"/>
<path d="M213.546 146.801C215.238 145.674 216.749 144.389 218.125 142.902C219.343 141.572 220.809 140.039 221.327 138.281C221.485 137.74 220.831 137.154 220.358 137.605C219.049 138.822 218.147 140.49 216.929 141.842C215.621 143.262 214.178 144.57 212.644 145.764C211.922 146.328 212.824 147.297 213.546 146.824V146.801Z" fill="white"/>
<path d="M208.494 143.803C213.681 141.707 219.839 137.312 222.252 132.105C222.545 131.497 221.643 130.866 221.169 131.339C219.185 133.322 217.606 135.621 215.441 137.492C213.118 139.476 210.524 140.986 207.84 142.406C206.96 142.879 207.592 144.187 208.516 143.803H208.494Z" fill="white"/>
<path d="M208.404 136.996C214.99 133.751 221.575 128.274 224.688 121.489C224.981 120.835 224.011 120.385 223.605 120.926C219.004 127.011 214.584 132.015 207.795 135.757C207.005 136.185 207.592 137.425 208.404 137.019V136.996Z" fill="white"/>
<path d="M210.479 127.034C211.764 125.997 213.523 124.96 214.448 123.585C214.809 123.022 214.223 122.323 213.614 122.594C212.103 123.292 210.817 124.848 209.576 125.974C208.922 126.583 209.779 127.597 210.479 127.034Z" fill="white"/>
<path d="M219.681 120.272C222.748 117.59 226.154 114.254 227.823 110.467C228.094 109.836 227.214 109.475 226.831 109.949C225.568 111.459 224.575 113.172 223.335 114.705C222.004 116.373 220.515 117.928 218.959 119.37C218.418 119.866 219.14 120.745 219.703 120.249L219.681 120.272Z" fill="white"/>
<path d="M214.584 115.629C221.147 112.631 227.778 106.793 230.056 99.7383C230.259 99.1071 229.357 98.5662 228.996 99.1748C227.101 102.33 225.432 105.441 222.839 108.123C220.29 110.738 217.29 112.856 214.042 114.524C213.343 114.885 213.839 115.944 214.561 115.629H214.584Z" fill="white"/>
<path d="M217.538 105.486C223.267 102.578 228.432 97.3491 229.876 90.9252C230.033 90.249 229.041 90.1363 228.77 90.6773C226.019 96.4249 222.726 101.203 216.997 104.359C216.298 104.742 216.816 105.847 217.538 105.486Z" fill="white"/>
<path d="M218.17 97.3716C223.042 93.9456 227.755 88.8967 229.74 83.1941C229.943 82.5855 229.064 82.0671 228.703 82.6532C225.523 87.9951 222.387 92.5706 217.335 96.3798C216.659 96.8983 217.493 97.8449 218.192 97.3716H218.17Z" fill="white"/>
<path d="M216.343 88.784C217.741 87.8373 219.117 86.8456 220.493 85.8313C221.688 84.9522 223.335 84.0732 224.237 82.8786C224.575 82.4503 224.147 81.6614 223.583 81.8417C222.139 82.27 220.831 83.5548 219.636 84.4563C218.237 85.5382 216.839 86.6201 215.396 87.657C214.629 88.1979 215.576 89.2798 216.343 88.784Z" fill="white"/>
<path d="M225.726 79.6103C226.989 77.9649 228.5 76.3195 229.402 74.4262C229.673 73.8627 228.861 73.3217 228.409 73.7274C226.853 75.1249 225.703 77.0408 224.462 78.7312C223.876 79.5201 225.117 80.3766 225.703 79.6103H225.726Z" fill="white"/>
<path d="M221.666 78.1452C224.147 74.922 227.079 71.7439 229.086 68.2277C229.379 67.7093 228.725 66.9655 228.252 67.4614C225.387 70.4366 223.132 74.1557 220.696 77.469C220.245 78.0776 221.192 78.7312 221.643 78.1452H221.666Z" fill="white"/>
<path d="M220.493 70.3916C223.132 68.2277 225.906 65.0947 226.605 61.6687C226.741 61.0601 225.748 60.6995 225.455 61.2404C224.643 62.6604 224.079 64.148 223.177 65.523C222.207 66.9881 221.034 68.2728 219.704 69.4223C219.095 69.9633 219.884 70.91 220.515 70.3916H220.493Z" fill="white"/>
<path d="M219.636 62.3899C220.583 60.9474 221.553 59.5274 222.5 58.0849C223.357 56.8001 224.35 55.5153 224.914 54.0502C225.139 53.4642 224.35 52.8331 223.876 53.3064C221.621 55.5379 220.087 58.8287 218.395 61.4884C217.877 62.3223 219.094 63.2014 219.658 62.3674L219.636 62.3899Z" fill="white"/>
<path d="M218.621 54.2982C219.072 53.2388 219.523 52.1795 219.929 51.0975C220.29 50.1509 220.786 49.2718 220.741 48.2575C220.718 47.7391 219.952 47.5137 219.613 47.8518C218.892 48.5506 218.666 49.5648 218.305 50.489C217.899 51.5709 217.493 52.6528 217.11 53.7347C216.749 54.7264 218.237 55.2674 218.643 54.2982H218.621Z" fill="white"/>
<path d="M216.072 47.2658C216.591 45.8909 217.516 44.2906 217.403 42.8255C217.358 42.3071 216.613 42.0366 216.253 42.4198C215.238 43.4791 214.922 45.3048 214.448 46.6798C214.087 47.7391 215.666 48.3252 216.072 47.2883V47.2658Z" fill="white"/>
<path d="M128.493 160.1C140.018 161.88 152.717 160.46 162.731 154.104C163.407 153.676 162.956 152.616 162.189 152.955C151.115 157.823 140.785 160.46 128.628 158.792C127.771 158.68 127.659 159.987 128.493 160.122V160.1Z" fill="white"/>
<path d="M165.888 151.737C167.219 151.196 168.753 150.768 169.926 149.912C170.422 149.551 169.993 148.74 169.43 148.852C168.009 149.145 166.655 150.002 165.37 150.633C164.671 150.971 165.167 152.03 165.888 151.737Z" fill="white"/>
<path d="M129.959 155.975C137.379 156.989 146.401 156.11 153.235 153.022C153.867 152.752 153.551 151.737 152.874 151.873C149.333 152.571 145.905 153.653 142.319 154.172C138.237 154.758 134.177 154.713 130.049 154.825C129.327 154.825 129.17 155.885 129.936 155.975H129.959Z" fill="white"/>
<path d="M132.981 152.03C135.214 152.278 137.65 152.098 139.59 150.903C140.086 150.61 139.906 149.664 139.251 149.867C137.176 150.453 135.282 150.971 133.094 150.791C132.305 150.723 132.192 151.94 132.981 152.03Z" fill="white"/>
<path d="M102.871 177.771C107.495 178.56 112.367 176.779 116.111 174.187C117.08 173.533 115.885 172.113 114.938 172.789C111.171 175.449 107.314 176.103 102.803 176.351C101.946 176.396 102.127 177.636 102.849 177.748L102.871 177.771Z" fill="white"/>
<path d="M107.653 173.421C112.028 172.947 116.133 171.031 119.246 167.876C120.013 167.109 118.953 165.802 118.141 166.569C115.073 169.431 111.555 171.257 107.427 172.023C106.525 172.181 106.773 173.511 107.675 173.421H107.653Z" fill="white"/>
<path d="M110.901 167.312C114.081 166.005 117.238 164.585 120.306 163.052C121.253 162.579 120.576 161.136 119.607 161.565C116.449 162.94 113.359 164.45 110.314 166.05C109.502 166.478 110.089 167.673 110.923 167.312H110.901Z" fill="white"/>
<path d="M114.554 161.362C117.148 160.46 119.81 159.13 121.794 157.215C122.516 156.516 121.591 155.411 120.779 156.02C118.592 157.643 116.494 159.085 113.923 160.077C113.043 160.415 113.675 161.677 114.532 161.384L114.554 161.362Z" fill="white"/>
<path d="M118.276 154.893C119.652 154.082 121.163 153.36 122.381 152.369C123.08 151.805 122.336 150.723 121.546 151.084C120.148 151.692 118.885 152.684 117.599 153.496C116.765 154.014 117.396 155.434 118.276 154.916V154.893Z" fill="white"/>
<path d="M111.149 94.3287C114.69 90.5871 118.592 85.7186 119.99 80.6471C120.17 80.016 119.336 79.4751 118.93 80.0836C117.464 82.2925 116.404 84.7494 114.938 86.9808C113.472 89.2122 111.78 91.2859 110.021 93.2919C109.457 93.9456 110.54 94.9598 111.149 94.3287Z" fill="white"/>
<path d="M115.908 94.1484C117.938 92.1875 119.742 89.663 120.238 86.8455C120.351 86.237 119.404 85.8989 119.088 86.4173C117.712 88.7163 116.562 91.083 114.893 93.2243C114.419 93.8329 115.344 94.7119 115.908 94.1484Z" fill="white"/>
<path d="M159.054 10.5711C170.016 12.3518 178.767 15.7553 188.623 20.7365C189.39 21.1197 189.954 19.9251 189.3 19.4292C180.842 13.2984 169.565 9.78224 159.19 9.03843C158.175 8.97081 158.062 10.4133 159.054 10.5937V10.5711Z" fill="white"/>
<path d="M195.029 23.8019C196.292 24.4105 197.555 25.0191 198.818 25.5826C199.968 26.101 201.119 26.7321 202.382 26.9124C203.126 27.0251 203.351 26.0559 202.855 25.6502C201.885 24.8388 200.6 24.4331 199.449 23.9372C198.164 23.3737 196.878 22.8553 195.593 22.3369C194.623 21.9537 194.149 23.3962 195.051 23.8245L195.029 23.8019Z" fill="white"/>
<path d="M26.9752 33.4715C28.8247 34.1928 30.4261 35.207 32.0274 36.3566C33.3582 37.3032 34.4859 38.7683 35.9519 39.4445C36.5158 39.6924 36.9669 39.0388 36.7639 38.5429C36.1549 36.9651 34.1476 35.6578 32.7492 34.8013C31.0802 33.7645 29.1856 33.0883 27.3136 32.5248C26.7046 32.3445 26.3663 33.2235 26.9752 33.4715Z" fill="white"/>
<path d="M29.4562 38.3851C30.3133 39.7826 31.0124 42.014 32.5687 42.8255C33.11 43.1185 33.8769 42.7804 33.7415 42.0817C33.4258 40.3236 31.5538 38.9937 30.4486 37.7315C30.0201 37.2356 29.0953 37.7766 29.4562 38.3626V38.3851Z" fill="white"/>
<path d="M48.1539 147.139C53.5219 144.367 59.183 137.988 60.0401 131.835C60.1529 131.091 59.1154 130.775 58.7094 131.339C56.9953 133.773 55.7773 136.523 53.9729 138.912C52.0107 141.482 49.5974 143.533 47.2292 145.719C46.5525 146.35 47.2517 147.59 48.1313 147.139H48.1539Z" fill="white"/>
<path d="M84.9403 71.6312C85.6395 69.8731 86.677 68.2052 87.9626 66.8077C89.2257 65.4553 90.7594 64.6214 92.1803 63.4944C92.654 63.1112 92.2705 62.1871 91.6616 62.3674C87.8499 63.4719 84.9629 67.5966 83.7449 71.1804C83.4743 71.9693 84.6471 72.3976 84.9403 71.6312Z" fill="white"/>
<path d="M89.3159 71.6312C89.9023 71.0677 90.5338 70.5493 90.9398 69.8281C91.2104 69.3322 90.7594 68.5207 90.1504 68.8814C89.4286 69.2871 88.9324 69.8957 88.3686 70.5042C87.7371 71.1804 88.6167 72.3074 89.3159 71.6312Z" fill="white"/>
<path d="M89.2256 22.7877C89.609 21.0746 90.4661 19.4743 90.9172 17.7838C90.9849 17.4908 90.6465 17.288 90.4435 17.5359C89.203 19.001 88.9324 20.9169 88.752 22.7426C88.7294 23.0581 89.1579 23.0807 89.2256 22.7877Z" fill="white"/>
<path d="M92.7667 22.6073C93.511 20.5337 94.8192 18.3473 94.8868 16.0934C94.8868 15.8229 94.5259 15.6426 94.3681 15.8905C93.105 17.7613 92.8569 20.2857 92.2705 22.4045C92.1803 22.7426 92.6539 22.9229 92.7892 22.5848L92.7667 22.6073Z" fill="white"/>
<path d="M96.1499 23.3962C97.8414 20.8492 99.4879 18.167 100.931 15.4848C101.202 14.9889 100.525 14.493 100.21 14.9889C98.5181 17.5359 96.9618 20.2632 95.5183 22.968C95.2928 23.3962 95.8792 23.847 96.1499 23.4188V23.3962Z" fill="white"/>
<path d="M101.811 21.7058C103.66 19.0686 105.397 16.3188 107.066 13.5689C107.337 13.1181 106.683 12.6448 106.39 13.0956C104.63 15.8003 102.894 18.5502 101.337 21.3677C101.157 21.6832 101.608 22.0213 101.811 21.7058Z" fill="white"/>
<path d="M108.171 17.6486C109.412 16.2511 110.585 14.7861 111.758 13.3435C112.096 12.9153 111.397 12.4419 111.058 12.8702C109.886 14.3353 108.713 15.7778 107.63 17.288C107.382 17.6261 107.901 17.9642 108.171 17.6486Z" fill="white"/>
<path d="M113.449 16.4765C114.509 14.8988 115.795 13.2984 116.426 11.5178C116.517 11.2699 116.178 10.9994 115.975 11.2022C114.667 12.5997 113.833 14.448 112.908 16.1159C112.705 16.4765 113.201 16.8372 113.427 16.4765H113.449Z" fill="white"/>
<path d="M118.93 15.4622C120.238 13.614 121.727 11.8108 122.809 9.84986C123.057 9.39906 122.471 8.94827 122.133 9.37652C120.712 11.1346 119.584 13.1632 118.343 15.0565C118.095 15.4397 118.659 15.8229 118.93 15.4622Z" fill="white"/>
<path d="M124.614 15.3495C125.967 13.5238 127.275 11.653 128.493 9.73716C128.809 9.26383 128.087 8.74541 127.771 9.21875C126.486 11.0895 125.268 13.028 124.095 14.9889C123.892 15.327 124.366 15.6876 124.614 15.3495Z" fill="white"/>
<path d="M129.35 14.5156C130.861 13.1181 132.598 11.7657 133.884 10.1429C134.154 9.80478 133.658 9.42161 133.342 9.647C131.718 10.8416 130.297 12.5095 128.876 13.9295C128.538 14.2676 129.012 14.8311 129.35 14.493V14.5156Z" fill="white"/>
<path d="M134.109 14.3578C135.44 12.9829 136.838 11.6756 138.056 10.2105C138.417 9.80478 137.74 9.17367 137.357 9.55684C136.004 10.8867 134.786 12.3743 133.5 13.7943C133.184 14.1324 133.793 14.6959 134.109 14.3578Z" fill="white"/>
<path d="M138.146 14.1324C139.342 12.3067 140.921 11.2699 142.68 10.0753C143.108 9.78224 142.635 9.24128 142.229 9.37652C140.221 10.0753 138.552 11.901 137.47 13.6591C137.199 14.1099 137.853 14.5607 138.146 14.1324Z" fill="white"/>
<path d="M142.251 14.7184C142.612 13.7042 143.176 12.8251 144.011 12.1264C144.8 11.4502 145.725 11.2022 146.559 10.6838C146.807 10.526 146.807 10.0527 146.446 10.0302C144.146 9.91748 142.139 12.487 141.484 14.4254C141.327 14.9213 142.071 15.2143 142.251 14.7184Z" fill="white"/>
<path d="M145.071 13.2083C146.131 12.6448 147.258 12.1264 148.206 11.3826C148.476 11.1572 148.206 10.7965 147.89 10.9092C146.785 11.2924 145.77 11.9686 144.732 12.5095C144.304 12.7349 144.62 13.4337 145.071 13.2083Z" fill="white"/>
<path d="M24.4491 111.639C25.3738 116.192 25.1257 120.317 24.9002 124.893C24.8776 125.524 25.7798 125.772 26.0054 125.141C27.4263 120.881 26.9301 115.674 25.6445 111.436C25.4189 110.715 24.3138 110.873 24.4717 111.639H24.4491Z" fill="white"/>
<path d="M28.7345 113.803C29.1179 115.494 29.4111 117.207 29.5465 118.942C29.6818 120.655 29.4337 122.413 29.6818 124.126C29.772 124.735 30.7193 124.848 30.9223 124.239C31.9147 120.971 30.9899 116.778 30.0878 113.578C29.8622 112.744 28.5315 112.947 28.7345 113.826V113.803Z" fill="white"/>
<path d="M32.7717 116.868C33.0424 118.446 33.0875 120.294 33.7867 121.76C34.0573 122.323 35.0272 122.21 35.0497 121.534C35.0948 119.911 34.3956 118.198 34.0122 116.643C33.8092 115.877 32.6364 116.057 32.7717 116.868Z" fill="white"/>
<path d="M36.0647 117.68C36.3579 118.514 36.5834 119.393 37.0796 120.137C37.4405 120.678 38.2073 120.182 38.1397 119.641C38.0269 118.762 37.5984 117.928 37.2601 117.116C36.9443 116.305 35.7489 116.891 36.0421 117.702L36.0647 117.68Z" fill="white"/>
<path d="M97.0295 174.435C94.5936 174.728 92.5186 173.804 90.421 172.699C90.1504 172.542 89.7444 172.88 90.015 173.15C91.8645 175.043 94.6162 175.382 97.1197 174.953C97.4355 174.908 97.3453 174.412 97.0295 174.457V174.435Z" fill="white"/>
<path d="M95.1124 170.671C94.0974 170.558 93.1276 170.355 92.2029 169.95C91.2556 169.544 90.5113 168.913 89.6542 168.372C89.2708 168.124 88.7971 168.62 89.0903 168.98C90.4436 170.603 92.9697 171.46 95.0447 171.482C95.5635 171.482 95.6537 170.738 95.1124 170.671Z" fill="white"/>
<path d="M93.7591 166.952C92.4735 166.704 91.233 166.253 90.1504 165.509C89.1129 164.81 88.4588 163.819 87.5566 162.985C87.286 162.737 86.9026 162.985 87.0153 163.345C87.8499 165.892 91.2105 167.47 93.6915 167.696C94.1877 167.741 94.2328 167.042 93.7591 166.952Z" fill="white"/>
<path d="M91.8645 162.579C90.8721 162.173 89.9022 161.655 89.0452 160.979C88.1881 160.302 87.6017 159.401 86.8123 158.657C86.5867 158.454 86.068 158.567 86.1808 158.95C86.8574 161.204 89.5188 162.804 91.6841 163.278C92.09 163.368 92.2028 162.737 91.8419 162.579H91.8645Z" fill="white"/>
<path d="M90.4661 157.846C89.0452 156.831 87.5115 155.547 85.865 154.916C85.5492 154.803 85.2109 155.231 85.459 155.479C86.6995 156.719 88.4813 157.598 89.9925 158.477C90.421 158.725 90.8721 158.139 90.4436 157.823L90.4661 157.846Z" fill="white"/>
<path d="M84.0381 167.312C81.3315 164.901 78.5799 162.331 75.6252 160.212C75.3546 160.009 74.9486 160.415 75.2193 160.663C77.8356 163.233 80.8353 165.532 83.6998 167.808C84.0155 168.056 84.3313 167.56 84.0381 167.312Z" fill="white"/>
<path d="M84.8727 171.685C83.8577 170.648 82.7525 169.476 81.512 168.71C81.2188 168.53 80.858 168.89 81.0835 169.161C81.9857 170.31 83.2487 171.279 84.399 172.181C84.7148 172.429 85.1433 171.956 84.8727 171.663V171.685Z" fill="white"/>
<path d="M79.5723 166.411C76.5951 163.188 73.2119 159.987 69.3777 157.823C68.9943 157.62 68.6334 158.116 68.9943 158.387C72.5579 161.046 75.9862 163.593 79.0761 166.839C79.3693 167.155 79.8881 166.726 79.5949 166.411H79.5723Z" fill="white"/>
<path d="M84.4441 176.035C82.3014 173.804 80.1362 171.482 77.7905 169.476C77.4522 169.183 76.956 169.724 77.2492 170.062C79.3017 172.339 81.6474 174.412 83.9028 176.486C84.2186 176.779 84.7373 176.373 84.4216 176.035H84.4441Z" fill="white"/>
<path d="M76.3244 168.507C73.5276 164.743 69.8513 160.641 65.5885 158.544C65.2501 158.387 65.0697 158.883 65.3178 159.085C67.1673 160.641 69.1972 161.925 71.0015 163.571C72.7833 165.216 74.4073 166.997 75.8959 168.913C76.1214 169.228 76.5725 168.823 76.3469 168.529L76.3244 168.507Z" fill="white"/>
<path d="M78.58 175.179C76.4598 172.902 74.4074 170.558 72.0843 168.484C71.8587 168.282 71.543 168.642 71.7234 168.868C73.6856 171.234 75.9636 173.353 78.1289 175.539C78.3995 175.81 78.8281 175.449 78.58 175.156V175.179Z" fill="white"/>
<path d="M69.6483 166.073C68.0019 163.638 65.769 161.272 63.0399 160.009C62.7241 159.874 62.5211 160.325 62.7692 160.528C65.1825 162.286 67.3929 164.022 69.1296 166.501C69.3777 166.862 69.8739 166.411 69.6258 166.073H69.6483Z" fill="white"/>
<path d="M73.0089 174.074C68.7686 168.958 64.6637 163.706 60.2656 158.747C59.9498 158.409 59.4311 158.837 59.7243 159.221C63.8292 164.427 68.295 169.386 72.5804 174.435C72.8059 174.705 73.2344 174.345 73.0089 174.074Z" fill="white"/>
<path d="M63.4007 166.952C62.0024 165.284 60.6717 163.436 59.0703 161.948C58.7771 161.677 58.3711 162.016 58.5966 162.354C59.8146 164.157 61.4385 165.757 62.882 167.38C63.1752 167.696 63.6714 167.29 63.4007 166.952Z" fill="white"/>
<path d="M176.196 168.665C173.309 165.239 169.948 161.655 166.069 159.356C165.618 159.085 165.212 159.671 165.595 160.009C169.046 162.985 172.587 165.689 175.677 169.093C175.97 169.409 176.466 168.98 176.196 168.665Z" fill="white"/>
<path d="M173.783 169.183C172.768 168.304 171.73 167.357 170.535 166.749C170.241 166.614 169.993 167.019 170.196 167.245C171.076 168.259 172.271 169.025 173.377 169.792C173.76 170.062 174.143 169.499 173.783 169.206V169.183Z" fill="white"/>
<path d="M168.595 165.103C166.114 163.255 163.701 161.227 161.062 159.581C160.656 159.333 160.272 159.874 160.633 160.19C163.047 162.151 165.73 163.796 168.279 165.554C168.572 165.757 168.866 165.329 168.595 165.126V165.103Z" fill="white"/>
<path d="M169.813 169.025C166.249 166.388 162.483 163.729 158.626 161.52C158.197 161.272 157.791 161.835 158.175 162.151C161.693 164.856 165.595 167.29 169.407 169.566C169.768 169.792 170.151 169.273 169.79 169.025H169.813Z" fill="white"/>
<path d="M166.249 170.288C163.407 167.403 159.889 164.247 156.032 162.872C155.694 162.759 155.446 163.21 155.739 163.436C157.34 164.585 159.122 165.442 160.723 166.591C162.483 167.853 164.152 169.228 165.73 170.738C166.046 171.031 166.565 170.626 166.249 170.288Z" fill="white"/>
<path d="M160.633 169.747C158.242 167.583 155.355 164.901 152.265 163.751C151.905 163.616 151.679 164.089 151.972 164.337C153.258 165.419 154.837 166.208 156.212 167.2C157.611 168.191 158.942 169.228 160.227 170.355C160.588 170.648 160.971 170.085 160.633 169.769V169.747Z" fill="white"/>
<path d="M152.468 166.997C152.017 166.591 151.589 166.163 151.115 165.78C150.89 165.599 150.574 165.937 150.777 166.14C151.183 166.569 151.611 166.952 152.04 167.357C152.288 167.605 152.717 167.245 152.468 166.997Z" fill="white"/>
<path d="M52.6648 139.318C52.0107 137.673 51.3792 136.005 50.5672 134.427C50.3868 134.066 49.868 134.314 50.0033 134.697C50.6123 136.343 51.4017 137.966 52.1686 139.543C52.3264 139.859 52.7775 139.634 52.6648 139.318Z" fill="white"/>
<path d="M50.68 143.217C49.6199 140.355 48.6501 137.335 47.2742 134.63C47.1389 134.359 46.6427 134.472 46.7329 134.81C47.59 137.763 48.9433 140.648 50.1612 143.488C50.3191 143.848 50.8153 143.578 50.7025 143.24L50.68 143.217Z" fill="white"/>
<path d="M47.8381 145.832C46.9134 142.947 46.1014 139.949 44.8835 137.177C44.7482 136.884 44.252 137.041 44.3422 137.357C45.0639 140.287 46.2593 143.172 47.2968 146.012C47.4096 146.328 47.9509 146.148 47.8381 145.832Z" fill="white"/>
<path d="M44.5677 147.207C44.2519 143.691 44.094 140.084 43.44 136.636C43.3949 136.343 42.8761 136.32 42.8761 136.658C42.9663 140.22 43.5527 143.781 43.9813 147.32C44.0264 147.703 44.5902 147.59 44.5677 147.229V147.207Z" fill="white"/>
<path d="M41.5003 144.277C41.4552 140.918 41.6582 137.65 41.8612 134.314C41.8837 133.931 41.365 133.908 41.2973 134.269C40.5756 137.492 40.5079 141.031 40.8688 144.299C40.9139 144.637 41.5003 144.637 41.5003 144.277Z" fill="white"/>
<path d="M38.4103 140.625C38.9967 138.214 39.6283 135.576 39.6734 133.097C39.6734 132.759 39.1772 132.601 39.0644 132.962C38.3201 135.328 38.0946 138.056 37.8916 140.513C37.869 140.806 38.3201 140.918 38.4103 140.625Z" fill="white"/>
<path d="M36.0421 137.605C37.057 135.238 38.0043 132.579 38.478 130.032C38.5456 129.694 38.0494 129.626 37.9141 129.896C36.8089 132.241 36.0421 134.945 35.4782 137.447C35.4106 137.785 35.9293 137.875 36.0646 137.582L36.0421 137.605Z" fill="white"/>
<path d="M34.2378 134.63C35.0723 132.376 36.1324 130.009 36.5384 127.62C36.606 127.214 36.0421 127.169 35.9068 127.485C34.8468 129.603 34.3055 132.128 33.6288 134.404C33.516 134.81 34.1025 135.035 34.2378 134.63Z" fill="white"/>
<path d="M32.9296 131.655C33.6964 130.46 34.1475 129.153 34.1024 127.733C34.1024 127.372 33.5611 127.304 33.5385 127.688C33.4483 128.995 33.11 130.189 32.4108 131.294C32.1853 131.655 32.7266 132.015 32.9521 131.677L32.9296 131.655Z" fill="white"/>
<path d="M29.3208 45.4175C27.2909 49.1817 25.0806 52.9233 23.3213 56.8226C23.186 57.1156 23.6597 57.3861 23.8401 57.0931C26.073 53.4417 27.8999 49.4972 29.8621 45.688C30.02 45.395 29.5013 45.102 29.3208 45.4175Z" fill="white"/>
<path d="M26.8172 43.6594C24.8325 46.815 22.78 49.9706 21.0433 53.2614C20.8629 53.622 21.3365 53.9826 21.562 53.622C23.6596 50.5566 25.5091 47.2433 27.3586 44.0201C27.5615 43.6594 27.0428 43.2763 26.8172 43.6369V43.6594Z" fill="white"/>
<path d="M25.3964 40.549C23.3665 43.682 21.2464 46.8826 19.5548 50.196C19.4194 50.489 19.8705 50.6918 20.0284 50.4439C22.1936 47.4461 24.0431 44.0877 25.9151 40.8871C26.1181 40.549 25.6219 40.1883 25.3964 40.5264V40.549Z" fill="white"/>
<path d="M23.6371 38.1597C21.2689 40.4363 19.1488 43.3664 18.2466 46.5671C18.1338 46.9277 18.63 47.108 18.7879 46.7699C20.2765 43.7947 21.7426 41.0899 24.0206 38.6331C24.2912 38.3401 23.9078 37.8893 23.6146 38.1597H23.6371Z" fill="white"/>
<path d="M21.5847 36.2213C19.6676 37.8667 17.8858 40.3686 17.5474 42.9382C17.5023 43.2988 18.0211 43.389 18.1564 43.0734C18.6752 41.9239 19.036 40.7518 19.6901 39.6474C20.3442 38.5655 21.1336 37.5963 21.9907 36.6721C22.2613 36.3791 21.9005 35.9283 21.5847 36.1988V36.2213Z" fill="white"/>
<path d="M20.2765 33.8321C18.5623 35.6804 16.9159 37.9794 16.2392 40.4588C16.149 40.7969 16.6001 40.9772 16.758 40.6391C17.9083 38.3175 19.0134 36.1763 20.7276 34.2153C20.9531 33.9674 20.5246 33.5842 20.299 33.8096L20.2765 33.8321Z" fill="white"/>
<path d="M17.7279 32.8855C16.758 34.7788 15.6979 36.6721 14.9537 38.6556C14.8409 38.9712 15.292 39.2191 15.4724 38.9261C16.5776 37.0778 17.4346 35.0493 18.3368 33.1109C18.5173 32.7277 17.9083 32.5248 17.7279 32.8855Z" fill="white"/>
<path d="M16.5776 32.1867C15.495 33.2912 14.7733 34.621 14.7281 36.1762C14.7281 36.5369 15.2243 36.582 15.292 36.2213C15.5176 34.8464 16.0363 33.6743 17.0062 32.6601C17.2994 32.367 16.8708 31.8486 16.5776 32.1642V32.1867Z" fill="white"/>
<path d="M52.0333 107.019C51.289 105.711 50.4544 104.404 49.5523 103.209C49.3718 102.961 48.9433 103.232 49.1012 103.502C49.8455 104.81 50.7251 106.094 51.6047 107.289C51.7626 107.514 52.1686 107.267 52.0333 107.019Z" fill="white"/>
<path d="M51.3115 111.549C49.7327 109.002 48.1088 106.41 46.2593 104.043C46.0789 103.818 45.6729 104.043 45.8082 104.336C47.2968 106.928 49.0786 109.408 50.8379 111.842C51.0183 112.09 51.4469 111.82 51.289 111.549H51.3115Z" fill="white"/>
<path d="M49.3041 115.899C49.1913 114.682 48.7402 113.42 47.7478 112.676C47.4546 112.451 47.184 112.856 47.3419 113.104C47.9508 114.051 48.4921 114.862 48.65 116.012C48.7177 116.44 49.3267 116.305 49.3041 115.899Z" fill="white"/>
<path d="M46.5074 110.354C45.4474 108.732 44.4775 106.861 43.1693 105.418C42.9438 105.17 42.5378 105.418 42.6957 105.734C43.5528 107.469 44.8835 109.092 45.9887 110.693C46.1917 110.986 46.7104 110.647 46.5074 110.354Z" fill="white"/>
<path d="M45.6052 115.291C44.9962 113.645 44.297 111.955 43.3948 110.445C43.2369 110.174 42.7182 110.287 42.831 110.625C43.3497 112.338 44.1391 114.006 44.9511 115.584C45.1766 116.012 45.763 115.696 45.6052 115.268V115.291Z" fill="white"/>
<path d="M43.0792 116.823C43.3273 115.516 42.7859 114.006 41.5003 113.442C41.2297 113.33 40.9139 113.735 41.1395 113.938C41.9965 114.727 42.5378 115.539 42.3574 116.733C42.2897 117.184 42.9889 117.252 43.0792 116.801V116.823Z" fill="white"/>
<path d="M14.3221 122.503C11.7509 122.03 9.76613 120.903 7.53323 119.641C7.26258 119.483 6.83404 119.844 7.12725 120.092C9.02183 121.895 11.7509 122.751 14.2996 123.044C14.6605 123.089 14.683 122.571 14.3447 122.503H14.3221Z" fill="white"/>
<path d="M14.2544 119.483C11.7734 118.536 9.24733 117.297 6.65357 116.711C6.29269 116.621 6.13481 117.071 6.45058 117.229C8.8188 118.446 11.5479 119.122 14.0514 120.024C14.3898 120.137 14.5928 119.618 14.2544 119.506V119.483Z" fill="white"/>
<path d="M11.6607 115.764C10.1947 115.358 8.7061 114.885 7.19495 114.637C6.87918 114.592 6.76641 115.088 7.05962 115.201C8.50311 115.696 10.0368 115.967 11.5254 116.305C11.8412 116.373 11.9539 115.854 11.6382 115.764H11.6607Z" fill="white"/>
<path d="M9.56317 92.7284C7.30772 92.2551 4.98461 91.7817 2.68405 91.669C2.39084 91.669 2.23296 92.1198 2.57127 92.21C4.82672 92.8411 7.19495 93.1116 9.51806 93.3821C9.9466 93.4271 9.96915 92.8186 9.58573 92.7284H9.56317Z" fill="white"/>
<path d="M10.2848 95.884C7.80381 95.6586 5.21004 95.2303 2.72905 95.3656C2.34562 95.3656 2.43584 95.9291 2.7516 95.9741C5.16494 96.4475 7.78126 96.4024 10.2171 96.5376C10.6457 96.5602 10.6908 95.9291 10.2848 95.884Z" fill="white"/>
<path d="M9.78865 100.302C7.98429 99.896 6.02205 99.2424 4.15002 99.1748C3.8117 99.1748 3.67638 99.6481 4.01469 99.7608C5.77395 100.437 7.87151 100.595 9.72098 100.91C10.127 100.978 10.1721 100.369 9.78865 100.279V100.302Z" fill="white"/>
<path d="M9.94649 103.908C8.706 103.931 7.33017 103.795 6.13478 104.088C5.81902 104.156 5.84157 104.607 6.15734 104.652C7.37528 104.855 8.7511 104.629 9.96905 104.562C10.3299 104.562 10.3074 103.908 9.94649 103.908Z" fill="white"/>
<path d="M9.42777 107.041C8.36771 107.064 7.28509 107.041 6.22503 107.154C5.8416 107.199 5.86416 107.807 6.24758 107.83C7.30764 107.853 8.39026 107.762 9.45032 107.717C9.83375 107.717 9.81119 107.041 9.42777 107.041Z" fill="white"/>
<path d="M8.93155 110.152C8.27747 110.152 7.62339 110.152 6.96931 110.264C6.63099 110.332 6.65354 110.805 6.99186 110.85C7.64594 110.918 8.30002 110.85 8.9541 110.85C9.33753 110.828 9.31497 110.152 8.93155 110.152Z" fill="white"/>
<path d="M219.117 44.5385C217.245 43.9074 215.305 43.3439 213.366 42.9156C213.072 42.848 212.982 43.3213 213.253 43.434C215.08 44.1102 217.019 44.6512 218.914 45.1245C219.297 45.2147 219.523 44.6737 219.117 44.5385Z" fill="white"/>
<path d="M221.846 49.3845C218.734 47.649 215.238 46.1613 211.651 45.7782C211.313 45.7331 211.2 46.2515 211.516 46.3642C214.99 47.401 218.282 48.3252 221.53 49.9706C221.846 50.1283 222.139 49.5874 221.824 49.4071L221.846 49.3845Z" fill="white"/>
<path d="M224.665 56.0112C221.44 53.7572 217.674 51.8414 213.727 51.3229C213.388 51.2779 213.253 51.8188 213.591 51.9315C217.403 53.1261 220.899 54.3433 224.282 56.5747C224.643 56.8226 225.026 56.2591 224.665 56.0112Z" fill="white"/>
<path d="M226.154 60.136C222.365 57.9271 218.598 55.5153 214.584 53.7347C214.245 53.5769 213.997 54.0953 214.29 54.2982C217.854 56.7776 221.869 58.7385 225.68 60.8122C226.131 61.0601 226.605 60.4065 226.154 60.1585V60.136Z" fill="white"/>
<path d="M227.462 65.9061C223.696 63.4719 219.974 60.7671 215.982 58.6934C215.621 58.5131 215.373 59.0766 215.666 59.2795C219.23 61.9392 223.29 64.0804 227.101 66.402C227.44 66.6049 227.778 66.1315 227.44 65.9061H227.462Z" fill="white"/>
<path d="M228.838 71.6763C225.207 68.07 220.538 64.7115 215.463 63.5845C215.08 63.4944 215.012 64.0579 215.328 64.1931C220.087 66.4246 224.395 68.4757 228.252 72.1722C228.612 72.5103 229.221 72.0144 228.861 71.6538L228.838 71.6763Z" fill="white"/>
<path d="M227.778 76.5674C224.417 74.1106 220.854 71.496 216.997 69.8731C216.659 69.7379 216.41 70.2338 216.704 70.4141C220.177 72.7582 223.921 74.6966 227.372 77.1084C227.733 77.3563 228.116 76.8154 227.755 76.5449L227.778 76.5674Z" fill="white"/>
<path d="M228.793 83.149C225.207 80.5795 221.688 77.7395 217.854 75.5531C217.493 75.3503 217.155 75.8236 217.47 76.0941C220.831 78.9341 224.733 81.2782 228.364 83.7576C228.77 84.0281 229.176 83.4195 228.793 83.149Z" fill="white"/>
<path d="M228.387 88.1078C225.635 86.1243 222.929 83.983 220.042 82.2474C219.703 82.0446 219.388 82.4954 219.681 82.7433C222.297 84.9071 225.207 86.7554 227.958 88.7163C228.342 88.9868 228.77 88.4008 228.387 88.1078Z" fill="white"/>
<path d="M229.244 94.9598C225.726 92.0748 222.117 89.1446 218.192 86.8455C217.854 86.6427 217.538 87.0935 217.854 87.3414C221.485 90.1138 225.297 92.6608 228.883 95.5008C229.221 95.7713 229.582 95.2303 229.267 94.9598H229.244Z" fill="white"/>
<path d="M226.56 97.2138C223.38 94.5992 220.177 91.8268 216.659 89.6856C216.32 89.4827 216.004 89.9335 216.298 90.1814C219.478 92.8411 222.929 95.1627 226.177 97.7322C226.492 97.9802 226.853 97.4618 226.537 97.2138H226.56Z" fill="white"/>
<path d="M227.462 104.742C223.786 101.181 219.568 97.4167 214.832 95.343C214.471 95.1852 214.2 95.7262 214.516 95.9516C218.734 99.017 223.064 101.609 226.898 105.215C227.237 105.531 227.801 105.08 227.462 104.742Z" fill="white"/>
<path d="M228.432 108.889C227.485 107.514 225.996 106.613 224.35 106.41C223.989 106.365 223.876 106.883 224.214 107.019C225.59 107.605 226.74 108.348 227.801 109.43C228.184 109.814 228.748 109.34 228.432 108.889Z" fill="white"/>
<path d="M223.29 105.351C220.448 102.714 216.794 100.279 212.96 99.4002C212.554 99.31 212.351 99.8284 212.734 100.009C216.343 101.744 219.658 103.367 222.793 105.892C223.109 106.14 223.583 105.644 223.29 105.351Z" fill="white"/>
<path d="M227.282 113.848C222.478 110.445 217.719 106.68 212.621 103.75C212.26 103.547 211.945 103.998 212.26 104.269C216.816 108.01 222.004 111.143 226.876 114.412C227.259 114.66 227.643 114.096 227.282 113.826V113.848Z" fill="white"/>
<path d="M224.936 118.266C220.673 115.336 216.411 112.338 212.012 109.588C211.697 109.385 211.381 109.836 211.674 110.061C215.869 113.104 220.222 115.944 224.53 118.807C224.891 119.055 225.274 118.514 224.914 118.266H224.936Z" fill="white"/>
<path d="M223.29 124.577C219.455 121.219 215.192 117.612 210.524 115.494C210.14 115.313 209.892 115.877 210.208 116.102C214.403 119.19 218.891 121.76 222.929 125.118C223.267 125.388 223.628 124.848 223.312 124.577H223.29Z" fill="white"/>
<path d="M225.274 131.474C219.839 127.214 214.516 122.684 208.765 118.807C208.404 118.559 208.088 119.077 208.381 119.348C213.591 123.901 219.365 127.845 224.891 132.015C225.229 132.263 225.59 131.745 225.274 131.474Z" fill="white"/>
<path d="M221.733 135.915C216.907 131.857 212.215 127.507 207.096 123.856C206.802 123.653 206.396 124.081 206.667 124.329C211.268 128.679 216.456 132.466 221.373 136.455C221.688 136.726 222.049 136.185 221.733 135.937V135.915Z" fill="white"/>
<path d="M219.478 141.662C215.892 138.123 211.99 134.111 207.592 131.632C207.276 131.452 206.825 131.857 207.141 132.128C210.885 135.644 215.215 138.552 218.982 142.09C219.298 142.383 219.794 141.955 219.478 141.662Z" fill="white"/>
<path d="M218.282 147.455C214.313 143.217 209.937 138.867 205.043 135.734C204.66 135.486 204.299 136.027 204.637 136.298C209.125 140.107 213.681 143.623 217.786 147.883C218.08 148.199 218.576 147.77 218.282 147.455Z" fill="white"/>
<path d="M217.38 154.217C213.208 149.799 208.629 145.133 203.442 141.91C203.081 141.685 202.742 142.181 203.058 142.451C207.659 146.553 212.509 150.227 216.839 154.668C217.155 154.983 217.674 154.555 217.38 154.217Z" fill="white"/>
<path d="M214.245 158.184C210.907 154.284 206.983 150.002 202.517 147.387C202.224 147.229 201.795 147.59 202.088 147.861C206.013 151.467 210.163 154.6 213.704 158.635C213.997 158.973 214.538 158.522 214.245 158.184Z" fill="white"/>
<path d="M211.99 162.511C209.419 158.792 205.697 154.622 201.412 152.819C201.051 152.662 200.825 153.18 201.119 153.405C203.058 154.938 205.156 156.155 206.983 157.846C208.652 159.401 210.118 161.114 211.449 162.962C211.719 163.323 212.238 162.872 211.99 162.511Z" fill="white"/>
<path d="M210.411 165.577C207.456 162.579 204.592 159.108 201.276 156.516C200.961 156.268 200.6 156.719 200.825 157.012C203.419 160.302 206.87 163.12 209.87 166.028C210.185 166.343 210.749 165.892 210.411 165.554V165.577Z" fill="white"/>
<path d="M208.674 168.214C207.344 166.028 204.795 163.751 202.066 163.683C201.728 163.683 201.57 164.157 201.931 164.292C203.103 164.72 204.231 164.968 205.314 165.69C206.419 166.411 207.344 167.403 208.02 168.529C208.268 168.913 208.9 168.62 208.674 168.214Z" fill="white"/>
<path d="M206.148 170.017C204.682 168.845 203.239 167.493 201.637 166.478C201.344 166.298 200.938 166.681 201.209 166.952C202.562 168.304 204.231 169.431 205.72 170.626C206.103 170.919 206.532 170.31 206.148 170.017Z" fill="white"/>
<path d="M122.133 151.129C121.163 149.867 120.103 148.402 118.795 147.477C118.547 147.297 118.141 147.59 118.321 147.883C119.133 149.258 120.464 150.475 121.614 151.557C121.93 151.85 122.403 151.467 122.133 151.129Z" fill="white"/>
<path d="M122.133 155.006C120.283 153.135 118.456 151.039 116.336 149.483C116.043 149.258 115.682 149.664 115.908 149.957C117.554 152.008 119.742 153.743 121.682 155.502C121.975 155.772 122.426 155.276 122.133 155.006Z" fill="white"/>
<path d="M121.817 161.136C119.719 158.928 117.712 156.335 115.299 154.442C115.005 154.217 114.667 154.622 114.87 154.916C116.652 157.35 119.133 159.446 121.253 161.61C121.569 161.948 122.133 161.475 121.794 161.136H121.817Z" fill="white"/>
<path d="M120.621 166.253C118.163 162.692 115.276 158.882 111.735 156.336C111.442 156.133 111.081 156.516 111.329 156.786C114.284 160.122 117.464 163.075 120.125 166.681C120.373 167.042 120.87 166.591 120.644 166.253H120.621Z" fill="white"/>
<path d="M118.456 171.212C115.817 167.741 112.93 164.022 109.457 161.384C109.141 161.159 108.758 161.587 109.006 161.88C111.915 165.216 115.141 168.214 117.915 171.685C118.208 172.046 118.727 171.595 118.456 171.212Z" fill="white"/>
<path d="M114.893 174.39C112.524 171.595 110.269 168.417 107.54 165.983C107.224 165.712 106.886 166.185 107.089 166.478C109.096 169.499 111.938 172.136 114.351 174.841C114.667 175.179 115.186 174.728 114.893 174.367V174.39Z" fill="white"/>
<path d="M112.321 177.095C111.171 175.697 110.021 174.322 108.893 172.925C107.856 171.685 106.908 170.288 105.668 169.251C105.42 169.025 104.991 169.386 105.172 169.679C105.984 171.054 107.202 172.271 108.239 173.488C109.412 174.863 110.585 176.238 111.735 177.613C112.051 177.996 112.637 177.5 112.321 177.117V177.095Z" fill="white"/>
<path d="M108.645 178.537C107.743 176.418 105.938 173.804 103.615 173.128C103.232 173.015 103.029 173.466 103.3 173.714C104.179 174.503 105.194 175.066 106.029 175.923C106.841 176.779 107.495 177.748 108.013 178.83C108.216 179.236 108.848 178.943 108.668 178.515L108.645 178.537Z" fill="white"/>
<path d="M104.946 177.771C103.66 176.959 102.397 176.058 101.022 175.382C100.616 175.179 100.322 175.81 100.661 176.058C101.856 176.937 103.209 177.636 104.495 178.402C104.924 178.65 105.375 178.041 104.946 177.771Z" fill="white"/>
<path d="M100.503 176.892C100.052 176.463 99.6232 176.013 99.1044 175.675C98.7661 175.472 98.4278 175.855 98.6534 176.17C99.0142 176.644 99.4428 177.027 99.8938 177.41C100.277 177.771 100.909 177.252 100.525 176.869L100.503 176.892Z" fill="white"/>
<path d="M183.481 168.282C182.421 168.282 181.361 168.282 180.301 168.417C180.008 168.462 180.03 168.913 180.301 168.913C181.361 168.958 182.421 168.913 183.481 168.845C183.797 168.845 183.797 168.259 183.458 168.259L183.481 168.282Z" fill="white"/>
<path d="M182.646 165.058C181.023 165.532 179.196 165.87 177.684 166.636C177.391 166.771 177.527 167.222 177.865 167.177C179.556 166.952 181.248 166.185 182.849 165.667C183.188 165.554 183.007 164.968 182.646 165.058Z" fill="white"/>
<path d="M182.376 161.858C181.203 162.354 180.008 162.849 178.767 163.188C177.775 163.481 176.737 163.638 175.767 163.976C175.497 164.067 175.587 164.563 175.88 164.563C178.158 164.563 180.684 163.526 182.669 162.444C183.03 162.241 182.782 161.677 182.398 161.858H182.376Z" fill="white"/>
<path d="M184.135 156.538C180.955 158.995 177.662 160.19 173.805 161.159C173.399 161.272 173.489 161.858 173.918 161.813C177.82 161.475 181.586 159.514 184.563 157.057C184.902 156.786 184.473 156.29 184.135 156.561V156.538Z" fill="white"/>
<path d="M184.721 153.405C180.233 155.366 175.564 157.215 171.256 159.559C170.918 159.739 171.144 160.257 171.527 160.1C176.106 158.387 180.571 156.042 184.969 153.946C185.33 153.789 185.06 153.248 184.721 153.405Z" fill="white"/>
<path d="M184.947 148.221C180.684 151.332 176.331 153.743 171.64 156.133C171.279 156.313 171.527 156.809 171.91 156.696C176.76 155.118 181.564 152.075 185.33 148.672C185.601 148.424 185.263 147.996 184.947 148.221Z" fill="white"/>
<path d="M188.646 152.526C188.217 152.323 187.811 152.143 187.383 151.963C187.067 151.85 186.932 152.278 187.202 152.436C187.608 152.662 188.037 152.842 188.465 153.045C188.781 153.18 188.962 152.684 188.646 152.549V152.526Z" fill="white"/>
<path d="M184.812 150.836C183.571 150.25 182.331 149.506 181 149.123C180.707 149.033 180.436 149.438 180.729 149.641C181.902 150.408 183.301 150.903 184.586 151.467C184.992 151.647 185.195 151.016 184.812 150.836Z" fill="white"/>
<path d="M188.443 149.371C187.293 149.19 186.21 148.83 185.195 148.266C184.338 147.793 183.661 147.117 182.872 146.553C182.556 146.328 182.24 146.734 182.443 147.027C183.706 148.852 186.278 149.754 188.398 150.024C188.826 150.069 188.894 149.416 188.465 149.348L188.443 149.371Z" fill="white"/>
<path d="M187.157 145.719C185.894 145.359 184.586 144.863 183.278 144.705C182.917 144.66 182.827 145.178 183.143 145.291C184.338 145.809 185.669 146.035 186.932 146.373C187.36 146.486 187.608 145.855 187.18 145.719H187.157Z" fill="white"/>
<path d="M189.48 158.026C188.443 157.643 187.405 157.169 186.323 156.922C185.962 156.831 185.781 157.305 186.12 157.485C187.112 157.981 188.217 158.296 189.255 158.657C189.661 158.792 189.886 158.184 189.48 158.026Z" fill="white"/>
<path d="M183.188 155.727C180.774 154.532 178.248 152.797 175.654 152.121C175.294 152.03 175 152.481 175.339 152.729C177.526 154.329 180.504 155.209 182.962 156.336C183.346 156.516 183.549 155.907 183.188 155.727Z" fill="white"/>
<path d="M188.285 161.339C182.443 159.536 177.143 156.967 171.933 153.766C171.527 153.518 171.121 154.104 171.504 154.352C176.512 157.823 182.195 160.28 188.059 161.903C188.443 162.016 188.668 161.429 188.285 161.317V161.339Z" fill="white"/>
<path d="M186.593 165.216C182.737 163.097 178.609 160.911 174.459 159.401C174.143 159.288 173.873 159.762 174.188 159.942C177.955 162.218 182.24 164.089 186.3 165.757C186.616 165.892 186.909 165.374 186.593 165.194V165.216Z" fill="white"/>
<path d="M185.353 167.718C183.143 166.659 180.887 165.306 178.542 164.54C178.226 164.45 177.978 164.878 178.271 165.058C180.368 166.388 182.872 167.29 185.127 168.327C185.511 168.507 185.736 167.876 185.353 167.696V167.718Z" fill="white"/>
<path d="M183.549 170.152C182.714 169.972 181.88 169.702 181.045 169.679C180.684 169.679 180.571 170.152 180.91 170.288C181.722 170.626 182.624 170.738 183.481 170.919C183.977 171.031 184.045 170.243 183.549 170.152Z" fill="white"/>
<path d="M198.547 170.874C194.285 170.964 190.292 170.31 186.165 169.318C185.646 169.183 185.33 169.949 185.872 170.13C189.954 171.482 194.307 171.82 198.592 171.572C198.976 171.55 198.953 170.874 198.57 170.874H198.547Z" fill="white"/>
<path d="M121.93 74.336C123.486 70.0985 123.847 65.5004 123.508 61.0376C123.463 60.4741 122.606 60.6319 122.651 61.1953C122.967 65.6582 122.358 69.783 121.343 74.1331C121.253 74.5163 121.794 74.7417 121.93 74.3585V74.336Z" fill="white"/>
<path d="M124.298 73.2316C123.734 74.2909 123.283 75.3954 122.854 76.4998C122.403 77.6043 121.839 78.6862 121.659 79.8582C121.614 80.2189 122.11 80.3767 122.313 80.1062C122.945 79.2046 123.26 78.1001 123.666 77.0633C124.117 75.9138 124.614 74.7643 124.929 73.5697C125.02 73.209 124.501 72.8484 124.298 73.2316Z" fill="white"/>
<path d="M123.531 82.6757C122.922 83.5097 122.291 84.3436 121.772 85.2452C121.569 85.6059 122.02 85.9214 122.291 85.6059C122.967 84.817 123.531 83.9379 124.117 83.0814C124.388 82.6982 123.802 82.27 123.531 82.6532V82.6757Z" fill="white"/>
<path d="M110.066 55.8309C109.48 54.6363 108.577 53.7572 107.359 53.1937C106.931 52.9909 106.683 53.6896 107.111 53.8925C108.126 54.3883 108.916 55.1322 109.48 56.1239C109.683 56.4845 110.269 56.2366 110.066 55.8534V55.8309Z" fill="white"/>
<path d="M111.103 53.2163C110.472 52.7429 109.863 52.2696 109.119 51.9766C108.803 51.8639 108.442 52.2921 108.713 52.5401C109.299 53.1036 109.953 53.4417 110.652 53.8248C111.081 54.0502 111.487 53.5093 111.081 53.2163H111.103Z" fill="white"/>
<path d="M107.675 59.6626C106.615 57.0255 104.089 53.9601 101.225 53.2388C100.909 53.1487 100.638 53.5769 100.931 53.7798C102.172 54.6363 103.435 55.2449 104.54 56.3268C105.6 57.3636 106.412 58.6258 107.066 59.9557C107.269 60.3388 107.833 60.0684 107.675 59.6626Z" fill="white"/>
<path d="M109.344 66.988C108.442 65.5906 107.608 63.9903 106.502 62.7506C106.254 62.4801 105.826 62.7506 105.984 63.0887C106.683 64.5988 107.833 65.9963 108.758 67.3712C108.983 67.7093 109.57 67.3261 109.344 66.988Z" fill="white"/>
<path d="M104.089 60.2036C102.149 58.175 100.277 55.9887 98.1798 54.1404C97.864 53.8474 97.4129 54.3658 97.6836 54.6814C99.4654 56.8001 101.586 58.6934 103.548 60.6544C103.864 60.9699 104.405 60.5191 104.089 60.2036Z" fill="white"/>
<path d="M106.931 69.5576C103.909 64.7341 100.119 60.3839 95.8567 56.5972C95.4732 56.2591 94.8643 56.9128 95.2477 57.2734C99.4203 61.1277 103.052 65.3201 106.39 69.9182C106.593 70.2112 107.111 69.8731 106.931 69.5801V69.5576Z" fill="white"/>
<path d="M105.758 74.5163C104.089 72.4427 102.42 70.2563 100.435 68.4757C100.165 68.2277 99.8488 68.656 100.029 68.9265C101.473 71.1128 103.412 73.0738 105.217 74.9897C105.533 75.3277 106.074 74.877 105.781 74.5163H105.758Z" fill="white"/>
<path d="M97.8866 64.8693C96.7363 63.4042 95.5409 61.9617 94.2553 60.6318C93.1953 59.5499 91.9999 58.2426 90.6466 57.5439C90.3308 57.3861 90.1053 57.8369 90.2857 58.0623C91.2781 59.3696 92.7442 60.4065 93.9396 61.5785C95.1575 62.7731 96.2852 64.0128 97.3678 65.3201C97.661 65.6807 98.2023 65.23 97.9091 64.8468L97.8866 64.8693Z" fill="white"/>
<path d="M101.991 76.6125C97.7061 71.203 93.3305 65.7258 88.6391 60.6544C88.2783 60.2712 87.6693 60.7671 88.0076 61.1953C92.2028 66.6725 96.8716 71.9017 101.473 77.0408C101.766 77.3563 102.262 76.9506 101.991 76.6125Z" fill="white"/>
<path d="M99.0143 78.5059C94.6838 72.8484 90.1954 66.6725 84.7147 62.0969C84.3989 61.8265 84.0155 62.2998 84.2636 62.5928C88.6617 68.2728 93.9846 73.3217 98.518 78.9341C98.7887 79.2722 99.2849 78.844 99.0143 78.5059Z" fill="white"/>
<path d="M92.6539 76.9055C90.3985 73.4119 87.3311 69.1969 83.587 67.1909C83.2713 67.0331 82.8653 67.3712 83.1359 67.6868C84.5794 69.3322 86.4063 70.6395 87.9175 72.2398C89.4286 73.8401 90.827 75.5757 92.0901 77.3789C92.3607 77.7846 92.9246 77.2887 92.6765 76.883L92.6539 76.9055Z" fill="white"/>
<path d="M89.6316 77.6043C88.8422 76.6351 88.0528 75.6433 87.2408 74.6966C86.5191 73.8401 85.865 72.8258 84.9403 72.1722C84.6696 71.9919 84.3088 72.2849 84.4666 72.5779C84.9628 73.5922 85.865 74.4036 86.5868 75.2601C87.3987 76.2068 88.2332 77.1535 89.0678 78.1001C89.3835 78.4608 89.9699 77.9874 89.6542 77.6043H89.6316Z" fill="white"/>
<path d="M28.3059 66.2217C27.945 69.0842 27.3135 71.8566 26.2309 74.5389C25.2385 76.9506 23.6822 78.9566 22.4868 81.2557C22.329 81.5713 22.7801 81.8417 23.0282 81.6389C26.9977 78.01 28.757 71.4735 28.9149 66.2893C28.9149 65.9061 28.3736 65.8385 28.3059 66.2217Z" fill="white"/>
<path d="M17.8406 84.3662C15.6528 85.5833 13.3974 86.237 11.0292 87.0033C10.5781 87.1386 10.8487 87.8147 11.2773 87.7697C13.7357 87.5217 16.1941 86.3271 18.2241 84.9973C18.5624 84.7719 18.2015 84.1859 17.8406 84.3887V84.3662Z" fill="white"/>
<path d="M16.1039 87.3865C14.8408 87.7246 13.4425 88.0627 12.3147 88.7389C11.999 88.9192 12.1343 89.4151 12.5177 89.37C13.8259 89.1897 15.1115 88.5811 16.3294 88.0627C16.6903 87.9049 16.5099 87.2738 16.1039 87.3865Z" fill="white"/>
<path d="M16.8257 90.3843C15.9686 90.5871 15.0664 90.7675 14.277 91.1957C13.9161 91.376 14.0966 91.8719 14.48 91.8268C15.3596 91.7592 16.2167 91.4211 17.0512 91.1506C17.4798 91.0154 17.2542 90.2941 16.8031 90.3843H16.8257Z" fill="white"/>
<path d="M213.478 37.8217C211.606 35.207 209.216 32.5023 206.261 31.1048C205.968 30.9696 205.629 31.4204 205.878 31.6458C208.291 33.8547 210.794 35.7705 212.847 38.3626C213.185 38.7909 213.772 38.2499 213.478 37.8217Z" fill="white"/>
<path d="M145.409 5.40953C125.087 3.80921 101.089 6.94223 82.8878 16.4315C82.3014 16.747 82.7299 17.6711 83.3389 17.3781C102.826 8.24954 124.208 6.49144 145.364 5.90541C145.68 5.90541 145.747 5.43207 145.409 5.40953Z" fill="white"/>
<path d="M195.051 122.368C188.398 131.812 180.707 138.664 171.369 145.314C171.076 145.516 171.392 145.99 171.707 145.832C181.383 140.828 189.954 131.97 195.525 122.684C195.705 122.368 195.277 122.053 195.074 122.368H195.051Z" fill="white"/>
<path d="M189.413 133.886C186.21 137.875 182.443 140.422 178.135 143.06C177.797 143.262 178.023 143.758 178.406 143.601C183.03 141.842 186.999 138.123 189.931 134.247C190.18 133.908 189.661 133.57 189.413 133.886Z" fill="white"/>
<path d="M188.601 122.864C186.909 125.118 185.195 127.372 183.661 129.739C183.458 130.032 183.887 130.325 184.112 130.054C185.917 127.868 187.518 125.569 189.165 123.27C189.413 122.909 188.871 122.526 188.601 122.864Z" fill="white"/>
<path d="M180.504 132.511C172.677 140.039 164.896 146.576 154.476 150.137C154.07 150.272 154.295 150.949 154.701 150.858C165.325 148.649 173.512 140.332 180.887 132.984C181.158 132.714 180.774 132.241 180.481 132.511H180.504Z" fill="white"/>
<path d="M173.512 133.368C167.309 139.679 160.137 143.601 152.062 146.959C151.747 147.094 151.905 147.635 152.243 147.545C160.588 145.404 168.099 140.084 173.963 133.908C174.279 133.593 173.828 133.052 173.512 133.368Z" fill="white"/>
<path d="M159.235 139.746C156.167 141.279 152.852 142.609 150.01 144.502C149.717 144.705 150.033 145.111 150.326 144.998C153.483 143.781 156.506 141.865 159.483 140.265C159.821 140.084 159.573 139.566 159.235 139.724V139.746Z" fill="white"/>
<path d="M79.6625 155.321C71.6783 154.916 64.3029 153 56.9953 149.822C56.454 149.574 56.1607 150.43 56.6795 150.678C63.8293 154.217 71.6557 155.93 79.5949 156.02C80.046 156.02 80.1362 155.321 79.6625 155.299V155.321Z" fill="white"/>
<path d="M74.5653 152.752C70.2799 152.278 66.4907 150.926 62.7016 148.92C62.2505 148.672 61.7768 149.303 62.2279 149.596C65.9269 151.918 70.1671 153.135 74.4976 153.428C74.9261 153.45 74.9938 152.819 74.5653 152.752Z" fill="white"/>
<path d="M73.1894 149.033C70.528 148.875 68.2049 147.973 65.6562 147.387C65.2953 147.297 65.1375 147.861 65.4081 148.041C67.5733 149.416 70.5956 149.731 73.0992 149.799C73.5728 149.799 73.6631 149.078 73.1669 149.033H73.1894Z" fill="white"/>
</g>
<defs>
<clipPath id="clip0_97_1690">
<rect width="270" height="183" fill="white"/>
</clipPath>
</defs>
</svg>
