<svg width="124" height="142" viewBox="0 0 124 142" fill="none" xmlns="http://www.w3.org/2000/svg">
<g clip-path="url(#clip0_97_206)">
<path d="M19.4072 115.923C50.6654 115.244 81.9508 115.299 113.182 113.833C115.085 113.752 114.976 110.441 113.046 110.469C81.978 110.767 50.8557 110.74 19.7877 111.825C17.1784 111.907 16.7435 115.977 19.4072 115.923Z" fill="white"/>
<path d="M16.4445 114.593C16.0368 119.125 16.2542 123.629 16.363 128.161C16.4717 131.933 15.7922 136.247 17.1512 139.802C17.9123 141.783 20.5489 141.213 21.3099 139.612C22.9136 136.22 22.0166 131.526 21.8807 127.89C21.7176 123.629 21.5817 119.342 21.5002 115.082C21.4458 111.907 16.7435 111.283 16.4445 114.593Z" fill="white"/>
<path d="M19.1083 141.322C50.3121 143.248 81.7335 140.399 112.937 139.585C116.308 139.504 116.824 134.239 113.427 134.348C82.0868 135.325 50.8014 136.763 19.4616 137.387C16.961 137.441 16.4717 141.186 19.0811 141.349L19.1083 141.322Z" fill="white"/>
<path d="M111.769 111.364C110.844 119.532 111.85 128.079 111.823 136.302C111.823 139.449 116.525 140.019 116.797 136.763C117.449 128.568 116.471 119.993 116.199 111.771C116.118 108.976 112.095 108.433 111.769 111.364Z" fill="white"/>
<path d="M24.9522 114.24C23.1855 120.997 23.0224 128.052 24.0553 134.918C24.164 135.705 25.3871 135.487 25.2784 134.701C24.3542 127.835 24.7076 121.268 25.8764 114.457C25.9851 113.915 25.061 113.698 24.9251 114.24H24.9522Z" fill="white"/>
<path d="M29.9535 114.457C28.975 121.54 28.7847 129.138 28.8663 136.274C28.8663 137.116 30.0894 137.278 30.1981 136.41C30.9048 129.246 31.3397 121.621 30.9864 114.43C30.9592 113.833 30.035 113.915 29.9535 114.485V114.457Z" fill="white"/>
<path d="M36.2595 115.407C35.3897 121.54 35.3353 128.161 35.1179 134.375C35.0907 135.27 36.3954 135.406 36.5041 134.511C37.4011 128.432 37.999 121.486 37.2923 115.38C37.2108 114.756 36.3138 114.864 36.2595 115.434V115.407Z" fill="white"/>
<path d="M44.8759 113.996C44.1148 120.726 44.2236 127.618 44.0876 134.375C44.0876 135.379 45.6098 135.542 45.6641 134.511C45.9088 127.7 46.3437 120.753 45.936 113.942C45.9088 113.318 44.9574 113.399 44.8759 113.996Z" fill="white"/>
<path d="M55.1232 114.213C54.6883 121.079 53.7369 128.785 54.6339 135.596C54.7155 136.302 55.6668 136.166 55.7755 135.542C57.0802 128.839 56.591 121.16 56.5638 114.349C56.5638 113.426 55.1775 113.264 55.096 114.213H55.1232Z" fill="white"/>
<path d="M67.1371 115.543C66.7022 121.648 66.2673 128.622 67.2459 134.673C67.3546 135.325 68.3059 135.27 68.3875 134.619C69.2573 128.568 68.6593 121.594 68.1428 115.489C68.0885 114.919 67.1915 114.973 67.1371 115.516V115.543Z" fill="white"/>
<path d="M77.5475 115.869C78.0096 122.381 78.0096 128.297 76.9767 134.755C76.8408 135.569 78.1998 135.894 78.4173 135.08C80.0482 128.948 80.3471 121.838 78.5804 115.679C78.3901 115.027 77.5203 115.19 77.5747 115.869H77.5475Z" fill="white"/>
<path d="M88.3656 113.128C88.42 120.074 88.0938 126.641 87.1969 133.534C87.0881 134.321 88.3928 134.646 88.5831 133.859C90.1868 127.238 90.5673 119.83 89.5072 113.101C89.3985 112.477 88.3384 112.477 88.3656 113.155V113.128Z" fill="white"/>
<path d="M97.0364 113.182C96.3569 120.319 95.6502 127.835 95.922 134.999C95.9491 135.813 97.0907 135.949 97.1995 135.108C98.178 127.998 98.2324 120.454 98.2595 113.291C98.2595 112.531 97.1179 112.395 97.0364 113.182Z" fill="white"/>
<path d="M102.092 113.263C102.309 120.129 101.413 126.886 101.44 133.697C101.44 134.266 102.364 134.619 102.527 133.941C104.212 127.374 103.804 119.939 103.234 113.209C103.179 112.558 102.065 112.612 102.092 113.263Z" fill="white"/>
<path d="M107.936 112.802C108.017 121.051 109.757 129.002 108.48 137.251C108.344 138.092 109.676 138.391 109.947 137.577C112.366 129.843 110.301 120.536 109.05 112.748C108.942 112.151 107.936 112.151 107.963 112.802H107.936Z" fill="white"/>
<path d="M5.40903 89.1944C36.6673 88.516 67.9527 88.5702 99.1837 87.1049C101.086 87.0235 100.978 83.713 99.0478 83.7401C67.9798 84.0386 36.8575 84.0115 5.78957 85.0969C3.18018 85.1783 2.74529 89.2486 5.40903 89.1944Z" fill="white"/>
<path d="M2.44635 87.8647C2.03863 92.3964 2.25608 96.9008 2.3648 101.432C2.47353 105.204 1.794 109.519 3.15305 113.074C3.91412 115.054 6.55069 114.485 7.31176 112.884C8.91544 109.492 8.01846 104.797 7.88256 101.161C7.71947 96.9008 7.58357 92.6134 7.50202 88.3532C7.44766 85.1783 2.74534 84.5542 2.44635 87.8647Z" fill="white"/>
<path d="M5.11012 114.62C36.314 116.574 67.7353 113.698 98.9391 112.884C102.31 112.802 102.826 107.538 99.4284 107.646C68.0886 108.623 36.8032 110.062 5.46347 110.686C2.96281 110.74 2.47355 114.485 5.08293 114.647L5.11012 114.62Z" fill="white"/>
<path d="M97.7704 84.6627C96.8462 92.8305 97.8519 101.378 97.8247 109.6C97.8247 112.748 102.527 113.318 102.799 110.062C103.451 101.867 102.473 93.2918 102.201 85.0698C102.119 82.2748 98.0965 81.7321 97.7704 84.6627Z" fill="white"/>
<path d="M10.9541 87.512C9.18729 94.2687 9.02421 101.324 10.0571 108.189C10.1658 108.976 11.389 108.759 11.2802 107.972C10.3561 101.107 10.7094 94.5401 11.8782 87.7291C11.9869 87.1863 11.0628 86.9693 10.9269 87.512H10.9541Z" fill="white"/>
<path d="M15.9553 87.729C14.9768 94.8114 14.7865 102.409 14.8681 109.546C14.8681 110.387 16.0912 110.55 16.2 109.682C16.9067 102.518 17.3416 94.8928 16.9882 87.7019C16.961 87.1049 16.0369 87.1863 15.9553 87.7562V87.729Z" fill="white"/>
<path d="M22.2613 88.6788C21.3915 94.8114 21.3371 101.432 21.1197 107.646C21.0925 108.542 22.3972 108.678 22.5059 107.782C23.4029 101.704 24.0009 94.7571 23.2942 88.6516C23.2126 88.0275 22.3156 88.1361 22.2613 88.7059V88.6788Z" fill="white"/>
<path d="M30.8777 87.2677C30.1167 93.9973 30.2254 100.89 30.0895 107.646C30.0895 108.65 31.6116 108.813 31.666 107.782C31.9106 100.971 32.3455 94.0245 31.9378 87.2135C31.9106 86.5893 30.9593 86.6708 30.8777 87.2677Z" fill="white"/>
<path d="M41.125 87.4848C40.6901 94.3501 39.7388 102.057 40.6358 108.868C40.7173 109.546 41.6686 109.437 41.7774 108.813C43.082 102.111 42.5928 94.4315 42.5656 87.6205C42.5656 86.6979 41.1794 86.5351 41.0978 87.4848H41.125Z" fill="white"/>
<path d="M53.139 88.8145C52.7041 94.9199 52.2692 101.894 53.2477 107.945C53.3564 108.596 54.3078 108.542 54.3893 107.891C55.2591 101.839 54.6611 94.8657 54.1447 88.7602C54.0903 88.1903 53.1933 88.2446 53.139 88.7873V88.8145Z" fill="white"/>
<path d="M63.5222 89.1401C63.9843 95.6526 63.9843 101.568 62.9514 108.026C62.8155 108.84 64.1746 109.166 64.392 108.352C66.0229 102.219 66.2947 95.1099 64.5551 88.9501C64.3648 88.2989 63.495 88.4617 63.5494 89.1401H63.5222Z" fill="white"/>
<path d="M74.3675 86.3994C74.4218 93.3461 74.0957 99.9129 73.1987 106.805C73.09 107.592 74.3947 107.918 74.5849 107.131C76.1886 100.51 76.5691 93.1019 75.5091 86.3723C75.4004 85.7481 74.3403 85.7481 74.3675 86.4265V86.3994Z" fill="white"/>
<path d="M83.011 86.4537C82.3315 93.5903 81.6248 101.107 81.8966 108.271C81.9238 109.085 83.0654 109.22 83.1741 108.379C84.1526 101.27 84.207 93.726 84.2341 86.5622C84.2341 85.8024 83.0925 85.6667 83.011 86.4537Z" fill="white"/>
<path d="M88.0939 86.5622C88.3113 93.4275 87.4143 100.184 87.4415 106.995C87.4415 107.565 88.3657 107.918 88.5288 107.239C90.214 100.673 89.8063 93.2376 89.2355 86.508C89.1811 85.8567 88.0667 85.911 88.0939 86.5622Z" fill="white"/>
<path d="M93.9377 86.1009C94.0193 94.3501 95.7589 102.301 94.4814 110.55C94.3455 111.391 95.6773 111.69 95.9491 110.876C98.3683 103.142 96.3025 93.8345 95.0522 86.0466C94.9434 85.4497 93.9377 85.4497 93.9649 86.1009H93.9377Z" fill="white"/>
<path d="M9.78513 61.2991C41.0434 60.6207 72.3288 60.6749 103.56 59.2096C105.462 59.1282 105.354 55.8177 103.424 55.8448C72.3559 56.1433 41.2336 56.1162 10.1657 57.2016C7.55628 57.283 7.12139 61.3533 9.78513 61.2991Z" fill="white"/>
<path d="M6.82244 59.9694C6.41473 64.5011 6.63218 69.0056 6.7409 73.5372C6.84963 77.309 6.1701 81.6236 7.52915 85.1783C8.29022 87.1592 10.9268 86.5893 11.6879 84.9884C13.2915 81.5964 12.3946 76.902 12.2587 73.2658C12.0956 69.0056 11.9597 64.7181 11.8781 60.4579C11.8238 57.283 7.12144 56.6589 6.82244 59.9694Z" fill="white"/>
<path d="M9.45899 86.725C40.6628 88.6516 72.0842 85.8024 103.288 84.9883C106.658 84.9069 107.175 79.6427 103.777 79.7512C72.4375 80.7281 41.1521 82.1663 9.81235 82.7904C7.31169 82.8446 6.82243 86.5893 9.43181 86.7522L9.45899 86.725Z" fill="white"/>
<path d="M102.119 56.7674C101.195 64.9352 102.201 73.4829 102.174 81.7049C102.174 84.8527 106.876 85.4225 107.148 82.1663C107.8 73.9713 106.822 65.3965 106.55 57.1745C106.468 54.3795 102.445 53.8368 102.119 56.7674Z" fill="white"/>
<path d="M15.3029 59.6167C13.5362 66.3734 13.3731 73.4286 14.406 80.2939C14.5147 81.0808 15.7378 80.8638 15.6291 80.0768C14.705 73.2115 15.0583 66.6448 16.2271 59.8338C16.3358 59.291 15.4117 59.074 15.2758 59.6167H15.3029Z" fill="white"/>
<path d="M20.3314 59.8337C19.3529 66.9161 19.1626 74.514 19.2442 81.6507C19.2442 82.4919 20.4673 82.6547 20.5761 81.7864C21.2828 74.6226 21.7177 66.9975 21.3643 59.8066C21.3371 59.2096 20.413 59.291 20.3314 59.8609V59.8337Z" fill="white"/>
<path d="M26.6103 60.7835C25.7405 66.9161 25.6861 73.5372 25.4687 79.7512C25.4415 80.6467 26.7462 80.7823 26.8549 79.8869C27.7519 73.8085 28.3499 66.8618 27.6432 60.7563C27.5616 60.1322 26.6646 60.2408 26.6103 60.8106V60.7835Z" fill="white"/>
<path d="M35.2266 59.3724C34.4655 66.102 34.5743 72.9945 34.4384 79.7512C34.4384 80.7552 35.9605 80.918 36.0149 79.8869C36.2595 73.0759 36.6944 66.1292 36.2867 59.3182C36.2595 58.6941 35.3081 58.7755 35.2266 59.3724Z" fill="white"/>
<path d="M45.5011 59.6167C45.0662 66.4819 44.1149 74.1884 45.0119 80.9994C45.0934 81.6778 46.0447 81.5693 46.1535 80.9452C47.4581 74.2427 46.9689 66.5634 46.9417 59.7523C46.9417 58.8297 45.5555 58.6669 45.4739 59.6167H45.5011Z" fill="white"/>
<path d="M57.488 60.9192C57.0531 67.0246 56.6182 73.9985 57.5967 80.0497C57.7054 80.7009 58.6568 80.6467 58.7383 79.9954C59.6081 73.9442 59.0101 66.9704 58.4937 60.8649C58.4393 60.295 57.5423 60.3493 57.488 60.892V60.9192Z" fill="white"/>
<path d="M67.8983 61.2719C68.3604 67.7844 68.3604 73.7 67.3275 80.1582C67.1916 80.9723 68.5507 81.2979 68.7681 80.4838C70.399 74.3512 70.6708 67.2417 68.9312 61.082C68.7409 60.4307 67.8711 60.5935 67.9255 61.2719H67.8983Z" fill="white"/>
<path d="M78.7163 58.5041C78.7707 65.4508 78.4445 72.0176 77.5476 78.91C77.4388 79.6969 78.7435 80.0225 78.9338 79.2356C80.5375 72.6145 80.918 65.2066 79.8579 58.477C79.7492 57.8528 78.6892 57.8528 78.7163 58.5312V58.5041Z" fill="white"/>
<path d="M87.3871 58.5584C86.7076 65.695 86.0009 73.2115 86.2727 80.3753C86.2999 81.1894 87.4415 81.325 87.5502 80.4838C88.5287 73.3743 88.5831 65.8307 88.6102 58.6669C88.6102 57.9071 87.4686 57.7714 87.3871 58.5584Z" fill="white"/>
<path d="M92.4427 58.6669C92.6602 65.5322 91.7632 72.2889 91.7904 79.1C91.7904 79.6698 92.7146 80.0226 92.8776 79.3442C94.5629 72.7774 94.1552 65.3423 93.5844 58.6127C93.53 57.9614 92.4156 58.0157 92.4427 58.6669Z" fill="white"/>
<path d="M98.2867 58.2056C98.3683 66.4548 100.108 74.4055 98.8304 82.6547C98.6945 83.4959 100.026 83.7944 100.298 82.9803C102.717 75.2467 100.651 65.9392 99.4012 58.1513C99.2924 57.5544 98.2867 57.5544 98.3139 58.2056H98.2867Z" fill="white"/>
<path d="M26.3928 32.644C57.651 31.9656 88.9364 32.0199 120.167 30.5545C122.07 30.4731 121.961 27.1626 120.032 27.1897C88.9636 27.4882 57.8413 27.4611 26.7733 28.5465C24.1639 28.6279 23.7291 32.6982 26.3928 32.644Z" fill="white"/>
<path d="M23.4301 31.3143C23.0224 35.846 23.2398 40.3505 23.3486 44.8821C23.4573 48.6539 22.7778 52.9685 24.1368 56.5232C24.8979 58.5041 27.5345 57.9343 28.2955 56.3333C29.8992 52.9413 29.0022 48.2469 28.8663 44.6107C28.7032 40.3505 28.5673 36.0631 28.4858 31.8028C28.4314 28.6279 23.7291 28.0038 23.4301 31.3143Z" fill="white"/>
<path d="M26.0667 58.0428C57.2705 59.9966 88.6918 57.1202 119.896 56.3061C123.266 56.2247 123.783 50.9604 120.385 51.069C89.0452 52.0459 57.7598 53.484 26.42 54.1082C23.9194 54.1624 23.4301 57.9071 26.0395 58.0699L26.0667 58.0428Z" fill="white"/>
<path d="M118.727 28.0852C117.803 36.253 118.808 44.8007 118.781 53.0227C118.781 56.1704 123.484 56.7403 123.755 53.484C124.408 45.2891 123.429 36.7143 123.157 28.4922C123.076 25.6973 119.053 25.1546 118.727 28.0852Z" fill="white"/>
<path d="M31.9106 30.9616C30.1438 37.7183 29.9808 44.7735 31.0136 51.6388C31.1224 52.4257 32.3455 52.2087 32.2368 51.4217C31.3126 44.5565 31.666 37.9897 32.8348 31.1787C32.9435 30.636 32.0193 30.4189 31.8834 30.9616H31.9106Z" fill="white"/>
<path d="M36.9391 31.1787C35.9606 38.261 35.7703 45.859 35.8519 52.9956C35.8519 53.8368 37.075 53.9996 37.1837 53.1313C37.8904 45.9675 38.3253 38.3424 37.972 31.1515C37.9448 30.5545 37.0206 30.6359 36.9391 31.2058V31.1787Z" fill="white"/>
<path d="M43.2451 32.1284C42.3753 38.261 42.3209 44.8821 42.1034 51.0961C42.0763 51.9916 43.381 52.1272 43.4897 51.2318C44.3867 45.1534 44.9846 38.2067 44.2779 32.1013C44.1964 31.4771 43.2994 31.5857 43.2451 32.1555V32.1284Z" fill="white"/>
<path d="M51.8615 30.7174C51.1004 37.447 51.2091 44.3394 51.0732 51.0961C51.0732 52.1001 52.5954 52.2629 52.6497 51.2318C52.8944 44.4208 53.3293 37.4741 52.9215 30.6631C52.8944 30.039 51.943 30.1204 51.8615 30.7174Z" fill="white"/>
<path d="M62.1088 30.9344C61.6739 37.7997 60.7225 45.5062 61.6195 52.3172C61.7011 53.0227 62.6524 52.8871 62.7611 52.2629C64.0658 45.5605 63.5766 37.8811 63.5494 31.0701C63.5494 30.1475 62.1631 29.9847 62.0816 30.9344H62.1088Z" fill="white"/>
<path d="M74.1227 32.2641C73.6878 38.3696 73.2529 45.3434 74.2315 51.3946C74.3402 52.0458 75.2915 51.9916 75.3731 51.3403C76.2429 45.2891 75.6449 38.3153 75.1284 32.2098C75.0741 31.64 74.1771 31.6942 74.1227 32.2369V32.2641Z" fill="white"/>
<path d="M84.506 32.5897C84.9681 39.1022 84.9681 45.0178 83.9352 51.476C83.7993 52.2901 85.1583 52.6157 85.3758 51.8016C87.0067 45.669 87.3056 38.5595 85.5389 32.3998C85.3486 31.7485 84.4788 31.9113 84.5332 32.5897H84.506Z" fill="white"/>
<path d="M95.324 29.849C95.3784 36.7957 95.0522 43.3625 94.1552 50.2549C94.0465 51.0418 95.3512 51.3675 95.5415 50.5805C97.1452 43.9595 97.5257 36.5515 96.4656 29.8219C96.3569 29.1978 95.2968 29.1978 95.324 29.8762V29.849Z" fill="white"/>
<path d="M103.995 29.9033C103.315 37.0399 102.609 44.5564 102.88 51.7202C102.908 52.5343 104.049 52.67 104.158 51.8288C105.136 44.7193 105.191 37.1756 105.218 30.0118C105.218 29.252 104.076 29.1163 103.995 29.9033Z" fill="white"/>
<path d="M109.05 29.9847C109.268 36.85 108.371 43.6067 108.398 50.4177C108.398 50.9876 109.322 51.3403 109.485 50.662C111.171 44.0952 110.763 36.66 110.192 29.9304C110.138 29.2792 109.023 29.3335 109.05 29.9847Z" fill="white"/>
<path d="M114.894 29.5234C115.003 37.7726 116.716 45.7233 115.438 53.9725C115.302 54.8137 116.634 55.1122 116.906 54.2981C119.325 46.5645 117.259 37.257 116.009 29.4691C115.9 28.8721 114.894 28.8721 114.922 29.5234H114.894Z" fill="white"/>
<path d="M3.20737 6.48537C34.4656 5.80699 65.751 5.86126 96.982 4.39594C98.8847 4.31454 98.776 1.00401 96.8461 1.03114C65.7782 1.32963 34.6559 1.3025 3.58791 2.38792C0.978524 2.46932 0.543627 6.53965 3.20737 6.48537Z" fill="white"/>
<path d="M0.244685 5.18288C-0.16303 9.7145 0.054418 14.219 0.163142 18.7506C0.271867 22.5225 -0.40766 26.837 0.951393 30.3917C1.71246 32.3726 4.34903 31.8028 5.1101 30.2018C6.71378 26.8099 5.8168 22.1154 5.6809 18.4793C5.51781 14.219 5.38191 9.93159 5.30036 5.67132C5.246 2.49647 0.543677 1.87235 0.244685 5.18288Z" fill="white"/>
<path d="M2.88123 31.9113C34.0851 33.8651 65.5064 30.9887 96.7103 30.1747C100.081 30.0933 100.597 24.829 97.1995 24.9375C65.8598 25.9144 34.5744 27.3526 3.23459 27.9767C0.73393 28.031 0.24467 31.7757 2.85405 31.9385L2.88123 31.9113Z" fill="white"/>
<path d="M95.5415 1.95375C94.6173 10.1215 95.623 18.6692 95.5958 26.8913C95.5958 30.039 100.298 30.6088 100.57 27.3526C101.222 19.1576 100.244 10.5828 99.972 2.36078C99.8905 -0.434177 95.8677 -0.976887 95.5415 1.95375Z" fill="white"/>
<path d="M8.72518 4.80298C6.95841 11.5597 6.79533 18.6149 7.82821 25.4802C7.93693 26.2671 9.16008 26.0501 9.05135 25.2631C8.1272 18.3979 8.48055 11.8311 9.64934 5.02006C9.75806 4.47735 8.83391 4.26027 8.698 4.80298H8.72518Z" fill="white"/>
<path d="M13.7537 5.02006C12.7752 12.1024 12.5849 19.7004 12.6664 26.837C12.6664 27.6782 13.8896 27.841 13.9983 26.9727C14.705 19.8089 15.1399 12.1838 14.7866 4.99292C14.7594 4.39594 13.8352 4.47735 13.7537 5.04719V5.02006Z" fill="white"/>
<path d="M20.0596 5.99693C19.1898 12.1295 19.1355 18.7506 18.918 24.9646C18.8908 25.8601 20.1955 25.9958 20.3043 25.1003C21.2012 19.022 21.7992 12.0753 21.0925 5.96979C21.011 5.34567 20.114 5.45422 20.0596 6.02406V5.99693Z" fill="white"/>
<path d="M28.6761 4.55875C27.915 11.2884 28.0237 18.1808 27.8878 24.9375C27.8878 25.9415 29.41 26.1043 29.4643 25.0732C29.7089 18.2622 30.1438 11.3155 29.7361 4.50448C29.7089 3.88037 28.7576 3.96177 28.6761 4.55875Z" fill="white"/>
<path d="M38.9234 4.80298C38.4885 11.6683 37.5371 19.3747 38.4341 26.1857C38.5156 26.8641 39.467 26.7556 39.5757 26.1315C40.8804 19.429 40.3911 11.7497 40.3639 4.93865C40.3639 4.01605 38.9777 3.85323 38.8962 4.80298H38.9234Z" fill="white"/>
<path d="M50.9373 6.10547C50.5024 12.211 50.0675 19.1848 51.046 25.236C51.1548 25.8872 52.1061 25.833 52.1876 25.1817C53.0574 19.1305 52.4594 12.1567 51.943 6.0512C51.8886 5.48136 50.9917 5.53563 50.9373 6.07834V6.10547Z" fill="white"/>
<path d="M61.3206 6.45823C61.7826 12.9708 61.7826 18.8863 60.7498 25.3445C60.6139 26.1586 61.9729 26.4842 62.1904 25.6702C63.8212 19.5375 64.1202 12.428 62.3534 6.26829C62.1632 5.61703 61.2934 5.77985 61.3477 6.45823H61.3206Z" fill="white"/>
<path d="M72.1386 3.6904C72.193 10.6371 71.8668 17.2039 70.9698 24.0963C70.8611 24.8832 72.1658 25.2088 72.356 24.4219C73.9597 17.8009 74.3403 10.3929 73.2802 3.66327C73.1715 3.03915 72.1114 3.03915 72.1386 3.71754V3.6904Z" fill="white"/>
<path d="M80.8093 3.74468C80.1298 10.8813 79.4231 18.3978 79.6949 25.5616C79.7221 26.3757 80.8637 26.5114 80.9724 25.6702C81.9509 18.5607 82.0053 11.017 82.0325 3.85322C82.0325 3.09343 80.8909 2.95775 80.8093 3.74468Z" fill="white"/>
<path d="M85.865 3.85324C86.0824 10.7185 85.1855 17.4753 85.2126 24.2863C85.2126 24.8561 86.1368 25.2089 86.2999 24.5305C87.9851 17.9637 87.5774 10.5286 87.0066 3.79897C86.9522 3.14772 85.8378 3.20199 85.865 3.85324Z" fill="white"/>
<path d="M91.709 3.39193C91.8177 11.6411 93.5301 19.5918 92.2526 27.841C92.1167 28.6822 93.4486 28.9807 93.7204 28.1666C96.1395 20.433 94.0737 11.1255 92.8234 3.33766C92.7147 2.74068 91.709 2.74068 91.7362 3.39193H91.709Z" fill="white"/>
</g>
<defs>
<clipPath id="clip0_97_206">
<rect width="124" height="142" fill="white"/>
</clipPath>
</defs>
</svg>
