<svg width="236" height="170" viewBox="0 0 236 170" fill="none" xmlns="http://www.w3.org/2000/svg">
<g clip-path="url(#clip0_97_287)">
<path d="M233.277 56.599C220.215 51.642 206.723 51.7639 192.964 50.809C184.713 50.2402 177.425 48.229 169.624 45.6895C164.24 43.9424 159.49 42.7032 153.88 44.0846C152.365 44.4503 152.242 46.9491 154.003 46.9897C166.697 47.3148 178.141 53.4297 190.835 54.5065C204.982 55.7051 218.945 53.6532 232.622 58.3867C233.789 58.793 234.444 57.0459 233.298 56.599H233.277Z" fill="white"/>
<path d="M232.663 56.0504C220.89 64.5017 208.647 70.5557 195.749 77.2192C184.468 83.0497 175.725 91.5213 163.564 95.6859C162.336 96.1126 163.011 98.0425 164.26 97.8191C177.916 95.4422 187.232 83.7404 199.598 78.2553C211.534 72.9326 226.684 69.093 234.301 57.5335C234.997 56.4567 233.686 55.3394 232.683 56.0707L232.663 56.0504Z" fill="white"/>
<path d="M164.281 94.6499C150.707 93.5528 141.944 88.5958 130.233 82.3996C122.412 78.2756 114.079 75.9799 105.296 75.0454C103.822 74.8829 103.699 76.9754 105.091 77.2801C112.707 78.9054 120.733 79.5758 127.653 83.4154C132.239 85.9548 136.047 89.5913 140.736 92.0292C148.045 95.8485 156.153 97.5956 164.363 97.0674C165.755 96.9861 165.611 94.7718 164.26 94.6702L164.281 94.6499Z" fill="white"/>
<path d="M155.231 42.7844C146.796 47.1116 137.501 48.1477 129.537 53.4297C119.689 59.9713 110.353 67.5084 100.771 74.4359C98.9902 75.7361 101.222 78.3975 103.003 77.0566C112.319 70.0275 121.45 62.0841 131.543 56.1723C139.426 51.5607 150.072 51.6217 156.583 44.9175C157.524 43.9424 156.583 42.0734 155.211 42.7844H155.231Z" fill="white"/>
<path d="M156.583 41.728C140.961 38.1322 125.729 32.7689 111.09 26.3289C109.534 25.6381 108.162 28.1573 109.677 28.9902C123.599 36.5882 140.306 42.0124 156.05 44.0237C157.361 44.1862 157.913 42.0531 156.583 41.7483V41.728Z" fill="white"/>
<path d="M111.356 26.0445C100.853 29.8434 88.0572 33.9472 82.3245 44.3487C81.7513 45.3848 82.8773 46.5631 83.901 45.7708C88.4257 42.3375 91.3534 37.7665 96.5742 35.0442C101.652 32.4032 107.2 30.6154 112.38 28.1776C113.793 27.5072 112.769 25.5163 111.356 26.0241V26.0445Z" fill="white"/>
<path d="M83.3688 44.3284C75.7731 46.2584 64.3692 47.4976 59.087 53.9579C57.9405 55.3597 60.1312 57.3506 61.462 56.1114C67.3584 50.5856 76.592 49.0213 84.0035 46.2584C85.0886 45.8521 84.5153 44.044 83.3893 44.3284H83.3688Z" fill="white"/>
<path d="M103.699 76.0815C103.372 75.7971 103.167 75.6752 102.737 75.5533C101.959 75.3298 100.894 75.9393 101.16 76.8738C101.304 77.3817 101.447 77.7271 101.816 78.1334C103.146 79.5961 105.235 77.463 103.699 76.0815Z" fill="white"/>
<path d="M104.088 101.009C105.869 97.5753 104.743 94.2436 104.293 90.6274C103.638 85.4266 104.539 80.8963 104.866 75.7768C105.071 72.5669 99.8911 72.1606 99.8911 75.3095C99.8911 80.5103 100.751 85.5485 100.423 90.7899C100.178 94.6092 99.625 98.1238 102.02 101.374C102.614 102.187 103.699 101.74 104.088 101.009Z" fill="white"/>
<path d="M60.8682 79.1898C60.3768 71.2667 60.1106 63.4453 60.6634 55.5222C60.7863 53.9173 58.2475 53.6938 58.1861 55.2784C57.8585 63.4046 58.268 71.4496 58.8618 79.5351C58.9641 80.8353 60.9501 80.4696 60.8682 79.1898Z" fill="white"/>
<path d="M103.965 100.359C99.0926 95.1984 91.9268 93.3293 85.4366 90.9321C76.6739 87.702 68.8735 84.5124 61.421 78.885C59.3737 77.3208 57.1625 80.5306 59.128 82.1152C64.6763 86.5846 73.3572 89.1444 79.9702 91.7244C87.7707 94.7718 95.1207 98.5504 102.573 102.309C103.699 102.878 104.784 101.212 103.965 100.338V100.359Z" fill="white"/>
<path d="M111.029 27.5478C89.5518 23.2003 75.2817 4.04278 53.9277 0.0812619C52.7811 -0.121893 52.3307 1.76745 53.4772 2.05186C73.9509 7.37452 89.3676 29.0918 110.804 29.9044C112.36 29.9653 112.503 27.8525 111.029 27.5478Z" fill="white"/>
<path d="M61.5438 53.5313C40.6197 48.4321 20.924 38.6807 3.68517 25.9429C2.25201 24.8865 0.736962 27.0805 2.1087 28.1776C18.7333 41.6061 40.0874 51.4794 61.0319 55.7863C62.3422 56.0504 62.8541 53.8157 61.5642 53.511L61.5438 53.5313Z" fill="white"/>
<path d="M53.989 0.182839C46.0862 5.26171 37.2825 8.10588 28.9497 12.3112C20.187 16.7196 12.5912 24.0332 2.8253 25.9632C1.49452 26.2273 1.61736 28.076 2.92767 28.2792C12.4684 29.6809 20.924 20.092 28.6426 15.9273C37.5486 11.1329 47.2941 8.0043 55.3198 1.7065C56.364 0.893881 55.0741 -0.507887 54.0095 0.182839H53.989Z" fill="white"/>
<path d="M61.8509 80.2462C56.0364 74.2734 46.9051 72.3028 39.0637 70.0884C26.5952 66.5942 13.6968 63.6687 2.70247 56.5583C1.14647 55.5425 -0.409529 57.7569 1.0441 58.8946C8.57841 64.7861 18.4877 66.5942 27.4142 69.6618C38.2038 73.3795 49.9352 76.8535 59.9673 82.2777C61.2572 82.9685 63.0588 81.4651 61.8509 80.2259V80.2462Z" fill="white"/>
<path d="M2.55921 27.2837C2.68205 29.0105 2.55921 30.8389 2.19068 32.5251C1.8631 33.9472 1.12605 35.1661 1.24889 36.6491C1.31032 37.2789 2.17021 37.7462 2.723 37.4008C5.99879 35.4302 5.54837 29.7216 4.52468 26.6539C4.13568 25.4553 2.47731 26.207 2.55921 27.2837Z" fill="white"/>
<path d="M1.06459 38.5994C1.55596 40.4481 1.57643 42.9266 1.31027 44.7956C1.08506 46.5021 -0.0205145 48.1883 0.798432 49.8542C1.02364 50.3011 1.53548 50.5856 2.04733 50.5043C4.52464 50.0574 4.99553 46.9085 5.11838 44.816C5.28217 41.9312 4.4018 40.0825 2.88675 37.7462C2.31348 36.8726 0.777959 37.6446 1.04412 38.5994H1.06459Z" fill="white"/>
<path d="M0.184212 50.3824C-0.0614718 53.2875 -0.307156 55.8879 1.02363 58.6102C2.21111 61.0277 5.97826 59.2603 4.83174 56.8021C3.86947 54.7299 2.53868 52.5765 2.31347 50.2808C2.19063 49.0619 0.266107 49.1838 0.184212 50.3621V50.3824Z" fill="white"/>
<path d="M235.263 64.3595C234.731 62.8561 232.867 62.3076 231.516 61.7184C230.165 61.1293 228.404 59.9307 226.951 60.8246C226.459 61.1293 226.091 61.6372 226.214 62.2263C226.582 64.0141 228.486 64.4204 229.981 65.0299C231.455 65.619 233.134 66.5738 234.71 65.8425C235.304 65.5581 235.447 64.908 235.242 64.3391L235.263 64.3595Z" fill="white"/>
<path d="M233.83 63.9125C228.2 68.7476 222.508 72.5263 215.752 75.6549C209.835 78.3975 203.447 80.815 197.898 84.228C197.161 84.6953 197.407 86.158 198.41 85.8532C211.022 82.0543 225.395 74.3344 235.386 65.7409C236.573 64.7251 234.997 62.8967 233.809 63.9125H233.83Z" fill="white"/>
<path d="M166.39 101.862C164.956 101.862 163.544 102.187 162.111 102.248C160.657 102.309 159.183 102.065 157.729 102.329C156.869 102.471 156.624 103.629 157.34 104.117C159.756 105.803 164.281 105.783 166.881 104.523C168.048 103.954 167.864 101.862 166.41 101.882L166.39 101.862Z" fill="white"/>
<path d="M166.389 108.139C164.342 107.713 162.213 107.652 160.145 107.266C158.139 106.88 156.112 106.291 154.085 106.067C152.856 105.945 152.488 107.449 153.307 108.139C156.46 110.821 162.52 111.776 166.492 110.963C168.171 110.618 167.925 108.464 166.369 108.139H166.389Z" fill="white"/>
<path d="M158.261 107.936C154.31 106.169 150.195 104.808 146.284 102.939C142.804 101.273 139.466 99.2818 135.925 97.7581C134.983 97.3518 134.266 98.7536 135.106 99.3224C141.698 103.772 149.949 107.469 157.483 110.008C158.855 110.476 159.551 108.505 158.261 107.936Z" fill="white"/>
<path d="M167.27 128.516C160.043 120.979 147.82 117.728 138.709 113.035C127.387 107.185 112.933 104.442 102.716 97.0268C101.058 95.8282 99.2358 98.3879 100.894 99.6272C110.005 106.433 122.862 108.18 133.161 113.035C140.49 116.489 147.001 120.572 153.757 124.961C157.688 127.52 161.517 129.796 166.123 130.69C167.27 130.913 168.027 129.308 167.27 128.516Z" fill="white"/>
<path d="M167.249 121.324C166.512 120.857 165.734 120.349 164.936 120.004C163.953 119.577 162.888 119.496 161.885 119.171C160.002 118.521 158.22 117.484 156.439 116.591C155.518 116.123 154.924 117.525 155.641 118.094C157.094 119.252 158.794 119.943 160.411 120.857C161.332 121.365 161.988 122.076 162.847 122.685C163.605 123.234 164.485 123.62 165.284 124.128C167.147 125.306 169.112 122.523 167.249 121.344V121.324Z" fill="white"/>
<path d="M155.395 116.347C148.25 112.406 141.268 107.55 133.632 104.523C132.628 104.117 131.871 105.559 132.751 106.169C139.487 110.841 147.41 113.95 154.658 117.708C155.457 118.114 156.173 116.753 155.395 116.326V116.347Z" fill="white"/>
<path d="M166.635 114.498C162.049 113.36 157.565 112.02 153.164 110.313C152.201 109.947 151.608 111.248 152.365 111.837C156.194 114.843 161.435 116.022 166.164 116.591C167.372 116.733 167.864 114.803 166.656 114.498H166.635Z" fill="white"/>
<path d="M233.175 91.8869C209.876 100.298 184.468 112.609 165.038 128.049C163.564 129.227 165.182 131.848 166.881 130.872C189.381 117.911 209.63 103.284 234.055 93.7153C235.283 93.2278 234.403 91.44 233.175 91.8869Z" fill="white"/>
<path d="M234.526 91.3384C233.052 90.8915 231.475 90.1804 230.185 89.3069C229.407 88.7787 228.404 89.8148 229.039 90.5461C230.431 92.1307 231.946 92.984 234.034 93.3903C235.222 93.6138 235.652 91.7041 234.505 91.3384H234.526Z" fill="white"/>
<path d="M233.175 85.7314C231.537 86.4424 228.916 87.9254 228.711 89.9163C228.629 90.6274 229.407 91.1759 230.063 90.8509C230.841 90.4649 231.27 89.7335 231.905 89.1444C232.56 88.5349 233.277 88.0473 234.096 87.641C235.324 87.0315 234.444 85.1828 233.175 85.7314Z" fill="white"/>
<path d="M234.382 85.5485C235.181 84.3499 235.57 82.7043 235.304 81.2823C235.038 79.8805 234.055 78.1537 232.54 77.9302C231.7 77.8083 231.086 78.7835 231.434 79.4945C231.844 80.3274 232.622 80.7947 232.97 81.7089C233.338 82.6637 233.4 83.5982 232.867 84.5124C232.294 85.5282 233.727 86.5643 234.382 85.5688V85.5485Z" fill="white"/>
<path d="M233.216 78.0521C234.075 75.7971 234.956 73.5624 235.836 71.3277C236.512 69.6212 235.058 67.6912 233.789 66.5942C232.786 65.7206 231.23 66.8786 231.455 68.0772C231.598 68.8086 231.803 69.2149 232.11 69.865C232.622 70.962 232.663 71.2058 232.356 72.4857C231.967 74.0906 231.578 75.7158 231.189 77.3208C230.882 78.6209 232.704 79.3929 233.216 78.0724V78.0521Z" fill="white"/>
<path d="M233.195 84.1061C226.377 87.2957 219.068 90.6477 212.824 94.853C211.964 95.4218 212.906 96.6001 213.745 96.2751C220.686 93.6341 227.626 89.6116 234.055 85.9345C235.181 85.2844 234.383 83.5373 233.175 84.1061H233.195Z" fill="white"/>
<path d="M207.624 97.4331C200.478 101.131 192.944 105.072 186.761 110.252C186.454 110.496 186.781 111.044 187.15 110.841C194.193 106.758 200.785 102.004 207.951 98.0832C208.361 97.8597 208.053 97.2096 207.644 97.4331H207.624Z" fill="white"/>
<path d="M185.307 111.024C182.072 112.629 178.837 114.275 175.685 116.022C172.921 117.566 169.809 118.907 167.331 120.897C166.778 121.344 167.372 122.198 168.007 121.934C171.078 120.633 173.903 118.48 176.79 116.794C179.718 115.087 182.646 113.34 185.594 111.654C185.962 111.451 185.696 110.862 185.307 111.044V111.024Z" fill="white"/>
<path d="M212.824 88.2708C196.752 95.6047 180.905 103.934 166.512 114.173C165.489 114.904 166.758 116.367 167.782 115.656C182.338 105.559 196.998 96.3564 213.11 88.86C213.499 88.6771 213.213 88.088 212.824 88.2505V88.2708Z" fill="white"/>
<path d="M196.404 91.3181C194.705 92.0089 192.964 92.6386 191.326 93.4716C190.937 93.6747 191.224 94.2029 191.613 94.0607C193.353 93.4716 195.012 92.6589 196.711 91.9276C197.12 91.7447 196.834 91.1556 196.424 91.3181H196.404Z" fill="white"/>
<path d="M183.505 98.5504C180.025 100.115 176.585 101.821 173.269 103.69C170.668 105.153 167.557 106.656 165.673 108.972C165.243 109.5 165.919 110.069 166.451 109.866C169.256 108.871 171.692 106.636 174.169 105.051C177.343 103 180.598 101.171 183.935 99.4037C184.488 99.1193 184.099 98.2863 183.526 98.5301L183.505 98.5504Z" fill="white"/>
<path d="M184.529 90.0179C181.11 92.0698 177.732 94.1623 174.374 96.3157C171.426 98.2051 167.966 99.9522 165.53 102.451C164.977 103.02 165.53 104.015 166.328 103.67C169.563 102.228 172.368 99.6881 175.255 97.6769C178.51 95.4015 181.827 93.1871 185.143 90.9728C185.676 90.6274 185.082 89.6929 184.529 90.0179Z" fill="white"/>
<path d="M219.048 83.903C221.791 82.5215 224.576 81.201 227.36 79.9008C228.855 79.2101 231.803 78.6413 232.315 76.8738C232.417 76.5081 232.356 75.9596 231.967 75.7565C231.905 75.7158 231.823 75.6752 231.762 75.6346C231.25 75.3705 230.595 75.4517 230.37 76.0612C230.267 76.3659 230.247 76.5894 230.431 76.8738C230.656 77.2395 231.23 77.3817 231.496 76.9551L231.578 76.8332C231.25 76.8941 230.923 76.9551 230.595 77.016C229.489 76.1221 225.743 79.0882 224.617 79.7586C222.651 80.8963 220.686 82.0339 218.7 83.131C218.229 83.3951 218.577 84.1468 219.068 83.903H219.048Z" fill="white"/>
<path d="M222.508 86.3205C225.067 85.3454 227.667 84.4718 230.206 83.4763C231.762 82.8669 234.301 82.5012 234.812 80.7134C234.935 80.3071 234.833 79.8399 234.464 79.5961C233.809 79.1694 233.093 79.2913 232.663 79.9414C232.356 80.4087 232.581 80.8963 233.031 81.14C233.072 81.1604 233.113 81.1807 233.154 81.201C233.564 81.4042 234.034 81.0182 234.075 80.6322C234.219 79.5554 230.431 81.3635 230.226 81.4651C229.407 81.8511 228.568 82.2168 227.749 82.6028C225.825 83.4966 223.941 84.4515 222.016 85.3454C221.361 85.6501 221.832 86.6049 222.487 86.3408L222.508 86.3205Z" fill="white"/>
<path d="M131.154 95.8485C123.395 91.1556 113.977 85.6095 104.682 85.1422C103.781 85.1016 103.474 86.3205 104.334 86.6862C113.117 90.3227 122.187 91.8463 130.704 96.4986C131.134 96.7424 131.584 96.1329 131.154 95.8688V95.8485Z" fill="white"/>
<path d="M124.582 100.277C123.62 99.2615 121.736 97.555 120.201 97.9003C119.853 97.9816 119.648 98.4082 119.914 98.6926C120.406 99.2209 121.143 99.3631 121.777 99.6881C122.514 100.074 123.252 100.501 123.907 101.009C124.357 101.354 124.971 100.704 124.562 100.277H124.582Z" fill="white"/>
<path d="M117.805 96.783C115.697 95.5844 113.588 94.3858 111.356 93.4309C109.411 92.5777 107.159 91.3791 105.009 91.6229C104.334 91.7041 104.272 92.5574 104.723 92.9231C106.32 94.2436 108.756 94.5483 110.701 95.2187C112.953 95.9704 115.185 96.7221 117.375 97.6362C117.867 97.8394 118.297 97.0674 117.805 96.8033V96.783Z" fill="white"/>
<path d="M152.979 99.6475C149.417 98.4488 145.936 96.7424 142.312 95.7875C141.985 95.7063 141.678 96.1532 142.005 96.3564C145.22 98.2863 149.13 99.3021 152.713 100.379C153.184 100.521 153.471 99.81 152.979 99.6475Z" fill="white"/>
<path d="M139.119 94.0404C129.619 86.9097 116.393 78.7632 104.047 78.946C103.331 78.946 103.044 79.9008 103.761 80.1852C109.268 82.3996 115.267 83.2326 120.856 85.4266C127.101 87.8645 133.058 91.0337 138.566 94.8124C139.078 95.1577 139.61 94.4061 139.119 94.0404Z" fill="white"/>
<path d="M57.6539 60.8043C55.6475 60.2354 53.5591 60.0119 51.5322 59.565C48.9935 58.9962 46.5981 58.1226 44.1208 57.3913C43.7113 57.2694 43.4042 57.7976 43.7727 58.0617C47.4989 60.662 52.9859 62.4904 57.572 61.8607C58.0838 61.7997 58.1862 60.9668 57.6743 60.8246L57.6539 60.8043Z" fill="white"/>
<path d="M38.9408 54.9534C32.635 50.7481 26.1653 46.8272 19.5318 43.1298C15.4575 40.8544 9.25401 36.0397 4.58602 35.8568C4.01275 35.8365 3.52138 36.2022 3.43949 36.7913C3.41902 36.9945 3.37807 37.1976 3.3576 37.4008C3.25523 38.0915 4.17654 38.5588 4.70886 38.0915C6.18296 36.771 21.7839 45.7911 23.258 46.5631C28.4583 49.3666 33.5563 52.353 38.5928 55.441C38.9204 55.6441 39.2684 55.1769 38.9408 54.9534Z" fill="white"/>
<path d="M40.6811 62.9983C26.6362 61.1902 17.1978 48.615 3.03003 47.6195C2.2725 47.5586 1.51498 48.4118 1.94492 49.1432C2.04729 49.3057 2.12919 49.4479 2.23155 49.6104C2.45676 49.9558 2.7434 50.1183 3.15287 50.0777C3.33713 50.0777 3.50092 50.0574 3.68518 50.037C4.27892 49.9964 4.44271 49.1025 3.95134 48.8181C6.8586 50.6262 10.7691 51.2763 14.1677 52.7796C17.9144 54.4455 21.4973 56.4771 25.0802 58.4477C30.0348 61.1496 34.8871 63.4046 40.5787 63.8313C41.1315 63.8719 41.193 63.0593 40.6606 62.9983H40.6811Z" fill="white"/>
<path d="M17.853 47.3757C13.9221 44.9785 9.9297 43.0891 5.38454 42.114C4.25849 41.8702 3.80807 43.8002 4.93412 44.0643C9.19264 45.0598 13.4512 46.299 17.3616 48.2899C17.894 48.554 18.3648 47.6804 17.853 47.3757Z" fill="white"/>
<path d="M25.162 63.7297C22.9509 62.8764 20.5555 61.6575 18.1805 61.3325C17.812 61.2918 17.6277 61.7997 17.9348 62.0029C19.9413 63.2827 22.5824 63.8719 24.814 64.6439C25.4077 64.847 25.7558 63.9532 25.162 63.7297Z" fill="white"/>
<path d="M15.0276 59.6463C12.2637 58.0007 9.54068 56.2739 6.75626 54.669C5.56879 53.9782 2.82532 51.6623 1.37169 52.3327C0.839373 52.5765 0.614162 53.3688 1.04411 53.8157C1.55595 54.3236 1.78116 54.4049 2.49774 54.3439C3.03006 54.3033 3.1529 53.6329 2.88674 53.2875C2.84579 53.2063 2.78437 53.1047 2.74342 53.0234C2.47727 53.3891 2.23158 53.7548 1.96542 54.1408C2.06779 54.1205 3.97184 55.2784 4.21753 55.4003C5.22074 55.9082 6.22395 56.4161 7.24763 56.924C9.64305 58.1226 12.0794 59.2806 14.4544 60.5198C15.0481 60.8246 15.6623 60.0119 15.0686 59.6666L15.0276 59.6463Z" fill="white"/>
<path d="M50.6928 65.2737C52.2283 65.5581 53.7638 66.1675 55.0537 67.0208C56.0569 67.6709 56.9373 68.8289 58.1247 69.093C58.4933 69.1742 58.9642 68.9304 58.8618 68.4835C58.5342 67.0817 56.9782 66.2894 55.7498 65.7206C54.1528 64.9892 52.5149 64.6642 50.7747 64.6032C50.3243 64.6032 50.2833 65.1924 50.7133 65.2737H50.6928Z" fill="white"/>
<path d="M42.2986 67.9147C45.1854 68.4429 48.1131 69.1336 50.8157 70.2713C51.8393 70.6979 52.8835 71.2058 53.8662 71.6934C54.808 72.1606 55.7089 72.6685 56.6097 73.217C57.2444 73.9687 58.0019 74.0703 58.8823 73.5421C58.698 72.9935 58.0224 72.7498 57.6334 73.2577C57.5924 73.2983 57.5515 73.3592 57.531 73.3999C57.3468 73.664 57.3263 74.1109 57.572 74.3547C57.6334 74.4156 57.6948 74.4766 57.7767 74.5578C57.9814 74.761 58.309 74.9438 58.6161 74.8626C58.698 74.8423 58.7799 74.8219 58.8618 74.8016C59.3737 74.6594 59.7627 74.2328 59.6603 73.664C59.2713 71.3886 55.238 70.4338 53.3953 69.7431C49.8534 68.4226 46.1272 67.5287 42.36 67.0614C41.8072 67.0005 41.7458 67.7928 42.2781 67.8944L42.2986 67.9147Z" fill="white"/>
<path d="M128.247 106.616C120.692 102.471 112.748 98.0222 104.497 95.4219C103.412 95.0765 102.839 96.6205 103.883 97.0674C111.97 100.48 120.098 103.203 127.94 107.205C128.267 107.367 128.575 106.799 128.247 106.636V106.616Z" fill="white"/>
<path d="M42.9537 60.2557C36.1564 57.5944 30.219 53.9376 24.036 50.1183C23.3604 49.712 22.7052 50.6465 23.3399 51.1138C29.1135 55.38 35.9926 58.3867 42.7285 60.8652C43.1175 61.0074 43.3427 60.4183 42.9537 60.2557Z" fill="white"/>
<path d="M98.2939 88.9412C98.1506 83.6998 98.2325 78.4381 97.9868 73.1967C97.9459 72.1606 96.3285 72.445 96.3694 73.4811C96.6356 78.6616 97.2293 83.8014 97.5978 88.9818C97.6183 89.3678 98.2939 89.3475 98.2735 88.9615L98.2939 88.9412Z" fill="white"/>
<path d="M95.182 91.1556C94.9158 84.4718 94.6702 77.788 94.2197 71.1245C94.1378 69.9869 92.1519 70.3119 92.459 71.4293C92.5818 71.9168 92.7047 72.3841 92.848 72.8717C92.9708 73.3186 93.7079 73.5014 93.8512 72.9529C93.9741 72.506 94.0764 72.0387 94.1993 71.5918C93.626 71.5308 93.0527 71.4902 92.4795 71.4293C93.0118 78.0115 93.7284 84.614 94.4245 91.1962C94.4654 91.6228 95.2229 91.6025 95.2025 91.1556H95.182Z" fill="white"/>
<path d="M91.1281 84.3702C90.7187 79.7789 91.5786 74.1109 90.1249 69.7228C89.8997 69.0523 89.0398 69.418 88.917 69.9259C87.8933 74.3953 89.6336 80.0633 90.2068 84.5328C90.2887 85.1422 91.1896 84.9594 91.1281 84.3702Z" fill="white"/>
<path d="M86.5831 83.8217C86.276 78.9866 86.7469 73.4608 85.4775 68.7679C85.2728 67.9959 84.0648 67.935 83.9829 68.8289C83.5939 73.7452 85.068 79.1085 85.6618 83.9842C85.7437 84.5734 86.6035 84.3905 86.5626 83.8217H86.5831Z" fill="white"/>
<path d="M81.5671 82.2777C81.5876 80.9979 81.8332 79.4945 81.4442 78.2553C81.3214 77.8896 80.7481 77.7271 80.6048 78.174C80.2158 79.4133 80.441 80.876 80.4615 82.1762C80.4615 82.8669 81.5466 83.0091 81.5671 82.2777Z" fill="white"/>
<path d="M80.953 73.9281C81.0144 72.7498 81.1986 71.5918 81.2396 70.4135C81.2805 69.4383 81.4443 68.3819 80.9734 67.5084C80.7892 67.163 80.1954 67.0208 79.9702 67.4271C79.4379 68.3819 79.6017 69.4383 79.6631 70.5151C79.7245 71.673 79.8883 72.8107 79.9497 73.9687C79.9702 74.5375 80.912 74.4766 80.9325 73.9281H80.953Z" fill="white"/>
<path d="M77.6157 81.7089C77.5543 76.8129 77.5747 71.9168 77.329 67.0411C77.2676 65.8628 75.4455 66.1879 75.5069 67.3662C75.773 72.1606 76.3054 76.9551 76.7558 81.7495C76.7967 82.2371 77.6157 82.1965 77.6157 81.7089Z" fill="white"/>
<path d="M72.5996 82.2777C72.5382 78.8647 72.3334 75.4517 72.4358 72.0387C72.5177 69.3977 72.7224 66.6957 71.8625 64.1766C71.6987 63.7094 70.8798 63.75 70.757 64.2173C70.1223 66.7973 70.5522 69.479 70.8593 72.0997C71.2483 75.4924 71.3302 78.9054 71.5554 82.3184C71.5964 82.8872 72.5791 82.8466 72.5791 82.2777H72.5996Z" fill="white"/>
<path d="M68.5048 77.2598C68.73 72.6888 69.549 66.7973 67.8906 62.4092C67.6244 61.7388 66.6212 62.0029 66.5393 62.653C66.2936 64.7658 66.785 66.8989 67.0716 68.9914C67.4402 71.7137 67.6654 74.4563 67.7678 77.1988C67.7678 77.6458 68.4843 77.7474 68.5048 77.2598Z" fill="white"/>
<path d="M64.7582 74.3344C64.5944 73.0342 64.5944 71.5512 64.0416 70.3525C63.8778 69.9869 63.3455 70.1088 63.2841 70.4744C63.1203 71.7746 63.5502 73.217 63.7959 74.4969C63.8983 75.1064 64.8196 74.9438 64.7582 74.3344Z" fill="white"/>
<path d="M64.1235 67.7928C64.2054 66.2082 64.4306 64.6236 64.492 63.039C64.5534 61.7794 64.8196 60.6214 64.0826 59.565C63.8573 59.24 63.3046 59.3009 63.0998 59.6056C62.3218 60.723 62.6903 62.1857 62.7518 63.4859C62.8132 64.9486 63.0384 66.391 63.1203 67.8537C63.1408 68.4226 64.103 68.3819 64.1235 67.8131V67.7928Z" fill="white"/>
<path d="M126.282 51.7842C122.637 53.8157 119.075 55.7457 115.717 58.2242C112.523 60.5808 108.715 63.0796 106.443 66.3707C106.197 66.7161 106.606 67.2849 107.016 67.0411C110.148 65.2127 112.728 62.4092 115.615 60.1948C119.136 57.4928 122.801 54.7299 126.589 52.4343C126.957 52.2108 126.691 51.581 126.282 51.8045V51.7842Z" fill="white"/>
<path d="M114.878 55.0753C112.933 56.4771 111.008 57.9195 109.104 59.3619C107.405 60.6417 105.562 61.8607 104.129 63.4453C103.883 63.7297 104.272 64.1563 104.6 63.9938C106.504 63.0186 108.142 61.5153 109.821 60.1948C111.704 58.7118 113.568 57.2084 115.41 55.6847C115.82 55.3394 115.308 54.7502 114.878 55.055V55.0753Z" fill="white"/>
<path d="M108.224 56.863C105.726 58.5289 102.962 60.1745 100.833 62.2873C100.567 62.5514 100.833 63.0593 101.201 62.8561C103.924 61.4544 106.361 59.3415 108.736 57.4522C109.145 57.1272 108.633 56.5989 108.224 56.863Z" fill="white"/>
<path d="M103.801 55.8066C102.286 57.1068 100.607 58.3258 99.2972 59.8494C98.9901 60.1948 99.5224 60.5808 99.85 60.3573C101.488 59.2603 102.88 57.7772 104.334 56.4567C104.723 56.0911 104.211 55.4613 103.781 55.827L103.801 55.8066Z" fill="white"/>
<path d="M173.822 52.9625C170.976 51.4185 167.311 49.5901 163.974 50.037C163.544 50.098 163.523 50.7075 163.892 50.8497C165.427 51.4591 167.127 51.6013 168.703 52.028C170.321 52.4749 171.877 53.0234 173.392 53.7548C173.842 53.9782 174.272 53.2063 173.801 52.9625H173.822Z" fill="white"/>
<path d="M161.292 48.9603C157.565 48.2696 153.86 47.5179 150.092 47.071C149.028 46.9491 148.885 48.554 149.929 48.7165C153.675 49.3057 157.442 49.5495 161.21 49.8745C161.803 49.9355 161.865 49.0619 161.292 48.9603Z" fill="white"/>
<path d="M102.532 29.8841C99.584 28.6855 96.5743 27.5478 93.6466 26.2679C90.3094 24.8255 87.6069 22.6721 84.6586 20.6202C84.3515 20.3967 83.9011 20.8437 84.1878 21.1281C88.9581 25.8007 95.694 29.7216 102.307 30.8592C102.901 30.9608 103.044 30.0872 102.532 29.8841Z" fill="white"/>
<path d="M75.384 14.81C69.5286 9.62954 62.8951 5.54613 55.4836 3.00669C54.6442 2.72228 54.1733 3.98184 55.0127 4.28657C62.3218 6.88695 68.9758 10.5031 74.9131 15.5007C75.3226 15.8461 75.7935 15.1757 75.384 14.8303V14.81Z" fill="white"/>
<path d="M55.5041 3.20985C51.8803 4.89603 48.1336 7.29326 44.9602 9.73112C44.6531 9.9749 44.9807 10.4625 45.3287 10.3C48.9526 8.61377 52.8221 6.39938 55.975 3.9412C56.364 3.63647 55.9546 3.00669 55.5041 3.20985Z" fill="white"/>
<path d="M50.2219 47.5382C37.1802 42.3172 24.7526 36.446 12.9598 28.7667C12.2023 28.2792 11.4038 29.4371 12.1613 29.9044C24.118 37.1773 36.6888 43.6783 49.9557 48.2493C50.4266 48.4118 50.6723 47.7211 50.2219 47.5382Z" fill="white"/>
<path d="M24.2407 21.8798C19.9617 24.1957 15.4371 25.9022 11.0147 27.8932C10.1344 28.2792 10.7691 29.559 11.6494 29.2137C16.1536 27.4259 20.3507 24.9068 24.5274 22.4892C24.8959 22.2658 24.6297 21.6563 24.2407 21.8798Z" fill="white"/>
<path d="M224.78 58.3867C219.294 57.0256 213.418 56.4364 207.767 56.8427C207.419 56.863 207.46 57.3912 207.787 57.4319C213.377 58.1023 219.027 58.5695 224.637 58.9759C224.965 58.9962 225.129 58.468 224.78 58.3867Z" fill="white"/>
<path d="M153.512 89.0834C145.384 87.2144 139.016 83.517 131.789 79.5961C131.359 79.3523 130.991 79.8805 131.359 80.2259C137.215 85.4673 145.773 88.2911 153.389 89.7132C153.757 89.7741 153.901 89.1647 153.532 89.0834H153.512Z" fill="white"/>
<path d="M127.653 77.5442C121.736 74.6797 113.936 72.3435 107.282 72.6279C106.565 72.6685 106.729 73.6843 107.323 73.8062C110.701 74.4563 114.141 74.5985 117.519 75.3298C120.897 76.0612 124.111 77.2192 127.387 78.3162C127.878 78.4787 128.124 77.788 127.674 77.5645L127.653 77.5442Z" fill="white"/>
<path d="M139.323 54.3236C129.987 58.3867 121.47 63.4656 113.731 70.0884C113.097 70.6369 113.936 71.6324 114.571 71.0839C122.166 64.6236 130.499 59.0774 139.589 54.9128C139.958 54.7502 139.692 54.1814 139.323 54.3439V54.3236Z" fill="white"/>
<path d="M132.485 60.7839C128.308 62.9983 123.047 65.5378 119.935 69.1946C119.669 69.4993 120.098 69.9869 120.447 69.804C122.392 68.7476 124.07 67.163 125.893 65.9034C128.124 64.3188 130.417 62.8155 132.792 61.4543C133.202 61.2106 132.895 60.5605 132.465 60.7839H132.485Z" fill="white"/>
<path d="M129.516 65.4159C127.797 66.0253 125.483 67.0817 124.459 68.6663C124.234 69.0117 124.603 69.4587 124.971 69.2758C125.77 68.8898 126.425 68.2397 127.162 67.7522C128.022 67.163 128.923 66.6348 129.824 66.1066C130.254 65.8628 129.967 65.2534 129.496 65.4159H129.516Z" fill="white"/>
<path d="M82.304 40.5903C81.1984 41.4436 80.0928 42.2968 78.8849 43.0282C77.8817 43.658 76.6942 44.0643 75.7729 44.7956C75.4658 45.0394 75.7115 45.527 76.08 45.4661C77.3698 45.2832 78.5983 44.43 79.6834 43.7392C80.8299 43.0079 81.874 42.175 82.7954 41.1998C83.1434 40.8341 82.693 40.2653 82.2631 40.5903H82.304Z" fill="white"/>
<path d="M79.8678 39.8387C76.4282 41.4436 72.5587 42.825 69.4467 44.9785C69.0577 45.2426 69.4876 45.7099 69.8562 45.6083C73.439 44.4503 76.8582 42.2156 80.1749 40.4888C80.5844 40.2856 80.2773 39.6558 79.8678 39.8387Z" fill="white"/>
<path d="M38.2038 13.4082C36.4635 14.2412 34.58 14.9725 32.983 16.0696C32.6145 16.3337 33.024 16.8009 33.372 16.679C35.1737 16.0899 36.8935 15.0538 38.5723 14.2005C39.0842 13.9364 38.7156 13.1644 38.1833 13.4082H38.2038Z" fill="white"/>
<path d="M180.496 84.0045C175.787 87.4175 170.75 90.343 165.386 92.6386C164.547 93.0043 165.161 94.2639 166 93.9185C171.508 91.5619 176.524 88.5349 181.09 84.6953C181.54 84.3093 180.967 83.6592 180.496 84.0045Z" fill="white"/>
<path d="M165.345 92.3745C163.912 91.9073 162.254 91.2775 160.718 91.2775C160.35 91.2775 160.043 91.8057 160.432 92.0292C161.783 92.8011 163.585 93.0652 165.1 93.37C165.673 93.4919 165.878 92.5574 165.325 92.3745H165.345Z" fill="white"/>
<path d="M165.263 101.151C164.26 99.5662 163.236 97.9816 162.192 96.4173C161.967 96.0719 161.455 96.4986 161.701 96.8439C162.725 98.3879 163.769 99.9116 164.854 101.435C165.018 101.679 165.448 101.415 165.284 101.151H165.263Z" fill="white"/>
<path d="M165.509 107.124C163.011 103.142 160.37 99.1599 157.586 95.3609C157.32 94.9952 156.685 95.4015 156.931 95.7875C159.428 99.7694 162.151 103.69 164.956 107.489C165.182 107.794 165.734 107.449 165.53 107.124H165.509Z" fill="white"/>
<path d="M164.772 112.243C160.841 106.189 156.951 99.9725 152.59 94.2232C152.365 93.9185 151.833 94.2639 152.017 94.5889C155.723 100.785 160.043 106.717 164.199 112.609C164.424 112.913 164.977 112.568 164.772 112.243Z" fill="white"/>
<path d="M163.585 116.753C159.039 109.175 154.412 101.435 149.417 94.1217C149.212 93.8169 148.721 94.142 148.884 94.467C152.897 102.288 157.893 109.968 162.97 117.159C163.216 117.505 163.81 117.119 163.585 116.773V116.753Z" fill="white"/>
<path d="M162.704 124.94C156.726 113.239 149.949 101.638 143.07 90.4242C142.824 90.0179 142.128 90.3023 142.374 90.7493C148.496 102.39 155.047 114.112 162.07 125.225C162.295 125.59 162.909 125.326 162.704 124.92V124.94Z" fill="white"/>
<path d="M158.139 122.198C156.685 119.902 155.293 117.566 153.614 115.412C153.368 115.108 152.856 115.433 153.041 115.778C154.33 118.175 155.907 120.39 157.442 122.624C157.709 123.01 158.384 122.584 158.139 122.177V122.198Z" fill="white"/>
<path d="M151.935 111.634C148.557 105.437 145.261 98.9974 141.268 93.1668C141.043 92.8418 140.552 93.1872 140.695 93.5325C143.725 99.8506 147.676 105.925 151.321 111.918C151.546 112.284 152.14 112.02 151.935 111.634Z" fill="white"/>
<path d="M150.85 117.18C146.755 109.318 142.824 101.232 138.136 93.695C137.911 93.3293 137.317 93.5731 137.522 93.9794C141.248 102.024 145.895 109.744 150.236 117.464C150.44 117.85 151.055 117.566 150.85 117.18Z" fill="white"/>
<path d="M142.312 109.46C139.733 104.625 137.378 99.6475 134.758 94.8327C134.553 94.4467 133.959 94.7108 134.123 95.1374C136.191 100.196 138.914 105.051 141.657 109.785C141.882 110.191 142.538 109.886 142.312 109.48V109.46Z" fill="white"/>
<path d="M136.805 105.397C134.717 102.634 133.263 99.6678 131.789 96.5798C131.605 96.2142 131.113 96.4783 131.236 96.8439C132.301 100.094 134.225 103.121 136.293 105.844C136.559 106.189 137.071 105.762 136.805 105.417V105.397Z" fill="white"/>
<path d="M58.268 59.179C57.3876 58.1836 56.5482 57.1475 55.8111 56.0301C55.0741 54.9128 54.5418 53.6938 53.8457 52.5562C53.6819 52.2717 53.1086 52.3733 53.2315 52.7593C54.0299 55.2988 55.934 57.7163 57.7971 59.5853C58.0633 59.8494 58.5137 59.4837 58.268 59.1993V59.179Z" fill="white"/>
<path d="M58.8822 66.4926C56.2206 61.2309 53.1291 55.9082 49.1982 51.4591C48.932 51.1544 48.5021 51.5404 48.7273 51.8451C52.1054 56.7412 55.4836 61.495 58.2885 66.7567C58.4932 67.1224 59.0665 66.8583 58.8822 66.4723V66.4926Z" fill="white"/>
<path d="M58.9436 73.6843C53.948 65.8425 49.2186 57.7569 43.8545 50.1793C43.6498 49.8948 43.1789 50.1996 43.3427 50.5043C47.9697 58.5289 53.3338 66.1879 58.3499 73.9687C58.5751 74.314 59.1688 74.0499 58.9436 73.6843Z" fill="white"/>
<path d="M54.2552 73.2576C48.9321 65.0096 43.7318 56.6193 38.0606 48.615C37.8354 48.3102 37.303 48.6556 37.4873 48.9806C42.5648 57.3709 48.2155 65.4768 53.641 73.664C53.8662 74.0093 54.46 73.6233 54.2552 73.278V73.2576Z" fill="white"/>
<path d="M47.7241 72.5872C46.8437 70.8807 46.0248 69.032 44.8168 67.5084C44.5302 67.1427 44.0388 67.5287 44.1821 67.9147C44.8373 69.6821 45.9838 71.3277 46.9461 72.9326C47.2327 73.3999 47.9902 73.0545 47.7241 72.5669V72.5872Z" fill="white"/>
<path d="M41.4182 63.1812C37.5282 55.9692 33.7816 48.554 29.4411 41.5858C29.2159 41.2201 28.6222 41.4842 28.8269 41.8702C32.4508 49.2244 36.7912 56.3145 40.8654 63.4453C41.0497 63.7906 41.6025 63.5265 41.4182 63.1812Z" fill="white"/>
<path d="M38.6337 67.5287C34.4162 61.2918 31.079 54.6893 27.2913 48.1883C27.0661 47.8023 26.4724 48.0664 26.6566 48.4931C29.5639 55.38 33.8838 61.7997 38.1219 67.9553C38.3676 68.3007 38.859 67.8741 38.6337 67.5287Z" fill="white"/>
<path d="M29.4411 61.5762C26.3905 57.4319 24.0156 53.0234 21.354 48.6556C21.1288 48.2696 20.576 48.5337 20.7193 48.9603C22.5005 53.7141 25.633 58.1836 28.8474 62.0841C29.1749 62.4701 29.7277 61.9825 29.4411 61.5762Z" fill="white"/>
<path d="M20.6784 57.0662C20.1052 56.1114 19.5319 55.1565 18.9177 54.222C18.7334 53.9376 18.242 54.2423 18.4058 54.5471C18.9177 55.5019 19.4909 56.4161 20.0642 57.3506C20.2894 57.7163 20.9036 57.4319 20.6784 57.0662Z" fill="white"/>
<path d="M127.94 98.2051C126.097 94.6905 124.377 91.054 122.351 87.6207C122.125 87.255 121.532 87.5191 121.736 87.9051C123.456 91.501 125.504 94.9546 127.387 98.4692C127.571 98.8145 128.124 98.5504 127.94 98.2051Z" fill="white"/>
<path d="M123.907 99.3631C119.996 91.9073 116.741 84.1671 113.117 76.5894C112.933 76.2237 112.4 76.4878 112.544 76.8535C115.41 84.7156 119.402 92.2526 123.354 99.6068C123.538 99.9522 124.091 99.6881 123.907 99.3427V99.3631Z" fill="white"/>
<path d="M119.996 102.146C115.553 93.1262 111.725 83.8014 107.282 74.7813C107.057 74.3344 106.422 74.6594 106.606 75.1064C110.148 84.4718 114.898 93.5122 119.443 102.41C119.628 102.756 120.18 102.512 120.017 102.146H119.996Z" fill="white"/>
<path d="M116.659 102.695C111.622 93.695 108.101 84.3702 104.211 74.8829C104.047 74.4969 103.412 74.7001 103.515 75.1064C105.992 84.9187 110.865 94.3451 116.024 103C116.249 103.386 116.884 103.101 116.659 102.695Z" fill="white"/>
<path d="M112.196 102.126C109.268 95.686 106.565 89.1037 103.556 82.7247C103.392 82.3793 102.778 82.5418 102.88 82.9278C104.805 89.6319 108.019 96.397 111.5 102.451C111.745 102.878 112.421 102.573 112.196 102.126Z" fill="white"/>
<path d="M107.671 99.7897C105.828 97.0065 104.825 94.1013 103.76 90.9728C103.638 90.5868 103.044 90.8102 103.085 91.1759C103.474 94.4873 105.112 97.6159 107.077 100.257C107.364 100.663 107.917 100.155 107.65 99.7694L107.671 99.7897Z" fill="white"/>
<path d="M135.699 111.613C134.696 109.216 133.12 107.042 131.666 104.909C131.482 104.645 131.031 104.929 131.175 105.214C132.342 107.53 133.488 109.947 135.106 111.999C135.372 112.324 135.843 111.979 135.699 111.613Z" fill="white"/>
<path d="M130.52 93.2887C129.762 91.2572 128.738 89.2256 127.326 87.5598C127.101 87.2957 126.589 87.6004 126.793 87.9051C127.96 89.7538 129.066 91.5619 129.885 93.5935C130.049 94.0201 130.683 93.7153 130.52 93.2887Z" fill="white"/>
<path d="M134.021 93.2481C132.956 91.3384 131.953 89.3475 130.643 87.5801C130.397 87.255 129.885 87.6004 130.049 87.9457C130.97 89.896 132.26 91.7041 133.427 93.5122C133.632 93.8372 134.205 93.6138 134 93.2481H134.021Z" fill="white"/>
<path d="M144.216 116.57C143.295 115.087 142.497 113.381 141.35 112.06C141.104 111.776 140.634 112.06 140.777 112.426C141.493 114.031 142.701 115.473 143.664 116.936C143.868 117.241 144.421 116.895 144.216 116.591V116.57Z" fill="white"/>
<path d="M129.557 108.81C128.472 106.738 127.387 104.604 126.056 102.654C125.852 102.349 125.401 102.674 125.544 102.979C126.486 105.092 127.735 107.124 128.902 109.094C129.127 109.48 129.762 109.196 129.557 108.789V108.81Z" fill="white"/>
<path d="M131.134 103.853C130.397 102.512 129.68 101.171 128.841 99.8913C128.657 99.6068 128.206 99.9116 128.349 100.216C128.984 101.577 129.762 102.857 130.499 104.158C130.724 104.544 131.359 104.259 131.134 103.853Z" fill="white"/>
<path d="M119.914 84.9391C119.259 83.7201 118.706 82.4809 117.908 81.3229C117.601 80.8963 116.905 81.3635 117.13 81.8105C117.744 83.0294 118.583 84.0655 119.32 85.2032C119.546 85.5485 120.119 85.3047 119.914 84.9187V84.9391Z" fill="white"/>
<path d="M98.6013 77.6255C97.8642 76.0409 97.1476 74.436 96.2673 72.9326C95.9602 72.4247 95.1822 72.7701 95.4278 73.3389C96.1444 74.9235 97.0248 76.4472 97.8847 77.9708C98.1304 78.3975 98.806 78.0927 98.6013 77.6255Z" fill="white"/>
<path d="M98.6217 84.7156C97.6799 82.1762 96.5538 79.7586 95.3459 77.3411C94.3017 75.2486 93.2166 72.831 91.4559 71.2261C91.1078 70.9011 90.4936 71.2261 90.7188 71.6934C91.763 73.989 93.5851 75.8987 94.8545 78.0927C96.1239 80.2868 97.1066 82.6434 98.0075 85C98.1508 85.4063 98.765 85.1219 98.6217 84.7156Z" fill="white"/>
<path d="M97.5774 89.3882C94.2198 82.3184 90.4321 75.2689 85.9689 68.8289C85.498 68.1585 84.5767 68.9711 85.0066 69.6415C89.2856 76.2237 93.3599 82.7044 96.9632 89.6726C97.168 90.0586 97.7617 89.7741 97.5774 89.3882Z" fill="white"/>
<path d="M92.7253 88.474C91.8858 87.0316 91.0669 85.6095 90.0841 84.2686C89.8794 83.9842 89.4085 84.289 89.5518 84.614C90.2684 86.0767 91.1488 87.4379 92.0291 88.8193C92.2953 89.2256 92.9709 88.9209 92.7253 88.4943V88.474Z" fill="white"/>
<path d="M87.4636 80.6322C85.5595 76.4472 83.3893 71.6121 80.0726 68.321C79.7655 68.0163 79.1308 68.321 79.3969 68.7679C81.8128 72.892 84.8634 76.5284 86.9517 80.8963C87.1155 81.2416 87.6274 80.9979 87.484 80.6525L87.4636 80.6322Z" fill="white"/>
<path d="M86.7264 86.7471C86.1737 86.0361 85.6413 85.3251 85.0476 84.6546C84.7814 84.3499 84.372 84.7359 84.5972 85.0406C85.109 85.772 85.6618 86.483 86.1941 87.1941C86.4603 87.5598 87.0131 87.0925 86.7264 86.7471Z" fill="white"/>
<path d="M82.5498 79.2101C79.2945 74.4766 76.2644 69.3368 72.4563 65.0096C72.1901 64.7048 71.6169 65.0299 71.8421 65.3956C74.7289 70.4135 78.6189 74.9642 82.0789 79.6164C82.3246 79.9414 82.775 79.5351 82.5498 79.2101Z" fill="white"/>
<path d="M79.6426 83.8827C75.9369 76.5691 71.924 68.7882 66.5599 62.5108C66.2733 62.1857 65.6795 62.5311 65.9048 62.9374C70.1428 70.1087 75.1179 76.8129 79.1922 84.1061C79.356 84.3905 79.8064 84.1874 79.6631 83.8827H79.6426Z" fill="white"/>
<path d="M72.8862 79.3117C69.2829 73.2373 65.5976 67.1833 61.8919 61.1496C61.5029 60.4995 60.4178 61.0074 60.8068 61.6575C64.5739 67.6709 68.382 73.664 72.2515 79.5961C72.4972 79.9618 73.1114 79.6977 72.8862 79.2913V79.3117Z" fill="white"/>
<path d="M66.6213 76.7722C65.2905 74.7001 64.0621 72.2216 62.3423 70.4541C62.0556 70.1494 61.5233 70.4541 61.7076 70.8604C62.7108 73.1358 64.5534 75.1673 65.9866 77.1785C66.2323 77.5239 66.8465 77.1379 66.6213 76.7722Z" fill="white"/>
<path d="M220.03 118.216C209.978 119.069 201.87 121.995 193.251 127.175C183.751 132.904 175.582 137.251 164.833 140.543C163.216 141.03 163.544 143.366 165.304 143.163C173.924 142.168 181.499 137.739 188.665 133.148C198.799 126.647 208.033 121.263 220.297 119.719C221.279 119.597 220.993 118.135 220.03 118.216Z" fill="white"/>
<path d="M165.038 140.136C142.783 134.042 126.036 115.331 105.583 105.58C104.272 104.95 103.392 106.92 104.457 107.713C115.328 116.001 127.49 123.274 139.098 130.527C146.325 135.037 155.661 142.026 164.526 142.412C165.796 142.473 166.41 140.502 165.059 140.136H165.038Z" fill="white"/>
<path d="M112.789 102.207C109.309 102.878 105.972 103.995 102.573 105.011C100.3 105.701 101.283 108.83 103.556 108.099C106.913 107.002 110.291 105.986 113.526 104.564C114.816 103.995 114.161 101.963 112.769 102.228L112.789 102.207Z" fill="white"/>
<path d="M102.184 105.701C100.382 112.04 100.751 119.943 101.959 126.362C102.164 127.398 103.781 127.378 103.863 126.281C104.129 122.726 104.027 119.171 104.211 115.595C104.375 112.365 104.846 109.135 104.702 105.905C104.641 104.625 102.532 104.483 102.184 105.681V105.701Z" fill="white"/>
<path d="M103.515 127.398C91.8653 116.875 77.5951 105.925 63.5092 98.8349C62.0966 98.1238 61.2571 100.237 62.3013 101.11C68.1363 106.067 75.0154 109.988 81.2804 114.397C88.18 119.272 94.793 124.514 101.693 129.389C102.921 130.243 104.702 128.455 103.515 127.398Z" fill="white"/>
<path d="M61.9328 83.2326C61.5233 85.6907 61.8918 88.2911 62.1784 90.7493C62.4855 93.37 62.6289 95.9907 63.1817 98.5504C63.4069 99.5662 64.7377 99.6272 65.1471 98.7333C66.1299 96.5595 65.4542 93.9591 65.1676 91.6838C64.84 89.0225 64.0825 86.1377 64.2053 83.456C64.2668 81.9933 62.1784 81.8105 61.9328 83.2326Z" fill="white"/>
<path d="M62.8132 97.0877C52.1259 85.6095 34.0272 82.684 22.1525 72.445C21.1083 71.5511 19.9004 73.2983 20.9241 74.1718C32.7169 84.4718 49.4234 88.3317 61.2777 98.7333C62.2399 99.5865 63.6731 98.0019 62.7927 97.0674L62.8132 97.0877Z" fill="white"/>
<path d="M220.767 117.545C217.922 115.392 214.441 113.909 211.227 112.365C208.033 110.841 204.716 108.952 201.236 108.282C200.11 108.058 199.659 109.683 200.499 110.272C203.222 112.202 206.6 113.259 209.63 114.681C212.987 116.266 216.263 118.216 219.785 119.435C220.952 119.841 221.75 118.297 220.788 117.545H220.767Z" fill="white"/>
<path d="M160.595 167.095C144.544 151.98 124.685 136.987 105.378 126.2C103.617 125.225 101.815 127.622 103.556 128.8C113.056 135.159 122.76 141.03 131.932 147.856C141.084 154.662 149.478 162.422 158.773 169.065C159.981 169.939 161.721 168.172 160.595 167.095Z" fill="white"/>
<path d="M164.956 149.278C159.183 145.5 153.02 142.371 147.267 138.511C142.005 134.956 136.887 131.665 130.97 129.308C130.52 129.125 130.294 129.796 130.724 129.999C142.067 135.647 151.976 147.775 164.567 150.416C165.182 150.538 165.468 149.624 164.977 149.299L164.956 149.278Z" fill="white"/>
<path d="M221.546 127.642C216.898 126.464 213.172 124.229 208.975 122.076C208.606 121.893 208.32 122.421 208.545 122.706C211.473 126.362 216.714 128.313 221.279 128.861C221.976 128.942 222.262 127.825 221.566 127.642H221.546Z" fill="white"/>
<path d="M222.18 127.439C216.57 130.283 209.875 130.75 203.959 133.046C198.451 135.179 192.903 137.759 188.317 141.497C187.969 141.782 188.337 142.391 188.767 142.168C195.36 138.592 201.338 135.22 208.667 133.249C213.663 131.908 218.249 130.974 222.651 128.15C223.06 127.886 222.61 127.236 222.201 127.439H222.18Z" fill="white"/>
<path d="M184.038 143.021C180.885 144.91 177.691 146.515 174.108 147.49C170.955 148.364 167.597 148.486 164.485 149.461C163.666 149.725 163.564 150.964 164.547 151.066C171.283 151.818 179.206 147.47 184.509 143.752C184.918 143.468 184.468 142.757 184.038 143.021Z" fill="white"/>
<path d="M217.574 129.186C216.181 130.507 214.871 131.929 214.728 133.899C214.543 136.134 215.792 137.008 217.021 138.653C216.918 138.105 216.816 137.556 216.734 137.008C216.12 138.816 213.888 139.872 214.462 142.026C214.646 142.737 215.547 143.224 215.71 143.874C216.181 145.784 212.353 146.983 210.92 147.897C209.855 148.567 210.551 150.131 211.78 149.685C213.725 148.973 217.492 147.836 218.331 145.581C218.515 145.093 218.618 144.423 218.433 143.935C217.881 142.391 217.307 143.956 218.495 142.655C219.621 141.416 221.054 139.628 220.481 137.861C220.174 136.886 219.519 136.642 218.863 135.972C218.004 135.078 218.311 136.195 217.615 134.448C216.939 132.741 217.963 131.949 219.13 130.588C219.908 129.694 218.454 128.394 217.594 129.207L217.574 129.186Z" fill="white"/>
<path d="M214.503 146.82C196.138 152.508 176.483 156.185 159.838 166.181C157.688 167.481 159.224 170.975 161.558 169.777C178.796 160.939 196.711 154.763 215.014 148.405C215.895 148.1 215.403 146.556 214.503 146.84V146.82Z" fill="white"/>
<path d="M162.684 153.199C154.576 150.619 147.779 145.174 140.327 141.233C139.938 141.03 139.569 141.518 139.938 141.782C144.176 144.849 148.68 147.551 153.041 150.436C156.009 152.407 158.773 154.154 162.315 154.845C163.278 155.028 163.605 153.484 162.704 153.199H162.684Z" fill="white"/>
<path d="M158.896 157.079C157.913 155.759 156.112 154.824 154.74 153.91C153.286 152.935 151.771 152.102 150.174 151.411C149.765 151.228 149.355 151.797 149.662 152.122C150.87 153.362 152.181 154.479 153.614 155.474C154.965 156.429 156.46 157.77 158.077 158.237C158.794 158.44 159.367 157.669 158.896 157.059V157.079Z" fill="white"/>
<path d="M159.469 161.752C157.504 160.045 155.375 158.095 153.02 156.917C152.57 156.693 152.201 157.343 152.488 157.689C154.146 159.72 156.562 161.366 158.671 162.91C159.408 163.458 160.145 162.341 159.49 161.772L159.469 161.752Z" fill="white"/>
<path d="M138.32 145.012C127.981 136.561 116.147 127.845 103.986 122.198C103.412 121.934 102.962 122.827 103.474 123.152C115.041 130.649 126.752 137.394 137.911 145.56C138.279 145.825 138.648 145.276 138.3 145.012H138.32Z" fill="white"/>
<path d="M119.996 127.5C118.338 126.362 116.679 124.94 114.837 124.148C114.489 124.006 114.141 124.493 114.407 124.757C115.84 126.179 117.764 127.175 119.464 128.272C119.976 128.597 120.508 127.845 119.996 127.5Z" fill="white"/>
<path d="M111.459 121.954C110.025 121.426 108.736 120.735 107.466 119.922C106.422 119.252 105.419 118.338 104.252 117.891C103.699 117.667 103.371 118.338 103.638 118.744C105.112 120.979 108.695 122.076 111.131 122.868C111.725 123.071 112.073 122.177 111.479 121.954H111.459Z" fill="white"/>
<path d="M108.817 114.071C107.978 113.523 107.118 112.954 106.279 112.385C105.583 111.918 104.907 111.39 104.068 111.248C103.617 111.166 103.433 111.735 103.658 112.04C104.149 112.731 105.009 113.117 105.746 113.523C106.565 114.011 107.384 114.478 108.203 114.965C108.797 115.311 109.432 114.457 108.838 114.071H108.817Z" fill="white"/>
<path d="M62.9974 86.2189C61.1753 84.4108 59.1279 82.8466 57.1215 81.2416C55.1355 79.657 53.1905 77.9099 50.918 76.7316C50.488 76.5081 50.1195 77.1379 50.4061 77.463C51.9826 79.2914 54.0095 80.6728 55.8931 82.1558C58.0018 83.8014 60.0697 85.5079 62.3423 86.9097C62.7722 87.1738 63.3864 86.6049 62.977 86.2189H62.9974Z" fill="white"/>
<path d="M22.5005 73.6437C22.6643 73.5624 22.8076 73.4811 22.9714 73.3999C23.8313 72.831 22.6233 73.5421 23.2171 73.2373C23.6675 73.0139 23.9541 72.8513 24.3226 72.4653C24.9983 71.7543 25.2849 70.962 25.3668 69.9665C25.5306 68.0569 24.6912 66.0863 22.869 65.3143C21.1697 64.5829 20.1051 66.7161 20.9854 67.9756C21.4154 68.5648 21.7429 69.1336 21.702 69.8853C21.702 70.0478 21.6406 70.19 21.6201 70.3322C21.6201 70.4541 21.4154 71.673 21.5382 71.0636C21.6406 70.5354 21.3949 71.4089 21.3539 71.5105C21.2106 71.9981 21.6815 71.2261 21.1697 71.6121C20.0846 72.4654 21.2516 74.2328 22.48 73.6437H22.5005Z" fill="white"/>
<path d="M63.3864 90.668C59.2303 87.9458 55.0332 85.2032 50.8361 82.6028C50.5085 82.3996 50.0376 82.8466 50.3652 83.131C54.0095 86.4627 58.4523 89.4491 62.8541 91.6838C63.4479 91.9885 63.9392 91.0134 63.3864 90.668Z" fill="white"/>
<path d="M48.0517 80.9166C40.5993 75.9596 32.2665 70.9011 23.4628 68.7883C22.5824 68.5851 22.0911 69.7634 22.9714 70.1291C31.4475 73.7249 39.7394 76.6097 47.6013 81.5667C48.0312 81.8308 48.4816 81.201 48.0517 80.9166Z" fill="white"/>
<path d="M58.1451 90.9321C56.0773 89.1647 53.8661 87.5394 51.4093 86.3611C51.1022 86.2189 50.836 86.7268 51.1227 86.8893C53.4362 88.2911 55.7088 89.6929 57.8175 91.3994C58.1042 91.6432 58.4318 91.1556 58.1656 90.9118L58.1451 90.9321Z" fill="white"/>
<path d="M49.2596 85.2438C40.763 79.1288 31.427 73.7249 21.313 70.7182C20.3303 70.4338 19.7775 71.8762 20.7602 72.2216C30.8128 75.6752 40.1693 79.6164 48.932 85.7314C49.2391 85.9548 49.5667 85.4673 49.2596 85.2641V85.2438Z" fill="white"/>
<path d="M98.8673 104.442C98.2326 109.48 97.9664 114.539 98.6216 119.597C98.683 120.024 99.3586 119.983 99.3791 119.577C99.6043 114.559 99.7476 109.561 100.341 104.584C100.444 103.65 98.9901 103.528 98.8877 104.442H98.8673Z" fill="white"/>
<path d="M95.6529 103.345C94.9159 108.464 94.7111 113.787 94.7316 118.947C94.7316 119.435 95.4482 119.536 95.5096 119.028C96.2057 113.909 96.7175 108.627 96.6561 103.446C96.6561 102.817 95.7553 102.695 95.6529 103.345Z" fill="white"/>
<path d="M91.7628 101.659C91.3329 106.636 91.0462 111.735 90.9438 116.733C90.9438 117.281 91.7014 117.363 91.8037 116.814C92.7251 111.898 93.0526 106.636 92.7865 101.618C92.766 101.029 91.8242 101.11 91.7628 101.659Z" fill="white"/>
<path d="M88.7532 98.713C87.4429 103.426 87.2177 108.647 87.9752 113.462C88.0366 113.909 88.7737 113.889 88.7942 113.421C88.8351 108.525 89.1832 103.772 89.6541 98.9161C89.695 98.4082 88.8965 98.2051 88.7532 98.713Z" fill="white"/>
<path d="M84.8837 97.6159C83.7167 100.968 83.2253 104.99 84.0033 108.485C84.1057 108.952 84.8632 108.972 84.8837 108.444C85.027 104.808 85.1294 101.415 85.7641 97.8191C85.846 97.3315 85.068 97.1487 84.9042 97.6159H84.8837Z" fill="white"/>
<path d="M80.0725 94.9952C79.6425 97.9207 79.2945 101.049 79.4378 103.995C79.4583 104.462 80.1339 104.361 80.2158 103.954C80.789 101.09 80.9119 97.9816 80.9324 95.0562C80.9324 94.5077 80.1544 94.4264 80.0929 94.9749L80.0725 94.9952Z" fill="white"/>
<path d="M77.2062 92.0901C76.3668 95.239 75.773 98.5098 76.1415 101.781C76.1825 102.207 76.8377 102.146 76.8786 101.76C77.2267 98.6317 77.4314 95.5234 78.148 92.4355C78.2913 91.826 77.3904 91.4807 77.2062 92.0901Z" fill="white"/>
<path d="M73.5619 91.6229C73.2753 94.4061 72.8453 97.3315 73.0296 100.115C73.05 100.602 73.7461 100.48 73.828 100.074C74.3808 97.3721 74.3604 94.4467 74.4832 91.6838C74.5037 91.115 73.6438 91.0337 73.5824 91.6025L73.5619 91.6229Z" fill="white"/>
<path d="M70.9207 87.7426C70.5112 91.2572 70.0199 94.8124 69.9994 98.3473C69.9994 98.7942 70.6136 98.8552 70.716 98.4082C71.3507 94.9343 71.5349 91.3384 71.7806 87.8239C71.8216 87.2753 71.0026 87.1941 70.9412 87.7426H70.9207Z" fill="white"/>
<path d="M67.9726 86.6049C67.4198 90.2617 67.1331 94.2232 67.7678 97.88C67.8497 98.3066 68.5253 98.2863 68.5458 97.8394C68.7096 94.1217 68.5868 90.4039 68.8734 86.6862C68.9143 86.097 68.0545 86.0361 67.9726 86.6049Z" fill="white"/>
<path d="M65.4338 84.9797C65.3928 88.5146 65.1471 92.1307 65.4747 95.6656C65.5157 96.1126 66.2118 96.0516 66.2527 95.625C66.5803 92.1307 66.3346 88.5552 66.2937 85.061C66.2937 84.5124 65.4338 84.4109 65.4338 84.9797Z" fill="white"/>
<path d="M76.3873 94.7311C75.1793 95.3203 73.91 96.0923 72.9272 96.9861C72.6201 97.2706 72.9272 97.7784 73.3162 97.5956C74.5447 97.0471 75.7321 96.1735 76.7558 95.3C77.0424 95.0562 76.7558 94.5686 76.3873 94.7311Z" fill="white"/>
<path d="M76.3258 91.2775C73.439 93.0043 70.6136 95.0765 68.5049 97.6972C68.2796 97.9816 68.7096 98.3473 68.9758 98.1238C71.4326 95.8688 73.8075 93.695 76.6739 91.9479C77.0833 91.7041 76.7762 91.0337 76.3463 91.2775H76.3258Z" fill="white"/>
<path d="M74.4422 89.5507C70.9208 92.1511 67.3174 94.7311 63.8983 97.4737C63.5502 97.7378 63.9188 98.327 64.3282 98.1238C68.1773 96.0516 71.8421 93.1871 74.9746 90.1805C75.3431 89.8148 74.8722 89.2459 74.4422 89.571V89.5507Z" fill="white"/>
<path d="M71.6987 86.8487C67.9111 89.9164 64.0211 92.9637 60.4996 96.3564C60.172 96.6814 60.5815 97.169 60.9705 96.9049C64.9015 94.0201 68.5458 90.6883 72.231 87.4785C72.62 87.1331 72.1082 86.5237 71.6987 86.869V86.8487Z" fill="white"/>
<path d="M67.604 85.5485C64.5329 88.2099 61.1957 90.7696 58.4113 93.7357C58.0837 94.081 58.4932 94.5889 58.9026 94.3045C62.1989 91.9073 65.1266 88.9209 68.1567 86.1986C68.5662 85.8329 68.0134 85.2032 67.604 85.5688V85.5485Z" fill="white"/>
<path d="M65.6385 83.07C61.8714 86.1783 57.9404 89.1647 54.4394 92.5777C54.1119 92.9027 54.5213 93.4106 54.9103 93.1262C58.8618 90.2617 62.4651 86.869 66.1504 83.6795C66.5394 83.3544 66.0275 82.745 65.6385 83.07Z" fill="white"/>
<path d="M61.6257 80.7541C58.4932 83.6592 54.9308 86.0361 51.8188 88.9209C51.5321 89.185 51.8188 89.6929 52.1873 89.5101C55.893 87.5801 59.2098 84.289 62.117 81.3432C62.4651 80.9979 61.9942 80.4087 61.6257 80.7541Z" fill="white"/>
<path d="M58.8822 78.5803C55.6269 81.8105 51.9007 84.289 48.3997 87.1941C48.0721 87.4582 48.3997 88.0067 48.8092 87.8239C52.822 85.8329 56.364 82.3793 59.3736 79.1491C59.7012 78.8038 59.2303 78.2349 58.8822 78.5803Z" fill="white"/>
<path d="M55.0127 77.5645C51.6346 80.104 48.0312 82.5215 44.9397 85.4063C44.5507 85.7517 45.042 86.2799 45.4515 85.9955C48.9934 83.6998 52.2488 80.815 55.545 78.1943C55.9545 77.8693 55.4427 77.2598 55.0127 77.5645Z" fill="white"/>
<path d="M50.8974 75.1064C47.724 77.8896 44.1411 80.3884 41.2134 83.3951C40.9677 83.6592 41.2134 84.2077 41.5819 83.9842C45.1443 81.7495 48.3178 78.56 51.4093 75.7361C51.7778 75.3908 51.2864 74.8016 50.8974 75.1267V75.1064Z" fill="white"/>
<path d="M46.8027 72.9732C45.738 74.761 44.4892 76.3659 42.9536 77.788C41.5205 79.1085 39.8826 80.043 38.3061 81.201C37.9171 81.4854 38.3471 82.0136 38.7361 81.8511C42.4827 80.4696 45.5743 76.8129 47.4783 73.4608C47.724 73.0139 47.0688 72.5263 46.8027 72.9935V72.9732Z" fill="white"/>
<path d="M42.5032 72.3435C39.7393 74.761 36.7092 77.1785 34.3137 79.9618C34.0271 80.2868 34.539 80.6728 34.8461 80.4493C37.7738 78.2959 40.4149 75.472 43.0151 72.9326C43.3631 72.5872 42.8922 71.9981 42.5032 72.3435Z" fill="white"/>
<path d="M39.637 69.7024C38.5519 71.5511 37.262 73.2576 35.747 74.761C34.3138 76.1831 32.6554 77.2192 31.079 78.4584C30.7309 78.7428 31.0994 79.271 31.5089 79.1085C35.3375 77.4833 38.4085 73.7249 40.3126 70.1697C40.5583 69.7228 39.9031 69.2352 39.637 69.7024Z" fill="white"/>
<path d="M35.6651 70.0478C34.539 71.2667 33.3516 72.4247 32.0617 73.4811C30.8128 74.5375 29.2978 75.3908 28.1308 76.5488C27.8237 76.8535 28.1308 77.3817 28.5607 77.1989C30.0962 76.5894 31.468 75.3095 32.6964 74.2328C33.9862 73.1154 35.1737 71.8965 36.2998 70.6166C36.6273 70.251 35.9927 69.6618 35.6446 70.0275L35.6651 70.0478Z" fill="white"/>
<path d="M31.2018 69.6618C30.2805 70.7385 29.2978 71.7949 28.315 72.8107C27.8646 73.278 27.3937 73.7452 26.9433 74.2125C26.7181 74.4359 26.4724 74.6594 26.2472 74.8829C26.022 75.2283 25.6944 75.2892 25.3054 75.0657C25.3668 74.6594 24.7936 74.5782 24.6503 74.9235C24.4455 75.3705 24.5069 75.8784 24.9574 76.1831C25.5716 76.6097 26.2881 76.2237 26.7795 75.8377C28.745 74.2734 30.4238 72.1403 32.0003 70.2103C32.3893 69.7431 31.6113 69.2352 31.2223 69.6821L31.2018 69.6618Z" fill="white"/>
<path d="M28.0283 69.1336C27.2298 69.8243 26.4314 70.5151 25.6329 71.2058C24.9368 71.8152 24.0564 72.4247 23.606 73.2373C23.4217 73.5624 23.7084 73.9687 24.0769 73.8062C24.9368 73.4405 25.6124 72.6279 26.3085 71.9981C27.0865 71.287 27.844 70.5557 28.622 69.8243C29.052 69.4383 28.4787 68.7476 28.0283 69.1336Z" fill="white"/>
<path d="M25.7353 67.9553C24.425 69.0523 23.0533 70.1291 21.8863 71.3886C21.5792 71.7137 21.9682 72.1809 22.3367 71.9168C23.7494 70.9417 24.9983 69.7431 26.2881 68.6054C26.6976 68.2397 26.1653 67.6099 25.7353 67.9553Z" fill="white"/>
<path d="M217.43 138.125C214.236 137.962 211.002 138.938 207.992 139.892C204.122 141.132 200.069 142.31 196.342 143.976C195.974 144.138 196.158 144.768 196.568 144.646C200.273 143.509 203.856 142.127 207.664 141.375C210.961 140.746 214.503 140.319 217.574 138.978C217.983 138.795 217.86 138.145 217.43 138.125Z" fill="white"/>
<path d="M185.205 148.811C181.192 150.599 177.159 152.386 173.125 154.174C168.314 156.307 162.111 160.391 157.586 155.617C157.013 155.007 156.05 155.617 156.378 156.389C157.954 160.289 162.397 160.391 165.939 159.212C172.675 156.978 179.206 152.671 185.532 149.481C185.983 149.258 185.655 148.587 185.205 148.791V148.811Z" fill="white"/>
<path d="M211.677 144.24C205.412 145.215 198.676 146.739 193.005 149.644C192.657 149.827 192.801 150.477 193.23 150.355C199.434 148.445 205.433 146.312 211.821 145.012C212.332 144.91 212.189 144.159 211.677 144.24Z" fill="white"/>
<path d="M166.615 160.655C164.301 160.858 159.797 164.352 158.384 161.041C158.2 160.594 157.565 160.756 157.504 161.203C157.299 162.829 158.835 163.763 160.309 163.865C162.745 164.007 164.444 161.793 166.758 161.467C167.29 161.386 167.126 160.635 166.615 160.675V160.655Z" fill="white"/>
<path d="M163.093 151.188C161.292 147.145 159.817 143.001 158.282 138.856C158.159 138.531 157.606 138.714 157.688 139.039C158.917 143.305 160.657 147.45 162.499 151.472C162.684 151.858 163.277 151.574 163.093 151.188Z" fill="white"/>
<path d="M163.81 145.54C163.195 143.671 162.561 141.701 161.599 139.953C161.414 139.608 160.821 139.75 160.923 140.177C161.373 142.127 162.233 144.077 163.052 145.886C163.277 146.393 163.973 146.028 163.81 145.52V145.54Z" fill="white"/>
<path d="M161.23 158.4C159.285 151.31 157.504 144.077 155.088 137.13C154.965 136.784 154.392 136.967 154.474 137.333C156.05 144.463 158.343 151.533 160.411 158.542C160.554 159.05 161.373 158.908 161.23 158.4Z" fill="white"/>
<path d="M158.18 161.224C156.214 152.488 154.371 143.691 151.935 135.078C151.812 134.671 151.178 134.753 151.259 135.2C152.979 143.976 155.293 152.671 157.483 161.346C157.586 161.772 158.261 161.671 158.159 161.224H158.18Z" fill="white"/>
<path d="M155.702 163.519C153.184 153.809 150.789 143.996 147.779 134.448C147.636 134.021 146.939 134.103 147.062 134.57C149.335 144.342 152.263 154.012 155.047 163.641C155.17 164.048 155.825 163.946 155.723 163.519H155.702Z" fill="white"/>
<path d="M151.096 159.598C147.595 150.253 145.138 140.786 142.927 131.076C142.824 130.629 142.128 130.73 142.21 131.197C143.889 140.989 146.919 150.599 150.481 159.883C150.645 160.289 151.239 160.005 151.096 159.598Z" fill="white"/>
<path d="M145.322 152.224C144.933 151.31 144.564 150.375 144.155 149.461C143.991 149.116 143.479 149.359 143.623 149.725C143.971 150.66 144.36 151.594 144.728 152.508C144.892 152.894 145.486 152.61 145.322 152.224Z" fill="white"/>
<path d="M142.374 145.114C141.104 139.364 140.019 133.534 138.422 127.866C138.3 127.439 137.665 127.541 137.747 127.988C138.77 133.777 140.326 139.506 141.698 145.235C141.801 145.682 142.497 145.56 142.394 145.114H142.374Z" fill="white"/>
<path d="M140.572 151.289C137.603 142.026 135.31 132.66 132.813 123.274C132.69 122.848 132.035 122.949 132.116 123.396C133.775 132.924 136.682 142.371 139.896 151.493C140.019 151.858 140.695 151.655 140.572 151.289Z" fill="white"/>
<path d="M134.43 145.682C132.772 137.048 131.072 128.191 128.186 119.861C128.063 119.475 127.428 119.699 127.51 120.065C129.394 128.678 131.912 137.15 133.775 145.784C133.857 146.211 134.512 146.089 134.43 145.662V145.682Z" fill="white"/>
<path d="M130.233 141.883C128.022 133.27 125.852 124.554 123.19 116.062C123.067 115.656 122.392 115.737 122.494 116.184C124.439 124.859 126.978 133.493 129.475 142.026C129.619 142.473 130.335 142.371 130.212 141.904L130.233 141.883Z" fill="white"/>
<path d="M125.237 137.82C124.623 135.789 124.173 133.595 123.252 131.665C123.067 131.279 122.474 131.482 122.535 131.888C122.863 133.96 123.681 135.992 124.316 137.962C124.5 138.511 125.401 138.369 125.217 137.8L125.237 137.82Z" fill="white"/>
<path d="M121.634 124.432C120.754 121.832 119.955 119.15 118.911 116.611C118.788 116.306 118.235 116.469 118.338 116.794C119.116 119.455 120.18 122.055 121.143 124.676C121.265 125.001 121.757 124.778 121.634 124.432Z" fill="white"/>
<path d="M121.102 136.195C118.952 128.922 116.945 121.527 114.407 114.376C114.284 114.051 113.711 114.214 113.813 114.559C115.697 121.873 118.133 129.105 120.405 136.317C120.549 136.744 121.224 136.642 121.102 136.195Z" fill="white"/>
<path d="M117.15 133.981C114.96 125.976 112.953 117.85 110.394 109.947C110.271 109.602 109.677 109.785 109.759 110.151C111.663 118.196 114.141 126.159 116.413 134.103C116.536 134.549 117.273 134.428 117.15 133.981Z" fill="white"/>
<path d="M113.26 130.527C110.374 123.051 108.306 115.453 106.32 107.713C106.217 107.327 105.624 107.408 105.685 107.814C106.893 115.737 109.452 123.478 112.523 130.852C112.728 131.34 113.445 130.994 113.26 130.507V130.527Z" fill="white"/>
<path d="M109.473 127.134C107.364 121.324 105.931 115.392 104.231 109.48C104.109 109.074 103.494 109.155 103.556 109.602C104.518 115.697 106.606 121.71 108.797 127.459C108.961 127.906 109.636 127.581 109.473 127.134Z" fill="white"/>
<path d="M101.14 111.491C99.768 108.322 98.1096 105.153 96.2875 102.207C96.0827 101.882 95.5709 102.106 95.7347 102.471C97.086 105.641 98.7034 108.85 100.505 111.796C100.73 112.182 101.324 111.918 101.14 111.491Z" fill="white"/>
<path d="M100.382 117.728C97.516 111.654 94.8339 105.417 91.7629 99.4443C91.5581 99.0583 90.9849 99.3224 91.1487 99.7287C93.4827 106.006 96.5742 112.121 99.6657 118.053C99.8909 118.5 100.608 118.175 100.382 117.708V117.728Z" fill="white"/>
<path d="M98.7854 122.685C94.4655 115.006 91.0464 107.063 88.0163 98.7942C87.8934 98.4692 87.3406 98.652 87.443 98.9771C90.0636 107.367 93.7898 115.351 98.1507 122.97C98.3759 123.356 99.0106 123.071 98.7854 122.665V122.685Z" fill="white"/>
<path d="M91.8652 117.2C88.1595 109.216 84.5971 101.11 80.5637 93.2887C80.359 92.9027 79.7653 93.1871 79.9495 93.5731C83.4301 101.659 87.4224 109.541 91.2305 117.484C91.4148 117.891 92.0495 117.586 91.8652 117.18V117.2Z" fill="white"/>
<path d="M85.7437 112.731C82.1198 105.966 78.9874 99.038 75.773 92.0698C75.5887 91.6635 74.995 91.9479 75.1383 92.3745C77.9023 99.485 81.4237 106.352 85.0885 113.056C85.3137 113.442 85.9484 113.157 85.7232 112.751L85.7437 112.731Z" fill="white"/>
<path d="M77.8408 105.519C75.3431 99.9116 72.9272 94.2232 70.0608 88.7787C69.8766 88.413 69.3443 88.6771 69.4876 89.0428C71.7602 94.7514 74.5241 100.277 77.1652 105.823C77.3699 106.27 78.0456 105.945 77.8408 105.498V105.519Z" fill="white"/>
<path d="M71.7806 103.243C70.5317 100.257 69.3647 97.2096 67.9725 94.2842C67.7883 93.8982 67.2355 94.1826 67.3788 94.5686C68.5049 97.6159 69.8766 100.562 71.1255 103.548C71.3097 103.975 71.9444 103.67 71.7806 103.243Z" fill="white"/>
<path d="M62.2399 90.4446C59.2098 84.4312 56.1182 78.4381 52.8425 72.5466C52.6582 72.2013 52.1259 72.445 52.2897 72.8107C55.2584 78.8647 58.4113 84.7969 61.6257 90.729C61.8304 91.0947 62.4241 90.8306 62.2399 90.4446Z" fill="white"/>
<path d="M61.0523 96.0313C57.3466 88.4943 53.7432 80.8963 49.7099 73.5421C49.5257 73.217 49.0138 73.4405 49.1776 73.7859C52.6581 81.4042 56.5686 88.8599 60.3972 96.336C60.6019 96.7423 61.2571 96.4376 61.0523 96.0313Z" fill="white"/>
<path d="M55.3811 91.054C52.4944 85.1422 49.4847 79.2101 45.8814 73.6843C45.6766 73.3795 45.1648 73.7046 45.3286 74.0296C48.4815 79.7992 51.7982 85.4673 54.7465 91.3384C54.9512 91.7447 55.5859 91.44 55.3811 91.0337V91.054Z" fill="white"/>
<path d="M49.2596 86.5846C46.0247 81.2416 42.9742 75.7768 39.9441 70.3119C39.7598 69.9869 39.2275 70.2103 39.4117 70.576C42.1347 76.2034 45.2467 81.6276 48.6044 86.9097C48.8501 87.2956 49.5257 87.0112 49.28 86.5846H49.2596Z" fill="white"/>
<path d="M43.0765 83.1513C41.2749 80.6931 39.4937 78.2146 37.5896 75.8377C37.3234 75.5127 36.8526 75.919 37.0982 76.2644C38.8385 78.7835 40.6811 81.2213 42.5033 83.6592C42.7899 84.0452 43.3836 83.5576 43.097 83.1716L43.0765 83.1513Z" fill="white"/>
<path d="M196.732 116.814C188.952 122.116 180.025 126.281 172.573 131.969C172.143 132.294 172.614 132.884 173.064 132.721C181.642 129.491 189.914 122.787 197.141 117.302C197.469 117.058 197.059 116.591 196.732 116.814Z" fill="white"/>
<path d="M196.752 114.132C184.775 120.186 172.798 127.52 161.926 135.362C161.537 135.647 161.967 136.337 162.397 136.073C174.067 129.207 185.757 122.035 197.141 114.701C197.489 114.478 197.12 113.929 196.752 114.112V114.132Z" fill="white"/>
<path d="M165.386 130.324C164.26 130.832 163.236 131.543 162.192 132.213C161.23 132.823 160.247 133.371 159.428 134.143C159.142 134.407 159.428 134.875 159.797 134.712C160.943 134.245 161.967 133.513 163.011 132.843C163.953 132.234 164.956 131.665 165.796 130.933C166.123 130.649 165.796 130.141 165.386 130.304V130.324Z" fill="white"/>
<path d="M162.704 128.821C160.821 129.958 158.835 130.832 156.91 131.888C156.583 132.071 156.705 132.64 157.115 132.538C159.306 132.071 161.394 130.832 163.134 129.471C163.482 129.186 163.093 128.556 162.704 128.8V128.821Z" fill="white"/>
<path d="M158.876 127.277C157.299 128.414 155.579 129.349 153.962 130.405C153.634 130.608 153.982 131.076 154.31 130.954C156.153 130.222 157.811 129.044 159.367 127.845C159.756 127.541 159.265 126.992 158.876 127.277Z" fill="white"/>
<path d="M155.989 125.895C153.88 126.586 151.505 127.378 149.744 128.76C149.437 129.003 149.765 129.43 150.113 129.308C152.222 128.536 154.187 127.358 156.316 126.545C156.767 126.383 156.439 125.753 156.009 125.895H155.989Z" fill="white"/>
<path d="M152.181 123.762C150.666 124.331 149.007 124.798 147.636 125.651C147.328 125.854 147.431 126.403 147.84 126.322C149.458 125.976 151.014 125.143 152.508 124.493C152.979 124.29 152.652 123.599 152.16 123.762H152.181Z" fill="white"/>
<path d="M149.396 121.588C147.799 121.669 145.998 122.36 145.097 123.742C144.892 124.067 145.302 124.453 145.609 124.189C146.817 123.193 147.902 122.421 149.519 122.259C149.97 122.218 149.826 121.548 149.396 121.588Z" fill="white"/>
<path d="M146.776 119.293C145.24 120.004 143.541 120.593 142.108 121.527C141.821 121.71 142.067 122.238 142.394 122.137C144.032 121.649 145.568 120.735 147.103 119.983C147.554 119.76 147.226 119.069 146.755 119.272L146.776 119.293Z" fill="white"/>
<path d="M144.216 117.159C142.149 118.155 139.958 119.089 138.013 120.308C137.665 120.532 137.89 121.06 138.299 120.897C140.449 120.065 142.497 118.886 144.544 117.83C144.953 117.606 144.646 116.956 144.237 117.18L144.216 117.159Z" fill="white"/>
<path d="M141.186 115.148C139.344 116.367 137.44 117.525 135.74 118.947C135.433 119.191 135.761 119.739 136.129 119.536C138.074 118.419 139.876 117.058 141.698 115.758C142.108 115.453 141.596 114.904 141.186 115.168V115.148Z" fill="white"/>
<path d="M137.522 114.315C135.884 115.311 134.143 116.306 132.71 117.586C132.403 117.85 132.71 118.358 133.099 118.175C134.839 117.342 136.436 116.144 137.972 115.026C138.361 114.742 137.931 114.071 137.501 114.315H137.522Z" fill="white"/>
<path d="M134.594 112.243C132.894 113.076 131.093 113.848 129.516 114.904C129.148 115.148 129.557 115.615 129.905 115.494C131.666 114.864 133.324 113.889 134.962 113.035C135.474 112.771 135.106 111.999 134.573 112.243H134.594Z" fill="white"/>
<path d="M130.315 110.902C128.738 111.898 127.019 112.406 125.36 113.198C124.992 113.381 125.196 113.889 125.565 113.848C127.428 113.665 129.23 112.588 130.745 111.573C131.113 111.329 130.704 110.658 130.315 110.902Z" fill="white"/>
<path d="M127.387 108.83C125.667 109.622 123.907 110.476 122.412 111.634C122.125 111.857 122.433 112.324 122.76 112.162C124.439 111.309 126.015 110.313 127.715 109.48C128.124 109.277 127.838 108.627 127.408 108.83H127.387Z" fill="white"/>
<path d="M124.48 107.205C122.658 108.2 120.672 109.054 118.993 110.272C118.686 110.496 119.013 110.943 119.341 110.801C121.225 110.049 123.026 108.83 124.787 107.855C125.197 107.631 124.889 106.961 124.48 107.205Z" fill="white"/>
<path d="M119.402 106.352C117.887 107.245 116.229 108.058 114.837 109.114C114.55 109.338 114.837 109.785 115.185 109.643C116.761 108.932 118.235 107.875 119.73 107.002C120.119 106.778 119.812 106.128 119.423 106.372L119.402 106.352Z" fill="white"/>
<path d="M115.656 106.392C114.693 106.717 113.711 107.002 112.789 107.408C112.482 107.55 112.626 108.078 112.974 107.997C113.997 107.733 114.96 107.347 115.963 107.002C116.372 106.859 116.086 106.25 115.676 106.392H115.656Z" fill="white"/>
<path d="M113.465 103.934C112.134 104.99 110.66 105.539 109.002 105.864C108.592 105.945 108.715 106.494 109.104 106.473C110.885 106.372 112.544 105.58 113.915 104.462C114.263 104.178 113.813 103.629 113.444 103.914L113.465 103.934Z" fill="white"/>
<path d="M165.448 135.464C165.325 134.753 165.182 134.082 164.977 133.392C164.874 133.046 164.342 133.107 164.404 133.493C164.485 134.204 164.649 134.895 164.813 135.586C164.915 135.992 165.55 135.89 165.468 135.464H165.448Z" fill="white"/>
<path d="M164.506 132.132C164.219 131.136 163.994 130.1 163.626 129.125C163.503 128.8 162.97 128.963 163.032 129.308C163.216 130.304 163.564 131.279 163.851 132.234C163.974 132.64 164.649 132.538 164.526 132.112L164.506 132.132Z" fill="white"/>
<path d="M167.515 133.392C167.147 131.969 166.86 130.466 166.267 129.105C166.103 128.739 165.55 128.942 165.611 129.308C165.796 130.73 166.328 132.132 166.737 133.513C166.881 133.981 167.638 133.879 167.515 133.371V133.392Z" fill="white"/>
<path d="M170.525 131.99C169.931 130.527 169.665 129.024 169.194 127.541C169.092 127.195 168.457 127.114 168.457 127.561C168.457 129.207 169.112 130.852 169.788 132.335C170.013 132.802 170.709 132.457 170.525 131.99Z" fill="white"/>
<path d="M172.183 129.714C172.142 128.252 171.917 126.667 171.16 125.387C170.975 125.082 170.361 125.184 170.484 125.59C170.894 126.992 171.344 128.272 171.426 129.735C171.446 130.161 172.204 130.141 172.183 129.694V129.714Z" fill="white"/>
<path d="M162.725 135.423C161.353 132.234 160.083 128.922 158.487 125.834C158.282 125.448 157.729 125.712 157.872 126.119C159.101 129.369 160.698 132.538 162.151 135.687C162.315 136.053 162.888 135.789 162.725 135.423Z" fill="white"/>
<path d="M159.51 134.103C157.77 130.852 156.398 127.439 154.801 124.128C154.658 123.803 154.085 123.965 154.187 124.331C155.231 127.906 156.972 131.218 158.855 134.428C159.08 134.814 159.736 134.529 159.51 134.123V134.103Z" fill="white"/>
<path d="M155.231 130.791C154.412 128.577 153.716 126.24 152.57 124.168C152.385 123.823 151.771 123.965 151.894 124.392C152.508 126.708 153.614 128.922 154.556 131.116C154.74 131.563 155.395 131.238 155.231 130.791Z" fill="white"/>
<path d="M150.666 128.272C149.826 125.794 149.13 123.152 147.943 120.816C147.759 120.471 147.165 120.633 147.267 121.04C147.881 123.62 149.069 126.119 150.011 128.577C150.174 129.003 150.789 128.699 150.645 128.272H150.666Z" fill="white"/>
<path d="M146.407 124.94C145.056 122.645 144.257 120.186 143.07 117.83C142.886 117.484 142.312 117.647 142.394 118.053C142.947 120.593 144.421 123.051 145.772 125.245C145.998 125.611 146.632 125.326 146.407 124.94Z" fill="white"/>
<path d="M141.289 120.796C140.367 118.46 139.63 115.88 138.381 113.685C138.197 113.36 137.624 113.503 137.726 113.889C138.381 116.367 139.671 118.744 140.654 121.101C140.838 121.507 141.452 121.223 141.289 120.796Z" fill="white"/>
<path d="M136.682 116.611C136.027 115.087 135.474 113.442 134.655 111.979C134.471 111.674 133.877 111.796 134 112.182C134.512 113.807 135.331 115.351 136.027 116.916C136.211 117.342 136.866 117.038 136.682 116.611Z" fill="white"/>
<path d="M132.997 117.403C132.035 115.412 131.154 113.36 129.926 111.512C129.68 111.126 129.168 111.552 129.291 111.918C130.049 113.95 131.175 115.859 132.198 117.789C132.465 118.277 133.222 117.931 132.976 117.424L132.997 117.403Z" fill="white"/>
<path d="M128.247 114.965C127.326 112.873 126.527 110.638 125.278 108.708C125.074 108.403 124.459 108.505 124.603 108.932C125.299 111.146 126.507 113.218 127.551 115.29C127.776 115.737 128.431 115.412 128.247 114.965Z" fill="white"/>
<path d="M124.992 112.69C124.255 111.634 123.579 110.537 123.026 109.358C122.514 108.302 122.187 107.164 121.613 106.148C121.388 105.762 120.815 105.945 120.876 106.392C121.122 108.871 122.821 111.349 124.275 113.299C124.644 113.787 125.319 113.178 124.992 112.71V112.69Z" fill="white"/>
<path d="M120.835 112.385C119.791 109.785 118.931 106.717 117.334 104.401C117.109 104.076 116.556 104.361 116.638 104.726C117.232 107.469 118.87 110.212 120.037 112.771C120.283 113.279 121.04 112.913 120.835 112.385Z" fill="white"/>
<path d="M213.684 127.642C212.209 126.708 210.776 125.733 209.302 124.818C208.012 124.026 206.682 122.949 205.207 122.543C204.859 122.441 204.47 122.848 204.757 123.173C205.801 124.29 207.357 124.94 208.667 125.712C210.183 126.606 211.718 127.398 213.254 128.252C213.663 128.495 214.113 127.906 213.684 127.642Z" fill="white"/>
<path d="M211.493 128.252C209.998 127.378 208.463 126.586 206.989 125.651C205.658 124.798 204.47 123.721 203.058 123.01C202.669 122.807 202.341 123.376 202.587 123.681C203.651 124.94 205.208 125.854 206.6 126.708C208.033 127.602 209.507 128.435 211.063 129.064C211.554 129.247 211.943 128.516 211.493 128.252Z" fill="white"/>
<path d="M208.217 129.308C206.149 128.028 204.041 126.505 201.768 125.611C201.379 125.448 201.154 125.976 201.44 126.22C203.304 127.744 205.658 128.8 207.767 129.958C208.197 130.202 208.668 129.592 208.217 129.308Z" fill="white"/>
<path d="M204.88 130.121C203.877 129.593 202.894 129.024 201.932 128.414C201.051 127.866 200.232 127.195 199.27 126.809C198.881 126.647 198.554 127.155 198.82 127.459C200.212 129.044 202.566 130.039 204.45 130.954C204.921 131.177 205.351 130.385 204.88 130.121Z" fill="white"/>
<path d="M202.28 130.649C200.662 129.592 198.635 128.231 196.67 127.967C196.301 127.927 196.117 128.435 196.424 128.638C197.182 129.146 198.083 129.43 198.902 129.816C199.884 130.263 200.847 130.791 201.788 131.36C202.259 131.644 202.771 130.954 202.3 130.649H202.28Z" fill="white"/>
<path d="M199.393 132.213C197.632 131.096 195.79 129.572 193.804 128.881C193.456 128.76 193.067 129.227 193.353 129.511C194.889 130.954 197.059 131.888 198.881 132.945C199.372 133.229 199.864 132.538 199.393 132.234V132.213Z" fill="white"/>
<path d="M196.772 132.985C195.196 132.234 193.394 131.076 191.654 130.832C191.244 130.771 191.122 131.299 191.388 131.543C192.739 132.66 194.848 133.188 196.445 133.838C196.998 134.062 197.284 133.229 196.772 132.985Z" fill="white"/>
<path d="M193.885 134.346C192.411 133.27 190.528 132.132 188.665 132.112C188.194 132.112 188.091 132.68 188.48 132.884C190.098 133.696 191.777 134.163 193.292 135.2C193.845 135.586 194.418 134.753 193.885 134.367V134.346Z" fill="white"/>
<path d="M190.896 135.464C189.443 134.895 187.723 133.899 186.167 133.777C185.737 133.737 185.532 134.285 185.88 134.549C187.15 135.484 189.095 135.85 190.569 136.378C191.163 136.581 191.49 135.707 190.896 135.484V135.464Z" fill="white"/>
<path d="M188.03 137.678C187.17 137.15 186.31 136.642 185.43 136.114C184.713 135.687 184.038 135.2 183.219 135.037C182.85 134.956 182.625 135.484 182.85 135.728C183.403 136.358 184.242 136.703 184.98 137.089C185.819 137.536 186.658 137.983 187.477 138.43C188.01 138.714 188.562 137.962 188.03 137.637V137.678Z" fill="white"/>
<path d="M184.57 137.962C183.485 137.495 182.298 136.784 181.11 136.662C180.66 136.622 180.496 137.19 180.823 137.434C181.765 138.166 183.137 138.47 184.222 138.877C184.816 139.1 185.143 138.206 184.57 137.942V137.962Z" fill="white"/>
<path d="M182.441 139.303C181.294 138.755 179.82 137.719 178.53 137.658C178.182 137.658 177.916 138.064 178.162 138.348C179.063 139.344 180.844 139.771 182.052 140.319C182.686 140.603 183.034 139.608 182.42 139.303H182.441Z" fill="white"/>
<path d="M179.636 140.136C178.94 139.506 177.998 139.019 177.056 139.324C176.688 139.446 176.81 139.953 177.097 140.075C177.773 140.4 178.428 140.461 179.042 140.969C179.554 141.396 180.127 140.563 179.636 140.116V140.136Z" fill="white"/>
<path d="M177.425 141.274C176.524 140.949 175.603 140.421 174.64 140.522C174.333 140.543 174.149 141.01 174.395 141.233C175.111 141.883 176.155 142.026 177.056 142.31C177.732 142.513 178.1 141.538 177.425 141.294V141.274Z" fill="white"/>
<path d="M175.766 142.737C174.845 142.087 173.699 141.538 172.532 141.741C172.122 141.802 172.04 142.432 172.45 142.554C173.412 142.859 174.313 143.001 175.152 143.57C175.705 143.935 176.278 143.123 175.746 142.737H175.766Z" fill="white"/>
<path d="M212.271 125.997C212.312 126.586 212.025 127.053 211.554 127.398C211.288 127.581 211.575 128.028 211.862 127.866C212.64 127.439 212.967 126.769 212.885 125.895C212.844 125.489 212.23 125.611 212.271 125.997Z" fill="white"/>
<path d="M210.49 125.367C210.101 126.667 209.671 127.947 209.384 129.247C209.302 129.592 209.876 129.694 209.978 129.389C210.449 128.15 210.776 126.87 211.165 125.611C211.288 125.184 210.633 124.94 210.49 125.367Z" fill="white"/>
<path d="M208.729 123.803C208.401 125.895 207.583 127.663 206.886 129.633C206.764 130.019 207.275 130.283 207.501 129.958C208.75 128.252 209.261 125.936 209.487 123.864C209.548 123.356 208.77 123.295 208.709 123.782L208.729 123.803Z" fill="white"/>
<path d="M206.047 122.482C205.433 124.859 204.716 127.256 204.409 129.694C204.368 130.08 204.941 130.202 205.064 129.836C205.863 127.52 206.293 125.042 206.805 122.645C206.886 122.218 206.149 122.035 206.047 122.462V122.482Z" fill="white"/>
<path d="M202.362 124.514C201.604 126.687 201.133 129.064 200.908 131.34C200.867 131.726 201.44 131.848 201.563 131.482C202.321 129.328 202.915 126.951 203.14 124.676C203.181 124.229 202.505 124.067 202.362 124.493V124.514Z" fill="white"/>
<path d="M199.147 125.794C198.451 127.764 197.673 129.755 197.223 131.787C197.141 132.193 197.735 132.274 197.878 131.929C198.738 130.039 199.291 128.028 199.905 126.058C200.069 125.57 199.311 125.286 199.147 125.773V125.794Z" fill="white"/>
<path d="M194.827 127.134C194.623 129.572 194.008 131.908 193.496 134.306C193.415 134.692 193.988 134.773 194.131 134.448C195.175 132.173 195.523 129.674 195.626 127.216C195.646 126.687 194.848 126.606 194.807 127.134H194.827Z" fill="white"/>
<path d="M191.961 129.227C191.49 131.502 190.651 133.615 189.975 135.829C189.873 136.175 190.385 136.5 190.569 136.134C191.756 134.062 192.33 131.624 192.759 129.288C192.841 128.78 192.063 128.719 191.961 129.206V129.227Z" fill="white"/>
<path d="M187.518 131.258C187.007 133.188 186.31 135.179 186.126 137.17C186.085 137.556 186.638 137.678 186.781 137.312C187.539 135.484 187.846 133.452 188.296 131.543C188.419 131.035 187.662 130.73 187.518 131.258Z" fill="white"/>
<path d="M184.079 134.996C183.485 136.5 182.809 138.023 182.441 139.608C182.359 139.933 182.85 140.299 183.035 139.913C183.813 138.45 184.304 136.845 184.857 135.281C185.041 134.773 184.263 134.489 184.079 134.996Z" fill="white"/>
<path d="M179.759 137.576C179.759 138.45 179.513 139.222 179.349 140.075C179.288 140.441 179.841 140.624 180.025 140.319C180.578 139.486 180.639 138.511 180.598 137.536C180.598 137.069 179.738 137.089 179.738 137.576H179.759Z" fill="white"/>
<path d="M113.158 70.576C125.36 73.9077 146.121 66.6551 146.755 52.0889C146.796 51.0122 145.179 50.8497 145.056 51.9264C143.398 66.7973 125.401 70.1494 113.342 69.7431C112.871 69.7431 112.646 70.4541 113.158 70.576Z" fill="white"/>
<path d="M170.464 64.0547C167.311 63.1202 163.482 62.7342 161.292 65.7612C159.551 68.1585 160.35 70.9417 162.459 72.7904C168.601 78.1334 181.131 78.174 185.717 70.9823C186.126 70.3525 185.205 69.7024 184.754 70.3119C180.803 75.6549 174.456 75.9799 168.437 74.1922C166.451 73.603 163.83 72.7701 162.663 70.9214C158.814 64.7861 167.311 64.4407 170.239 64.9283C170.751 65.0096 170.935 64.1969 170.443 64.0547H170.464Z" fill="white"/>
<path d="M175.48 64.1766C177.097 64.7861 185.942 69.0523 182.564 71.3886C182.195 71.6324 182.461 72.1809 182.83 72.2216C185.369 72.5872 185.287 69.3368 184.14 67.9553C182.154 65.5581 178.674 64.1969 175.767 63.3843C175.255 63.2421 174.968 63.9735 175.48 64.1563V64.1766Z" fill="white"/>
<path d="M142.394 78.9054C145.977 79.1898 148.495 80.6525 151.3 82.7653C151.566 82.9685 151.976 82.6434 151.812 82.3387C150.133 79.0476 145.895 77.4426 142.353 77.8693C141.76 77.9302 141.801 78.8647 142.394 78.9054Z" fill="white"/>
<path d="M153.634 83.6592C156.951 84.3296 160.206 85.2438 163.4 86.2799C164.199 86.544 164.67 85.325 163.851 85.0609C160.555 83.903 157.176 83.1919 153.696 82.8059C153.123 82.745 153.082 83.5373 153.614 83.6592H153.634Z" fill="white"/>
<path d="M148.926 76.7722C151.669 77.5036 154.351 78.3771 156.992 79.4335C159.633 80.49 161.967 82.1558 164.629 83.0903C165.182 83.2935 165.509 82.5621 165.1 82.2168C160.944 78.8241 154.392 77.1176 149.253 75.919C148.7 75.7971 148.373 76.6097 148.946 76.7722H148.926Z" fill="white"/>
<path d="M53.4977 17.1869C49.8329 15.0131 46.7209 19.0559 47.9083 22.6111C49.7715 28.1776 60.4997 32.586 65.9457 31.5093C70.8798 30.5139 74.3808 25.2318 71.0436 20.8437C68.0544 16.9228 59.6807 12.3721 55.2174 16.1102C54.7875 16.4759 55.2379 17.0853 55.7293 16.9025C61.2367 14.81 77.0014 21.8595 68.8939 28.8683C65.5567 31.7531 61.2367 30.7576 57.4491 29.1324C56.0364 28.5229 54.5623 27.7713 53.2725 26.9383C52.4126 26.4711 51.655 25.8819 50.9589 25.1912C48.2155 23.3831 48.973 20.925 53.1906 17.7964C53.5386 17.9386 53.8457 17.4104 53.4977 17.2072V17.1869Z" fill="white"/>
<path d="M28.7246 31.2249C29.2774 30.5545 29.953 29.945 30.731 29.5387C31.3452 29.1934 32.0413 29.0715 32.6351 28.6855C32.9627 28.462 32.717 28.0151 32.4099 27.9541C30.6901 27.6697 28.827 29.3965 27.9876 30.6967C27.6805 31.1843 28.3766 31.6718 28.7246 31.2046V31.2249Z" fill="white"/>
<path d="M28.4789 30.8592C33.2493 36.4054 40.3127 39.8184 47.5399 40.8138C48.2565 40.9154 48.3589 39.8184 47.6423 39.7168C40.2513 38.6401 34.4368 35.4302 29.0727 30.392C28.7246 30.0669 28.1718 30.4935 28.4994 30.8795L28.4789 30.8592Z" fill="white"/>
<path d="M35.358 28.0963C40.0465 32.261 45.3901 35.4099 51.4094 37.3399C52.1669 37.5837 52.5764 36.446 51.8393 36.2022C45.9634 34.2722 40.5993 31.3671 35.8494 27.4056C35.4399 27.0602 34.969 27.7306 35.3785 28.076L35.358 28.0963Z" fill="white"/>
<path d="M50.4062 42.5203C51.737 41.7483 53.5591 40.9357 54.5419 39.7371C54.7671 39.473 54.46 38.9651 54.1119 39.0667C52.5969 39.5136 51.1637 40.8544 49.9148 41.7686C49.5054 42.0531 49.9558 42.7641 50.3857 42.5L50.4062 42.5203Z" fill="white"/>
<path d="M199.557 59.0774C198.41 61.9013 199.885 66.2488 203.283 66.6551C203.652 66.6958 203.877 66.1675 203.549 65.9644C201.215 64.5829 199.475 62.267 200.581 59.4634C200.847 58.8133 199.823 58.4273 199.557 59.0774Z" fill="white"/>
<path d="M192.944 75.3501C194.786 74.2328 196.445 72.831 198.144 71.5308C199.823 70.2306 201.707 69.032 203.14 67.4677C203.426 67.163 202.976 66.6754 202.628 66.8583C200.847 67.7928 199.311 69.2149 197.735 70.4541C195.974 71.8356 194.111 73.1358 192.493 74.7001C192.186 74.9845 192.493 75.6142 192.923 75.3501H192.944Z" fill="white"/>
<path d="M190.774 56.7818C193.722 58.2039 197.509 58.6711 200.703 59.3822C201.359 59.5244 201.625 58.407 200.97 58.2445C197.796 57.4319 194.213 56.152 190.937 56.0707C190.507 56.0707 190.405 56.5989 190.774 56.7818Z" fill="white"/>
<path d="M48.7479 11.0516C52.9245 12.5143 59.1075 12.0674 62.4243 8.87787C62.7723 8.55282 62.4243 7.98399 61.9738 8.18714C59.8446 9.06071 58.0224 10.1374 55.668 10.5234C53.3749 10.8891 51.2047 10.6047 48.9731 10.1577C48.4408 10.0562 48.2565 10.9094 48.7683 11.0719L48.7479 11.0516Z" fill="white"/>
<path d="M20.9036 31.9563C22.1525 29.9653 23.4014 26.6742 22.7462 24.3176C22.6438 23.9113 22.0296 23.7691 21.8658 24.2364C21.4973 25.374 21.5178 26.593 21.2516 27.751C20.965 29.0308 20.4941 30.2701 20.0437 31.5093C19.8594 32.0172 20.5965 32.4235 20.9036 31.9563Z" fill="white"/>
<path d="M157.934 90.7087C160.309 89.51 162.684 88.4536 165.304 87.8848C167.659 87.3769 170.013 87.6207 172.368 87.255C172.798 87.1941 172.88 86.544 172.45 86.4018C167.741 84.9187 161.271 87.1941 157.442 89.9163C157.013 90.2211 157.483 90.9118 157.934 90.6883V90.7087Z" fill="white"/>
</g>
<defs>
<clipPath id="clip0_97_287">
<rect width="236" height="170" fill="white"/>
</clipPath>
</defs>
</svg>
