<svg width="178" height="209" viewBox="0 0 178 209" fill="none" xmlns="http://www.w3.org/2000/svg">
<g clip-path="url(#clip0_97_22)">
<path d="M17.0445 71.8312C11.0205 73.4194 4.43241 76.2741 1.41034 82.1043C-0.201429 85.2003 -0.725255 89.7236 1.43049 92.7191C2.45799 94.1465 4.93609 92.9403 4.53315 91.2716C3.84815 88.4169 3.24373 86.2457 4.77492 83.4512C7.3739 78.7469 13.1763 76.4551 17.9109 74.6055C19.4219 74.0024 18.6362 71.4291 17.0244 71.8513L17.0445 71.8312Z" fill="white"/>
<path d="M2.09525 94.5285C47.8696 109.908 88.4459 75.4298 131.521 66.4434C134.261 65.8603 133.535 61.6184 130.755 62.1411C88.325 70.0017 48.1315 105.184 3.30408 91.2918C1.18863 90.6283 -0.0201954 93.8249 2.09525 94.5285Z" fill="white"/>
<path d="M41.3822 205.1C87.1565 220.479 127.733 186.001 170.807 177.015C173.548 176.432 172.822 172.19 170.042 172.712C127.612 180.573 87.4185 215.755 42.5911 201.863C40.4756 201.2 39.2668 204.396 41.3822 205.1Z" fill="white"/>
<path d="M0.90662 91.5933C5.39943 109.968 12.4509 128.001 18.5354 145.914C25.0026 164.952 31.6109 183.971 38.6422 202.808C39.5488 205.241 43.2358 203.492 42.309 201.059C35.4388 182.805 28.8709 164.45 22.4842 146.035C16.158 127.72 10.8795 108.661 3.32428 90.8092C2.76016 89.4824 0.543972 90.1659 0.886473 91.5933H0.90662Z" fill="white"/>
<path d="M172.178 174.683C186.945 167.867 169.538 140.566 164.481 132.585C162.688 129.75 158.699 132.243 160.573 135.098C166.556 144.265 178.584 161.977 170.384 172.572C169.478 173.738 170.928 175.266 172.178 174.683Z" fill="white"/>
<path d="M129.123 65.217C140.526 73.3591 141.272 88.3164 145.12 100.781C145.926 103.394 150.157 102.751 149.391 100.037C146.268 88.7385 144.193 66.3026 130.614 62.3823C128.901 61.8798 127.552 64.1113 129.123 65.217Z" fill="white"/>
<path d="M118.244 115.658C129.566 113.848 140.123 108.179 149.653 102.007C151.95 100.519 149.169 97.3028 146.913 98.7704C137.565 104.822 127.552 108.601 117.438 113.104C116.027 113.728 116.753 115.899 118.264 115.658H118.244Z" fill="white"/>
<path d="M146.45 91.4124C149.149 93.2619 149.25 96.8605 147.88 99.5544C146.55 102.188 150.882 104.42 152.453 101.947C155.637 96.8605 153.259 90.7691 148.182 88.1153C146.248 87.1101 144.717 90.2463 146.45 91.4325V91.4124Z" fill="white"/>
<path d="M146.591 93.1413C147.356 94.6692 146.933 96.1368 147.094 97.7451C147.276 99.5746 149.996 100.117 150.963 98.5895C152.494 96.177 151.466 93.1011 149.794 91.0706C148.424 89.4221 145.603 91.1711 146.591 93.1413Z" fill="white"/>
<path d="M147.538 103.012C148.364 102.912 149.149 102.892 149.955 102.671C150.902 102.409 151.486 102.047 152.212 101.424C153.239 100.54 152.615 99.0518 151.386 98.8307C150.479 98.6498 149.734 98.6498 148.827 98.9111C148.001 99.1524 147.296 99.5142 146.51 99.8359C144.697 100.62 145.704 103.213 147.517 103.012H147.538Z" fill="white"/>
<path d="M118.445 113.145C110.205 116.422 107.001 126.735 110.608 134.616C114.516 143.16 125.879 147.924 134.804 145.11C137.504 144.245 136.98 140.365 134.019 140.687C127.209 141.411 120.077 140.868 115.584 134.897C110.95 128.745 113.247 119.518 119.634 115.658C121.145 114.753 120.137 112.501 118.445 113.165V113.145Z" fill="white"/>
<path d="M133.596 145.653C143.488 143.059 153.118 138.053 162.567 134.133C165.428 132.947 163.353 128.544 160.492 129.791C151.285 133.791 141.131 137.169 132.548 142.396C131.017 143.321 131.541 146.195 133.596 145.653Z" fill="white"/>
<path d="M149.854 108.722C151.104 113.386 153.018 117.829 155.858 121.749C157.309 123.739 160.069 121.287 158.739 119.317C156.302 115.678 154.105 111.959 152.353 107.938C151.768 106.591 149.472 107.274 149.854 108.742V108.722Z" fill="white"/>
<path d="M146.47 89.1407C152.615 85.8436 158.941 91.4325 161.499 96.6997C163.937 101.726 165.67 107.395 167.161 112.723C168.773 118.452 167.685 122.332 164.28 126.976C162.99 128.725 161.923 130.012 161.056 132.083C160.371 133.711 162.688 134.797 163.716 133.47C166.697 129.59 172.238 126.815 172.943 121.508C173.87 114.572 169.256 105.204 166.697 98.891C163.615 91.2918 154.105 77.6211 145.019 86.9091C144.012 87.9344 145.019 89.9448 146.47 89.1608V89.1407Z" fill="white"/>
<path d="M123.28 120.945C119.513 122.996 118.344 128.022 120.057 131.841C121.87 135.922 126.605 137.209 130.533 135.44C134.502 133.671 136.92 129.127 134.946 125.006C132.951 120.865 127.854 118.713 123.603 120.503C121.89 121.226 123.139 123.86 124.852 123.116C127.733 121.87 131.238 123.317 132.588 126.132C133.999 129.067 132.004 132.143 129.183 133.249C122.454 135.882 119.674 126.695 124.59 122.955C125.678 122.131 124.489 120.282 123.28 120.945Z" fill="white"/>
<path d="M123.844 127.117C123.079 130.293 126.907 133.188 129.667 131.198C130.695 130.454 129.566 128.665 128.438 129.308C127.209 130.012 125.537 129.027 125.839 127.579C126.061 126.433 124.106 125.971 123.824 127.117H123.844Z" fill="white"/>
<path d="M144.092 85.8436C144.334 85.8838 144.596 85.9039 144.838 85.9441L144.052 85.6627C145.221 86.3462 147.135 86.3663 148.202 85.4616C148.988 84.7982 148.807 83.7327 148.102 83.1296C147.517 82.627 146.852 82.5868 146.107 82.5466C145.321 82.5064 144.717 82.7275 143.971 82.828C142.219 83.0693 142.44 85.6225 144.092 85.8436Z" fill="white"/>
<path d="M15.8559 85.0193C17.4878 88.4571 18.8981 92.2567 20.9732 95.4332C21.9403 96.9007 23.814 95.2723 23.3506 93.8852C22.2022 90.4072 20.1069 87.0297 18.475 83.7528C17.649 82.0641 15.0298 83.3105 15.8357 84.9992L15.8559 85.0193Z" fill="white"/>
<path d="M18.5756 84.7982C42.7522 78.767 66.5661 70.8863 90.0778 62.6839C98.0762 59.8895 123.059 54.7831 115.725 41.2934C114.557 39.1423 111.373 40.6501 112.28 42.9218C116.632 53.8784 78.0097 62.8447 71.7641 64.9355C53.9742 70.9265 35.9425 76.0932 18.0115 81.6017C16.0774 82.2048 16.5005 85.3008 18.5756 84.7781V84.7982Z" fill="white"/>
<path d="M112.482 37.4737C117.861 33.9153 120.762 48.0483 121.588 50.6216C123.16 55.4465 124.751 60.2916 126.323 65.1165C127.048 67.3279 130.352 65.7598 129.627 63.5484C128.035 58.7235 126.444 53.8985 124.832 49.0736C123.502 45.0729 122.575 39.7856 120.037 36.3076C117.74 33.1312 112.643 31.543 110.286 35.5035C109.399 36.9912 111.051 38.3984 112.461 37.4737H112.482Z" fill="white"/>
<path d="M22.041 75.671C20.5098 76.4149 19.4017 77.4402 18.6361 79.0083C17.9914 80.3351 17.4072 82.3254 18.2533 83.6724C18.4749 84.0141 19.0995 84.1147 19.2405 83.6322C19.583 82.4661 19.4219 81.28 19.8852 80.1341C20.4091 78.8474 21.4164 77.6211 22.6051 76.8773C23.3103 76.435 22.8267 75.3092 22.041 75.6911V75.671Z" fill="white"/>
<path d="M20.812 77.0984C43.679 72.3338 66.2841 65.3778 88.5064 58.2209C98.1367 55.1249 120.822 48.2694 112.099 33.4931C111.575 32.6085 110.265 33.2116 110.648 34.1766C118.445 53.0542 76.7002 60.1508 65.6394 63.4881C50.7104 67.9914 35.5799 71.7709 20.6307 76.1736C20.0666 76.3345 20.1874 77.2391 20.7919 77.0984H20.812Z" fill="white"/>
<path d="M113.227 51.4257C117.337 47.405 121.85 40.1073 115.806 35.5437C114.939 34.9003 114.053 36.0664 114.597 36.8504C116.128 39.0417 116.309 41.4944 115.705 44.0275C115.584 44.5301 116.269 45.0327 116.591 44.4899C118.385 41.5949 117.901 38.3783 115.967 35.6844C115.564 36.1267 115.161 36.569 114.758 36.9911C119.896 40.8109 115.262 47.1637 112.582 50.8427C112.3 51.2247 112.864 51.7675 113.207 51.4056L113.227 51.4257Z" fill="white"/>
<path d="M7.19256 99.6952C25.0429 106.008 45.5729 101.987 63.0001 96.1971C73.4968 92.699 83.6107 88.1757 93.7447 83.7327C99.4262 81.2398 105.128 78.7469 110.91 76.4551C118.123 73.6003 129.022 67.8104 136.719 70.6853C137.907 71.1276 138.592 69.278 137.404 68.8357C129.768 66.0011 120.782 70.7054 113.59 73.4395C102.549 77.6211 91.8509 82.6672 80.9915 87.2911C56.6538 97.6446 33.7465 103.274 7.37388 98.9312C6.93064 98.8508 6.78961 99.5344 7.19256 99.6952Z" fill="white"/>
<path d="M9.10653 109.828C10.5168 109.988 12.6121 110.551 13.8814 109.747C14.7477 109.204 15.1104 107.898 14.0829 107.254C12.6524 106.329 10.5974 106.892 8.98565 107.073C7.39402 107.254 7.57535 109.626 9.08638 109.807L9.10653 109.828Z" fill="white"/>
<path d="M21.8596 110.732C24.3578 111.355 27.2993 111.416 29.2737 109.506C30.1804 108.641 29.5558 106.892 28.1858 107.174C26.2517 107.576 24.4989 108.239 22.5043 107.998C20.953 107.817 20.2881 110.33 21.8797 110.732H21.8596Z" fill="white"/>
<path d="M37.3528 111.114C37.9169 111.094 38.4206 111.295 38.9646 111.235C39.4884 111.174 40.0122 111.014 40.5159 110.913C41.5636 110.692 42.5306 110.35 43.397 109.727C44.1626 109.164 43.9409 107.697 42.994 107.455C41.9464 107.194 40.939 107.214 39.8914 107.395C39.3877 107.475 38.8437 107.536 38.34 107.656C37.7961 107.797 37.3931 108.159 36.8693 108.36C35.5597 108.822 35.9224 111.195 37.3528 111.134V111.114Z" fill="white"/>
<path d="M52.7855 107.777C54.2763 107.616 56.8552 107.395 57.7215 106.068C58.1043 105.465 58.064 104.44 57.3589 104.058C56.3716 103.515 55.6262 103.676 54.5785 103.957C53.6518 104.219 52.725 104.48 51.8184 104.842C50.1059 105.525 51.0931 107.958 52.7653 107.777H52.7855Z" fill="white"/>
<path d="M67.2914 103.736C68.6816 103.173 70.0919 102.65 71.4216 101.947C73.3759 100.921 71.9656 97.9059 69.9508 98.8508C68.5808 99.4941 67.3317 100.318 66.0222 101.082C64.4305 102.027 65.5185 104.44 67.2713 103.716L67.2914 103.736Z" fill="white"/>
<path d="M80.4072 97.7049C80.9915 97.3631 81.6161 97.1219 82.3011 97.0214C83.0465 96.9208 83.7517 97.1219 84.4367 96.6997C85.2023 96.2373 85.6455 95.1517 84.9202 94.4079C83.2883 92.7191 80.3065 93.9254 78.8559 95.3125C77.7478 96.3579 78.9164 98.5292 80.4072 97.6848V97.7049Z" fill="white"/>
<path d="M93.5028 92.7191C94.9534 92.1763 97.1696 91.4928 97.9956 90.0855C98.5195 89.1808 98.0762 88.055 96.9883 87.9143C95.3362 87.7133 93.4625 89.02 92.1328 89.8443C90.4203 90.9098 91.5486 93.4429 93.5028 92.7191Z" fill="white"/>
<path d="M106.316 87.854C106.981 86.3663 108.19 86.105 109.58 85.6024C110.93 85.1199 110.406 83.0492 109.117 82.9486C106.699 82.7476 104.503 84.7982 103.637 86.8488C102.912 88.5576 105.591 89.5226 106.316 87.8339V87.854Z" fill="white"/>
<path d="M118.646 82.6069C119.231 82.2852 119.855 82.1043 120.44 81.7625C121.044 81.4006 121.608 80.9986 122.172 80.6166C122.958 80.0939 122.938 78.8273 122.374 78.184C121.709 77.4 120.722 77.4603 119.936 77.983C119.432 78.3247 118.908 78.6263 118.445 79.0083C117.982 79.3903 117.599 79.8526 117.115 80.2346C115.866 81.2398 117.216 83.3909 118.667 82.6069H118.646Z" fill="white"/>
<path d="M128.982 80.7975C130.352 80.9382 131.823 81.1192 133.011 80.3351C133.737 79.8526 133.555 78.6665 132.911 78.2242C131.762 77.4603 130.171 77.7015 128.861 77.8423C127.149 78.0232 127.35 80.6166 128.982 80.7975Z" fill="white"/>
<path d="M132.065 90.2865C132.488 90.7288 132.891 91.151 133.334 91.533C134.563 92.6186 136.295 90.6484 135.248 89.4422C134.925 89.0803 134.583 88.7586 134.24 88.437C132.931 87.1905 130.755 88.9396 132.065 90.2865Z" fill="white"/>
<path d="M135.53 99.7957C136.114 100.379 136.698 100.962 137.303 101.565C137.806 102.067 138.572 102.51 139.317 102.289C140.083 102.067 140.708 101.746 140.97 100.921C141.191 100.218 141.151 99.3333 140.587 98.7905L138.814 97.0213C137.988 96.1971 136.718 95.9759 135.772 96.7801C134.946 97.4837 134.704 98.9915 135.53 99.8158V99.7957Z" fill="white"/>
<path d="M154.992 139.199C155.717 140.446 156.362 141.994 157.571 142.838C158.679 143.622 160.512 142.617 160.15 141.21C159.767 139.742 158.618 138.616 157.692 137.47C156.584 136.063 154.045 137.611 154.992 139.219V139.199Z" fill="white"/>
<path d="M160.754 148.507C160.653 149.171 160.613 149.834 160.613 150.498C160.613 151.443 161.197 152.327 162.205 152.408C163.071 152.488 164.139 151.784 164.119 150.819C164.119 149.995 164.078 149.191 163.957 148.367C163.696 146.497 160.996 146.738 160.754 148.487V148.507Z" fill="white"/>
<path d="M164.159 158.76C164.784 159.484 165.408 160.168 166.093 160.851C166.778 161.535 167.785 161.696 168.531 161.052C169.196 160.489 169.397 159.283 168.732 158.62C167.947 157.836 167.161 157.112 166.335 156.408C164.904 155.202 163.011 157.413 164.159 158.78V158.76Z" fill="white"/>
<path d="M165.73 166.601C165.67 167.284 165.65 167.928 165.67 168.611C165.67 169.556 166.234 170.421 167.241 170.521C168.128 170.602 169.135 169.898 169.155 168.953C169.155 168.129 169.155 167.305 169.075 166.48C168.914 164.57 165.892 164.771 165.73 166.621V166.601Z" fill="white"/>
<path d="M44.3641 198.526C45.7139 199.25 47.0638 200.054 48.5547 200.516C49.1591 200.697 50.0053 200.697 50.4888 200.174C50.8716 199.752 51.0529 199.431 51.1738 198.888C51.2947 198.224 50.8716 197.501 50.3478 197.119C49.0986 196.214 47.648 195.611 46.2377 194.967C44.1626 194.003 42.3292 197.44 44.3641 198.526Z" fill="white"/>
<path d="M58.9304 202.647C59.6154 202.486 60.2601 202.446 60.9451 202.607C61.8316 202.808 62.5569 203.27 63.4836 203.089C63.2016 203.069 62.9195 203.029 62.6173 203.009C62.9396 203.089 63.262 203.17 63.5844 203.23C64.6119 203.451 65.5588 202.084 65.0148 201.2C64.6119 200.536 64.2694 199.953 63.5642 199.591C62.9799 199.29 62.4158 199.089 61.7711 198.988C60.4616 198.787 59.152 199.028 57.923 199.471C56.1702 200.134 57.097 203.029 58.9304 202.607V202.647Z" fill="white"/>
<path d="M72.9931 202.486C74.1415 202.426 75.2093 202.346 76.3375 202.104C77.5665 201.843 78.5336 201.682 79.138 200.476C79.4402 199.853 79.0574 199.169 78.6142 198.767C77.6673 197.943 76.4181 198.385 75.3302 198.586C74.2019 198.807 73.1744 199.189 72.0865 199.571C71.3813 199.813 71.0791 200.778 71.3008 201.421C71.5627 202.205 72.2275 202.527 73.0334 202.466L72.9931 202.486Z" fill="white"/>
<path d="M89.1309 198.626C90.38 198.466 91.6292 198.305 92.838 197.963C93.8655 197.682 94.6512 196.797 94.4498 195.671C94.2684 194.666 93.2006 193.822 92.153 194.063C90.7628 194.384 89.4331 194.887 88.1034 195.39C86.2297 196.113 87.2975 198.848 89.1309 198.626Z" fill="white"/>
<path d="M103.214 193.48C104.644 193.218 106.86 193.098 107.888 191.992C108.593 191.248 108.573 189.942 107.465 189.56C105.934 189.037 104.141 189.881 102.67 190.344C101.844 190.605 101.219 191.248 101.38 192.173C101.521 193.017 102.368 193.621 103.214 193.46V193.48Z" fill="white"/>
<path d="M115.302 187.429C116.853 187.207 118.788 187.107 119.493 185.438C119.734 184.855 119.493 183.991 118.929 183.669C117.317 182.744 115.806 183.77 114.375 184.574C112.905 185.398 113.529 187.71 115.302 187.449V187.429Z" fill="white"/>
<path d="M128.337 182.684C128.66 182.302 129.284 182.423 129.687 182.503C131.641 182.905 132.185 179.89 130.453 179.206C128.72 178.523 126.645 179.206 125.759 180.855C124.771 182.644 127.008 184.232 128.357 182.684H128.337Z" fill="white"/>
<path d="M137.323 178C138.27 178.502 139.257 178.764 140.325 178.502C141.514 178.221 142.138 177.397 142.501 176.271C142.904 174.984 141.433 173.899 140.365 174.763C140.446 174.703 140.305 174.763 140.204 174.823C139.942 174.924 139.68 175.045 139.398 175.145C139.197 175.205 138.995 175.306 138.794 175.246C138.048 175.024 137.242 175.266 136.86 175.989C136.537 176.613 136.638 177.618 137.343 178H137.323Z" fill="white"/>
<path d="M149.613 175.547C150.137 175.487 150.66 175.547 151.184 175.406C151.748 175.286 152.292 175.045 152.816 174.823C153.421 174.562 153.924 173.879 153.944 173.215C153.944 172.632 153.864 172.19 153.481 171.747C153.058 171.245 152.272 170.883 151.607 171.084C151.063 171.245 150.479 171.386 149.955 171.627C149.452 171.868 149.089 172.23 148.626 172.532C147.135 173.476 147.699 175.768 149.593 175.547H149.613Z" fill="white"/>
<path d="M159.183 172.411C159.666 172.431 160.13 172.451 160.633 172.371C162.507 172.109 162.265 169.415 160.512 169.174C160.029 169.114 159.545 169.154 159.062 169.174C157.208 169.255 157.369 172.331 159.183 172.411Z" fill="white"/>
<path d="M6.04416 52.1696C9.2274 55.8084 12.1689 59.8694 14.3851 64.1716C16.1983 67.6898 17.0445 72.7358 19.9054 75.4298C20.9732 76.435 22.7461 76.0329 22.9476 74.4849C23.5117 70.243 20.1069 65.6593 17.9108 62.2215C15.0902 57.8389 11.9473 53.9789 8.26034 50.2999C6.97093 49.0133 4.79503 50.7422 6.04416 52.1696Z" fill="white"/>
<path d="M19.4016 81.0589C19.5024 80.9382 19.6031 80.8377 19.7038 80.7171C19.2808 80.9181 18.8577 81.0991 18.4547 81.3001C20.2075 81.4408 21.2149 79.4908 22.0812 78.2242C22.5446 77.5407 23.0684 76.8773 23.5117 76.1736C24.0758 75.2488 24.1564 74.5854 23.8139 73.5802C23.5721 72.8766 22.7461 72.6554 22.0812 72.6956C20.3889 72.8163 19.5427 74.9071 18.7368 76.1736C17.951 77.4 16.5609 79.0284 17.3265 80.5161C17.3265 80.1542 17.2862 79.8124 17.2862 79.4506C17.2257 79.5913 17.1452 79.7119 17.0847 79.8526C16.3594 81.28 18.5152 82.1244 19.4016 81.0589Z" fill="white"/>
<path d="M8.32074 53.4763C12.5113 49.6164 16.8631 46.44 21.8193 43.6053C25.0429 41.7558 30.3416 40.067 32.4167 36.7901C33.0211 35.8251 32.2555 34.8199 31.2079 34.8802C26.7957 35.1617 21.638 39.484 18.0115 41.7759C13.8612 44.4296 8.84456 47.224 6.04411 51.3855C5.07705 52.8129 6.99102 54.7027 8.32074 53.4562V53.4763Z" fill="white"/>
<path d="M8.36104 54.2202C20.8926 52.6521 33.142 44.7311 44.9885 40.449C59.8773 35.0411 75.0078 31.8245 90.3196 27.9243C92.7776 27.3011 92.1933 23.602 89.6346 24.004C76.2771 26.0747 63.0807 30.3167 50.3275 34.7194C35.9828 39.6851 22.4842 47.807 7.9581 51.9887C6.56794 52.3907 6.87015 54.4413 8.36104 54.2403V54.2202Z" fill="white"/>
<path d="M89.7958 24.8886C89.5137 30.4976 89.7555 36.1468 89.8562 41.7357C89.9368 46.1384 89.9972 50.8226 91.5889 54.9439C92.1731 56.4718 94.3893 55.8486 94.5706 54.4212C95.175 49.8978 94.1274 44.9925 93.5834 40.4691C92.9589 35.2622 92.8178 30.0352 92.4552 24.7881C92.3544 23.2602 89.8562 23.3808 89.7756 24.8886H89.7958Z" fill="white"/>
<path d="M31.8123 15.8821C32.0138 23.6422 32.6786 31.2615 32.2958 39.0216C32.2354 40.1073 33.0211 41.3336 34.2299 41.3537H34.8948C35.8014 41.3537 36.7685 40.9315 37.0707 40.0067C37.4736 38.7402 37.393 38.1773 36.6274 37.0917C35.7611 35.9055 34.1695 36.7901 33.9076 37.936C34.1494 37.6546 34.3911 37.3731 34.6329 37.1118C35.2776 37.8958 35.9223 38.6598 36.567 39.4438C36.5066 31.5832 36.3051 23.4612 34.4314 15.7815C34.1091 14.4346 31.772 14.314 31.8123 15.8821Z" fill="white"/>
<path d="M34.8747 16.1836C35.2575 5.1265 61.4487 6.41315 69.0442 5.60899C80.3065 4.42286 90.9844 5.10639 102.206 5.36774C104.967 5.42805 105.349 1.5279 102.609 1.10572C86.5118 -1.32685 70.797 0.703641 54.7599 2.61351C45.9556 3.65891 32.1951 4.04089 32.4167 15.9424C32.4369 17.4904 34.8142 17.7718 34.8545 16.1635L34.8747 16.1836Z" fill="white"/>
<path d="M101.844 4.34243C106.397 6.07137 106.014 19.5611 106.578 23.2401C107.606 30.1759 108.271 36.8906 107.767 43.9069C107.586 46.5204 111.575 46.9024 111.837 44.2889C112.864 34.0158 110.688 24.1448 109.399 14.0124C108.774 8.96633 108.815 2.15111 102.468 1.54799C100.836 1.38716 100.292 3.75942 101.824 4.34243H101.844Z" fill="white"/>
<path d="M48.5747 6.87554C48.8568 15.0779 48.3531 24.1448 50.0656 32.1461C50.1865 32.7291 51.0528 32.709 51.1133 32.1059C51.9796 23.9638 50.5491 14.9774 49.9649 6.81522C49.9044 6.03117 48.5344 6.07138 48.5747 6.87554Z" fill="white"/>
<path d="M67.1302 3.85996C66.143 12.4845 66.9489 21.4509 68.4196 29.9548C68.5808 30.8997 70.0113 30.8394 70.112 29.8945C70.2732 28.6279 70.3336 27.3614 70.3336 26.0949C70.3336 25.6124 69.6083 25.3711 69.4471 25.8938C69.0442 27.0799 68.7218 28.2862 68.4801 29.5125C69.024 29.5527 69.568 29.613 70.112 29.6532C68.6614 21.0689 68.4801 12.6454 68.4398 3.96048C68.4398 3.15632 67.2511 2.99549 67.1504 3.83986L67.1302 3.85996Z" fill="white"/>
<path d="M50.7305 9.32821C53.4302 7.65959 56.3314 6.1518 58.8297 4.20172C59.1117 3.98058 58.8297 3.51819 58.4871 3.65892C55.6665 5.02598 53.0273 6.93585 50.388 8.58437C49.9448 8.86582 50.2873 9.58956 50.7305 9.32821Z" fill="white"/>
<path d="M50.5895 13.1681C55.1629 10.2329 59.8974 6.87554 63.8261 3.11611C64.1283 2.83466 63.8261 2.21144 63.403 2.45269C58.7088 5.20692 54.1756 8.82562 50.1059 12.4242C49.7433 12.7459 50.1462 13.4495 50.5895 13.1681Z" fill="white"/>
<path d="M50.7707 16.4249C56.9559 13.2887 63.544 8.42352 67.916 3.05579C68.2182 2.69391 67.6742 2.27173 67.3317 2.53308C64.4305 4.6641 61.8517 7.17708 59.0109 9.38851C56.1702 11.5999 53.1481 13.5299 50.2872 15.681C49.8843 15.9826 50.3275 16.6661 50.7707 16.4249Z" fill="white"/>
<path d="M50.0858 21.6519C56.0695 17.0481 62.6375 12.6252 67.9966 7.2977C68.4398 6.85541 67.8959 6.23219 67.372 6.57396C61.0257 10.6751 55.3039 16.1233 49.5015 20.9683C49.0583 21.3503 49.6224 22.0137 50.0858 21.6519Z" fill="white"/>
<path d="M51.0328 25.5923C56.4725 21.5715 62.3555 17.2894 67.1102 12.4644C67.5937 11.9819 66.9893 11.2783 66.4252 11.6603C60.784 15.3996 55.4651 20.3451 50.4686 24.9288C50.0657 25.3108 50.5895 25.9139 51.0328 25.5923Z" fill="white"/>
<path d="M50.9924 29.8141C56.9963 26.0949 63.4232 21.5715 67.8757 16.063C68.2384 15.6207 67.5735 15.0779 67.1504 15.3996C61.4891 19.8023 56.3113 24.7881 50.5089 29.0702C50.1059 29.3718 50.5492 30.0955 50.9924 29.8141Z" fill="white"/>
<path d="M50.9925 33.8348C57.0769 29.9146 63.7859 25.2304 68.3996 19.6214C68.7824 19.159 68.0974 18.6162 67.6542 18.9378C61.751 23.3406 56.3516 28.5676 50.5089 33.091C50.1261 33.3925 50.5492 34.1163 50.9925 33.8348Z" fill="white"/>
<path d="M57.7015 31.2615C62.1943 29.3919 66.3245 26.3361 69.2659 22.4359C69.6487 21.9333 68.8832 21.2096 68.4399 21.672C65.1156 25.2103 61.61 28.1856 57.4194 30.6584C57.0568 30.8796 57.2985 31.4224 57.7015 31.2615Z" fill="white"/>
<path d="M63.9067 31.3621C65.9617 29.7739 68.1779 28.2259 69.9307 26.316C70.1724 26.0546 69.9307 25.4716 69.5479 25.7129C67.3116 27.1001 65.3573 29.0099 63.403 30.759C63.0202 31.1007 63.5037 31.6837 63.9268 31.3621H63.9067Z" fill="white"/>
<path d="M13.277 58.6631C22.1619 60.2513 29.8178 57.0347 37.9169 53.6573C49.6224 48.772 61.7107 44.3291 72.9327 38.3984C73.4364 38.1371 73.0737 37.4535 72.57 37.6144C54.2563 43.4847 33.0816 59.0049 13.418 57.276C12.5114 57.1955 12.4107 58.5023 13.277 58.6631Z" fill="white"/>
<path d="M70.9381 39.4639C72.4492 43.7863 78.0702 49.1339 83.0667 47.5055C83.6308 47.3245 83.4898 46.5003 83.0063 46.3194C80.911 45.4951 78.7955 45.3946 76.8413 44.1079C74.8467 42.8012 73.4162 40.9114 72.4895 38.7201C72.0462 37.6747 70.5553 38.4386 70.918 39.4639H70.9381Z" fill="white"/>
<path d="M80.8102 48.3096C81.0519 52.3505 81.9183 56.4115 82.5831 60.4122C82.7645 61.5179 84.477 61.2163 84.2956 60.1106C83.6711 56.1099 83.2278 51.9887 82.1802 48.0684C81.9384 47.2039 80.7699 47.4251 80.8303 48.3096H80.8102Z" fill="white"/>
<path d="M12.5517 93.6238C9.7714 93.4831 7.87757 90.6886 7.75669 88.1757C7.59551 85.0797 10.0736 82.6672 12.451 81.1192C15.5536 79.1088 19.3211 78.365 22.2626 76.1334C22.6656 75.8319 22.3432 75.0679 21.8395 75.2087C16.2588 76.8371 8.4014 79.7521 6.6083 85.9843C5.35918 90.2665 8.15963 94.3476 12.5719 94.1264C12.8741 94.1264 12.8539 93.6037 12.5517 93.6037V93.6238Z" fill="white"/>
<path d="M6.80973 85.542C7.6962 88.2159 8.52223 91.0706 9.77136 93.6037C9.99297 94.0661 10.7989 93.8449 10.6578 93.3222C9.93253 90.5479 8.66326 87.8138 7.57532 85.1802C7.3537 84.6575 6.64855 85.0394 6.80973 85.542Z" fill="white"/>
<path d="M8.58267 83.6322C9.59002 86.6478 10.5974 89.6633 11.6047 92.6789C11.8868 93.5032 13.0956 92.9202 12.8337 92.0959C11.8264 89.0803 10.819 86.0648 9.81164 83.0492C9.52958 82.2249 8.32075 82.8079 8.58267 83.6322Z" fill="white"/>
<path d="M10.2348 82.245C11.2623 84.2755 12.5114 86.1653 13.4382 88.2561C14.4657 90.6082 15.0097 93.0408 15.7148 95.4935C15.876 96.0765 16.702 95.9357 16.6416 95.3326C16.2185 90.7489 14.0224 85.2405 10.7989 81.9032C10.537 81.6419 10.0535 81.9032 10.2348 82.2651V82.245Z" fill="white"/>
<path d="M12.9345 81.461C15.2514 85.9642 16.6617 90.568 18.1123 95.4131C18.2533 95.8553 18.8779 95.7548 18.8376 95.2924C18.3742 90.3067 16.3595 85.341 13.8814 81.0187C13.559 80.4357 12.6323 80.8578 12.9345 81.461Z" fill="white"/>
<path d="M14.0023 78.3247C14.6067 80.3753 15.1507 82.4862 16.0371 84.4564C16.1983 84.8384 16.8229 84.6374 16.7423 84.2353C16.2789 82.1244 15.473 80.114 14.7276 78.1036C14.5865 77.7015 13.8814 77.9227 14.0023 78.3247Z" fill="white"/>
<path d="M7.43426 89.5025C10.416 85.4214 13.8209 81.7625 16.8833 77.7819C17.1653 77.4201 16.6616 76.9979 16.3191 77.2593C12.471 80.315 9.22735 84.8384 6.72911 88.9999C6.44705 89.4824 7.1119 89.9649 7.43426 89.5025Z" fill="white"/>
<path d="M7.41417 91.5933C10.8392 87.9545 14.3448 84.2956 17.387 80.315C17.6086 80.0135 17.1654 79.5913 16.9035 79.8727C13.2971 83.3507 10.0736 87.2308 6.82991 91.0505C6.54785 91.3923 7.11197 91.915 7.41417 91.5933Z" fill="white"/>
<path d="M9.38857 94.4079C11.5242 90.2061 14.4858 86.9694 17.4273 83.3507C17.6892 83.0291 17.2258 82.6471 16.9035 82.8883C13.2165 85.6627 10.5773 90.0453 8.64313 94.1465C8.42151 94.6089 9.14681 94.8501 9.38857 94.428V94.4079Z" fill="white"/>
<path d="M11.6651 93.6439C12.5718 92.1763 13.5993 90.8093 14.8081 89.5628C15.9363 88.4169 17.3063 87.5524 18.4346 86.4266C18.7368 86.1251 18.4346 85.6426 18.0316 85.8034C15.0096 87.0297 12.5315 90.4273 11.0003 93.1815C10.7585 93.6238 11.3831 94.1063 11.6651 93.6439Z" fill="white"/>
<path d="M14.4656 94.629C15.8558 93.3423 17.3063 92.0557 18.5756 90.6484C18.9383 90.2463 18.3741 89.7639 17.9511 89.9046C16.7019 90.367 17.4474 92.0557 18.4749 92.317C20.2075 92.7593 20.6105 90.3871 20.5299 89.2009C20.5097 88.7989 19.9255 88.8793 19.865 89.221C19.7643 89.7437 19.7039 90.3871 19.4218 90.8495C19.2203 91.1711 18.9383 91.533 18.5756 91.3923C18.4749 91.3521 18.0316 90.8696 18.2533 90.8092C18.1122 90.5278 17.9712 90.2262 17.8503 89.9448C16.44 91.151 15.1506 92.5382 13.8612 93.865C13.4381 94.2872 14.0224 95.011 14.4656 94.5888V94.629Z" fill="white"/>
<path d="M24.9623 86.5271C26.433 89.4623 27.8635 92.4578 29.4551 95.3527C29.6163 95.6543 30.0796 95.4332 29.9386 95.1316C28.5686 92.1361 26.9971 89.2211 25.5062 86.2859C25.3249 85.9441 24.781 86.2055 24.9623 86.5472V86.5271Z" fill="white"/>
<path d="M29.1126 87.472C30.5632 90.3066 32.1145 93.1011 33.9076 95.7548C34.1091 96.0564 34.5725 95.7347 34.4113 95.4331C33.0816 92.5784 31.49 89.8242 29.8177 87.1503C29.5558 86.7282 28.8708 87.0297 29.1126 87.4921V87.472Z" fill="white"/>
<path d="M33.2025 86.4467C34.1695 88.1756 35.1567 89.8845 36.2648 91.533C36.4462 91.7943 36.8894 91.5129 36.7484 91.2314C35.8417 89.5025 34.8344 87.8339 33.7867 86.1853C33.5853 85.8436 33.0211 86.0848 33.2226 86.4467H33.2025Z" fill="white"/>
<path d="M42.9739 86.4266C43.397 88.4169 44.5252 90.6886 46.4392 91.6335C46.7615 91.7943 47.0235 91.3319 46.822 91.0907C46.2377 90.4072 45.5527 89.8443 45.0289 89.1004C44.4245 88.2359 44.0014 87.3112 43.7596 86.306C43.6387 85.8235 42.8731 85.9441 42.994 86.4467L42.9739 86.4266Z" fill="white"/>
<path d="M47.2854 83.411C48.5748 85.4817 49.8038 87.6529 51.3551 89.5226C51.5969 89.8242 52.1006 89.5226 51.9192 89.1607C50.8313 86.9694 49.3404 84.9791 47.9905 82.9486C47.7286 82.5466 47.0235 82.9888 47.2854 83.411Z" fill="white"/>
<path d="M52.302 79.33C53.4101 83.0492 55.183 87.0901 58.1044 89.784C58.4469 90.0855 58.8901 89.7036 58.6483 89.3216C56.4523 85.9642 54.3368 82.9285 53.0474 79.0887C52.9064 78.6665 52.1811 78.9078 52.302 79.33Z" fill="white"/>
<path d="M57.4797 78.365C58.7893 81.3604 59.9578 84.5368 61.6099 87.3715C61.8315 87.7535 62.3352 87.4921 62.2143 87.09C61.1868 83.9739 59.5952 80.9986 58.2252 78.0232C58.0036 77.5608 57.2984 77.9026 57.4999 78.365H57.4797Z" fill="white"/>
<path d="M62.2143 80.6568C63.7656 82.7275 65.2364 84.9992 67.1101 86.8086C67.372 87.0498 67.8958 86.8086 67.6742 86.4467C66.3243 84.1951 64.4708 82.2048 62.7986 80.1743C62.4964 79.7923 61.9323 80.2748 62.2345 80.6568H62.2143Z" fill="white"/>
<path d="M68.2384 79.5109C69.1853 81.5213 70.0315 83.6925 71.2403 85.5621C71.4619 85.924 71.9857 85.6828 71.8447 85.2807C71.1194 83.1698 69.9509 81.1795 68.9637 79.1892C68.742 78.7469 68.0369 79.0686 68.2585 79.531L68.2384 79.5109Z" fill="white"/>
<path d="M72.4088 79.5511C73.0535 80.5563 73.6579 81.6419 74.4638 82.5265C74.7056 82.8079 75.1891 82.5265 75.0279 82.1646C74.5041 81.0589 73.6982 80.0537 73.0132 79.0284C72.7312 78.6062 72.1469 79.1289 72.4088 79.531V79.5511Z" fill="white"/>
<path d="M106.639 64.4933C108.089 66.2825 108.895 68.2527 109.681 70.3837C109.822 70.7456 110.326 70.5244 110.285 70.1827C110.003 67.8506 108.754 65.7196 107.263 63.9505C106.921 63.5484 106.316 64.0711 106.639 64.4732V64.4933Z" fill="white"/>
<path d="M108.774 58.3013C110.084 61.8597 111.897 65.8402 114.597 68.5945C114.879 68.8759 115.443 68.5945 115.221 68.1924C113.287 64.7546 111.071 61.6184 109.459 57.9796C109.258 57.5172 108.593 57.859 108.774 58.3013Z" fill="white"/>
<path d="M112.058 53.1145C114.577 58.2209 116.833 63.4881 119.473 68.5342C119.755 69.077 120.5 68.695 120.319 68.1321C118.586 62.7844 115.745 57.5373 112.784 52.7727C112.522 52.3505 111.817 52.6521 112.058 53.1145Z" fill="white"/>
<path d="M116.209 50.0788C118.143 55.2656 120.117 60.9751 122.978 65.7196C123.159 66.0212 123.764 65.9207 123.643 65.5186C122.132 60.1508 119.331 54.763 116.874 49.7772C116.672 49.3551 116.047 49.6566 116.209 50.0989V50.0788Z" fill="white"/>
<path d="M10.9197 105.606C21.7387 128.806 30.805 152.287 37.5744 176.995C37.7759 177.718 38.9243 177.537 38.7429 176.794C32.3361 152.126 23.3908 127.901 11.4839 105.344C11.3025 104.982 10.7384 105.244 10.9197 105.606Z" fill="white"/>
<path d="M39.2667 181.86C40.395 187.288 41.9866 193.58 45.1497 198.204C45.3713 198.526 45.9757 198.244 45.8548 197.883C44.1423 192.414 41.6038 187.308 40.0726 181.719C39.9316 181.237 39.166 181.337 39.2869 181.86H39.2667Z" fill="white"/>
<path d="M25.607 125.448C35.056 149.291 42.5911 173.456 49.6627 198.084C49.844 198.727 50.8715 198.566 50.7104 197.903C45.0087 173.054 36.3051 148.548 26.2517 125.147C26.0704 124.725 25.4257 125.026 25.607 125.448Z" fill="white"/>
<path d="M37.373 138.636C39.4683 143.18 40.9793 147.884 42.2889 152.709C42.3896 153.091 42.9739 153.011 42.9135 152.609C42.168 147.563 40.4354 142.818 38.0983 138.295C37.8565 137.832 37.1312 138.174 37.3528 138.636H37.373Z" fill="white"/>
<path d="M45.4117 159.705C49.2598 173.094 52.987 186.423 55.8278 200.074C55.9889 200.818 57.1575 200.617 56.9963 199.873C54.1757 186.242 50.7708 172.612 46.0564 159.504C45.9154 159.142 45.2908 159.343 45.3916 159.705H45.4117Z" fill="white"/>
<path d="M42.2687 132.706C44.4043 139.139 46.4996 145.612 49.0583 151.885C49.1993 152.207 49.7634 152.046 49.6627 151.704C47.7286 145.17 45.3109 138.777 42.9738 132.384C42.8127 131.922 42.1478 132.263 42.2888 132.706H42.2687Z" fill="white"/>
<path d="M50.3678 155.725C53.6719 172.089 57.7215 188.233 62.5971 204.195C62.7986 204.879 63.9268 204.698 63.7254 203.994C59.0311 187.991 54.8203 171.868 51.1133 155.584C51.0125 155.122 50.2872 155.242 50.3678 155.705V155.725Z" fill="white"/>
<path d="M53.7929 148.548C59.0714 166.641 63.8262 184.715 68.3996 202.989C68.5406 203.572 69.4674 203.431 69.3465 202.828C65.7401 184.413 60.6026 166.058 54.3771 148.367C54.2563 148.045 53.6921 148.206 53.7727 148.548H53.7929Z" fill="white"/>
<path d="M61.4689 153.775C66.8079 169.315 71.2403 185.076 74.9675 201.079C75.1287 201.742 76.1763 201.562 76.0353 200.898C72.4693 184.775 67.7951 168.993 62.1338 153.493C61.9726 153.071 61.348 153.373 61.4891 153.795L61.4689 153.775Z" fill="white"/>
<path d="M71.7641 170.2C74.8466 180.995 77.8687 191.831 81.2735 202.527C81.4549 203.069 82.3413 202.949 82.1802 202.366C79.1984 191.53 75.8338 180.794 72.5297 170.059C72.3886 169.596 71.6231 169.717 71.7641 170.2Z" fill="white"/>
<path d="M79.2589 179.045C80.7699 182.945 81.4549 186.906 82.4018 190.947C82.4824 191.329 83.1473 191.349 83.1271 190.927C82.966 186.745 81.5758 182.563 79.9842 178.703C79.7827 178.221 79.0776 178.563 79.2589 179.045Z" fill="white"/>
<path d="M20.8522 109.687C21.8999 112.723 23.1289 116.14 24.9623 118.794C25.1637 119.095 25.6875 118.834 25.607 118.492C24.8011 115.376 23.0281 112.18 21.4365 109.405C21.235 109.043 20.7314 109.285 20.8522 109.687Z" fill="white"/>
<path d="M26.2921 109.506C27.6218 112.903 29.1127 116.582 31.0266 119.699C31.2885 120.141 31.893 119.839 31.7318 119.357C30.6035 115.879 28.7903 112.361 27.0576 109.144C26.7957 108.661 26.0906 109.003 26.2921 109.506Z" fill="white"/>
<path d="M32.4167 108.481C33.7464 112.582 35.2977 116.763 37.1916 120.643C37.3729 121.005 38.0378 120.844 37.9169 120.422C36.6677 116.261 34.9754 112.099 33.1218 108.159C32.9002 107.676 32.2555 108.038 32.3966 108.501L32.4167 108.481Z" fill="white"/>
<path d="M38.0176 107.656C40.2943 112.461 41.8053 117.447 43.1753 122.573C43.276 122.975 43.9006 122.895 43.8402 122.453C43.0544 117.145 41.1606 112.079 38.7631 107.294C38.5213 106.812 37.796 107.174 38.0176 107.656Z" fill="white"/>
<path d="M43.4775 106.47C45.5728 111.918 47.789 117.366 50.2671 122.654C50.4484 123.036 50.9722 122.754 50.8513 122.372C48.8366 116.884 46.5197 111.476 44.1423 106.149C43.961 105.726 43.3365 106.028 43.4976 106.45L43.4775 106.47Z" fill="white"/>
<path d="M49.3 105.465C50.67 109.948 52.04 114.472 53.8533 118.794C53.9943 119.116 54.5383 118.955 54.4577 118.593C53.3093 114.049 51.6774 109.606 50.0656 105.204C49.9044 104.781 49.1791 105.003 49.3 105.445V105.465Z" fill="white"/>
<path d="M53.551 103.434C55.324 107.455 56.6134 111.556 58.1244 115.678C58.2655 116.04 58.8296 115.839 58.7691 115.477C58.0036 111.195 56.2306 106.953 54.236 103.113C54.0144 102.691 53.3697 102.992 53.551 103.434Z" fill="white"/>
<path d="M58.2656 102.59C59.4744 105.646 60.6027 108.782 62.1137 111.717C62.3152 112.099 62.8188 111.818 62.698 111.436C61.6906 108.3 60.2803 105.284 58.9707 102.268C58.7693 101.806 58.0843 102.148 58.2656 102.61V102.59Z" fill="white"/>
<path d="M62.2949 102.59C62.9598 103.636 63.6448 104.681 64.4104 105.646C64.632 105.927 65.1357 105.626 64.9543 105.304C64.3499 104.219 63.6448 103.193 62.9396 102.168C62.6979 101.806 62.0531 102.208 62.2949 102.59Z" fill="white"/>
<path d="M86.4312 195.229C86.8341 195.651 87.1565 196.033 87.7005 196.254C88.0228 196.375 88.2847 196.033 88.1638 195.752C87.9624 195.249 87.5997 194.947 87.1968 194.586C86.7334 194.143 85.988 194.766 86.4312 195.229Z" fill="white"/>
<path d="M88.5668 181.799C88.1034 185.559 88.9295 189.298 91.3874 192.233C91.6292 192.515 92.1329 192.213 91.9314 191.871C90.098 188.775 89.0101 185.499 89.1914 181.86C89.2115 181.458 88.6071 181.397 88.5467 181.799H88.5668Z" fill="white"/>
<path d="M106.498 138.817C107.404 141.531 108.372 144.245 109.5 146.879C109.721 147.402 110.467 147.02 110.285 146.497C109.359 143.803 108.271 141.129 107.122 138.516C106.941 138.094 106.337 138.395 106.478 138.817H106.498Z" fill="white"/>
<path d="M107.707 132.686C110.265 138.636 113.025 145.592 116.793 150.88C116.994 151.161 117.559 150.92 117.458 150.578C115.524 144.366 111.655 137.993 108.432 132.344C108.17 131.902 107.505 132.203 107.707 132.686Z" fill="white"/>
<path d="M114.879 138.636C117.74 143.642 120.278 148.628 122.535 153.935C122.817 154.599 123.724 154.116 123.522 153.473C121.769 148.065 119.009 142.718 115.544 138.214C115.282 137.872 114.657 138.254 114.879 138.636Z" fill="white"/>
<path d="M122.998 142.657C124.731 146.397 126.383 150.618 128.841 153.935C129.143 154.338 129.627 153.895 129.506 153.513C128.257 149.633 125.758 145.834 123.764 142.315C123.502 141.853 122.777 142.175 122.998 142.677V142.657Z" fill="white"/>
<path d="M128.619 141.853C130.151 146.216 131.541 150.799 133.616 154.941C133.797 155.303 134.422 155.142 134.321 154.719C133.132 150.216 131.138 145.813 129.405 141.491C129.204 140.968 128.458 141.35 128.64 141.853H128.619Z" fill="white"/>
<path d="M134.402 142.476C135.409 146.437 137.565 150.397 140.446 153.312C140.708 153.574 141.231 153.312 141.01 152.95C138.814 149.452 136.92 145.994 135.268 142.215C135.066 141.752 134.261 141.974 134.402 142.496V142.476Z" fill="white"/>
<path d="M139.882 140.687C140.305 144.105 141.292 148.447 143.629 151.101C143.851 151.342 144.354 151.161 144.254 150.819C143.81 149.271 142.984 147.864 142.42 146.356C141.715 144.467 141.211 142.516 140.768 140.546C140.647 139.983 139.821 140.124 139.882 140.707V140.687Z" fill="white"/>
<path d="M143.508 140.446C144.314 142.014 145.1 143.602 145.966 145.15C146.732 146.517 147.376 148.045 148.464 149.211C148.706 149.452 149.23 149.291 149.129 148.909C148.263 145.793 145.946 142.838 144.274 140.104C144.012 139.662 143.286 139.983 143.528 140.466L143.508 140.446Z" fill="white"/>
<path d="M148.162 138.616C148.686 142.195 150.64 146.276 153.642 148.427C154.025 148.688 154.388 148.206 154.146 147.864C153.058 146.296 151.809 144.889 150.882 143.2C150.056 141.672 149.472 140.024 148.928 138.375C148.787 137.913 148.082 138.174 148.142 138.616H148.162Z" fill="white"/>
<path d="M152.312 137.571C153.823 141.109 155.576 144.869 157.752 148.045C158.014 148.427 158.518 148.005 158.377 147.643C157.087 144.064 155.073 140.446 153.118 137.189C152.836 136.706 152.091 137.028 152.312 137.571Z" fill="white"/>
<path d="M156.302 135.561C157.712 138.074 159.082 140.747 160.814 143.039C161.137 143.461 161.802 142.999 161.58 142.537C160.311 139.943 158.538 137.511 156.946 135.138C156.704 134.776 156.08 135.179 156.302 135.561Z" fill="white"/>
<path d="M157.309 96.4182C162.547 104.078 165.751 112.361 166.476 121.629C166.536 122.332 167.604 122.131 167.564 121.448C166.818 112.119 163.675 103.334 157.913 95.9156C157.591 95.5136 157.047 96.0162 157.329 96.4182H157.309Z" fill="white"/>
<path d="M157.974 106.611C160.653 110.752 162.326 115.095 163.917 119.739C164.098 120.261 164.965 119.98 164.844 119.437C163.857 114.632 161.479 110.129 158.659 106.169C158.397 105.787 157.692 106.229 157.954 106.631L157.974 106.611Z" fill="white"/>
<path d="M112.824 83.4914C114.194 85.341 114.839 87.2911 115.504 89.4422C115.604 89.784 116.229 89.8644 116.209 89.4221C116.168 87.0096 115.04 84.7178 113.549 82.8682C113.167 82.3857 112.441 82.9888 112.804 83.4914H112.824Z" fill="white"/>
<path d="M116.773 80.4155C118.626 83.9739 119.714 87.5524 120.641 91.4325C120.742 91.8145 121.407 91.8547 121.407 91.3923C121.246 87.3514 119.674 83.3105 117.418 79.9934C117.176 79.6315 116.571 80.0336 116.773 80.4155Z" fill="white"/>
<path d="M121.366 77.1386C123.925 84.2755 126.705 91.1309 128.74 98.4688C128.841 98.8709 129.445 98.7704 129.385 98.3482C128.297 91.0706 125.96 83.0894 122.031 76.817C121.789 76.435 121.225 76.6762 121.387 77.1185L121.366 77.1386Z" fill="white"/>
<path d="M125.315 75.1684C128.015 81.9233 130.453 88.6581 132.81 95.5337C132.931 95.9157 133.555 95.7146 133.475 95.3125C131.964 88.236 129.345 81.2398 125.96 74.8468C125.738 74.4447 125.134 74.7262 125.315 75.1483V75.1684Z" fill="white"/>
<path d="M129.405 74.1632C132.286 81.8228 134.764 89.5427 137.021 97.4033C137.121 97.7652 137.686 97.6848 137.625 97.3028C136.154 89.2411 133.535 81.2599 130.03 73.8617C129.828 73.4596 129.244 73.741 129.405 74.1632Z" fill="white"/>
<path d="M18.1324 43.0424C17.1452 45.9173 16.5206 49.1942 16.9034 52.2299C16.9638 52.632 17.5683 52.5917 17.6086 52.2098C17.9309 49.1942 18.1324 46.2791 18.8174 43.3038C18.9181 42.8615 18.2936 42.6001 18.1324 43.0424Z" fill="white"/>
<path d="M22.8267 38.9211C22.2626 41.2331 21.6783 43.5249 21.1344 45.8369C20.9329 46.7214 20.2882 48.2091 20.8926 49.0736C21.6179 50.1391 23.2498 49.0937 22.4036 48.189C22.0813 47.8473 21.5575 48.3097 21.8597 48.6514C21.0538 47.7467 22.323 44.9523 22.585 43.8466C22.9476 42.2986 23.2901 40.7506 23.6528 39.2227C23.7736 38.7 22.9677 38.3783 22.8469 38.9211H22.8267Z" fill="white"/>
<path d="M28.0246 37.8154C26.6345 40.4691 25.3854 44.1883 25.9092 47.2039C25.9696 47.5859 26.5942 47.6864 26.7151 47.2843C27.0576 45.8569 27.0979 44.3894 27.4001 42.9419C27.7426 41.3336 28.2866 39.8057 28.8708 38.2778C29.0521 37.7752 28.2664 37.3329 28.0045 37.8355L28.0246 37.8154Z" fill="white"/>
<path d="M31.772 34.8601C31.0467 37.8154 29.9387 40.9717 29.7372 44.0275C29.6969 44.51 30.3819 44.6507 30.5431 44.2084C31.6915 41.3738 32.0742 38.0567 32.719 35.0813C32.8398 34.5385 31.8929 34.3173 31.772 34.8601Z" fill="white"/>
<path d="M34.1293 35.9659C33.4846 38.318 32.86 40.6702 32.2758 43.0424C32.175 43.4445 32.7593 43.6656 32.8802 43.2636C33.545 40.9114 34.1898 38.5593 34.8143 36.2071C34.9352 35.7648 34.2502 35.5035 34.1293 35.9458V35.9659Z" fill="white"/>
<path d="M101.461 12.9067C101.602 22.4561 101.945 32.8096 103.697 42.178C103.798 42.7208 104.705 42.7409 104.705 42.1378C105.007 32.6085 103.758 22.3153 102.428 12.8665C102.348 12.3237 101.441 12.3438 101.441 12.9067H101.461Z" fill="white"/>
<path d="M99.2448 37.1922C99.5873 40.2078 99.9298 43.2234 100.353 46.2389C100.474 47.023 101.662 46.8018 101.562 46.0178C101.159 43.0022 100.675 40.0268 100.172 37.0314C100.071 36.4282 99.1843 36.5891 99.2448 37.1922Z" fill="white"/>
<path d="M14.7276 54.6423C18.9988 60.1106 22.3231 66.0614 24.7407 72.5549C25.043 73.3591 26.2719 72.7761 25.9697 71.9719C23.4916 65.3778 20.0868 59.3065 15.7551 53.7779C15.2111 53.0943 14.1836 53.9588 14.7276 54.6423Z" fill="white"/>
<path d="M20.8725 56.5924L22.8872 59.608C23.3707 60.3318 24.3982 59.4472 23.9147 58.7436L21.9 55.728C21.4164 55.0042 20.3889 55.8888 20.8725 56.5924Z" fill="white"/>
<path d="M20.8322 56.4316C23.5319 62.121 26.2316 67.8104 28.9313 73.4998C29.294 74.2839 30.523 73.7009 30.1603 72.9168C27.4606 67.2274 24.7609 61.538 22.0612 55.8486C21.6985 55.0646 20.4695 55.6476 20.8322 56.4316Z" fill="white"/>
<path d="M25.063 54.3207C27.5814 60.0302 29.8984 66.0614 33.0212 71.4492C33.2428 71.8312 33.7666 71.5698 33.6256 71.1678C31.5303 65.2974 28.4478 59.608 25.7279 53.999C25.5264 53.5769 24.8817 53.8784 25.063 54.3207Z" fill="white"/>
<path d="M32.034 61.2766C32.6586 63.3071 33.1824 65.4583 34.1092 67.3882C34.2703 67.73 34.8546 67.5692 34.774 67.1872C34.3509 65.0964 33.4645 63.0659 32.7392 61.0555C32.5981 60.6735 31.9131 60.8746 32.034 61.2766Z" fill="white"/>
<path d="M36.3253 68.2929C36.9498 69.3584 37.3528 70.7054 38.3198 71.5296C38.5415 71.7307 38.9444 71.4693 38.8638 71.1879C38.5616 69.9816 37.5744 69.0368 36.9297 68.0115C36.7081 67.6697 36.1037 67.931 36.3253 68.2929Z" fill="white"/>
<path d="M22.6655 87.7133C25.0026 85.3209 27.4404 82.9888 29.5559 80.3753C29.7976 80.0939 29.3544 79.7119 29.0723 79.9331C26.5741 82.1043 24.3377 84.577 22.041 86.9694C21.6179 87.4117 22.2223 88.1555 22.6655 87.6932V87.7133Z" fill="white"/>
<path d="M24.5392 90.568C27.9844 87.854 31.0266 84.5167 32.7593 80.4356C32.9204 80.0738 32.3765 79.8124 32.1549 80.114C29.717 83.6523 27.2792 87.1101 24.1363 90.0855C23.8542 90.3469 24.2169 90.7891 24.5392 90.5479V90.568Z" fill="white"/>
<path d="M27.6419 94.6692C32.175 91.1711 35.7209 85.7029 37.6148 80.3552C37.7558 79.933 37.1715 79.7521 36.9902 80.114C34.2905 85.4616 31.0468 89.7035 27.1584 94.2269C26.8965 94.5285 27.3599 94.8903 27.6419 94.6692Z" fill="white"/>
<path d="M32.4168 96.3981C36.7283 90.6082 40.9793 84.6374 44.7871 78.4856C45.0087 78.1237 44.5051 77.7819 44.2431 78.1036C39.8108 83.8131 35.7008 89.8845 31.7721 95.9357C31.49 96.3579 32.1146 96.8002 32.4168 96.378V96.3981Z" fill="white"/>
<path d="M38.8437 93.6439C42.5508 88.9798 46.3788 84.376 49.8038 79.4908C50.0455 79.149 49.5419 78.8274 49.2799 79.1289C45.3714 83.6322 41.8255 88.4772 38.199 93.2016C37.8968 93.6037 38.5214 94.0259 38.8236 93.6439H38.8437Z" fill="white"/>
<path d="M44.9886 91.9351C48.7964 88.9798 51.9797 84.8585 53.6922 80.3351C53.8332 79.9933 53.2892 79.6717 53.0877 80.0135C50.7507 84.3358 48.1114 87.9947 44.5051 91.3722C44.1626 91.6938 44.6058 92.2165 44.9684 91.9351H44.9886Z" fill="white"/>
<path d="M51.8386 92.699C55.2032 90.1257 57.7619 86.507 58.87 82.4058C58.9707 82.0037 58.4066 81.7625 58.2454 82.1847C56.6739 86.0647 54.498 89.3417 51.3551 92.1361C50.9924 92.4578 51.4558 93.0006 51.8386 92.699Z" fill="white"/>
<path d="M59.7967 89.7237C61.7711 88.5375 63.3829 86.7081 63.947 84.4363C64.0477 84.0343 63.4836 83.8131 63.3224 84.2152C62.5165 86.2055 61.3279 87.9143 59.4743 89.0602C59.0714 89.3015 59.3736 89.9649 59.7967 89.7237Z" fill="white"/>
<path d="M32.578 158.921C34.4114 157.072 36.4664 155.242 37.9976 153.131C38.2192 152.81 37.7961 152.428 37.4939 152.669C35.4792 154.338 33.807 156.509 32.0743 158.459C31.8325 158.74 32.2959 159.183 32.5578 158.901L32.578 158.921Z" fill="white"/>
<path d="M33.7666 164.389C37.111 162.359 40.1936 159.444 41.9262 155.906C42.1075 155.544 41.5434 155.282 41.3218 155.584C39.025 158.76 36.6074 161.515 33.3032 163.706C32.9204 163.967 33.3435 164.631 33.7465 164.389H33.7666Z" fill="white"/>
<path d="M36.0633 171.486C40.4353 167.867 44.4244 163.445 47.4666 158.68C47.6882 158.338 47.2047 157.996 46.9428 158.318C43.3566 162.761 39.6495 166.943 35.5798 170.923C35.2373 171.245 35.6805 171.788 36.0633 171.486Z" fill="white"/>
<path d="M36.9499 179.387C41.4427 175.406 45.4117 170.903 48.736 165.897C48.9576 165.576 48.4741 165.234 48.2323 165.535C44.626 170.26 40.7376 174.683 36.4664 178.804C36.1239 179.126 36.5873 179.709 36.9499 179.367V179.387Z" fill="white"/>
<path d="M40.1936 184.714C45.1901 180.935 49.2598 175.567 51.6775 169.797C51.8185 169.436 51.2544 169.134 51.073 169.476C47.9905 175.065 44.3439 179.729 39.7101 184.152C39.3676 184.473 39.8108 185.016 40.1936 184.714Z" fill="white"/>
<path d="M41.0599 190.525C46.3586 185.679 51.1536 180.151 54.8003 173.939C55.0017 173.577 54.5182 173.215 54.2764 173.557C50.1463 179.427 45.7743 184.936 40.5965 189.942C40.254 190.263 40.7174 190.826 41.0801 190.504L41.0599 190.525Z" fill="white"/>
<path d="M42.9335 197.239C48.9575 190.525 55.1024 183.91 60.8443 176.954C61.066 176.673 60.6227 176.251 60.3809 176.532C54.1555 183.086 48.2927 190.022 42.3291 196.817C42.0068 197.179 42.6313 197.601 42.9335 197.239Z" fill="white"/>
<path d="M47.8697 199.31C53.8332 193.822 59.4543 187.81 63.9874 181.076C64.209 180.734 63.7255 180.412 63.4837 180.714C58.4066 187.026 53.2489 193.138 47.3861 198.747C47.0436 199.069 47.507 199.611 47.8495 199.31H47.8697Z" fill="white"/>
<path d="M55.042 199.41C59.3938 194.686 63.8463 190.022 68.0369 185.137C68.2585 184.895 67.8354 184.513 67.6138 184.755C63.1412 189.359 58.9102 194.224 54.5786 198.988C54.3368 199.25 54.8002 199.672 55.042 199.41Z" fill="white"/>
<path d="M59.9176 200.315C63.6851 197.46 67.3318 194.023 69.7897 189.962C69.9912 189.62 69.5278 189.298 69.286 189.6C66.2841 193.339 63.2822 196.837 59.4945 199.792C59.152 200.054 59.5953 200.576 59.9378 200.315H59.9176Z" fill="white"/>
<path d="M65.9819 202.285C67.9966 200.275 70.2329 198.345 72.0461 196.154C72.2879 195.872 71.8447 195.51 71.5828 195.731C69.427 197.541 67.513 199.752 65.5386 201.763C65.2364 202.064 65.6595 202.607 65.9819 202.285Z" fill="white"/>
<path d="M15.6745 111.938C17.2862 110.833 18.8376 109.667 20.3284 108.42C20.5904 108.199 20.3083 107.717 20.0061 107.918C18.3339 108.963 16.702 110.089 15.1103 111.275C14.6671 111.617 15.2111 112.24 15.6745 111.938Z" fill="white"/>
<path d="M15.7753 119.015C19.7644 114.934 23.9147 110.933 27.6621 106.631C27.9038 106.35 27.4606 105.968 27.1987 106.209C23.0484 110.089 19.2406 114.371 15.332 118.472C15.0097 118.794 15.4731 119.357 15.7954 119.015H15.7753Z" fill="white"/>
<path d="M17.9914 124.403C24.0758 119.799 29.5357 114.069 33.2226 107.355C33.4241 106.993 32.9406 106.631 32.6988 106.993C28.3269 113.326 23.5722 119.035 17.5482 123.88C17.1855 124.162 17.6489 124.684 18.0115 124.423L17.9914 124.403Z" fill="white"/>
<path d="M21.0538 130.293C27.4404 123.599 33.545 116.321 38.3199 108.36C38.5415 107.998 38.0378 107.636 37.7759 107.978C32.175 115.416 26.6749 122.795 20.4695 129.75C20.1673 130.072 20.7314 130.595 21.0538 130.273V130.293Z" fill="white"/>
<path d="M22.726 137.048C27.5815 132.726 32.0138 127.559 34.6934 121.608C34.8546 121.247 34.2905 120.965 34.089 121.287C30.6438 126.876 27.0979 131.982 22.2223 136.465C21.8597 136.787 22.3432 137.37 22.7058 137.048H22.726Z" fill="white"/>
<path d="M24.7407 141.29C28.3873 138.958 31.9332 135.681 33.7263 131.68C33.8875 131.319 33.3435 131.057 33.1219 131.359C30.5431 134.937 28.0045 138.114 24.3378 140.647C23.9751 140.888 24.3781 141.531 24.7608 141.29H24.7407Z" fill="white"/>
<path d="M26.7352 148.065C29.0723 145.693 31.5907 143.401 33.7061 140.828C33.9479 140.526 33.5046 140.144 33.2226 140.385C30.7243 142.537 28.5082 145.09 26.2315 147.462C25.889 147.824 26.3927 148.427 26.7352 148.065Z" fill="white"/>
<path d="M29.6163 152.95C31.3087 151.262 33.0816 149.613 34.6733 147.824C34.8949 147.563 34.4718 147.201 34.23 147.422C32.4571 148.99 30.8453 150.739 29.1731 152.408C28.8507 152.729 29.3141 153.252 29.6365 152.95H29.6163Z" fill="white"/>
<path d="M111.212 125.147C109.177 124.624 114.093 113.587 113.086 115.195C114.436 113.004 116.692 111.215 119.029 110.129C122.696 108.42 126.927 107.998 130.715 106.591C137.545 104.078 143.367 99.9364 148.303 94.6491C149.169 93.7243 147.88 92.1763 146.994 93.1212C141.413 99.0719 134.805 103.495 126.947 105.847C121.89 107.355 116.592 108.078 113.005 112.341C111.837 113.728 106.961 126.514 111.514 125.167C111.837 125.066 111.897 124.523 111.494 124.523C111.434 124.523 111.394 124.523 111.333 124.523C111.011 124.523 110.829 125.026 111.192 125.127L111.212 125.147Z" fill="white"/>
<path d="M147.397 104.158C151.748 103.374 155.073 100.198 156.745 96.1971C158.095 92.9604 158.981 87.2911 155.939 84.7178C155.536 84.376 155.093 84.8384 155.113 85.2405C155.173 86.7081 155.838 88.0349 155.979 89.5226C156.181 91.5732 155.798 93.6439 155.032 95.5538C153.562 99.1725 150.66 101.685 147.054 103.053C146.429 103.294 146.772 104.279 147.417 104.158H147.397Z" fill="white"/>
<path d="M37.2319 20.0235C38.2191 23.3808 37.9371 26.5773 37.9975 30.0151C37.9975 30.4172 38.6019 30.6383 38.743 30.1759C39.8309 26.8387 39.0049 23.0391 37.9371 19.8023C37.8162 19.4204 37.1312 19.6214 37.2521 20.0235H37.2319Z" fill="white"/>
<path d="M39.1257 34.84C38.7227 35.3225 38.7026 35.8854 39.166 36.3478C39.307 36.4885 39.5689 36.5489 39.7301 36.388C40.2136 35.9055 40.2338 35.3225 39.7905 34.7998C39.6092 34.5787 39.307 34.639 39.1257 34.84Z" fill="white"/>
<path d="M101.884 9.3885C102.468 9.3885 102.569 8.48383 101.965 8.48383C101.36 8.48383 101.28 9.3885 101.884 9.3885Z" fill="white"/>
<path d="M134.281 137.169C144.213 135.098 154.428 131.158 163.031 125.77C163.595 125.408 163.212 124.483 162.567 124.785C153.159 129.389 144.072 133.269 134.079 136.505C133.696 136.626 133.918 137.229 134.281 137.169Z" fill="white"/>
</g>
<defs>
<clipPath id="clip0_97_22">
<rect width="178" height="209" fill="white"/>
</clipPath>
</defs>
</svg>
