<svg width="47" height="46" viewBox="0 0 47 46" fill="none" xmlns="http://www.w3.org/2000/svg">
<path d="M23.5 0C10.5241 0 0 10.3002 0 23C0 35.6998 10.5241 46 23.5 46C36.4759 46 47 35.6998 47 23C47 10.3002 36.4818 0 23.5 0ZM11.5933 23.7724L11.6932 23.6172L17.8091 14.2562C17.8296 14.2254 17.8581 14.2006 17.8918 14.1843C17.9254 14.168 17.9629 14.1609 18.0003 14.1636C18.0377 14.1663 18.0737 14.1789 18.1045 14.1999C18.1353 14.2209 18.1597 14.2496 18.1753 14.283C19.1936 16.5236 20.0788 19.3104 19.6636 21.045C19.4913 21.758 19.0076 22.724 18.4612 23.6172C18.3911 23.7478 18.3147 23.8751 18.2321 23.9986C18.2123 24.0261 18.1858 24.0484 18.1551 24.0635C18.1243 24.0785 18.0902 24.0859 18.0558 24.0848H11.7755C11.738 24.0854 11.701 24.076 11.6686 24.0577C11.6361 24.0394 11.6093 24.0128 11.591 23.9807C11.5727 23.9487 11.5637 23.9124 11.5648 23.8757C11.5659 23.8391 11.5771 23.8033 11.5973 23.7724H11.5933ZM38.8416 26.9924C38.8421 27.0333 38.8303 27.0735 38.8076 27.1079C38.785 27.1423 38.7525 27.1695 38.7143 27.186C38.2384 27.3834 36.6189 28.1156 35.9452 29.0298C34.2258 31.372 32.9137 34.7223 29.9762 34.7223H17.7288C16.6947 34.7208 15.6711 34.5199 14.7164 34.131C13.7617 33.7422 12.8947 33.173 12.1648 32.456C11.435 31.739 10.8567 30.8883 10.4629 29.9525C10.0692 29.0167 9.86768 28.0141 9.87 27.002V26.864C9.87 26.7528 9.964 26.6608 10.0815 26.6608H16.9063C17.0434 26.6608 17.1413 26.7816 17.1315 26.9138C17.0806 27.347 17.1648 27.7936 17.3763 28.198C17.7797 29.003 18.6218 29.5052 19.5285 29.5052H22.9086V26.9234H19.5637C19.5246 26.923 19.4862 26.9121 19.4529 26.892C19.4195 26.8718 19.3924 26.8432 19.3745 26.809C19.3566 26.7749 19.3485 26.7367 19.3511 26.6984C19.3537 26.6601 19.367 26.6233 19.3895 26.5918L19.5128 26.4193C19.8262 25.9766 20.2785 25.2962 20.729 24.518C21.0345 23.9928 21.3321 23.4332 21.571 22.8697C21.618 22.77 21.6553 22.6646 21.6983 22.563C21.763 22.3828 21.8295 22.2142 21.8765 22.0474C21.9227 21.906 21.9651 21.7635 22.0038 21.62C22.1155 21.1408 22.1625 20.6348 22.1625 20.1116C22.1625 19.9046 22.1546 19.688 22.135 19.4848C22.1253 19.2606 22.0959 19.0344 22.0685 18.8102C22.0466 18.6095 22.0152 18.41 21.9745 18.2122C21.9218 17.911 21.8577 17.6118 21.7825 17.3152L21.7551 17.2002C21.6964 16.9932 21.6455 16.7977 21.5789 16.5926C21.3924 15.9628 21.1781 15.3412 20.9365 14.7296C20.8524 14.4995 20.7596 14.2726 20.6585 14.0492C20.5175 13.708 20.3725 13.3994 20.2413 13.11C20.176 12.986 20.1147 12.8601 20.0572 12.7324C19.9936 12.5947 19.9263 12.4586 19.8555 12.3242C19.8085 12.2226 19.7518 12.1248 19.7145 12.0328L19.3013 11.2892C19.2445 11.1876 19.3385 11.063 19.4521 11.0956L22.0371 11.7798H22.0567L22.3955 11.8757L22.7715 11.9792L22.9086 12.0156V10.5148C22.9086 9.78842 23.5 9.2 24.2383 9.2C24.4126 9.19954 24.5853 9.2336 24.7458 9.30014C24.9063 9.36668 25.0514 9.46431 25.1724 9.58717C25.4225 9.834 25.5632 10.1673 25.5641 10.5148V12.7458L25.8402 12.8206C25.8598 12.8302 25.8833 12.8397 25.9009 12.8532C25.9675 12.8992 26.0654 12.972 26.1888 13.064C26.2867 13.1368 26.3905 13.2288 26.5119 13.3266C26.8986 13.6349 27.2736 13.9572 27.636 14.2926C28.0551 14.674 28.5251 15.1206 28.9755 15.617C29.1028 15.7588 29.2242 15.8968 29.3515 16.0502C29.4729 16.2016 29.61 16.3492 29.7236 16.4948C29.8783 16.6942 30.0369 16.9012 30.1838 17.1158C30.2484 17.2174 30.3287 17.3228 30.3894 17.4244C30.5774 17.6966 30.738 17.9764 30.8927 18.2582C30.9593 18.3866 31.0239 18.5284 31.0807 18.6664C31.255 19.044 31.3921 19.4254 31.4763 19.8126C31.5042 19.8948 31.5232 19.9795 31.5331 20.0656V20.0847C31.5605 20.194 31.5703 20.3147 31.5801 20.4374C31.6352 21.0039 31.5644 21.5754 31.3725 22.1126C31.3118 22.2736 31.255 22.4384 31.1806 22.5994C31.0337 22.9253 30.8653 23.2568 30.6636 23.5616C30.597 23.6766 30.5167 23.7954 30.4423 23.9104C30.3581 24.0312 30.268 24.1462 30.1936 24.2554C30.0859 24.4006 29.9729 24.5418 29.8548 24.679C29.751 24.817 29.6472 24.955 29.5297 25.0796C29.3711 25.2674 29.2164 25.4437 29.0499 25.6124C28.9559 25.7236 28.8541 25.8386 28.7444 25.9382C28.6426 26.0532 28.5329 26.1548 28.4389 26.2468C28.2744 26.4078 28.1452 26.5286 28.0316 26.634L27.7633 26.8678C27.7259 26.9045 27.6752 26.9252 27.6223 26.9253H25.5641V29.5052H28.153C28.7307 29.5052 29.281 29.3058 29.7275 28.934C29.8783 28.8056 30.5402 28.244 31.3255 27.3968C31.3511 27.368 31.3854 27.3479 31.4234 27.3393L38.5713 25.3134C38.6027 25.3045 38.6358 25.3029 38.6679 25.3086C38.7001 25.3143 38.7304 25.3273 38.7566 25.3464C38.7828 25.3655 38.8041 25.3903 38.8188 25.4188C38.8336 25.4474 38.8414 25.4789 38.8416 25.5108V26.9924Z" fill="white"/>
</svg>
