<svg width="231" height="288" viewBox="0 0 231 288" fill="none" xmlns="http://www.w3.org/2000/svg">
<g clip-path="url(#clip0_97_589)">
<path d="M42.8083 68.4864C28.992 71.3196 15.4877 80.1091 12.4347 94.8325C10.2063 105.607 14.1506 119.439 25.7608 122.651C27.0087 123.008 28.5463 121.446 27.3875 120.331C7.57671 101.48 22.5518 80.0421 43.722 71.3419C45.3042 70.695 44.4797 68.1518 42.8083 68.4864Z" fill="white"/>
<path d="M1.50017e-05 131.909C3.09755 164.992 57.2709 171.818 78.3074 153.035C79.3547 152.098 78.2182 150.09 76.9035 150.871C53.9728 164.345 11.4765 161.423 3.76608 131.24C3.1644 128.853 -0.222829 129.455 1.50017e-05 131.909Z" fill="white"/>
<path d="M72.0678 158.79C94.1293 145.74 123.924 150.849 148.436 150.916C162.03 150.938 175.69 150.536 189.239 149.198C203.211 147.815 214.844 146.03 222.933 133.314C232.337 118.524 225.941 101.057 216.448 88.1177C215.334 86.6008 212.994 88.2293 213.73 89.8801C221.239 106.522 229.641 132.534 206.108 141.078C193.339 145.718 177.072 145.093 163.701 145.495C148.347 145.963 132.971 145.584 117.617 145.606C100.859 145.628 84.5693 146.253 70.5524 156.426C69.2599 157.363 70.6861 159.638 72.09 158.813L72.0678 158.79Z" fill="white"/>
<path d="M36.6356 86.2661C48.2235 98.2011 64.9813 98.8257 80.6473 98.8034C90.3187 98.7811 99.8787 98.7142 109.528 99.8296C120.447 101.079 130.899 104.648 141.751 105.853C143.2 106.009 144.225 103.778 142.798 103.02C110.263 85.5969 69.9508 103.689 38.5966 84.1469C37.2596 83.3215 35.4545 85.0392 36.6579 86.2885L36.6356 86.2661Z" fill="white"/>
<path d="M119.155 98.7365C136.492 93.2932 154.431 96.2156 172.147 94.0294C182.219 92.7802 193.874 87.4262 192.693 75.6474C192.537 74.1081 190.398 74.1527 189.885 75.402C182.71 92.4455 163.723 89.5231 148.325 90.1032C137.74 90.5047 128.113 91.9548 118.263 95.9256C116.748 96.5279 117.55 99.2273 119.155 98.7142V98.7365Z" fill="white"/>
<path d="M82.6305 151.563C96.6474 148.952 110.375 144.625 124.079 140.743C136.581 137.218 149.551 134.318 161.406 128.92C162.854 128.25 162.097 126.109 160.581 126.31C146.475 128.183 132.748 133.158 119.132 137.174C106.631 140.855 93.951 144.201 81.806 148.975C80.3575 149.555 81.1375 151.853 82.6305 151.563Z" fill="white"/>
<path d="M4.70198 132.534C3.87745 117.185 14.7968 107.794 17.2704 93.7171C17.4932 92.4455 15.6213 91.397 14.7077 92.3786C9.5154 97.9334 6.21731 106.143 3.5209 113.192C1.00277 119.795 -0.222875 126.555 2.20612 133.314C2.76323 134.831 4.76883 133.872 4.70198 132.511V132.534Z" fill="white"/>
<path d="M187.189 61.9278C190.064 63.1548 193.54 63.824 196.036 65.8094C198.376 67.661 199.958 70.628 201.696 72.9927C208.27 81.983 209.028 89.6124 208.314 100.387C208.225 101.703 210.03 102.507 210.81 101.302C216.649 92.2448 213.373 80.8229 207.133 72.8589C201.629 65.8541 197.239 60.0762 187.724 59.6524C186.387 59.5854 185.963 61.4147 187.211 61.9278H187.189Z" fill="white"/>
<path d="M11.0307 149.934C-0.624061 162.07 1.87179 185.315 5.63785 200.217C8.06685 209.832 12.0558 218.755 15.5321 227.991C21.7049 244.343 16.9806 257.014 10.7855 272.228C9.49305 275.396 14.2396 277.002 15.6658 274.035C19.9221 265.29 23.9111 255.809 24.5573 245.971C25.1813 236.691 21.6826 228.615 18.2731 220.183C13.7271 208.962 9.60447 197.294 8.57939 185.136C7.53203 172.755 11.6324 163.051 13.6379 151.295C13.8608 149.979 11.9666 148.93 11.0084 149.912L11.0307 149.934Z" fill="white"/>
<path d="M11.5432 275.753C17.8943 286.059 33.8945 287.308 44.8138 285.368C52.5688 283.984 59.7666 279.255 67.789 279.545C72.3128 279.701 76.9925 281.419 81.3825 282.423C112.358 289.539 147.188 292.06 176.136 276.422C178.208 275.307 176.737 272.473 174.598 273.187C155.946 279.344 138.23 283.717 118.441 282.914C105.383 282.378 92.6138 279.924 79.9117 276.98C72.3796 275.24 66.6748 273.834 58.9867 275.842C52.7025 277.493 46.9531 280.415 40.4015 281.04C29.6604 282.066 22.3734 278.296 12.9026 274.28C12.0781 273.923 11.053 274.95 11.5432 275.775V275.753Z" fill="white"/>
<path d="M214.844 138.111C217.473 149.666 222.175 160.062 223.156 172.086C224.226 185.181 221.752 197.473 218.9 210.189C216.805 219.536 214.643 229.597 216.872 239.145C219.167 248.983 225.719 256.099 225.563 266.673C225.54 268.369 227.412 268.949 228.504 267.744C233.63 262.033 229.708 254.493 226.811 248.514C219.858 234.17 221.752 221.945 225.095 206.865C229.93 185.07 231.847 155.868 217.273 136.995C216.426 135.902 214.532 136.794 214.822 138.133L214.844 138.111Z" fill="white"/>
<path d="M172.37 277.738C180.392 273.946 188.37 272.451 197.15 274.057C203.055 275.15 208.805 277.381 214.911 276.913C221.574 276.377 227.858 273.589 229.15 266.606C229.373 265.402 227.702 264.599 226.833 265.402C215.646 275.82 205.373 269.149 192.247 268.726C184.247 268.458 177.295 270.778 170.832 275.374C169.495 276.333 170.944 278.43 172.37 277.76V277.738Z" fill="white"/>
<path d="M91.4551 98.9149C109.461 80.3321 125.105 53.6737 126.91 27.3053C127.021 25.7661 124.637 25.0968 124.191 26.6807C120.625 39.0395 117.996 51.1083 112.291 62.7755C106.185 75.2905 98.3187 86.3777 89.0484 96.7064C87.8227 98.0895 90.1626 100.253 91.4551 98.8926V98.9149Z" fill="white"/>
<path d="M42.9198 89.0101C50.1177 72.8366 53.438 54.0753 55.8893 36.6302C56.2013 34.3548 52.7026 34.0424 52.3461 36.2956C49.6274 53.9637 44.8585 70.8511 40.6468 88.1623C40.2902 89.657 42.2736 90.4601 42.9198 89.0101Z" fill="white"/>
<path d="M53.1928 35.8048C55.7778 46.1112 60.9255 58.1131 69.5273 64.8502C70.4632 65.5864 72.0677 64.3594 71.3992 63.2663C68.4799 58.6708 64.8475 54.6776 62.1066 49.9483C59.4101 45.2635 57.1594 40.1995 55.3544 35.1132C54.931 33.9086 52.8808 34.5555 53.1928 35.8048Z" fill="white"/>
<path d="M55.1762 92.624C58.9646 87.9839 62.1289 82.853 65.2265 77.7444C67.9897 73.1712 71.1541 68.5087 72.9592 63.4894C73.4717 62.084 71.5552 61.1024 70.6639 62.2847C67.3435 66.7464 64.9591 72.0558 62.0844 76.8297C59.1874 81.6706 56.023 86.3554 53.282 91.3078C52.5689 92.6017 54.218 93.8063 55.1762 92.624Z" fill="white"/>
<path d="M71.8004 64.8725C82.0289 71.0519 93.5277 75.7366 104.87 79.3952C106.876 80.0421 107.99 76.9636 106.007 76.339C94.4413 72.725 83.7671 68.0403 72.8032 62.9763C71.7113 62.4632 70.7753 64.2256 71.8227 64.8725H71.8004Z" fill="white"/>
<path d="M55.1762 37.7679C66.5636 48.9444 81.405 59.6077 96.9595 63.8909C98.9205 64.4263 99.901 61.7716 98.0514 60.9239C90.4301 57.4438 82.6752 54.7222 75.6333 50.0598C69.0817 45.732 63.3323 40.2665 56.7139 36.0948C55.6888 35.4479 54.218 36.8087 55.1985 37.7679H55.1762Z" fill="white"/>
<path d="M112.001 97.1749C122.586 87.1808 131.255 74.9335 139.01 62.664C145.94 51.6883 155.968 37.0318 157.261 23.8029C157.372 22.576 155.545 21.7283 154.877 22.9329C148.08 35.1802 143.445 48.4759 136.091 60.6116C128.625 72.9258 120.403 84.883 110.553 95.4572C109.595 96.4833 110.932 98.2011 112.001 97.1749Z" fill="white"/>
<path d="M124.191 28.3761C127.155 28.5769 130.475 28.9338 133.394 28.1531C134.731 27.7961 134.642 26.0338 133.305 25.7661C130.341 25.1637 127.065 25.7661 124.102 26.123C122.831 26.2792 122.921 28.3092 124.191 28.3761Z" fill="white"/>
<path d="M128.447 51.8891C131.946 45.4643 136.537 35.5148 134.531 28.0192C134.241 26.9707 132.681 26.6361 132.28 27.8184C131.099 31.3431 131.277 35.2917 130.497 38.9726C129.628 43.0773 128.202 47.0482 126.375 50.8183C125.795 52.0006 127.801 53.0714 128.425 51.8891H128.447Z" fill="white"/>
<path d="M123.767 68.7764C126.263 66.0995 128.96 63.5117 131.233 60.6562C131.924 59.7862 130.609 58.5816 129.807 59.34C127.199 61.794 124.882 64.5825 122.453 67.2149C121.584 68.1518 122.876 69.6911 123.745 68.7541L123.767 68.7764Z" fill="white"/>
<path d="M134.821 52.9376C140.124 44.7281 144.202 35.3809 145.004 25.5207C145.16 23.5352 142.353 23.3568 141.974 25.2307C140.124 34.6002 137.784 43.3004 133.06 51.6883C132.392 52.8706 134.063 54.0976 134.821 52.9153V52.9376Z" fill="white"/>
<path d="M145.718 26.5246C148.681 26.8146 152.403 27.1938 155.278 26.1676C156.325 25.7884 156.213 24.0706 155.166 23.7583C152.247 22.9106 148.548 23.5799 145.606 24.026C144.202 24.2491 144.314 26.3684 145.695 26.5022L145.718 26.5246Z" fill="white"/>
<path d="M133.105 29.5585C137.027 29.8039 142.308 28.9115 145.339 26.2122C146.23 25.4315 145.562 23.7583 144.314 24.026C142.397 24.4499 140.659 25.3645 138.787 25.8776C136.893 26.3907 134.932 26.703 133.016 27.0376C131.634 27.283 131.678 29.4469 133.105 29.5362V29.5585Z" fill="white"/>
<path d="M155.077 25.7215C159.133 31.4101 165.373 36.1171 170.676 40.6234C176.693 45.7543 182.888 50.6398 189.284 55.3022C191.089 56.6184 193.072 53.7853 191.267 52.4468C185.25 47.9851 179.323 43.4119 173.573 38.6156C167.913 33.8863 162.698 28.0861 156.548 24.0706C155.456 23.3568 154.342 24.6953 155.055 25.6991L155.077 25.7215Z" fill="white"/>
<path d="M166.375 92.1109C173.373 88.3631 179.456 82.4514 184.002 75.9597C187.857 70.4273 192.983 62.1732 192.114 55.2353C191.958 54.0084 190.22 53.6737 189.551 54.6553C185.718 60.3439 184.649 67.728 180.793 73.6843C176.559 80.2429 171.1 85.173 165.038 90.0139C163.946 90.884 165.127 92.7802 166.375 92.0886V92.1109Z" fill="white"/>
<path d="M98.497 87.8723C107.21 86.5562 115.901 85.9761 124.703 86.11C126.731 86.1323 127.088 83.0314 125.015 82.9199C115.923 82.4514 106.92 83.2768 98.0736 85.4407C96.5359 85.82 96.9148 88.1177 98.497 87.8723Z" fill="white"/>
<path d="M122.453 84.3476C121.896 87.1808 126.085 89.7462 128.113 91.0401C131.032 92.914 134.263 94.1856 137.673 94.8102C140.258 95.2787 140.503 91.3524 138.052 90.817C134.91 90.1032 131.946 88.9208 129.294 87.0469C127.377 85.7084 125.907 83.2099 123.411 83.3214C122.876 83.3438 122.542 83.9015 122.453 84.3476Z" fill="white"/>
<path d="M97.0931 61.3924C98.341 66.9026 99.433 72.4573 100.859 77.9005C101.394 79.9752 104.603 79.4621 104.18 77.3205C103.088 71.7881 101.617 66.3002 100.324 60.8124C99.8341 58.76 96.6251 59.3177 97.0931 61.3924Z" fill="white"/>
<path d="M99.5889 62.1732C100.235 62.3294 100.77 62.7309 101.439 62.954C102.308 63.2217 103.177 63.4225 104.023 63.7571C105.873 64.4933 107.567 65.5641 109.037 66.9026C110.82 68.5311 113.116 66.0771 111.288 64.4263C109.661 62.9763 107.812 61.7716 105.806 60.9239C104.87 60.5224 103.89 60.2101 102.909 59.9647C101.795 59.697 101.171 59.9647 100.101 59.9424C98.8981 59.9201 98.2296 61.8609 99.5889 62.1732Z" fill="white"/>
<path d="M57.0703 78.4359C61.4826 72.4573 64.647 65.921 66.608 58.7377C67.0091 57.2431 64.7584 56.3954 64.335 57.89C62.4408 64.8502 59.4324 71.275 55.2875 77.1867C54.4853 78.3244 56.2458 79.5514 57.0703 78.4359Z" fill="white"/>
<path d="M55.5996 68.9772C55.9562 67.3487 56.647 65.5194 56.6024 63.8463C56.6024 62.6194 55.0648 62.2401 54.53 63.3778C53.7723 64.984 53.6386 67.0364 53.2598 68.7541C52.9478 70.2265 55.2654 70.4273 55.5773 68.9772H55.5996Z" fill="white"/>
<path d="M59.1427 56.1946C59.7666 53.2722 60.8586 50.1267 60.9031 47.1374C60.9031 45.9774 59.3209 45.5312 58.8753 46.6689C57.761 49.5467 57.5828 52.9822 57.0702 55.9938C56.8474 57.3323 58.853 57.4438 59.1204 56.1946H59.1427Z" fill="white"/>
<path d="M90.7421 66.8802C82.4969 64.0694 74.9647 59.7862 66.8532 56.7746C66.0064 56.4623 65.3379 57.6669 66.1178 58.2023C73.1597 62.954 82.3409 65.4971 90.4747 67.6387C90.9649 67.7726 91.2546 67.0587 90.7421 66.8802Z" fill="white"/>
<path d="M79.3325 59.3177C72.714 55.4361 67.0092 50.506 61.6164 45.085C60.6582 44.1258 59.0537 45.4643 59.9896 46.4682C65.4047 52.1791 71.9341 56.5738 78.9091 60.1208C79.3548 60.3439 79.7559 59.5854 79.3325 59.34V59.3177Z" fill="white"/>
<path d="M60.5243 61.2809C61.3711 59.0277 63.0201 56.3061 62.8864 53.8522C62.8419 53.183 61.9728 53.1606 61.6162 53.5622C60.8586 54.4991 60.6357 55.793 60.3014 56.9531C59.9449 58.2469 59.6329 59.5408 59.2987 60.8347C59.0981 61.6155 60.2123 62.0617 60.502 61.2809H60.5243Z" fill="white"/>
<path d="M59.8781 91.8432C63.4881 88.4301 66.3628 84.4369 68.6581 80.0198C68.9924 79.3952 67.9005 78.8152 67.5662 79.4398C65.2486 83.7007 62.4185 87.5823 59.2764 91.2632C58.9644 91.6201 59.5438 92.1555 59.9004 91.8209L59.8781 91.8432Z" fill="white"/>
<path d="M68.1456 80.2206C72.8921 80.6445 77.817 78.9267 81.3379 75.7366C82.1179 75.0228 81.1151 73.8181 80.2683 74.4651C76.6582 77.2982 72.8476 78.6367 68.2793 78.7929C67.3879 78.8152 67.2096 80.1314 68.1456 80.2206Z" fill="white"/>
<path d="M81.8061 75.5359C87.9566 77.789 94.2631 79.6852 100.48 81.7153C101.372 82.0053 101.884 80.6221 100.993 80.3321C94.7533 78.369 88.4914 76.2497 82.185 74.5097C81.5164 74.3312 81.1376 75.2905 81.8061 75.5359Z" fill="white"/>
<path d="M128.158 85.5746C138.631 73.7735 147.367 59.8978 153.673 45.442C153.985 44.7058 152.849 44.3043 152.514 45.0181C145.473 59.4739 137.294 72.4127 127.444 85.0838C127.11 85.53 127.779 85.9761 128.135 85.5746H128.158Z" fill="white"/>
<path d="M152.693 45.6874C157.15 47.472 162.743 46.312 166.62 43.7019C167.356 43.2112 166.554 41.9396 165.774 42.3857C161.495 44.795 157.751 45.1297 152.938 44.6612C152.336 44.5943 152.136 45.4643 152.693 45.6874Z" fill="white"/>
<path d="M167.088 44.0812C169.428 45.9551 171.991 47.5836 174.398 49.3906C176.782 51.1529 179.055 53.3614 181.64 54.7892C182.108 55.0569 182.732 54.4992 182.331 54.0307C180.459 51.9114 177.874 50.3052 175.579 48.6321C173.016 46.7582 170.431 44.8174 167.645 43.2781C167.111 42.9881 166.598 43.6796 167.088 44.0812Z" fill="white"/>
<path d="M180.214 53.2053C178.097 57.1315 178.699 62.4632 181.128 66.1218C181.596 66.8133 182.688 66.0548 182.331 65.341C180.437 61.2586 180.325 57.9123 181.105 53.5399C181.194 53.0714 180.437 52.7591 180.192 53.2053H180.214Z" fill="white"/>
<path d="M160.671 90.4824C170.654 85.2177 178.164 75.5582 182.197 65.1402C182.576 64.1363 181.016 63.5563 180.637 64.5602C176.604 75.4243 169.562 83.2099 160.203 89.7686C159.801 90.0586 160.247 90.7055 160.671 90.4824Z" fill="white"/>
<path d="M68.8588 23.2452C73.7168 33.507 78.3742 43.2781 81.3158 54.3207C81.9397 56.6184 85.6166 55.9715 84.9704 53.6737C81.8506 42.5865 77.6388 31.3431 70.9981 21.8621C70.1513 20.6575 68.2348 21.9514 68.8588 23.2452Z" fill="white"/>
<path d="M69.9507 23.4906C87.3326 12.4257 104.269 5.01936 125.015 2.967C126.932 2.78854 126.397 -0.178467 124.503 0.0223081C104.67 2.11929 84.4133 9.01255 68.8811 21.8175C68.0343 22.5091 68.9702 24.1153 69.9507 23.4906Z" fill="white"/>
<path d="M122.898 2.38699C126.508 9.70411 128.915 17.222 130.163 25.2976C130.364 26.5469 132.436 26.5246 132.414 25.2084C132.325 16.642 130.007 8.45484 125.35 1.22696C124.436 -0.200773 122.096 0.780792 122.898 2.38699Z" fill="white"/>
<path d="M127.288 4.52858C129.45 4.5732 131.5 4.52858 133.573 3.83702C134.91 3.39086 134.174 1.04849 132.815 1.45004C130.988 2.00774 129.16 2.65468 127.221 2.74392C126.219 2.78853 126.286 4.50627 127.288 4.52858Z" fill="white"/>
<path d="M131.901 3.63625C133.64 11.6672 135.355 19.4305 135.734 27.6846C135.801 29.1123 138.342 29.0454 138.297 27.573C138.007 19.2521 137.094 10.7526 134.241 2.87777C133.773 1.56158 131.612 2.27545 131.901 3.61395V3.63625Z" fill="white"/>
<path d="M135.578 7.22789C139.211 7.33943 142.62 7.40635 146.141 8.43253C147.924 8.96793 148.949 6.22401 147.144 5.71092C143.422 4.64013 139.322 3.99319 135.467 4.72936C134.108 4.99706 134.108 7.18327 135.556 7.22789H135.578Z" fill="white"/>
<path d="M145.784 8.32099C146.408 11.4665 147.233 14.6565 147.278 17.8912C147.322 20.7467 146.899 23.5575 146.765 26.413C146.698 27.7738 148.615 27.93 148.837 26.6138C149.907 20.7913 149.506 13.675 148.347 7.89713C148.013 6.24632 145.428 6.69248 145.762 8.3656L145.784 8.32099Z" fill="white"/>
<path d="M81.0037 31.0308C84.0343 28.2869 85.0371 24.0483 84.324 20.1221C84.1012 18.9174 82.1625 19.2521 82.4522 20.4567C83.2767 24.0706 82.207 27.2384 80.0454 30.1385C79.5997 30.7408 80.4688 31.5439 81.026 31.0308H81.0037Z" fill="white"/>
<path d="M111.823 9.25794C112.982 13.3404 119.511 16.9543 123.589 15.1696C124.258 14.8796 124.08 13.7865 123.344 13.7642C121.272 13.675 119.534 13.7642 117.572 12.8719C115.589 11.9796 114.118 10.4626 112.692 8.8787C112.38 8.54408 111.689 8.78947 111.823 9.28025V9.25794Z" fill="white"/>
<path d="M83.4104 19.6759C92.8367 15.7943 101.817 12.2249 111.778 9.86026C112.692 9.63718 112.469 8.20945 111.511 8.38791C101.773 10.2395 91.455 13.5411 82.9647 18.739C82.4076 19.0736 82.7864 19.9436 83.4104 19.6759Z" fill="white"/>
<path d="M123.656 14.545C124.079 16.8428 124.681 19.1405 125.238 21.3936C125.729 23.3791 126.063 25.4984 126.932 27.35C127.199 27.8854 127.912 27.573 127.868 27.0376C127.734 24.7399 126.887 22.3975 126.308 20.1667C125.795 18.1589 125.283 16.1735 124.637 14.2104C124.458 13.6304 123.545 13.965 123.634 14.5227L123.656 14.545Z" fill="white"/>
<path d="M80.9815 31.6331C80.5358 30.4731 80.4243 30.9862 80.6472 33.1278C81.182 34.2878 81.65 35.4479 82.0734 36.6525C83.1208 39.5303 83.8784 42.4973 84.7029 45.442C85.884 49.7252 87.1097 53.8968 89.0707 57.89C89.4718 58.7154 90.742 58.1131 90.3632 57.2654C87.8005 51.5768 86.4411 45.5981 84.5915 39.6864C83.8116 37.1879 82.8533 31.5662 80.2461 30.3839C79.7781 30.1608 79.3324 30.8301 79.6667 31.2093C79.8672 31.477 80.0678 31.7224 80.2684 31.9901C80.5358 32.3916 81.182 32.1239 80.9592 31.6555L80.9815 31.6331Z" fill="white"/>
<path d="M158.843 63.4225C153.695 61.9501 150.798 68.0849 152.18 72.3235C153.673 76.8744 158.598 79.5737 163.033 77.2313C167.289 74.9781 169.295 69.0888 166.041 65.1848C163.411 62.0393 157.216 60.6339 154.498 64.3371C154.141 64.8279 154.698 65.4079 155.233 65.2071C157.996 64.0694 160.826 63.5563 163.434 65.4079C166.732 67.728 166.331 72.2119 163.478 74.7551C160.448 77.4544 156.258 76.4505 154.364 72.9927C152.47 69.5126 153.941 64.2256 158.62 64.404C159.155 64.404 159.423 63.6009 158.843 63.4448V63.4225Z" fill="white"/>
<path d="M104.202 29.5362C99.6558 28.8223 96.0457 33.8863 96.2908 38.0356C96.5805 42.6088 100.993 45.4866 105.316 45.3974C110.285 45.2858 114.297 41.0026 114.029 35.9833C113.74 30.8077 108.547 27.64 103.778 29.1792C102.686 29.5362 103.466 31.1424 104.536 30.8077C108.882 29.4023 112.848 33.3063 112.157 37.6341C111.533 41.4934 107.968 44.0142 104.157 43.5904C95.8006 42.6757 96.6028 32.0793 104.224 30.6739C104.893 30.5623 104.826 29.6254 104.18 29.5139L104.202 29.5362Z" fill="white"/>
<path d="M75.4104 94.3417C76.2349 90.6832 79.1542 86.9577 83.4105 88.1623C87.3103 89.2778 87.8674 92.914 87.7782 96.3495C87.7782 96.9741 88.6473 97.4426 89.0262 96.818C91.366 92.8917 87.6668 87.4708 83.7002 86.4669C79.1765 85.3292 73.5608 89.5008 74.363 94.3864C74.4745 95.011 75.2767 94.8995 75.4104 94.3417Z" fill="white"/>
<path d="M23.1979 108.173C22.7522 107.124 22.5071 106.054 22.4848 104.916C22.4848 103.845 22.8191 102.841 22.8414 101.77C22.8637 100.789 21.5489 100.12 20.9472 101.079C19.4987 103.354 20.1673 106.812 21.1923 109.132C21.7717 110.426 23.7328 109.489 23.1757 108.195L23.1979 108.173Z" fill="white"/>
<path d="M25.4712 103.756C24.3346 108.084 24.1341 113.259 26.318 117.319C26.8974 118.412 28.8584 117.944 28.5018 116.628C27.343 112.345 26.4962 108.664 27.343 104.18C27.5436 103.109 25.7608 102.707 25.4712 103.756Z" fill="white"/>
<path d="M28.6132 107.704C28.6132 108.619 28.5241 109.645 28.7692 110.538C29.0589 111.698 30.6188 111.631 30.8417 110.448C31.0199 109.534 30.8417 108.53 30.7971 107.615C30.7302 106.388 28.6132 106.455 28.6132 107.704Z" fill="white"/>
<path d="M30.8192 114.33C29.9724 117.743 30.8192 122.249 34.251 123.945C35.2984 124.458 35.9224 123.053 35.4098 122.294C33.8054 119.885 32.5351 117.922 33.1814 114.888C33.4711 113.549 31.1535 113.014 30.8192 114.352V114.33Z" fill="white"/>
<path d="M34.3848 109.712C34.4517 110.337 34.4962 110.961 34.5631 111.608C34.6522 112.724 36.5241 112.657 36.5464 111.519C36.5464 110.895 36.5687 110.248 36.591 109.623C36.6355 108.017 34.2511 108.084 34.3848 109.712Z" fill="white"/>
<path d="M35.1649 116.07C35.5214 120.175 37.1036 124.837 40.4463 127.425C41.2262 128.027 42.5633 127.023 41.9839 126.109C39.8 122.696 37.8613 119.818 37.371 115.668C37.1928 114.218 35.0312 114.642 35.1426 116.07H35.1649Z" fill="white"/>
<path d="M40.1788 113.348C40.8474 118.189 43.3209 124.882 47.7555 127.514C48.58 128.005 50.0285 127.157 49.3823 126.131C48.0898 124.079 46.2847 122.45 45.0591 120.309C43.7666 118.033 42.8975 115.535 42.3404 112.969C42.0284 111.586 39.9783 111.943 40.1788 113.348Z" fill="white"/>
<path d="M47.0647 114.732C47.1761 118.925 50.5188 125.573 54.9534 126.555C56.0899 126.823 56.4464 125.35 55.9562 124.614C54.842 122.896 52.9255 121.803 51.7667 120.041C50.6079 118.256 50.0731 116.293 49.36 114.308C48.9812 113.192 47.0201 113.527 47.0424 114.709L47.0647 114.732Z" fill="white"/>
<path d="M55.1539 114.821C55.5328 118.435 57.3601 123.476 60.9479 125.038C61.9284 125.462 62.7752 124.324 62.3964 123.432C61.7501 121.892 60.5245 120.688 59.7 119.238C58.8532 117.721 58.2069 116.025 57.7612 114.352C57.3155 112.701 54.9534 113.103 55.1317 114.821H55.1539Z" fill="white"/>
<path d="M63.6888 116.159C64.1791 117.252 64.6248 118.345 65.1373 119.439C65.6276 120.465 66.0064 121.491 66.9646 122.16C67.6554 122.651 68.7028 122.182 68.7697 121.312C68.8588 120.13 68.324 119.171 67.8337 118.145C67.3212 117.074 66.7641 116.003 66.2292 114.955C65.4047 113.326 62.9534 114.508 63.6888 116.159Z" fill="white"/>
<path d="M71.4215 118.212C72.5358 119.907 73.5386 121.982 75.2099 123.186C75.9676 123.744 77.2378 123.03 76.9926 122.049C76.4578 119.907 74.8533 118.145 73.5831 116.36C72.5135 114.843 70.4188 116.695 71.3993 118.212H71.4215Z" fill="white"/>
<path d="M78.6638 118.39C80.0232 119.907 80.87 121.714 82.0511 123.343C82.7419 124.279 84.0567 123.432 83.9452 122.45C83.7224 120.197 82.2293 118.256 80.6471 116.717C79.4661 115.557 77.5051 117.141 78.6638 118.412V118.39Z" fill="white"/>
<path d="M85.6166 118.234C86.1068 118.903 86.5971 119.572 87.0874 120.242C87.5553 120.889 87.9564 121.602 88.6473 122.004C89.4049 122.45 90.6306 121.915 90.3854 120.889C90.0066 119.305 88.4913 117.877 87.5108 116.583C86.5525 115.289 84.6583 116.918 85.6166 118.189V118.234Z" fill="white"/>
<path d="M91.8785 118.747C92.3465 119.483 92.7699 120.286 93.5275 120.732C94.3966 121.246 95.6446 120.621 95.4217 119.528C95.2211 118.524 94.5303 117.788 93.9064 117.007C92.8144 115.602 90.9425 117.342 91.8562 118.747H91.8785Z" fill="white"/>
<path d="M114.141 143.13C114.921 145.004 116.414 146.9 118.464 147.369C119.422 147.592 119.957 146.253 119.4 145.584C118.352 144.357 117.127 143.532 116.369 142.059C115.634 140.654 113.517 141.658 114.141 143.13Z" fill="white"/>
<path d="M118.887 140.118C120.759 143.018 122.676 145.941 124.703 148.707C125.327 149.555 126.887 148.841 126.598 147.815C125.662 144.335 123.411 140.944 120.625 138.646C119.756 137.932 118.241 139.137 118.887 140.118Z" fill="white"/>
<path d="M125.305 140.297C126.419 143.063 127.377 146.164 129.16 148.573C129.829 149.466 131.322 148.707 131.099 147.659C130.497 144.736 128.826 141.903 127.533 139.226C126.82 137.798 124.703 138.824 125.305 140.297Z" fill="white"/>
<path d="M130.186 138.646C131.879 141.435 133.394 144.58 135.489 147.079C136.225 147.971 137.606 147.034 137.161 146.008C135.89 143.108 133.818 140.408 132.124 137.731C131.411 136.594 129.472 137.464 130.186 138.646Z" fill="white"/>
<path d="M135.489 136.393C135.801 137.419 135.979 138.534 136.626 139.404C137.183 140.163 138.542 139.717 138.587 138.78C138.631 137.798 138.23 136.884 137.963 135.947C137.495 134.43 135.044 134.831 135.511 136.371L135.489 136.393Z" fill="white"/>
<path d="M139.924 142.773C140.793 144.647 141.595 146.61 142.62 148.417C143.222 149.488 144.76 148.752 144.336 147.592C143.623 145.651 142.62 143.777 141.729 141.903C141.172 140.743 139.367 141.591 139.924 142.773Z" fill="white"/>
<path d="M141.127 135.612C141.929 138.512 143.4 142.081 145.651 144.156C146.497 144.937 147.901 144.201 147.411 143.018C146.832 141.613 145.896 140.386 145.183 139.048C144.47 137.709 143.846 136.304 143.177 134.943C142.642 133.872 140.748 134.363 141.105 135.612H141.127Z" fill="white"/>
<path d="M146.408 134.363C148.124 137.241 149.773 140.118 151.868 142.706C152.604 143.598 154.007 142.662 153.539 141.635C152.202 138.691 150.397 136.014 148.659 133.292C147.812 131.976 145.562 132.957 146.408 134.363Z" fill="white"/>
<path d="M152.67 132.266C153.317 133.359 154.03 134.43 155.077 135.166C156.035 135.857 157.038 134.764 156.704 133.783C156.325 132.69 155.567 131.73 154.765 130.905C153.829 129.923 151.913 130.95 152.67 132.266Z" fill="white"/>
<path d="M157.35 137.843C158.041 139.181 158.665 140.587 159.578 141.791C160.358 142.84 161.695 141.702 161.339 140.654C160.893 139.315 160.113 138.088 159.445 136.839C158.732 135.523 156.637 136.504 157.328 137.843H157.35Z" fill="white"/>
<path d="M158.91 131.507C159.913 133.359 160.96 135.545 162.565 136.951C163.255 137.553 164.503 136.75 164.258 135.88C163.679 133.827 162.141 131.931 160.871 130.236C160.069 129.165 158.264 130.325 158.91 131.507Z" fill="white"/>
<path d="M165.261 126.488C165.997 127.536 166.687 128.585 167.311 129.7C167.891 130.727 168.426 131.842 169.25 132.69C170.052 133.493 171.412 132.913 171.256 131.753C170.921 129.21 168.849 126.711 167.356 124.703C166.286 123.276 164.214 125.06 165.239 126.488H165.261Z" fill="white"/>
<path d="M170.075 122.852C171.256 124.703 172.303 126.711 173.974 128.161C174.91 128.987 175.98 127.693 175.646 126.756C174.933 124.793 173.439 123.119 172.214 121.469C171.367 120.331 169.317 121.602 170.097 122.852H170.075Z" fill="white"/>
<path d="M176.626 122.896C177.696 124.346 178.699 125.908 179.969 127.202C180.726 127.96 182.264 127.18 181.662 126.109C180.726 124.436 179.478 122.963 178.32 121.446C177.451 120.309 175.779 121.736 176.626 122.896Z" fill="white"/>
<path d="M194.298 112.345C195.791 113.438 196.994 114.932 198.019 116.472C198.598 117.342 200.181 116.583 199.891 115.602C199.222 113.281 197.819 111.541 195.746 110.292C194.364 109.467 192.983 111.385 194.298 112.367V112.345Z" fill="white"/>
<path d="M198.71 109.556C199.891 110.27 200.248 111.184 200.916 112.322C201.384 113.103 202.966 113.125 202.922 111.965C202.855 110.136 201.54 108.597 199.98 107.727C198.755 107.035 197.462 108.798 198.71 109.556Z" fill="white"/>
<path d="M202.699 105.875C203.367 106.968 203.969 108.284 204.86 109.221C205.73 110.114 207.067 109.221 206.643 108.061C206.197 106.857 205.262 105.741 204.548 104.67C203.858 103.622 202.03 104.782 202.699 105.875Z" fill="white"/>
<path d="M190.554 117.029C191.312 117.498 191.98 117.989 192.849 118.234C193.83 118.524 194.832 117.364 194.052 116.516C193.451 115.847 192.76 115.445 192.002 114.977C190.621 114.129 189.172 116.182 190.554 117.052V117.029Z" fill="white"/>
<path d="M209.451 112.545C212.526 117.386 214.086 122.74 214.019 128.473C214.019 129.946 216.292 130.147 216.292 128.697C216.314 122.428 214.599 116.672 211.211 111.43C210.565 110.448 208.827 111.541 209.473 112.545H209.451Z" fill="white"/>
<path d="M211.1 105.831C217.317 112.991 219.167 120.643 219.813 129.857C219.902 131.106 221.797 130.927 221.93 129.767C223.022 120.576 218.811 111.118 212.838 104.336C211.858 103.22 210.097 104.693 211.078 105.831H211.1Z" fill="white"/>
<path d="M214.643 101.369C217.874 106.121 219.813 111.452 220.927 117.096C221.172 118.323 222.866 117.966 222.799 116.762C222.42 110.515 220.125 104.871 216.515 99.785C215.601 98.4911 213.774 100.075 214.643 101.369Z" fill="white"/>
<path d="M205.685 119.773C207.735 125.306 207.802 130.548 207.423 136.348C207.334 137.575 209.317 138.155 209.629 136.861C211.055 130.86 209.963 124.503 207.735 118.814C207.2 117.453 205.195 118.435 205.707 119.773H205.685Z" fill="white"/>
<path d="M202.721 128.496C202.966 130.169 203.122 131.909 203.612 133.537C203.924 134.541 205.707 134.742 205.685 133.448C205.663 131.641 205.284 129.879 204.994 128.094C204.749 126.622 202.498 127.023 202.721 128.496Z" fill="white"/>
<path d="M172.504 85.6192C172.726 87.1585 173.529 88.497 174.665 89.5455C175.735 90.527 177.317 91.5532 178.81 90.9063C179.523 90.594 179.612 89.7016 179.189 89.1439C178.587 88.3408 177.473 88.0731 176.738 87.4039C175.958 86.7123 175.512 85.753 175.155 84.7938C174.598 83.2545 172.281 84.1245 172.481 85.6415L172.504 85.6192Z" fill="white"/>
<path d="M175.356 83.5445C176.269 84.5038 177.205 85.4854 178.119 86.4446C178.988 87.3369 179.79 88.3185 180.905 88.8762C181.729 89.3001 182.554 88.207 182.197 87.4708C181.662 86.3777 180.682 85.5523 179.835 84.7046C178.944 83.8122 178.03 82.9199 177.138 82.0276C176.069 80.9568 174.286 82.4514 175.333 83.5668L175.356 83.5445Z" fill="white"/>
<path d="M179.077 79.886C179.835 81.1352 180.726 82.1837 181.863 83.143C182.866 83.9684 184.247 85.0838 185.607 85.0838C186.476 85.0838 187.211 84.0576 186.52 83.3214C185.718 82.4514 184.515 82.0276 183.579 81.3137C182.598 80.5552 181.751 79.6406 181.016 78.659C180.236 77.6551 178.409 78.7706 179.1 79.9083L179.077 79.886Z" fill="white"/>
<path d="M182.197 76.562C182.821 77.8113 183.623 78.949 184.448 80.0868C185.272 81.2245 186.008 82.3399 187.122 83.2322C188.013 83.9238 188.972 82.8307 188.637 81.9383C188.192 80.6668 187.367 79.6629 186.587 78.5921C185.785 77.4767 184.983 76.3836 184.002 75.402C183.178 74.5766 181.618 75.402 182.197 76.562Z" fill="white"/>
<path d="M185.116 72.7696C186.03 75.3128 187.568 78.1459 189.93 79.596C190.955 80.2206 192.025 79.0383 191.334 78.0567C189.818 75.982 188.169 74.242 187.189 71.7881C186.632 70.405 184.648 71.4088 185.139 72.7696H185.116Z" fill="white"/>
<path d="M189.061 71.2973C189.306 71.9219 189.551 72.5466 189.796 73.1712C190.264 74.3312 191.935 73.5058 191.534 72.3458C191.311 71.7211 191.089 71.0742 190.866 70.4496C190.442 69.2449 188.57 70.0926 189.061 71.3196V71.2973Z" fill="white"/>
<path d="M24.6019 92.2448C25.1144 91.4193 25.6715 90.6609 25.8721 89.7016C26.0726 88.6977 24.7802 88.2962 24.1116 88.787C23.4208 89.2778 23.0197 90.1255 22.5517 90.817C21.6603 92.1555 23.7551 93.6279 24.6019 92.2448Z" fill="white"/>
<path d="M30.5295 83.6784C32.2231 81.2468 34.4962 79.3729 37.148 78.0344C39.5101 76.852 42.0283 76.7628 44.4573 75.8705C45.7721 75.3797 45.1035 73.6843 44.0339 73.4389C38.0617 72.145 31.7106 77.8782 28.9696 82.563C28.3457 83.6115 29.8164 84.7046 30.5518 83.6784H30.5295Z" fill="white"/>
<path d="M133.639 94.5202C132.726 96.6172 132.481 99.0488 132.124 101.28C131.946 102.395 133.617 102.73 134.018 101.703C134.843 99.5842 135.801 97.3534 136.046 95.0779C136.202 93.6279 134.197 93.271 133.639 94.5202Z" fill="white"/>
<path d="M137.628 99.138C137.45 100.41 137.205 101.681 137.094 102.975C136.982 104.247 138.765 104.336 139.01 103.154C139.278 101.904 139.411 100.61 139.589 99.3388C139.768 98.0672 137.807 97.8888 137.606 99.1603L137.628 99.138Z" fill="white"/>
<path d="M144.046 98.9373C143.69 101.48 143.311 104.046 142.954 106.589C142.776 107.794 144.693 107.972 144.848 106.767C145.183 104.202 145.495 101.659 145.829 99.0934C145.985 97.9334 144.202 97.7772 144.046 98.915V98.9373Z" fill="white"/>
<path d="M149.083 99.428C148.838 101.547 148.459 103.711 148.392 105.853C148.37 107.102 150.063 107.236 150.308 106.031C150.732 103.934 150.821 101.726 151.044 99.6065C151.177 98.3349 149.216 98.1565 149.06 99.428H149.083Z" fill="white"/>
<path d="M154.141 100.856C153.495 103.198 153.049 105.764 153.829 108.106C154.186 109.177 155.79 108.731 155.901 107.749C156.124 105.719 155.946 103.734 156.459 101.726C156.837 100.231 154.587 99.3388 154.163 100.878L154.141 100.856Z" fill="white"/>
<path d="M159.088 100.99C159.133 103.154 158.91 105.541 159.445 107.637C159.757 108.864 161.406 108.775 161.629 107.548C162.03 105.407 161.629 103.042 161.54 100.878C161.473 99.495 159.066 99.5842 159.088 100.967V100.99Z" fill="white"/>
<path d="M165.239 102.217C164.214 104.068 164.035 106.232 165.306 107.994C166.063 109.043 167.378 107.883 167.044 106.879C166.687 105.786 166.553 104.604 167.111 103.555C167.801 102.261 165.952 100.923 165.216 102.239L165.239 102.217Z" fill="white"/>
<path d="M171.077 104.38C171.122 105.451 171.011 106.611 171.456 107.593C171.902 108.574 173.373 108.485 173.752 107.481C174.086 106.589 173.952 105.585 173.907 104.648C173.907 103.867 173.462 103.176 172.615 103.087C171.924 103.02 171.033 103.6 171.055 104.38H171.077Z" fill="white"/>
<path d="M22.6186 267.655C28.7468 254.984 31.1535 244.298 27.0755 230.489C22.6186 215.387 13.7049 202.202 12.0558 186.23C11.9444 185.136 10.2731 185.449 10.3845 186.52C11.6324 198.745 16.847 209.163 21.549 220.361C28.5685 237.048 28.8805 250.79 21.0364 267.053C20.5684 268.034 22.1506 268.614 22.6409 267.655H22.6186Z" fill="white"/>
<path d="M13.2592 178.801C13.5934 171.417 15.1756 164.345 18.0057 157.519C18.4292 156.493 16.8247 155.913 16.4013 156.916C13.5266 163.899 11.9221 171.082 11.5656 178.645C11.521 179.738 13.2146 179.894 13.2592 178.801Z" fill="white"/>
<path d="M24.4461 212.643C16.8471 195.354 15.4655 177.708 22.1954 159.861C22.5965 158.79 20.9474 158.188 20.5463 159.237C13.8387 176.815 14.3513 196.424 23.7107 212.977C23.9781 213.423 24.6689 213.111 24.4461 212.62V212.643Z" fill="white"/>
<path d="M25.6493 198.432C22.1952 186.118 22.6409 174.183 27.6549 162.36C28.1229 161.267 26.3847 160.642 25.939 161.735C20.9696 173.581 20.3233 186.609 24.6688 198.745C24.8693 199.28 25.783 198.99 25.627 198.432H25.6493Z" fill="white"/>
<path d="M17.6048 277.225C18.407 275.842 19.7441 274.191 20.0115 272.607C20.0783 272.161 19.4989 271.893 19.1869 272.183C18.5853 272.719 18.251 273.477 17.8722 274.169C17.4488 274.95 17.0254 275.73 16.602 276.533C16.2454 277.225 17.2036 277.939 17.6048 277.247V277.225Z" fill="white"/>
<path d="M22.7523 273.277C34.5853 261.252 35.5435 243.74 31.7329 227.991C31.5324 227.188 30.3736 227.388 30.4627 228.214C32.1117 244.12 33.6048 259.914 22.2175 272.786C21.9501 273.098 22.4626 273.589 22.7523 273.277Z" fill="white"/>
<path d="M33.4713 267.432C37.9727 259.423 40.4909 248.827 38.9978 239.68C38.9087 239.145 38.0619 239.167 38.0173 239.725C37.2373 249.407 36.0117 257.795 32.5799 266.986C32.3793 267.521 33.1816 267.967 33.4713 267.454V267.432Z" fill="white"/>
<path d="M31.5546 275.329C37.148 273.946 43.2762 270.51 45.8389 265.045C46.0395 264.643 45.4155 264.197 45.1036 264.532C43.1871 266.562 41.5603 268.77 39.2873 270.443C36.9252 272.206 34.1174 273.656 31.3095 274.57C30.8861 274.704 31.109 275.44 31.5546 275.329Z" fill="white"/>
<path d="M39.488 277.047C47.4435 273.857 55.7556 268.101 59.9674 260.405C60.2794 259.825 59.5663 259.334 59.1206 259.825C53.0369 266.539 47.3767 272.183 39.0423 276.132C38.4407 276.422 38.8641 277.314 39.488 277.069V277.047Z" fill="white"/>
<path d="M51.7889 275.864C59.5215 268.525 67.9896 263.149 76.7028 257.125C77.2153 256.768 76.6582 256.01 76.1234 256.233C66.6748 260.115 57.9616 267.655 51.1426 275.106C50.7192 275.552 51.2986 276.31 51.7666 275.864H51.7889Z" fill="white"/>
<path d="M63.9116 271.67C67.7445 268.904 71.7557 266.383 76.0121 264.309C79.845 262.457 83.9676 261.342 87.8228 259.602C88.3799 259.356 88.0902 258.531 87.5108 258.598C78.7308 259.691 69.8838 265.268 63.1762 270.8C62.5969 271.269 63.3322 272.094 63.9116 271.67Z" fill="white"/>
<path d="M71.9786 271.224C81.1152 268.859 91.1209 264.956 99.0541 259.847C99.5667 259.512 99.2324 258.754 98.6307 258.977C89.6055 262.301 80.4912 266.45 71.6889 270.332C71.1986 270.555 71.4437 271.38 71.9786 271.246V271.224Z" fill="white"/>
<path d="M80.5357 272.942C91.9676 270.51 106.831 266.696 112.915 255.586C113.205 255.051 112.558 254.604 112.157 255.051C103.288 264.822 92.7476 268.369 80.3797 271.96C79.7781 272.139 79.9118 273.053 80.558 272.92L80.5357 272.942Z" fill="white"/>
<path d="M86.6417 277.069C89.405 276.734 92.5916 276.734 95.1766 275.663C95.6891 275.44 95.5332 274.66 94.9983 274.615C92.2128 274.392 89.1598 275.396 86.4411 275.931C85.7057 276.087 85.9063 277.158 86.6417 277.069Z" fill="white"/>
<path d="M100.28 274.035C109.639 269.908 118.932 262.702 123.567 253.378C123.812 252.887 123.054 252.552 122.742 252.954C116.146 261.408 109.595 268.279 99.7895 273.031C99.1433 273.343 99.6113 274.325 100.258 274.035H100.28Z" fill="white"/>
<path d="M100.191 278.876C113.494 276.087 126.107 267.32 131.678 254.582C131.901 254.091 131.144 253.69 130.832 254.136C123.233 265.714 113.584 274.147 100.012 277.872C99.4106 278.028 99.5443 278.987 100.191 278.854V278.876Z" fill="white"/>
<path d="M110.352 280.036C114.319 279.233 118.776 277.805 121.561 274.704C121.873 274.347 121.383 273.857 121.004 274.035C117.35 275.82 114.185 278.073 110.219 279.188C109.706 279.344 109.817 280.125 110.374 280.014L110.352 280.036Z" fill="white"/>
<path d="M123.188 273.098C129.918 267.699 136.537 259.668 138.654 251.147C138.765 250.656 138.074 250.165 137.785 250.701C133.328 258.865 129.428 265.892 122.564 272.384C122.119 272.808 122.698 273.5 123.188 273.12V273.098Z" fill="white"/>
<path d="M120.091 280.46C132.815 274.86 143.801 261.899 147.055 248.358C147.189 247.823 146.475 247.533 146.253 248.068C140.303 261.966 132.414 271.514 119.734 279.701C119.288 279.991 119.578 280.705 120.091 280.46Z" fill="white"/>
<path d="M127.378 280.75C130.342 280.437 134.018 278.809 135.177 275.82C135.356 275.351 134.776 274.994 134.42 275.284C133.372 276.11 132.503 277.136 131.389 277.894C130.141 278.742 128.67 279.411 127.222 279.768C126.62 279.924 126.776 280.772 127.4 280.727L127.378 280.75Z" fill="white"/>
<path d="M139.188 273.321C147.456 265.714 155.166 256.211 158.776 245.413C158.932 244.967 158.264 244.566 158.019 245.012C152.448 255.207 147.01 264.442 138.587 272.63C138.163 273.031 138.743 273.723 139.166 273.321H139.188Z" fill="white"/>
<path d="M136.225 280.884C149.751 274.972 161.562 261.431 164.971 246.975C165.105 246.395 164.347 246.083 164.102 246.663C157.952 261.431 149.595 271.737 135.846 280.081C135.355 280.371 135.69 281.151 136.247 280.906L136.225 280.884Z" fill="white"/>
<path d="M149.372 275.686C151.066 275.083 152.737 274.526 154.342 273.745C154.72 273.567 154.542 272.897 154.096 273.009C152.314 273.455 150.642 274.147 148.927 274.793C148.325 275.017 148.748 275.909 149.35 275.708L149.372 275.686Z" fill="white"/>
<path d="M158.732 269.506C164.659 263.639 169.985 256.456 172.37 248.336C172.526 247.823 171.835 247.577 171.612 248.046C167.868 255.675 164.058 262.613 158.13 268.793C157.729 269.216 158.308 269.908 158.709 269.484L158.732 269.506Z" fill="white"/>
<path d="M159.89 273.99C167.957 267.677 175.267 259.758 179.813 250.5C180.036 250.054 179.322 249.697 179.055 250.098C173.217 258.62 167.155 266.472 159.289 273.254C158.821 273.656 159.422 274.37 159.913 273.99H159.89Z" fill="white"/>
<path d="M167.311 273.477C174.509 266.986 182.398 259.535 187.434 251.169C187.679 250.745 187.144 250.165 186.765 250.544C179.813 257.638 173.774 265.692 166.776 272.83C166.397 273.21 166.91 273.834 167.311 273.477Z" fill="white"/>
<path d="M176.827 269.819C179.545 266.339 182.621 263.126 186.008 260.293C189.128 257.683 192.715 255.765 195.947 253.333C196.392 252.998 195.902 252.418 195.456 252.574C187.501 255.296 180.726 262.569 176.024 269.283C175.668 269.796 176.448 270.332 176.827 269.841V269.819Z" fill="white"/>
<path d="M185.54 265.937C189.908 262.457 194.699 260.449 199.557 257.861C199.98 257.638 199.802 256.902 199.289 257.014C193.919 258.085 188.949 261.632 184.894 265.156C184.403 265.58 185.05 266.339 185.562 265.937H185.54Z" fill="white"/>
<path d="M192.448 266.718C195.947 264.465 200.114 262.345 203.144 259.468C203.568 259.066 203.144 258.375 202.587 258.62C198.732 260.36 195.189 263.439 191.713 265.87C191.111 266.294 191.846 267.119 192.448 266.718Z" fill="white"/>
<path d="M196.526 268.592C200.604 267.343 205.128 264.554 207.445 260.873C207.735 260.405 207.178 259.869 206.732 260.226C205.128 261.542 203.724 263.037 202.03 264.242C200.203 265.558 198.22 266.584 196.214 267.566C195.702 267.811 195.947 268.748 196.526 268.569V268.592Z" fill="white"/>
<path d="M204.08 268.993C207.646 267.945 212.303 265.29 213.529 261.475C213.685 261.029 213.106 260.538 212.727 260.918C211.39 262.212 210.431 263.818 208.961 265.022C207.401 266.294 205.64 267.276 203.768 267.967C203.189 268.19 203.501 269.172 204.103 268.993H204.08Z" fill="white"/>
<path d="M210.922 269.863C214.42 269.06 217.629 266.428 218.365 262.792C218.476 262.212 217.652 262.145 217.429 262.569C215.98 265.446 213.885 267.789 210.721 268.748C210.053 268.949 210.209 270.02 210.922 269.841V269.863Z" fill="white"/>
<path d="M218.164 252.106C212.927 242.58 211.234 232.207 213.195 221.499C213.395 220.428 211.702 220.272 211.501 221.343C209.518 232.296 211.278 243.093 216.627 252.842C217.161 253.801 218.699 253.065 218.164 252.106Z" fill="white"/>
<path d="M209.206 242.803C208.27 237.673 207.98 232.675 207.423 227.522C207.356 226.92 206.532 227.054 206.443 227.567C205.462 232.564 206.487 238.409 208.337 243.093C208.537 243.584 209.295 243.317 209.206 242.826V242.803Z" fill="white"/>
<path d="M213.93 214.583C222.487 192.03 222.733 165.037 211.858 143.152C211.412 142.26 210.186 142.907 210.498 143.799C218.922 167.602 220.794 189.933 213.061 214.271C212.883 214.851 213.73 215.163 213.93 214.606V214.583Z" fill="white"/>
<path d="M213.15 199.592C214.755 193.859 216.203 187.479 215.245 181.5C215.156 180.987 214.398 181.032 214.354 181.545C213.752 187.546 213.819 193.368 212.37 199.302C212.237 199.838 213.017 200.128 213.173 199.592H213.15Z" fill="white"/>
<path d="M214.242 174.741C213.663 165.461 211.992 155.065 207.579 146.744C207.245 146.119 206.086 146.387 206.309 147.145C209.005 156.493 212.036 165.171 213.306 174.897C213.395 175.499 214.265 175.321 214.22 174.741H214.242Z" fill="white"/>
<path d="M206.777 220.807C207.802 215.453 209.05 210.033 209.696 204.612C209.741 204.143 208.983 203.942 208.872 204.433C207.601 209.787 206.888 215.32 206.019 220.74C205.93 221.231 206.688 221.298 206.777 220.807Z" fill="white"/>
<path d="M208.782 195.376C210.03 178.6 207.445 162.449 200.76 146.967C200.337 146.008 198.844 146.699 199.267 147.681C205.863 162.85 208.894 178.756 208.047 195.309C208.025 195.778 208.738 195.867 208.782 195.376Z" fill="white"/>
<path d="M203.033 173.402C202.654 164.568 200.359 156.403 195.791 148.819C195.256 147.926 193.763 148.618 194.32 149.51C198.777 156.894 201.518 164.947 202.186 173.558C202.231 174.116 203.078 173.96 203.055 173.402H203.033Z" fill="white"/>
<path d="M49.7165 270.064C50.8307 271.47 51.9003 272.987 53.1482 274.258C53.4602 274.593 53.9282 274.169 53.6831 273.812C52.7026 272.317 51.4323 270.956 50.2958 269.573C49.9839 269.194 49.4045 269.685 49.7165 270.064Z" fill="white"/>
<path d="M53.6831 268.257C54.931 270.488 56.8029 272.362 59.1873 273.343C59.5884 273.5 59.9227 272.897 59.5439 272.674C57.516 271.403 55.7778 269.908 54.463 267.9C54.1733 267.432 53.3934 267.766 53.6831 268.279V268.257Z" fill="white"/>
<path d="M57.7389 266.696C59.9673 269.239 62.1512 272.094 64.7807 274.236C65.1819 274.548 65.583 273.99 65.3379 273.611C63.4437 270.845 60.7696 268.503 58.452 266.093C58.0509 265.669 57.3378 266.249 57.7389 266.696Z" fill="white"/>
<path d="M61.0368 262.122C61.5717 263.282 62.0842 264.554 62.931 265.513C63.1761 265.803 63.7555 265.58 63.6441 265.179C63.2876 263.929 62.5299 262.814 61.8614 261.721C61.5494 261.23 60.7694 261.565 61.0368 262.122Z" fill="white"/>
<path d="M66.5189 268.77C67.8114 270.666 69.6833 272.987 71.8894 273.857C72.246 273.99 72.6248 273.522 72.3351 273.232C71.4883 272.384 70.4409 271.76 69.5718 270.934C68.7028 270.109 67.9005 269.194 67.1874 268.235C66.8532 267.789 66.2292 268.346 66.5412 268.793L66.5189 268.77Z" fill="white"/>
<path d="M68.0342 262.747C71.9563 267.253 75.9675 271.804 80.3129 275.909C80.6695 276.244 81.2266 275.797 80.8923 275.418C77.1263 270.778 72.8922 266.428 68.7028 262.167C68.3016 261.765 67.6331 262.301 68.0119 262.747H68.0342Z" fill="white"/>
<path d="M77.1708 264.152C79.8226 268.793 83.767 273.767 88.6918 276.132C89.1821 276.377 89.4495 275.641 89.1152 275.329C87.0874 273.544 84.8812 272.05 83.0093 270.086C81.1597 268.146 79.533 265.982 78.129 263.684C77.7948 263.126 76.8588 263.55 77.1931 264.13L77.1708 264.152Z" fill="white"/>
<path d="M83.9453 265.892C88.313 270.31 92.547 274.95 97.2268 279.032C97.561 279.322 98.0513 278.787 97.7616 278.452C93.7058 273.812 89.0707 269.618 84.6807 265.29C84.2573 264.866 83.5442 265.469 83.9676 265.892H83.9453Z" fill="white"/>
<path d="M92.7031 267.075C96.38 272.407 101.728 277.56 107.589 280.415C108.035 280.638 108.369 279.947 107.99 279.657C102.53 275.664 97.717 271.76 93.3939 266.495C93.015 266.026 92.3688 266.606 92.7031 267.075Z" fill="white"/>
<path d="M99.3216 266.116C104.224 271.782 109.795 277.56 116.102 281.664C116.637 281.999 117.082 281.285 116.637 280.884C111.021 275.797 105.272 271.046 100.102 265.446C99.6559 264.978 98.8982 265.602 99.3216 266.116Z" fill="white"/>
<path d="M101.773 259.155C103.221 260.806 104.647 262.502 106.23 264.063C106.586 264.398 107.121 263.952 106.809 263.572C105.45 261.832 103.957 260.204 102.486 258.575C102.085 258.129 101.372 258.732 101.773 259.178V259.155Z" fill="white"/>
<path d="M108.971 268.123C113.606 273.254 118.932 278.497 124.904 282.044C125.372 282.311 125.773 281.709 125.372 281.352C120.091 276.734 114.609 272.518 109.661 267.521C109.26 267.119 108.57 267.677 108.971 268.101V268.123Z" fill="white"/>
<path d="M114.653 263.684C119.021 271.581 126.13 278.921 134.754 282.066C135.177 282.222 135.556 281.575 135.133 281.33C126.976 276.712 120.313 271.492 115.455 263.305C115.166 262.814 114.363 263.171 114.631 263.684H114.653Z" fill="white"/>
<path d="M125.35 265.223C129.116 271.737 135.601 277.939 143.2 279.456C143.734 279.567 143.824 278.787 143.4 278.586C136.269 275.307 130.431 271.715 126.308 264.777C125.951 264.197 125.015 264.643 125.35 265.223Z" fill="white"/>
<path d="M133.996 265.022C138.676 270.443 144.692 275.82 151.511 278.318C151.979 278.497 152.358 277.805 151.913 277.537C145.584 273.611 139.79 270.042 134.709 264.42C134.308 263.974 133.595 264.576 133.996 265.022Z" fill="white"/>
<path d="M141.372 262.39C146.564 267.878 152.514 273.388 159.267 276.89C159.712 277.114 160.024 276.422 159.668 276.132C153.562 271.492 147.523 267.276 142.13 261.765C141.684 261.319 140.949 261.944 141.372 262.39Z" fill="white"/>
<path d="M150.999 261.765C155.411 266.026 160.559 270.778 166.264 273.21C166.732 273.41 167.044 272.741 166.665 272.451C164.214 270.488 161.428 268.971 158.91 267.075C156.392 265.179 153.985 263.171 151.645 261.074C151.244 260.717 150.62 261.386 150.999 261.765Z" fill="white"/>
<path d="M161.072 262.412C163.969 265.937 168.024 270.198 172.437 271.715C172.949 271.893 173.261 271.224 172.86 270.89C171.1 269.439 169.005 268.369 167.222 266.919C165.283 265.335 163.523 263.595 161.919 261.676C161.451 261.118 160.604 261.832 161.072 262.412Z" fill="white"/>
<path d="M166.754 259.802C169.606 263.149 173.261 266.539 177.495 268.012C177.941 268.168 178.297 267.543 177.896 267.276C174.175 264.732 170.632 262.546 167.601 259.111C167.133 258.575 166.286 259.289 166.754 259.825V259.802Z" fill="white"/>
<path d="M173.774 259.535C176.582 261.989 179.345 264.844 182.487 266.874C182.888 267.142 183.423 266.606 183.066 266.227C180.548 263.416 177.272 261.096 174.375 258.687C173.863 258.263 173.283 259.111 173.774 259.535Z" fill="white"/>
<path d="M29.1703 185.716C28.7469 183.686 29.1481 181.835 29.5937 179.849C29.6829 179.403 29.0144 179.202 28.7915 179.559C27.5436 181.456 27.5881 183.798 28.1898 185.895C28.3681 186.52 29.3263 186.363 29.1926 185.716H29.1703Z" fill="white"/>
<path d="M30.2844 173.112C30.485 168.517 32.2455 164.167 35.187 160.642C35.7441 159.973 34.6299 159.192 34.0728 159.861C30.9084 163.676 29.3708 168.071 29.3931 173.023C29.3931 173.581 30.2622 173.692 30.2844 173.112Z" fill="white"/>
<path d="M36.7023 188.17C36.524 179.046 38.953 171.238 42.0283 162.784C42.2511 162.181 41.3597 161.668 41.0032 162.248C36.4795 169.9 35.343 179.492 35.8332 188.215C35.8555 188.706 36.7246 188.683 36.7246 188.17H36.7023Z" fill="white"/>
<path d="M43.5215 181.188C43.6775 177.373 44.034 173.625 45.126 169.945C46.1065 166.621 47.8001 163.743 49.1372 160.575C49.3823 159.995 48.5801 159.683 48.2235 160.107C43.5884 165.55 41.8725 174.272 42.385 181.255C42.4296 181.902 43.4992 181.857 43.5215 181.21V181.188Z" fill="white"/>
<path d="M51.7666 175.678C51.4547 170.525 53.0146 166.286 54.619 161.49C54.7973 160.932 54.0619 160.53 53.7054 160.999C50.5856 165.081 50.0285 170.926 50.5187 175.879C50.6079 176.704 51.8112 176.459 51.7666 175.655V175.678Z" fill="white"/>
<path d="M59.0091 178.89C58.4743 171.796 60.0788 165.081 63.0649 158.679C63.466 157.809 62.1289 157.363 61.6833 158.166C58.2737 164.68 57.3378 171.796 58.1846 179.024C58.2515 179.559 59.0314 179.403 59.0091 178.89Z" fill="white"/>
<path d="M66.0731 173.692C65.9617 170.681 66.2291 167.691 67.0313 164.791C67.7667 162.137 69.2821 159.906 70.1512 157.34C70.3071 156.872 69.7278 156.381 69.3266 156.76C65.0926 160.754 64.2458 168.294 64.8698 173.759C64.9366 174.428 66.0954 174.406 66.0731 173.715V173.692Z" fill="white"/>
<path d="M73.7613 176.659C73.6276 175.633 73.6053 174.629 73.7613 173.603C73.895 172.666 74.2738 171.796 74.363 170.859C74.4076 170.368 73.7836 170.168 73.4939 170.547C72.246 172.175 72.3574 174.942 72.6694 176.86C72.7808 177.574 73.8727 177.373 73.7613 176.659Z" fill="white"/>
<path d="M75.6777 166.621C77.7501 161.624 80.6694 156.27 81.7613 150.96C81.8505 150.514 81.1596 150.269 80.9368 150.648C78.129 155.288 76.6136 161.2 74.7417 166.264C74.5189 166.866 75.4326 167.201 75.6777 166.621Z" fill="white"/>
<path d="M81.1374 175.7C83.0984 166.799 86.9759 159.75 91.5219 151.986C91.8562 151.406 91.1208 150.916 90.6974 151.406C84.8143 157.876 81.5385 167.134 80.0678 175.611C79.9564 176.302 80.9814 176.369 81.1374 175.722V175.7Z" fill="white"/>
<path d="M90.274 173.67C92.3019 164.568 96.3354 157.251 100.725 149.131C101.037 148.551 100.324 148.06 99.9009 148.551C93.9064 155.31 90.6528 164.814 89.0484 173.558C88.8924 174.362 90.118 174.428 90.274 173.67Z" fill="white"/>
<path d="M100.258 166.71C102.798 160.352 106.096 153.704 107.611 147.012C107.723 146.543 106.965 146.275 106.742 146.699C103.4 152.7 101.416 159.839 99.0542 166.286C98.7645 167.044 99.9455 167.491 100.235 166.732L100.258 166.71Z" fill="white"/>
<path d="M108.347 167.491C110.954 160.932 113.74 154.373 115.834 147.614C116.013 147.012 115.188 146.722 114.943 147.279C111.979 153.704 109.639 160.441 107.188 167.044C106.898 167.803 108.057 168.227 108.347 167.468V167.491Z" fill="white"/>
<path d="M115.077 169.119C116.681 166.554 118.687 163.921 119.734 161.066C119.935 160.486 119.199 160.196 118.843 160.597C116.859 162.828 115.522 165.818 114.052 168.405C113.673 169.097 114.631 169.811 115.077 169.119Z" fill="white"/>
<path d="M122.23 155.11C123.032 152.589 124.191 149.912 124.503 147.279C124.57 146.744 123.879 146.677 123.656 147.079C122.453 149.399 121.94 152.232 121.183 154.73C120.982 155.4 122.007 155.801 122.23 155.11Z" fill="white"/>
<path d="M125.862 166.799C128.514 161.378 131.099 155.511 132.013 149.488C132.102 148.952 131.277 148.774 131.099 149.287C129.004 155.043 127.422 160.82 124.837 166.42C124.547 167.067 125.55 167.424 125.862 166.799Z" fill="white"/>
<path d="M133.506 164.903C135.066 160.107 137.116 155.154 137.94 150.157C138.03 149.622 137.272 149.532 137.071 149.956C134.954 154.507 133.885 159.727 132.481 164.524C132.28 165.193 133.283 165.572 133.506 164.903Z" fill="white"/>
<path d="M140.726 164.613C141.773 159.549 142.977 154.373 143.289 149.22C143.311 148.707 142.553 148.484 142.397 149.019C140.927 154.039 140.303 159.348 139.567 164.501C139.456 165.26 140.592 165.349 140.748 164.613H140.726Z" fill="white"/>
<path d="M146.208 169.677C147.5 167.535 148.347 164.97 147.746 162.449C147.634 161.936 146.854 161.936 146.81 162.494C146.587 164.769 146.342 166.955 145.227 169.008C144.871 169.655 145.785 170.346 146.186 169.677H146.208Z" fill="white"/>
<path d="M148.392 157.474C148.704 155.02 149.439 152.187 149.127 149.711C149.06 149.242 148.37 149.198 148.236 149.622C147.411 151.964 147.523 154.886 147.278 157.363C147.211 158.077 148.303 158.188 148.392 157.474Z" fill="white"/>
<path d="M155.679 169.275C157.216 162.94 157.863 155.645 155.723 149.354C155.523 148.752 154.698 149.131 154.743 149.666C155.233 156.292 155.835 162.427 154.631 169.03C154.52 169.61 155.523 169.855 155.657 169.275H155.679Z" fill="white"/>
<path d="M164.927 166.286C164.882 160.419 165.261 154.15 164.258 148.35C164.147 147.748 163.255 147.792 163.189 148.395C162.565 154.239 163.345 160.486 163.679 166.331C163.723 167.022 164.927 167 164.927 166.286Z" fill="white"/>
<path d="M174.286 171.216C175.244 168.695 175.556 165.884 174.799 163.297C174.665 162.828 173.885 162.761 173.863 163.341C173.751 165.929 173.64 168.428 173.127 170.971C172.994 171.64 174.041 171.863 174.286 171.238V171.216Z" fill="white"/>
<path d="M175.022 158.143C174.42 153.972 174.219 149.376 172.86 145.383C172.704 144.937 171.946 145.071 171.924 145.539C171.857 149.756 173.083 154.217 173.796 158.367C173.93 159.147 175.133 158.947 175.022 158.143Z" fill="white"/>
<path d="M185.116 173.224C186.164 164.524 185.807 154.82 182.064 146.766C181.818 146.253 180.972 146.499 181.105 147.079C182.999 155.935 184.738 163.966 184.114 173.135C184.069 173.782 185.05 173.871 185.116 173.224Z" fill="white"/>
<path d="M194.654 174.652C195.167 166.197 193.763 156.604 189.507 149.176C189.172 148.573 188.37 148.997 188.571 149.622C191.312 158.099 193.362 165.572 193.562 174.54C193.562 175.232 194.61 175.365 194.654 174.652Z" fill="white"/>
<path d="M7.13103 124.569C4.30091 132.266 5.12544 142.773 9.80516 149.622C10.1394 150.135 11.0977 149.689 10.9194 149.109C9.76059 145.361 8.24525 141.814 7.73271 137.91C7.15331 133.493 7.64357 129.21 8.13383 124.815C8.20068 124.235 7.35387 124.034 7.13103 124.592V124.569Z" fill="white"/>
<path d="M11.3204 131.954C9.53769 138.021 9.87196 145.517 13.2592 151.005C13.5266 151.451 14.3734 151.295 14.2174 150.692C12.5684 144.312 11.677 138.869 12.6352 132.244C12.7466 131.485 11.5433 131.195 11.3204 131.954Z" fill="white"/>
<path d="M16.535 137.709C15.3539 142.26 15.7104 147.859 18.34 151.853C18.6297 152.276 19.3651 151.897 19.2537 151.429C18.1394 146.766 17.3372 142.84 17.7606 137.999C17.8275 137.308 16.7355 137.018 16.535 137.731V137.709Z" fill="white"/>
<path d="M22.4404 144.402C21.9056 147.413 22.3067 151.808 24.6466 154.039C24.9809 154.351 25.6717 154.15 25.538 153.615C25.1814 152.165 24.446 150.871 24.1118 149.399C23.7329 147.792 23.6884 146.164 23.7775 144.513C23.8221 143.665 22.6187 143.554 22.4627 144.379L22.4404 144.402Z" fill="white"/>
<path d="M27.6771 146.789C27.3429 150.536 28.7914 154.998 32.3123 156.805C32.758 157.028 33.1368 156.381 32.8471 156.046C30.4627 153.303 28.6799 150.715 28.9474 146.9C28.9919 146.097 27.7663 145.963 27.6994 146.789H27.6771Z" fill="white"/>
<path d="M33.6048 149.131C33.5602 151.005 33.9167 152.856 34.8304 154.507C35.5881 155.89 36.836 157.742 38.4405 158.121C38.953 158.233 39.2873 157.764 38.9976 157.318C38.1508 156.046 36.9029 155.266 36.1452 153.883C35.3652 152.455 34.9641 150.893 34.9641 149.265C34.9641 148.395 33.627 148.261 33.6048 149.131Z" fill="white"/>
<path d="M40.8695 150.715C40.2679 154.396 43.2763 158.679 47.2429 158.233C47.6663 158.188 47.7554 157.474 47.332 157.363C44.2791 156.626 41.7164 154.195 42.162 150.849C42.2735 150.023 41.0255 149.912 40.8918 150.737L40.8695 150.715Z" fill="white"/>
<path d="M47.332 150.693C48.1119 152.656 49.8056 155.533 52.0563 155.98C52.502 156.069 52.6802 155.511 52.4574 155.199C51.8557 154.351 50.8975 153.771 50.2067 152.99C49.4713 152.143 48.8919 151.183 48.4685 150.135C48.1565 149.376 47.02 149.934 47.332 150.67V150.693Z" fill="white"/>
<path d="M53.2819 151.339C54.1956 153.414 56.5354 155.98 59.0313 155.801C59.477 155.779 59.6107 155.087 59.2319 154.864C58.3405 154.329 57.36 154.106 56.5132 153.459C55.5772 152.767 54.8641 151.875 54.3516 150.826C54.0173 150.135 52.9922 150.648 53.2819 151.339Z" fill="white"/>
<path d="M59.9673 150.291C61.1484 152.455 64.1122 154.753 66.7195 153.749C67.0983 153.593 67.0761 152.946 66.6749 152.834C65.6944 152.566 64.6916 152.522 63.7334 152.098C62.6192 151.607 61.6832 150.782 61.0593 149.756C60.6582 149.109 59.5885 149.577 59.9673 150.269V150.291Z" fill="white"/>
<path d="M66.0288 147.525C66.5636 149.109 67.8561 150.291 69.4383 150.826C70.7531 151.273 72.7809 151.384 73.7392 150.179C74.0511 149.778 73.6277 149.332 73.2266 149.376C71.9787 149.466 71.0428 149.934 69.7725 149.488C68.5469 149.064 67.6555 148.172 67.2098 146.967C66.9201 146.164 65.7614 146.744 66.0288 147.525Z" fill="white"/>
<path d="M70.9089 145.829C73.0482 147.837 76.5469 149.109 79.2879 147.502C79.7781 147.212 79.5553 146.521 78.9982 146.565C76.2795 146.833 73.9396 146.766 71.778 144.87C71.2432 144.402 70.3964 145.316 70.9312 145.807L70.9089 145.829Z" fill="white"/>
<path d="M77.7502 144.022C79.3101 145.138 82.363 146.588 84.2572 145.562C84.636 145.361 84.6583 144.758 84.2126 144.602C83.3658 144.312 82.4299 144.468 81.5608 144.312C80.4243 144.112 79.3992 143.643 78.4633 143.018C77.7947 142.572 77.1039 143.576 77.7502 144.045V144.022Z" fill="white"/>
<path d="M85.4605 142.929C86.6193 143.197 87.8227 143.643 89.026 143.621C89.5609 143.621 89.7168 142.952 89.2266 142.706C88.1569 142.171 86.8867 142.015 85.7279 141.769C85.0817 141.613 84.8143 142.773 85.4605 142.929Z" fill="white"/>
<path d="M91.3436 141.903C92.5247 142.193 93.6835 142.505 94.9091 142.572C95.444 142.595 95.5999 141.881 95.1097 141.68C93.9732 141.189 92.8144 140.966 91.611 140.721C90.9425 140.587 90.6528 141.747 91.3436 141.903Z" fill="white"/>
<path d="M117.417 146.922C119.623 144.602 122.029 142.349 123.99 139.806C124.258 139.449 123.745 139.003 123.411 139.293C121.027 141.39 118.954 143.888 116.793 146.186C116.369 146.632 116.993 147.369 117.417 146.922Z" fill="white"/>
<path d="M122.72 146.766C124.659 143.955 126.843 141.189 128.469 138.178C128.737 137.687 128.135 137.263 127.779 137.687C125.572 140.297 123.79 143.331 121.896 146.186C121.539 146.744 122.364 147.324 122.742 146.766H122.72Z" fill="white"/>
<path d="M126.932 146.632C128.336 145.071 129.74 143.509 131.144 141.925C132.503 140.386 134.085 138.869 135.155 137.084C135.422 136.661 134.91 136.147 134.486 136.482C132.926 137.731 131.679 139.427 130.364 140.921C128.915 142.595 127.467 144.29 126.041 145.963C125.573 146.499 126.486 147.123 126.954 146.588L126.932 146.632Z" fill="white"/>
<path d="M132.859 145.606C133.929 143.777 135.11 142.037 136.47 140.408C137.807 138.78 139.433 137.397 140.681 135.724C140.949 135.344 140.503 134.742 140.08 135.01C136.536 137.174 133.929 141.457 131.99 145.004C131.656 145.606 132.525 146.231 132.882 145.629L132.859 145.606Z" fill="white"/>
<path d="M138.698 146.03C141.238 141.1 144.737 137.196 148.169 132.913C148.503 132.489 147.902 131.998 147.5 132.31C143.088 135.634 139.946 140.743 137.562 145.628C137.205 146.342 138.342 146.722 138.698 146.052V146.03Z" fill="white"/>
<path d="M143.957 145.316C147.144 140.698 150.754 136.058 153.272 131.017C153.539 130.481 152.737 130.147 152.403 130.548C148.815 134.787 145.985 139.962 143.044 144.647C142.665 145.272 143.556 145.896 143.979 145.294L143.957 145.316Z" fill="white"/>
<path d="M150.464 144.112C153.539 139.271 156.882 134.474 159.4 129.321C159.645 128.83 158.888 128.473 158.576 128.897C155.144 133.426 152.403 138.557 149.484 143.42C149.105 144.067 150.041 144.758 150.464 144.112Z" fill="white"/>
<path d="M154.743 144C158.264 138.847 162.164 133.292 164.258 127.38C164.437 126.912 163.746 126.533 163.456 126.956C159.957 132.221 157.261 138.021 153.807 143.353C153.406 143.955 154.319 144.602 154.721 144H154.743Z" fill="white"/>
<path d="M161.005 140.81C164.793 136.304 168.203 131.106 169.941 125.44C170.119 124.859 169.339 124.614 169.072 125.127C166.353 130.392 163.723 135.478 160.091 140.185C159.645 140.765 160.559 141.368 161.005 140.832V140.81Z" fill="white"/>
<path d="M57.4714 88.4301C59.2541 90.817 60.3906 93.3156 61.75 95.9256C61.9505 96.3049 62.5968 96.1264 62.4854 95.6803C61.8837 92.8248 60.0786 90.0139 58.1622 87.8277C57.7833 87.3816 57.1371 87.9393 57.4714 88.4078V88.4301Z" fill="white"/>
<path d="M60.7918 83.9684C62.5523 88.0508 64.803 92.4232 67.388 96.0149C67.6777 96.4164 68.2348 95.9926 68.0788 95.5687C66.4298 91.4417 63.9339 87.2031 61.4381 83.5445C61.1707 83.1653 60.6136 83.5668 60.7918 83.9684Z" fill="white"/>
<path d="M63.7334 78.079C66.5413 84.1915 69.3937 90.6609 72.9369 96.3718C73.2266 96.8403 73.9174 96.528 73.7168 95.9926C71.2433 89.7462 67.7446 83.6115 64.4911 77.7221C64.2237 77.2536 63.5106 77.5882 63.7334 78.079Z" fill="white"/>
<path d="M67.009 73.8404C68.569 75.3797 69.3266 77.3205 69.6386 79.4621C69.7055 79.9083 70.4186 79.886 70.4408 79.4398C70.5968 77.0305 69.5049 74.822 67.789 73.1935C67.321 72.7473 66.5411 73.3943 67.009 73.8627V73.8404Z" fill="white"/>
<path d="M72.6471 83.5892C74.9424 88.0954 77.1709 92.624 79.5999 97.041C79.8896 97.5541 80.7141 97.1749 80.4467 96.6395C78.1737 92.1332 75.7447 87.6939 73.3602 83.2545C73.1374 82.8307 72.4466 83.143 72.6694 83.5892H72.6471Z" fill="white"/>
<path d="M74.9425 79.306C78.5525 85.1284 81.5832 91.3747 85.3047 97.0857C85.5721 97.5095 86.1738 97.041 86.0178 96.6395C83.4997 90.3709 79.4439 84.4369 75.7224 78.8152C75.4327 78.3913 74.675 78.8598 74.9425 79.306Z" fill="white"/>
<path d="M82.5859 81.626C85.8172 87.0916 88.3353 92.8917 91.4328 98.4019C91.6557 98.8034 92.4133 98.6472 92.2574 98.1342C90.43 92.1332 86.8645 86.2884 83.4104 81.0906C83.0985 80.6221 82.2962 81.1352 82.5859 81.626Z" fill="white"/>
<path d="M87.7113 79.7521C90.118 84.8161 92.4802 90.3263 95.6223 94.9887C95.912 95.4349 96.5137 94.9441 96.3577 94.5202C94.4189 89.3224 91.2991 84.1915 88.6027 79.3506C88.313 78.8152 87.4439 79.1944 87.7336 79.7744L87.7113 79.7521Z" fill="white"/>
<path d="M90.9203 76.2943C93.1487 81.0237 95.2212 86.1323 98.029 90.527C98.341 90.9955 99.0318 90.6832 98.8312 90.1478C97.0485 85.24 94.2406 80.4883 91.8339 75.8705C91.5442 75.3128 90.6529 75.7143 90.9203 76.2943Z" fill="white"/>
<path d="M95.1767 77.0751C96.1349 78.2352 96.9817 79.4844 97.6948 80.8229C98.3411 82.0276 98.6976 83.433 99.4107 84.593C99.6781 85.0169 100.28 84.8384 100.235 84.3253C100.012 81.5145 97.7394 78.4806 95.9121 76.4505C95.4887 75.982 94.7755 76.5844 95.1767 77.0751Z" fill="white"/>
<path d="M98.4524 76.0712C99.2992 77.789 100.079 79.6183 101.193 81.1798C101.505 81.6037 102.062 81.1352 101.929 80.7114C101.327 78.9267 100.28 77.2759 99.366 75.6474C99.054 75.0897 98.1627 75.4912 98.4524 76.0936V76.0712Z" fill="white"/>
<path d="M115.834 92.6686C116.458 93.5386 117.038 94.5648 117.461 95.5464C117.885 96.461 118.041 97.5095 118.531 98.4019C118.754 98.8257 119.4 98.7365 119.444 98.2457C119.734 95.9926 118.018 93.561 116.547 92.0663C116.102 91.6201 115.433 92.1778 115.812 92.6909L115.834 92.6686Z" fill="white"/>
<path d="M117.416 88.207C118.709 91.2632 119.935 94.8325 121.851 97.5541C122.096 97.9111 122.72 97.5988 122.631 97.1972C121.807 93.9848 119.868 90.7278 118.397 87.7608C118.085 87.1362 117.171 87.5823 117.439 88.2293L117.416 88.207Z" fill="white"/>
<path d="M120.625 85.6192C122.319 89.2778 123.99 93.1371 126.174 96.528C126.442 96.9518 126.999 96.4833 126.865 96.0818C125.483 92.334 123.433 88.7201 121.517 85.1953C121.205 84.6376 120.358 85.0392 120.625 85.6192Z" fill="white"/>
<path d="M124.013 80.3545C125.639 84.5484 127.222 89.0101 129.428 92.914C129.651 93.2933 130.386 93.1371 130.23 92.6686C128.915 88.3185 126.776 84.0576 124.837 79.9752C124.592 79.4398 123.79 79.8191 124.013 80.3768V80.3545Z" fill="white"/>
<path d="M127.244 75.982C130.341 81.3137 132.57 86.7792 134.375 92.6686C134.509 93.0925 135.177 93.0255 135.088 92.5348C133.996 86.4223 131.478 80.5998 128.068 75.4243C127.756 74.9558 126.954 75.4689 127.244 75.9597V75.982Z" fill="white"/>
<path d="M132.013 71.6988C134.62 78.6813 137.383 85.7754 140.681 92.4679C140.904 92.914 141.528 92.6017 141.372 92.1332C138.966 85.0615 135.957 78.079 132.882 71.2973C132.637 70.7396 131.812 71.1411 132.035 71.6988H132.013Z" fill="white"/>
<path d="M135.489 67.4603C136.403 68.0626 136.581 68.9103 137.027 69.8026C137.183 70.1373 137.762 70.1596 137.873 69.758C138.297 68.3526 137.138 67.1033 135.935 66.5902C135.422 66.3672 135.021 67.1479 135.489 67.4379V67.4603Z" fill="white"/>
<path d="M139.077 74.7551C142.419 80.466 145.138 86.3554 147.879 92.3786C148.147 92.9586 148.971 92.5348 148.748 91.9548C146.475 85.82 143.289 79.9306 139.857 74.3758C139.567 73.9074 138.765 74.2643 139.055 74.7551H139.077Z" fill="white"/>
<path d="M139.523 60.3439C144.002 70.6503 148.86 80.8006 154.074 90.7724C154.431 91.4417 155.478 90.9509 155.122 90.2593C149.952 80.2652 145.004 70.1819 140.236 59.987C140.013 59.5185 139.3 59.8531 139.5 60.3216L139.523 60.3439Z" fill="white"/>
<path d="M144.425 54.2091C145.495 56.2392 146.609 58.3362 148.013 60.1654C148.325 60.567 148.904 60.1431 148.726 59.7193C147.857 57.6446 146.587 55.6592 145.383 53.7853C145.027 53.2499 144.113 53.6291 144.448 54.2314L144.425 54.2091Z" fill="white"/>
<path d="M151.422 68.531C155.055 75.7589 158.821 83.1207 163.59 89.6793C163.857 90.0585 164.503 89.6347 164.28 89.2331C160.403 82.1168 156.035 75.2905 152.225 68.1518C151.957 67.661 151.177 68.018 151.445 68.531H151.422Z" fill="white"/>
<path d="M155.478 62.4409C158.843 69.0888 161.941 75.8705 165.283 82.5184C165.506 82.9645 166.13 82.6522 165.952 82.206C163.434 75.2459 159.98 68.4641 156.303 62.0617C156.013 61.5709 155.233 61.9278 155.478 62.4409Z" fill="white"/>
<path d="M162.431 65.5864C163.389 67.7949 164.28 70.048 165.395 72.1896C165.617 72.6358 166.264 72.3235 166.085 71.855C165.261 69.6019 164.191 67.4156 163.233 65.2071C163.01 64.6717 162.186 65.0733 162.431 65.5864Z" fill="white"/>
<path d="M108.681 64.0694C110.843 63.2663 113.428 62.6194 115.389 61.3478C115.767 61.1024 115.656 60.4332 115.121 60.5447C112.804 60.9686 110.442 62.3071 108.28 63.2217C107.723 63.4671 108.124 64.2702 108.681 64.0694Z" fill="white"/>
<path d="M107.567 61.7047C109.907 61.9724 112.781 60.9016 113.851 58.6708C114.029 58.2916 113.517 57.9792 113.227 58.2246C111.511 59.697 110.018 60.7455 107.656 60.7678C107.077 60.7678 106.965 61.6155 107.567 61.6824V61.7047Z" fill="white"/>
<path d="M103.422 60.277C107.433 59.6077 111.89 58.4923 115.166 55.9715C115.545 55.6815 115.143 55.1461 114.72 55.3022C110.865 56.7746 107.366 58.6039 103.288 59.4962C102.776 59.6077 102.909 60.3662 103.422 60.277Z" fill="white"/>
<path d="M95.9343 60.3885C98.7644 59.2508 101.595 58.18 104.269 56.7077C104.625 56.5069 104.469 55.86 104.046 55.9938C101.082 56.9084 98.3187 58.2023 95.4886 59.4516C94.8869 59.7193 95.3103 60.6339 95.9343 60.3885Z" fill="white"/>
<path d="M107.522 56.3061C111.712 54.3207 116.302 52.6252 120.18 50.0598C120.603 49.7698 120.135 49.2121 119.734 49.3459C115.389 50.8629 111.266 53.4507 107.166 55.5476C106.698 55.793 107.032 56.5069 107.522 56.2838V56.3061Z" fill="white"/>
<path d="M88.9146 57.9346C99.6557 55.793 110.352 51.666 119.155 45.0181C119.533 44.7281 119.11 44.0589 118.709 44.3043C109.082 49.9706 99.7226 54.4322 88.7809 57.1092C88.2684 57.2431 88.4021 58.0462 88.9369 57.9346H88.9146Z" fill="white"/>
<path d="M91.4552 52.8929C93.5277 51.5544 95.7784 50.8406 98.096 50.0598C98.564 49.9036 98.252 49.279 97.8509 49.3013C95.3104 49.4352 92.9483 50.6175 90.9204 52.0675C90.4747 52.3799 90.9873 53.183 91.4329 52.8706L91.4552 52.8929Z" fill="white"/>
<path d="M101.439 49.0113C108.659 46.5574 116.213 43.635 122.453 39.151C122.809 38.8833 122.43 38.3256 122.029 38.5041C115.01 41.8727 108.414 45.5758 101.06 48.2082C100.525 48.409 100.904 49.1898 101.439 49.0113Z" fill="white"/>
<path d="M93.5721 45.7766C102.04 43.3673 110.798 40.1103 118.04 34.9794C118.375 34.734 118.018 34.1986 117.639 34.3771C109.55 38.2587 101.906 42.2519 93.3492 45.0627C92.9481 45.1966 93.171 45.8658 93.5721 45.7543V45.7766Z" fill="white"/>
<path d="M95.2435 39.9988C99.9901 38.1695 104.804 36.4517 109.416 34.3325C109.884 34.1094 109.55 33.4624 109.082 33.6186C104.269 35.2471 99.589 37.3218 94.9092 39.2626C94.419 39.4634 94.7755 40.1995 95.2658 39.9988H95.2435Z" fill="white"/>
<path d="M129.829 23.6245C131.745 24.7622 133.795 26.1899 135.912 26.9038C136.314 27.0376 136.581 26.5246 136.247 26.2569C134.509 24.8514 132.191 23.9145 130.185 22.9106C129.784 22.7098 129.428 23.3791 129.807 23.6245H129.829Z" fill="white"/>
<path d="M130.787 21.639C133.84 23.3568 136.96 25.4091 140.213 26.6807C140.57 26.8146 140.815 26.3238 140.503 26.1007C137.651 24.0483 134.241 22.576 131.144 20.9475C130.743 20.7467 130.386 21.416 130.787 21.639Z" fill="white"/>
<path d="M131.567 19.0513C135.846 21.7506 140.169 24.5391 144.626 26.9484C144.982 27.1269 145.339 26.6584 145.005 26.413C140.837 23.5352 136.381 20.9921 132.013 18.4266C131.589 18.1813 131.144 18.7836 131.567 19.0736V19.0513Z" fill="white"/>
<path d="M132.169 14.9912C136.425 17.7797 140.681 20.5682 144.96 23.3122C145.428 23.6022 145.918 22.9106 145.45 22.6206C141.172 19.8544 136.871 17.1328 132.592 14.4111C132.191 14.1658 131.768 14.7458 132.169 15.0135V14.9912Z" fill="white"/>
<path d="M134.687 12.4703C137.784 13.7196 140.347 15.5489 143.133 17.3112C143.467 17.512 143.913 17.0882 143.623 16.7758C141.261 14.4558 138.007 12.8942 134.976 11.7119C134.486 11.5334 134.219 12.2696 134.709 12.4703H134.687Z" fill="white"/>
<path d="M136.225 9.77103C137.584 10.9311 138.899 12.2472 140.392 13.2288C140.748 13.4742 141.238 12.9834 140.927 12.6488C139.679 11.3326 138.119 10.2395 136.692 9.10178C136.269 8.76716 135.823 9.43641 136.225 9.77103Z" fill="white"/>
<path d="M42.7861 83.9238C45.2597 86.4669 47.7778 89.3447 50.6525 91.4417C51.009 91.7094 51.4547 91.2186 51.1873 90.8617C49.0257 88.0954 46.1065 85.6861 43.5215 83.2991C43.0981 82.8976 42.385 83.4553 42.8084 83.9015L42.7861 83.9238Z" fill="white"/>
<path d="M44.3681 80.3767C46.8417 84.593 50.63 88.8985 54.9978 91.2186C55.4212 91.4417 55.8223 90.9063 55.4435 90.5939C53.4824 88.8985 51.3877 87.3816 49.5827 85.5077C47.9113 83.7899 46.4629 81.8714 45.0589 79.9529C44.7915 79.596 44.1453 79.9975 44.3904 80.3991L44.3681 80.3767Z" fill="white"/>
<path d="M47.1537 79.306C50.1621 82.7637 53.215 86.3777 56.6022 89.4562C56.9142 89.7462 57.3153 89.2332 57.0925 88.9208C54.3069 85.3292 50.9643 82.0276 47.7776 78.7706C47.4211 78.3913 46.8194 78.9044 47.1537 79.306Z" fill="white"/>
<path d="M47.7555 75.1566C50.1845 77.7667 52.5689 80.6445 55.3099 82.9422C55.6219 83.2099 56.023 82.7191 55.7779 82.4291C53.6163 79.6406 50.8308 77.1644 48.3349 74.6659C48.0006 74.3312 47.399 74.7997 47.7555 75.1566Z" fill="white"/>
<path d="M50.9199 72.6358C52.3461 74.5766 53.75 76.6067 55.3545 78.4136C55.6887 78.7929 56.2013 78.3244 55.9339 77.9228C54.5968 75.8928 53.0369 74.0189 51.5216 72.1227C51.1873 71.7211 50.6079 72.2342 50.9199 72.6358Z" fill="white"/>
<path d="M47.0422 88.0285C48.1342 86.0431 48.6913 83.7899 49.4044 81.6483C50.1175 79.4844 50.8974 77.3205 51.254 75.0674C51.3431 74.532 50.6077 74.4651 50.4072 74.8666C49.3152 76.9859 48.669 79.3283 47.9559 81.6037C47.3096 83.6115 46.5074 85.6192 46.24 87.7162C46.1954 88.14 46.8417 88.43 47.0645 88.0285H47.0422Z" fill="white"/>
<path d="M48.8474 89.077C50.9198 86.8015 52.814 83.9461 53.5494 80.9122C53.6608 80.4883 53.0591 80.0421 52.7917 80.5106C51.2987 83.2099 49.9393 85.8869 48.1789 88.4524C47.8892 88.8762 48.4908 89.4785 48.8697 89.077H48.8474Z" fill="white"/>
<path d="M52.9923 88.6978C53.5494 87.8054 54.1956 86.9354 54.619 85.9761C54.8196 85.4854 54.1511 85.2177 53.8614 85.5746C53.2151 86.3331 52.7249 87.27 52.2123 88.14C51.9003 88.6754 52.6803 89.2332 53.0146 88.6978H52.9923Z" fill="white"/>
<path d="M42.8752 252.552C44.6579 249.451 46.5075 245.681 46.2401 242C46.1955 241.554 45.5047 241.51 45.371 241.911C44.2345 245.369 43.8111 248.827 42.0952 252.128C41.8724 252.574 42.63 252.976 42.8752 252.53V252.552Z" fill="white"/>
<path d="M40.5575 261.185C41.4266 260.315 42.3403 259.468 43.0757 258.464C43.3431 258.085 42.8305 257.638 42.474 257.928C41.5158 258.709 40.7135 259.668 39.9113 260.605C39.577 260.985 40.201 261.565 40.5575 261.208V261.185Z" fill="white"/>
<path d="M39.1759 232.876C38.8194 229.285 38.6634 225.425 37.7497 221.923C37.6383 221.521 36.9475 221.477 36.9475 221.945C36.9475 225.604 37.772 229.396 38.3291 233.01C38.4183 233.568 39.2205 233.412 39.1759 232.854V232.876Z" fill="white"/>
<path d="M46.6858 235.308C46.9532 231.114 46.7527 226.407 45.2819 222.436C45.1036 221.967 44.4128 222.235 44.4574 222.704C44.9922 226.942 45.7276 230.935 45.7722 235.241C45.7722 235.799 46.619 235.91 46.6635 235.33L46.6858 235.308Z" fill="white"/>
<path d="M37.1257 200.618C36.3012 198.142 36.3235 195.711 36.0338 193.167C35.9892 192.766 35.343 192.699 35.2316 193.101C34.6076 195.711 35.3653 198.588 36.3235 201.02C36.5463 201.578 37.304 201.176 37.148 200.641L37.1257 200.618Z" fill="white"/>
<path d="M34.1619 210.992C32.3346 204.567 31.7106 198.209 30.7747 191.628C30.7078 191.16 29.9279 191.182 29.9279 191.673C29.7942 198.209 31.4209 204.924 33.3374 211.148C33.4934 211.639 34.2956 211.527 34.1619 211.014V210.992Z" fill="white"/>
<path d="M42.2734 197.83C41.694 196.804 41.3374 195.711 41.3151 194.506C41.2929 193.413 41.6494 192.431 41.8277 191.36C41.9168 190.914 41.2706 190.736 41.0254 191.07C39.5547 193.101 40.1564 196.291 41.3151 198.298C41.6494 198.878 42.6076 198.432 42.2734 197.852V197.83Z" fill="white"/>
<path d="M49.8057 197.071C49.7611 195.041 49.7389 193.034 49.4937 191.026C49.4269 190.58 48.7138 190.602 48.6915 191.048C48.5578 193.034 48.6915 194.997 48.7583 196.96C48.7806 197.629 49.828 197.741 49.8057 197.049V197.071Z" fill="white"/>
<path d="M200.448 182.147C201.919 190.446 201.384 198.365 199.891 206.597C199.802 207.11 200.626 207.311 200.782 206.798C203.122 198.7 202.989 190.223 201.339 181.991C201.228 181.433 200.359 181.567 200.448 182.147Z" fill="white"/>
<path d="M200.582 232.921C200.961 226.741 202.053 220.45 202.075 214.271C202.075 213.78 201.317 213.513 201.183 214.07C199.69 220.071 199.735 226.674 199.69 232.832C199.69 233.412 200.56 233.501 200.604 232.921H200.582Z" fill="white"/>
<path d="M203.412 238.922C203.791 239.546 204.058 240.283 204.192 240.996C204.326 241.666 204.192 242.335 204.348 242.982C204.437 243.339 204.972 243.54 205.172 243.16C206.019 241.666 205.172 239.636 204.214 238.386C203.902 237.963 203.122 238.431 203.412 238.899V238.922Z" fill="white"/>
<path d="M178.788 257.527C180.726 260.07 182.777 262.613 185.05 264.866C185.384 265.179 185.852 264.777 185.584 264.42C183.735 261.788 181.573 259.356 179.389 257.014C179.033 256.635 178.453 257.125 178.788 257.527Z" fill="white"/>
<path d="M178.431 249.139C183.133 254.627 186.699 260.695 190.888 266.495C191.178 266.896 191.802 266.472 191.601 266.026C188.749 259.602 183.757 253.712 179.055 248.581C178.676 248.18 178.03 248.715 178.409 249.139H178.431Z" fill="white"/>
<path d="M187.077 252.061C190.153 257.148 193.094 262.524 196.704 267.231C197.016 267.633 197.685 267.209 197.44 266.74C194.699 261.475 191.066 256.523 187.768 251.593C187.501 251.191 186.832 251.637 187.077 252.039V252.061Z" fill="white"/>
<path d="M194.721 255.14C196.415 260.806 199.534 266.919 203.858 271.068C204.259 271.447 204.838 270.979 204.526 270.51C200.983 265.424 197.885 260.695 195.59 254.872C195.412 254.404 194.587 254.649 194.743 255.14H194.721Z" fill="white"/>
<path d="M203.145 263.595C204.66 267.186 205.952 271.001 207.847 274.414C208.047 274.771 208.716 274.615 208.56 274.191C207.401 270.443 205.529 266.807 203.969 263.215C203.724 262.658 202.899 263.059 203.122 263.617L203.145 263.595Z" fill="white"/>
<path d="M208.716 270.733C208.448 272.027 208.738 273.477 209.741 274.392C210.097 274.727 210.632 274.303 210.342 273.879C209.674 272.92 209.362 271.983 209.585 270.8C209.696 270.243 208.827 270.153 208.716 270.711V270.733Z" fill="white"/>
<path d="M21.2148 96.0818C21.0811 96.6395 20.8137 97.0634 20.7023 97.6434C20.5686 98.2903 20.4126 98.915 20.4126 99.5842C20.4126 100.053 21.0366 100.209 21.2148 99.7627C21.4377 99.2496 21.5491 98.7365 21.6605 98.1788C21.7942 97.5095 21.7719 96.8849 21.8834 96.238C21.9502 95.8587 21.304 95.7026 21.1926 96.0818H21.2148Z" fill="white"/>
<path d="M27.0087 92.4009C24.7579 96.6395 23.9557 101.592 24.8916 106.321C24.9808 106.812 25.6493 106.656 25.627 106.187C25.3596 101.458 26.0059 97.1749 27.6772 92.7579C27.8332 92.3563 27.2092 92.0217 27.0087 92.4009Z" fill="white"/>
<path d="M29.5046 95.7695C28.0115 100.811 27.4544 106.098 28.4572 111.274C28.5463 111.765 29.2372 111.608 29.1926 111.14C28.7915 105.964 28.9252 101.079 30.2177 96.0372C30.3514 95.5687 29.6383 95.2787 29.4823 95.7695H29.5046Z" fill="white"/>
<path d="M32.3791 99.9634C31.7329 102.752 31.3095 105.764 31.666 108.641C31.7106 109.065 32.3791 109.043 32.4014 108.619C32.5797 105.764 32.6911 102.997 33.2259 100.164C33.3151 99.6734 32.4905 99.495 32.3791 99.9634Z" fill="white"/>
<path d="M35.6773 102.484C35.6773 104.18 35.5436 106.009 35.8778 107.682C35.967 108.128 36.6132 108.106 36.6801 107.66C36.9029 105.987 36.6355 104.157 36.5464 102.462C36.5241 101.971 35.6773 102.016 35.6996 102.507L35.6773 102.484Z" fill="white"/>
<path d="M32.7358 86.8908C34.1397 84.9723 35.6996 83.1876 37.616 81.8045C39.5994 80.3768 41.7164 79.6406 43.9225 78.659C44.3682 78.4582 44.1454 77.789 43.6551 77.8559C38.9531 78.5252 34.3848 82.4291 32.0227 86.4223C31.7553 86.8908 32.3792 87.3369 32.7135 86.9131L32.7358 86.8908Z" fill="white"/>
<path d="M38.4629 85.0838C39.2429 84.3253 40.0674 83.5891 40.9588 82.9645C41.917 82.2953 43.0312 81.8937 44.0118 81.2691C44.4129 81.0237 44.2792 80.3545 43.7443 80.4437C41.449 80.8006 39.1983 82.7191 37.8167 84.4815C37.5047 84.883 38.1064 85.4407 38.4852 85.0838H38.4629Z" fill="white"/>
<path d="M131.188 99.1157C133.105 97.7549 135.289 96.3272 136.938 94.6541C137.227 94.3641 136.938 93.7394 136.514 93.9848C134.419 95.1672 132.481 96.9072 130.631 98.4465C130.185 98.8034 130.743 99.428 131.188 99.1157Z" fill="white"/>
<path d="M135.489 101.302C136.447 99.9634 137.472 98.6919 138.609 97.5095C139.656 96.4164 140.904 95.5018 141.952 94.4087C142.241 94.1187 141.952 93.5163 141.528 93.7394C138.765 95.2787 136.47 98.2011 134.776 100.811C134.464 101.28 135.155 101.77 135.489 101.302Z" fill="white"/>
<path d="M138.899 102.886C141.127 99.8742 143.846 97.8888 146.943 95.9033C147.322 95.6579 147.077 95.0556 146.631 95.2564C143.244 96.6841 140.369 99.495 138.252 102.44C137.94 102.864 138.609 103.31 138.921 102.908L138.899 102.886Z" fill="white"/>
<path d="M142.954 104.314C143.98 102.462 145.25 100.767 146.81 99.3165C148.392 97.8441 150.219 96.9072 152.046 95.7695C152.403 95.5464 152.292 94.8325 151.801 94.9664C147.567 96.171 144.091 100.075 142.152 103.89C141.907 104.358 142.709 104.76 142.954 104.314Z" fill="white"/>
<path d="M149.996 103.287C151.133 99.6511 153.74 97.1972 157.105 95.591C157.484 95.4125 157.306 94.721 156.86 94.8325C153.049 95.9256 150.219 99.205 149.105 102.953C148.927 103.533 149.818 103.867 149.996 103.287Z" fill="white"/>
<path d="M154.008 103.243C156.771 100.655 159.779 98.0895 162.164 95.1672C162.431 94.8325 161.941 94.431 161.629 94.6764C158.665 96.9741 156.08 99.9188 153.45 102.596C153.072 102.997 153.606 103.644 154.008 103.265V103.243Z" fill="white"/>
<path d="M159.289 104.648C160.916 101.28 163.233 98.7365 165.707 95.9926C166.041 95.6356 165.462 95.1895 165.105 95.4349C162.074 97.5765 159.913 100.967 158.398 104.291C158.152 104.849 159.022 105.161 159.289 104.626V104.648Z" fill="white"/>
<path d="M163.478 104.737C165.707 102.417 167.958 100.075 169.941 97.5318C170.208 97.1972 169.696 96.751 169.406 97.041C167.066 99.2496 164.927 101.703 162.832 104.157C162.498 104.537 163.144 105.139 163.501 104.76L163.478 104.737Z" fill="white"/>
<path d="M170.208 104.358C171.3 102.908 172.414 101.503 173.417 99.9857C173.685 99.5842 173.105 99.205 172.816 99.5619C171.657 100.945 170.609 102.44 169.54 103.867C169.228 104.291 169.896 104.76 170.208 104.336V104.358Z" fill="white"/>
<path d="M111.4 114.464C111.4 116.137 111.288 118.011 111.6 119.662C111.689 120.108 112.336 120.086 112.38 119.639C112.603 117.966 112.38 116.137 112.269 114.442C112.247 113.951 111.4 113.973 111.4 114.486V114.464Z" fill="white"/>
<path d="M114.742 113.505C114.742 115.735 114.564 118.189 115.01 120.398C115.099 120.844 115.745 120.822 115.812 120.376C116.124 118.167 115.767 115.713 115.634 113.482C115.611 112.969 114.742 113.014 114.742 113.527V113.505Z" fill="white"/>
<path d="M118.91 112.523C118.932 114.754 118.687 117.252 119.199 119.416C119.311 119.885 119.957 119.862 120.046 119.372C120.403 117.185 120.001 114.687 119.89 112.478C119.868 111.921 118.91 111.965 118.91 112.523Z" fill="white"/>
<path d="M123.166 112.389C123.121 114.642 123.032 117.052 123.455 119.282C123.545 119.729 124.191 119.706 124.235 119.26C124.525 117.029 124.28 114.598 124.079 112.367C124.035 111.854 123.166 111.876 123.143 112.411L123.166 112.389Z" fill="white"/>
<path d="M129.093 113.058C129.093 114.977 128.893 117.23 129.338 119.104C129.45 119.595 130.118 119.55 130.185 119.059C130.52 117.163 130.185 114.91 130.029 113.014C129.985 112.478 129.071 112.501 129.071 113.058H129.093Z" fill="white"/>
<path d="M133.35 112.925C133.372 114.665 133.372 116.382 133.595 118.122C133.64 118.546 134.33 118.524 134.353 118.1C134.464 116.36 134.353 114.642 134.264 112.902C134.241 112.389 133.328 112.411 133.328 112.947L133.35 112.925Z" fill="white"/>
<path d="M137.695 113.549C137.25 114.709 137.606 116.115 138.854 116.583C139.211 116.717 139.567 116.248 139.3 115.958C138.743 115.378 138.342 114.732 138.609 113.884C138.81 113.304 137.918 112.969 137.695 113.549Z" fill="white"/>
<path d="M137.985 113.906C139.121 114.442 140.191 115.222 141.372 115.602C141.818 115.735 142.174 115.133 141.773 114.865C140.704 114.152 139.389 113.795 138.23 113.259C137.807 113.058 137.584 113.728 137.985 113.928V113.906Z" fill="white"/>
<path d="M86.2184 116.137C85.8841 118.055 85.4161 120.264 85.5944 122.205C85.639 122.629 86.2852 122.673 86.4189 122.272C86.9983 120.398 87.0206 118.145 87.0875 116.204C87.0875 115.646 86.3298 115.579 86.2184 116.115V116.137Z" fill="white"/>
<path d="M91.2545 115.133C90.7642 118.1 89.7614 120.71 88.8478 123.543C88.7141 123.967 89.3157 124.324 89.5609 123.923C91.0985 121.357 91.767 118.145 92.079 115.222C92.1459 114.687 91.3213 114.62 91.2545 115.133Z" fill="white"/>
<path d="M96.1794 114.843C95.3994 117.699 94.4412 120.576 93.9287 123.499C93.8618 123.923 94.5081 124.056 94.664 123.655C95.6668 120.911 96.2462 117.944 96.9816 115.111C97.1153 114.598 96.3354 114.308 96.2017 114.821L96.1794 114.843Z" fill="white"/>
<path d="M99.5667 115.691C99.0765 117.944 98.3857 120.242 98.2074 122.539C98.1628 123.008 98.8536 123.186 99.0096 122.718C99.7673 120.509 100.057 118.078 100.48 115.78C100.592 115.178 99.6782 115.111 99.5667 115.691Z" fill="white"/>
<path d="M103.778 114.843C103.868 115.869 103.868 116.918 103.734 117.922C103.6 118.859 103.266 119.729 103.11 120.666C103.043 121.112 103.667 121.312 103.912 120.956C105.071 119.215 105.093 116.65 104.67 114.687C104.536 114.107 103.734 114.263 103.778 114.843Z" fill="white"/>
<path d="M107.344 116.315C107.099 117.989 106.698 119.729 106.653 121.424C106.653 121.848 107.299 122.049 107.411 121.602C107.834 119.907 107.968 118.122 108.235 116.405C108.324 115.847 107.455 115.758 107.366 116.315H107.344Z" fill="white"/>
<path d="M196.682 72.1227C201.718 79.7075 204.125 87.9839 203.679 97.0857C203.635 97.8665 204.838 97.978 204.883 97.1972C205.417 87.9393 202.877 78.9936 197.306 71.5873C196.972 71.1634 196.392 71.6988 196.682 72.1227Z" fill="white"/>
<path d="M197.729 87.3816C198.688 89.4785 199.378 91.6424 199.624 93.9179C199.869 96.2826 199.312 98.4019 199.312 100.722C199.312 101.079 199.824 101.391 200.047 100.99C202.209 96.8626 200.782 90.817 198.71 86.9131C198.376 86.2885 197.44 86.7346 197.729 87.3816Z" fill="white"/>
<path d="M195.122 93.5387C196.281 96.0372 196.058 98.2011 195.902 100.833C195.88 101.347 196.526 101.458 196.749 101.034C197.997 98.6249 197.284 95.3679 196.103 93.0925C195.791 92.4902 194.832 92.914 195.144 93.561L195.122 93.5387Z" fill="white"/>
<path d="M191.2 97.5095C191.2 99.1603 190.977 101.146 191.445 102.73C191.557 103.109 192.203 103.31 192.314 102.819C192.693 101.168 192.381 99.1826 192.27 97.4872C192.225 96.8849 191.2 96.9072 191.2 97.5318V97.5095Z" fill="white"/>
<path d="M188.615 68.2411C189.774 66.6572 191.401 65.4971 193.317 65.0956C195.1 64.7163 196.526 65.3187 198.242 65.6533C198.621 65.7202 198.911 65.1625 198.621 64.8948C195.479 61.8832 189.573 64.2925 187.768 67.6387C187.479 68.1964 188.192 68.7541 188.593 68.2187L188.615 68.2411Z" fill="white"/>
<path d="M188.08 73.4389C190.732 69.2226 195.256 67.3487 200.114 67.728C200.871 67.7949 200.938 66.7241 200.225 66.5902C195.055 65.6087 189.863 68.4641 187.389 72.9704C187.144 73.4389 187.768 73.9074 188.058 73.4389H188.08Z" fill="white"/>
<path d="M189.863 75.9597C193.05 72.2788 197.284 71.3865 201.896 72.3012C202.498 72.4127 202.654 71.5204 202.119 71.2973C197.529 69.3118 191.846 71.4534 189.038 75.402C188.66 75.9374 189.439 76.4505 189.863 75.982V75.9597Z" fill="white"/>
<path d="M190.398 80.0421C195.323 76.9413 199.891 77.2536 205.306 78.4359C205.774 78.5252 206.019 77.8113 205.618 77.5659C200.738 74.7774 194.253 76.2051 189.841 79.1944C189.373 79.5067 189.908 80.3321 190.376 80.0198L190.398 80.0421Z" fill="white"/>
<path d="M194.186 82.6522C195.546 81.4252 197.44 80.8229 199.267 80.9568C201.139 81.0906 202.32 82.0499 203.813 83.0314C204.17 83.2545 204.66 82.8753 204.459 82.496C202.431 78.5475 196.281 79.2613 193.674 82.0053C193.317 82.3845 193.807 83.0091 194.208 82.6299L194.186 82.6522Z" fill="white"/>
<path d="M196.548 86.0877C197.573 85.7754 198.576 85.7307 199.624 85.9984C200.626 86.2661 201.295 86.8908 202.164 87.3816C202.498 87.56 202.988 87.27 202.766 86.8685C201.607 84.7046 198.309 84.5038 196.259 85.24C195.791 85.4184 196.036 86.2438 196.526 86.0877H196.548Z" fill="white"/>
<path d="M64.7584 239.033C65.9172 242.424 66.8754 245.993 68.3462 249.25C68.5022 249.607 69.1261 249.429 69.0147 249.027C68.1456 245.525 66.6971 242.09 65.5161 238.654C65.3378 238.141 64.6024 238.52 64.7584 239.011V239.033Z" fill="white"/>
<path d="M71.8004 228.593C72.6472 237.249 74.9648 246.172 79.0874 253.891C79.3325 254.337 79.9788 254.024 79.8005 253.556C76.6584 245.28 74.0734 237.204 72.5358 228.481C72.4467 227.991 71.7336 228.125 71.7781 228.615L71.8004 228.593Z" fill="white"/>
<path d="M80.6249 225.76C81.1597 234.527 83.4327 243.45 87.845 251.08C88.0901 251.504 88.7364 251.214 88.5358 250.745C84.948 242.536 82.3853 234.549 81.3602 225.626C81.2934 225.135 80.5803 225.291 80.6026 225.76H80.6249Z" fill="white"/>
<path d="M88.0902 214.048C88.7142 219.134 89.6947 224.265 90.8312 229.262C90.9426 229.775 91.7003 229.642 91.6334 229.128C90.9649 224.042 90.0958 218.911 88.8925 213.914C88.7588 213.401 88.0234 213.535 88.0902 214.048Z" fill="white"/>
<path d="M94.0846 236.736C94.5749 241.956 96.4022 247.332 100.057 251.214C100.391 251.571 100.904 251.124 100.636 250.723C97.6501 246.284 95.5108 241.978 94.8868 236.602C94.82 236.089 94.04 236.222 94.0846 236.736Z" fill="white"/>
<path d="M98.9204 213.624C99.3661 226.786 102.932 239.613 110.063 250.723C110.397 251.236 111.244 250.857 110.932 250.299C104.447 238.743 100.525 226.853 99.6781 213.58C99.6558 213.156 98.8981 213.178 98.9204 213.602V213.624Z" fill="white"/>
<path d="M107.544 218.443C109.728 228.504 113.093 238.587 117.974 247.667C118.241 248.18 119.021 247.823 118.798 247.287C114.653 237.762 111.043 228.392 108.414 218.309C108.28 217.774 107.433 217.907 107.567 218.465L107.544 218.443Z" fill="white"/>
<path d="M119.066 218.064C120.848 225.961 123.612 234.125 127.6 241.175C127.868 241.621 128.536 241.309 128.336 240.818C125.261 233.189 122.252 225.827 119.845 217.93C119.69 217.439 118.932 217.55 119.066 218.064Z" fill="white"/>
<path d="M130.052 219.09C131.032 226.63 134.063 234.014 139.612 239.346C139.968 239.68 140.525 239.234 140.213 238.833C135.4 232.832 132.057 226.63 130.943 218.934C130.854 218.354 129.985 218.51 130.074 219.09H130.052Z" fill="white"/>
<path d="M139.924 224.198C142.665 229.173 145.294 234.237 148.258 239.056C148.503 239.457 149.149 239.167 148.927 238.743C146.408 233.657 143.489 228.771 140.704 223.819C140.436 223.328 139.656 223.708 139.924 224.198Z" fill="white"/>
<path d="M151.779 228.593C153.116 232.943 155.322 236.892 158.62 240.059C158.955 240.394 159.534 239.948 159.2 239.569C156.236 236.312 153.941 232.653 152.626 228.437C152.47 227.924 151.623 228.058 151.779 228.593Z" fill="white"/>
<path d="M162.253 230.958C164.013 233.434 165.707 235.999 167.601 238.386C167.846 238.699 168.448 238.342 168.225 237.985C166.576 235.375 164.704 232.899 162.921 230.4C162.587 229.932 161.918 230.512 162.253 230.98V230.958Z" fill="white"/>
<path d="M170.943 230.668C171.411 231.493 171.879 232.318 172.347 233.144C172.548 233.523 173.15 233.233 172.949 232.854C172.503 232.028 172.058 231.181 171.612 230.355C171.389 229.932 170.698 230.266 170.943 230.668Z" fill="white"/>
</g>
<defs>
<clipPath id="clip0_97_589">
<rect width="231" height="288" fill="white"/>
</clipPath>
</defs>
</svg>
