<svg width="46" height="47" viewBox="0 0 46 47" fill="none" xmlns="http://www.w3.org/2000/svg">
<path d="M23 0.0889282C10.2987 0.0889282 0 10.3876 0 23.0889C0 35.7903 10.2987 46.0889 23 46.0889C35.7013 46.0889 46 35.7903 46 23.0889C46 10.3876 35.7013 0.0889282 23 0.0889282ZM34.0533 17.4262C34.0688 17.6675 34.0687 17.9191 34.0687 18.1655C34.0687 25.7021 28.329 34.3836 17.8404 34.3836C14.606 34.3836 11.6078 33.4441 9.08192 31.8269C9.54397 31.8782 9.98549 31.8988 10.4578 31.8988C13.1275 31.8988 15.5815 30.9952 17.5375 29.4653C15.0321 29.4139 12.9272 27.7711 12.2085 25.5121C13.0864 25.6405 13.877 25.6405 14.7806 25.4095C13.4906 25.1474 12.3311 24.4468 11.4991 23.4267C10.6671 22.4065 10.2139 21.1299 10.2165 19.8135V19.7416C10.9712 20.1677 11.8594 20.4296 12.7886 20.4655C12.0075 19.9449 11.3668 19.2396 10.9235 18.4121C10.4802 17.5846 10.248 16.6605 10.2473 15.7217C10.2473 14.659 10.5246 13.6887 11.0225 12.8467C12.4544 14.6094 14.2412 16.051 16.2667 17.0779C18.2922 18.1049 20.5111 18.694 22.7792 18.8072C21.9732 14.9311 24.8688 11.7943 28.3496 11.7943C29.9924 11.7943 31.471 12.4822 32.5132 13.5912C33.8018 13.3499 35.0339 12.8673 36.1326 12.2204C35.7065 13.5398 34.8132 14.6539 33.6272 15.3572C34.7772 15.234 35.8862 14.9157 36.9129 14.4691C36.1377 15.6088 35.1674 16.6202 34.0533 17.4262Z" fill="white"/>
</svg>
